<?xml version="1.0" encoding="utf-8"?>
<!-- Generator: Adobe Illustrator 16.1.0, SVG Export Plug-In . SVG Version: 6.00 Build 0)  -->
<!DOCTYPE svg PUBLIC "-//W3C//DTD SVG 1.1//EN" "http://www.w3.org/Graphics/SVG/1.1/DTD/svg11.dtd">
<svg version="1.1" id="Layer_2" xmlns="http://www.w3.org/2000/svg" xmlns:xlink="http://www.w3.org/1999/xlink" x="0px" y="0px"
	 width="76.477px" height="58.449px" viewBox="0 0 76.477 58.449" enable-background="new 0 0 76.477 58.449" xml:space="preserve">
<g>
	<g>
		<g>
			<path fill="#FFFFFF" d="M73.255,1.611c0-0.89,0.722-1.611,1.612-1.611l0,0c0.89,0,1.608,0.721,1.608,1.611l0,0
				c0,0.889-0.72,1.611-1.608,1.611l0,0C73.977,3.223,73.255,2.5,73.255,1.611L73.255,1.611z M73.588,1.611
				c0.001,0.706,0.572,1.276,1.279,1.278l0,0c0.704-0.002,1.274-0.572,1.277-1.278l0,0c-0.003-0.705-0.573-1.276-1.277-1.278l0,0
				C74.16,0.335,73.589,0.906,73.588,1.611L73.588,1.611z"/>
			<g>
				<path fill="#FFFFFF" d="M75.474,2.42H75.32c-0.061,0-0.092-0.009-0.138-0.059l-0.436-0.547h-0.115v0.518
					c0,0.065-0.027,0.088-0.083,0.088H74.44c-0.072,0-0.097-0.014-0.097-0.088V0.884c0-0.078,0.046-0.08,0.097-0.08h0.468
					c0.265,0,0.32,0.015,0.414,0.109c0.085,0.086,0.124,0.236,0.124,0.451c0,0.273-0.109,0.425-0.355,0.444l0.415,0.495
					C75.551,2.361,75.543,2.42,75.474,2.42z M75.081,1.061c-0.065-0.032-0.366-0.016-0.449-0.016v0.529h0.309
					c0.107,0,0.16-0.018,0.19-0.055c0.017-0.028,0.034-0.058,0.034-0.177C75.165,1.164,75.136,1.09,75.081,1.061z"/>
			</g>
		</g>
		<g>
			<path fill="#FFFFFF" d="M34.461,27.18c0.002,0.003,0.004,0.004,0.005,0.005l-0.001-0.001L34.461,27.18z M53.855,27.548
				l-0.121-0.21L40.072,3.674l-0.238-0.412c-1.158-2.008-3.38-3.249-5.85-3.249H22.72c-1.258,0-2.276,1.021-2.276,2.276
				c0,0.39,0.091,0.766,0.271,1.077l13.752,23.818c0.63,1.072,0.988,2.316,0.988,3.647c0,1.291-0.339,2.502-0.935,3.551
				L22.564,55.097c-0.181,0.311-0.271,0.686-0.271,1.076c0,1.257,1.02,2.275,2.275,2.275H36.13c2.466,0,4.688-1.24,5.847-3.248
				l0.238-0.414l11.498-19.916l0.215-0.369c0.585-1.016,0.856-2.178,0.856-3.412C54.784,29.8,54.453,28.586,53.855,27.548z"/>
		</g>
		<g>
			<path fill="#FFFFFF" d="M22.089,37.169c-0.21,0-0.42,0.086-0.613,0.121c-0.646,0.141-1.364,0.28-2.134,0.28
				c-0.421,0-0.805-0.088-1.052-0.192c-0.542-0.244-0.594-0.928-0.577-1.803h4.271c0.612,0,0.736-0.104,0.736-1.068
				c0-1.119-0.106-2.223-0.646-3.008c-0.51-0.719-1.386-1.086-2.836-1.086c-1.539,0-2.504,0.402-3.026,1.154
				c-0.546,0.771-0.701,1.803-0.701,3.342c0,1.734,0.244,2.871,0.979,3.555c0.578,0.543,1.524,0.82,2.836,0.82
				c0.753,0,1.785-0.068,2.642-0.228c0.543-0.089,0.631-0.365,0.631-0.771c0-0.191,0-0.402-0.034-0.576
				C22.508,37.483,22.351,37.169,22.089,37.169z M17.713,33.878c0-1.277,0.263-1.715,1.523-1.715c1.188,0,1.346,0.455,1.346,1.539
				c0,0,0,0.209,0,0.332h-2.869V33.878z M11.461,30.414c-0.946,0-1.785,0.313-2.364,0.596V27.77c0-0.331-0.141-0.752-0.682-0.752
				H7.627c-0.506,0-0.771,0.158-0.771,0.752v10.589c0,0.42,0.141,0.699,0.633,0.699h0.927c0.541,0,0.682-0.299,0.682-0.787v-4.012
				c0-1.254,0.261-1.682,1.496-1.682c1.169,0,1.324,0.445,1.324,1.51c0,0,0,0.207,0,0.328h-0.005
				c0.003,0.168,0.005,0.359,0.005,0.576v3.278c0,0.524,0.174,0.787,0.628,0.787h0.929c0.542,0,0.682-0.298,0.682-0.787v-5.371
				C14.155,31.761,13.612,30.414,11.461,30.414z"/>
			<g>
				<path fill="#FFFFFF" d="M5.04,32.512H3.149v3.521c0,0.819,0.037,1.137,0.106,1.275c0.054,0.088,0.141,0.141,0.263,0.141
					c0.49,0,1.031-0.262,1.437-0.262c0.384,0,0.475,0.297,0.475,0.488v0.629c0,0.648-0.178,0.824-0.736,0.877
					c-0.562,0.053-0.945,0.087-1.523,0.087c-1.855,0-2.257-0.685-2.257-2.767v-3.989h-0.49C0.087,32.512,0,32.285,0,32.005v-0.754
					c0-0.438,0.175-0.576,0.473-0.576h0.438v-1.418c0-0.595,0.246-0.771,0.752-0.771H2.45c0.543,0,0.698,0.438,0.698,0.771v1.418
					h1.719c0.384,0,0.596,0.053,0.596,0.562v0.611C5.463,32.441,5.355,32.512,5.04,32.512z"/>
			</g>
		</g>
		<g>
			<path fill="#FFFFFF" d="M46.239,52.931l1.343,2.271l1.27,0.731c0.175,0.103,0.21,0.231,0.111,0.401l-0.146,0.254
				c-0.112,0.195-0.217,0.254-0.423,0.134l-1.222-0.705l-2.782-0.033c-0.079,0.005-0.152-0.008-0.206-0.04
				c-0.146-0.083-0.107-0.242-0.054-0.339l0.183-0.315c0.103-0.179,0.2-0.199,0.342-0.197l1.906,0.039l-0.981-1.653
				c-0.071-0.12-0.098-0.214,0.005-0.392l0.149-0.26c0.089-0.154,0.211-0.176,0.324-0.109
				C46.129,52.757,46.201,52.862,46.239,52.931z"/>
			<path fill="#FFFFFF" d="M52.183,50.757l-0.143,0.248c-0.102,0.177-0.229,0.189-0.4,0.107l-2.49-1.232
				c0.104,0.121,0.251,0.287,0.365,0.414c0.444,0.524,0.931,1.064,1.215,1.427c0.113,0.146,0.154,0.263,0.043,0.454l-0.089,0.156
				c-0.11,0.193-0.229,0.213-0.413,0.187c-0.455-0.067-1.172-0.205-1.85-0.328c-0.172-0.028-0.382-0.087-0.538-0.114l2.312,1.541
				c0.159,0.106,0.212,0.225,0.109,0.399l-0.145,0.248c-0.105,0.182-0.23,0.274-0.438,0.131L46.46,52.11
				c-0.2-0.142-0.148-0.282-0.066-0.425l0.188-0.323c0.096-0.165,0.195-0.219,0.356-0.194c0.67,0.096,1.841,0.322,2.741,0.479
				c-0.586-0.697-1.371-1.6-1.789-2.134c-0.098-0.128-0.103-0.24-0.008-0.405l0.188-0.324c0.082-0.141,0.182-0.258,0.4-0.152
				l3.609,1.682C52.308,50.419,52.29,50.574,52.183,50.757z"/>
			<path fill="#FFFFFF" d="M54.033,47.666c-0.132,0.265-0.202,0.416-0.36,0.688c-0.127,0.221-0.296,0.475-0.472,0.654
				c-0.676,0.705-1.488,0.479-2.512-0.109c-1.732-1.002-1.739-1.738-1.074-2.889c0.156-0.27,0.254-0.412,0.418-0.655
				c0.157-0.231,0.252-0.263,0.383-0.187l0.194,0.111c0.211,0.122,0.263,0.199,0.152,0.387c-0.127,0.219-0.217,0.31-0.396,0.621
				c-0.109,0.188-0.271,0.506-0.29,0.69c-0.047,0.437,0.411,0.718,1.092,1.106c0.668,0.387,1.206,0.652,1.597,0.193
				c0.078-0.097,0.188-0.255,0.291-0.438c0.18-0.312,0.213-0.436,0.338-0.655c0.109-0.188,0.201-0.183,0.413-0.06l0.196,0.112
				C54.134,47.314,54.155,47.414,54.033,47.666z"/>
			<path fill="#FFFFFF" d="M56.195,43.809l-0.187,0.323c-0.105,0.183-0.224,0.187-0.367,0.158l-0.887-0.166
				c-0.143,0.258-0.249,0.445-0.399,0.705c-0.145,0.248-0.269,0.469-0.396,0.674l0.56,0.642c0.129,0.144,0.189,0.242,0.073,0.442
				l-0.154,0.271c-0.118,0.202-0.188,0.2-0.277,0.149c-0.034-0.021-0.097-0.08-0.152-0.153l-2.677-3.157
				c-0.146-0.171-0.191-0.283-0.066-0.5l0.141-0.242c0.127-0.22,0.247-0.236,0.462-0.199l4.174,0.711
				c0.037,0.006,0.072,0.013,0.104,0.029C56.287,43.58,56.25,43.712,56.195,43.809z M52.354,43.664l1.117,1.279
				c0.079-0.138,0.166-0.3,0.265-0.47c0.105-0.185,0.185-0.304,0.28-0.476L52.354,43.664z"/>
		</g>
	</g>
	<path fill="#FFFFFF" d="M68.731,0.013h-22.01c-1.63,0-2.948,1.321-2.948,2.948c0,0.509,0.108,0.983,0.353,1.401l11.047,19.135
		c0.509,0.883,1.463,1.479,2.556,1.479c1.091,0,2.044-0.596,2.555-1.479L71.326,4.362c0.241-0.418,0.354-0.893,0.354-1.401
		C71.681,1.334,70.36,0.013,68.731,0.013z"/>
</g>
</svg>
