<?xml version="1.0" encoding="utf-8"?>
<!-- Generator: Adobe Illustrator 16.1.0, SVG Export Plug-In . SVG Version: 6.00 Build 0)  -->
<!DOCTYPE svg PUBLIC "-//W3C//DTD SVG 1.1//EN" "http://www.w3.org/Graphics/SVG/1.1/DTD/svg11.dtd">
<svg version="1.1" id="Layer_1" xmlns="http://www.w3.org/2000/svg" xmlns:xlink="http://www.w3.org/1999/xlink" x="0px" y="0px"
	 width="337.531px" height="276.099px" viewBox="0 0 337.531 276.099" enable-background="new 0 0 337.531 276.099"
	 xml:space="preserve">
<path fill="#00A98F" d="M337.493,143.704c0,73.114-57.897,132.395-129.316,132.395s-129.32-59.28-129.32-132.395
	c0-73.125,57.901-132.396,129.32-132.396S337.493,70.579,337.493,143.704"/>
<path fill="#5AB7B2" d="M337.531,140.502c0,71.438-56.459,129.359-126.104,129.359c-69.646,0-126.109-57.921-126.109-129.359
	c0-71.449,56.463-129.361,126.109-129.361C281.072,11.141,337.531,69.053,337.531,140.502"/>
<path fill="#006852" d="M253.35,200.802c-7.211,13.462-24.249,16.331-38.018,17.214V231.7c0,3.972-0.65,6.4-5.023,6.4h-3.276
	c-4.804,0-4.369-1.987-4.369-6.4v-13.463c-8.955-0.222-17.913-0.663-26.654-1.546c-6.771-0.66-13.541-1.545-13.541-9.931v-7.284
	c0-8.827,1.31-12.798,10.705-12.798c9.831,0,19.66,1.545,29.49,1.763v-33.546c-4.151-1.764-8.304-3.529-12.452-5.296
	c-21.848-9.269-28.836-17.435-28.836-41.712c0-21.187,7.863-36.636,30.149-39.725c3.711-0.442,7.428-0.663,11.139-0.884V53.376
	c0-6.621,2.185-5.959,7.646-5.959c3.498,0,5.023,2.648,5.023,5.959v13.903c8.525,0,17.263,0.441,25.783,1.103
	c6.771,0.442,13.765,1.546,13.765,9.933v7.062c0,8.829-1.53,12.801-10.922,12.801c-9.616,0-19.009-1.104-28.626-1.104v30.456
	l3.938,1.546c11.36,4.415,31.021,11.034,36.047,23.614c2.181,5.298,2.402,11.478,2.402,17.216
	C257.72,178.733,257.499,193.077,253.35,200.802 M202.664,96.854h-0.875c-7.429,0-9.389,2.206-9.389,9.268v2.869
	c0,9.49,1.309,10.151,10.264,13.241V96.854z M215.333,160.193v28.248c12.894-0.663,11.363-5.737,11.363-16.993
	C226.696,162.4,221.89,163.504,215.333,160.193"/>
<g>
	<path fill="#FFFFFF" d="M5.491,58.666v0.868c0,0.252-0.028,0.406-0.308,0.406h-0.21c-0.308,0-0.28-0.126-0.28-0.406V58.68
		c-0.63-0.014-1.261-0.056-1.891-0.112c-0.196-0.014-0.49,0-0.49-0.266v-0.49c0-0.238-0.028-0.463,0.28-0.463
		c0.35,0,0.672,0.042,1.022,0.07c0.364,0.028,0.714,0.042,1.079,0.042v-3.18c-0.224-0.098-0.462-0.196-0.687-0.308
		c-1.415-0.659-1.597-0.911-1.597-2.494c0-0.672,0-1.387,0.532-1.877c0.462-0.434,1.148-0.476,1.751-0.504v-0.883
		c0-0.406,0.154-0.378,0.49-0.378c0.224,0,0.308,0.182,0.308,0.378v0.883c0.518,0,1.037,0.028,1.555,0.07
		c0.196,0.014,0.49,0,0.49,0.266v0.49c0,0.238,0.028,0.463-0.28,0.463c-0.238,0-0.477-0.028-0.729-0.057
		c-0.252-0.014-0.519-0.014-0.785-0.014H5.491v2.886l0.028,0.014c0.406,0.21,0.827,0.393,1.219,0.631
		c0.854,0.49,0.98,0.952,0.98,1.919C7.718,57.573,7.564,58.554,5.491,58.666z M4.692,50.304c-0.98,0.014-0.953,0.504-0.953,1.316
		c0,0.854,0.182,0.91,0.953,1.232V50.304z M5.491,54.632v2.815c0.771-0.07,0.896-0.448,0.896-1.177
		C6.387,55.22,6.457,55.052,5.491,54.632z"/>
	<path fill="#FFFFFF" d="M11.567,58.735c-0.827,0-1.681-0.153-2.452-0.448c-0.112-0.042-0.378-0.126-0.378-0.279
		c0-0.154,0.168-0.631,0.21-0.799c0.028-0.084,0.084-0.21,0.182-0.21c0.042,0,0.084,0.014,0.126,0.028
		c0.771,0.279,1.541,0.532,2.367,0.532c1.163,0,1.499-0.631,1.499-1.709c0-1.598-1.163-1.485-2.367-1.513c-0.28,0-0.574,0-0.854,0
		c-0.182,0-0.21-0.015-0.21-0.196v-0.687c0-0.183,0.056-0.21,0.238-0.21h0.896c1.429,0,1.961-0.267,1.961-1.766
		c0-1.092-0.518-1.358-1.541-1.358c-0.378,0-0.756,0.042-1.121,0.098c-0.21,0.028-0.462,0.112-0.659,0.112
		c-0.126,0-0.14-0.084-0.154-0.196c-0.028-0.237-0.07-0.49-0.07-0.742c0-0.084,0.014-0.126,0.084-0.182
		c0.182-0.154,1.611-0.196,1.877-0.196c1.709,0,2.843,0.462,2.843,2.354c0,0.938-0.21,1.625-1.008,2.171
		c1.134,0.42,1.387,1.135,1.387,2.283C14.424,57.797,13.556,58.735,11.567,58.735z"/>
	<path fill="#FFFFFF" d="M16.633,58.904l-0.757-0.757c-0.042-0.042-0.07-0.112-0.07-0.182c0-0.07,0.028-0.141,0.07-0.183
		l0.757-0.756c0.042-0.043,0.112-0.07,0.168-0.07c0.07,0,0.14,0.027,0.182,0.07l0.756,0.756c0.042,0.042,0.07,0.112,0.07,0.183
		c0,0.069-0.028,0.14-0.07,0.182l-0.756,0.757c-0.042,0.042-0.112,0.069-0.168,0.069C16.745,58.974,16.675,58.946,16.633,58.904z"/>
	<path fill="#FFFFFF" d="M24.798,58.554h-4.958c-0.28,0-0.322-0.07-0.322-0.351v-0.504c0-0.448,0.49-0.868,0.771-1.177l1.387-1.541
		c0.322-0.35,0.645-0.7,0.925-1.064c0.546-0.7,1.148-1.499,1.148-2.423c0-0.967-0.28-1.317-1.261-1.317
		c-0.49,0-0.98,0.042-1.457,0.127c-0.21,0.042-0.476,0.126-0.686,0.126c-0.21,0-0.21-0.211-0.238-0.364
		c-0.028-0.183-0.056-0.379-0.056-0.547c0-0.252,0.154-0.28,0.351-0.322c0.672-0.126,1.387-0.182,2.073-0.182
		c1.541,0,2.634,0.546,2.634,2.228c0,0.84-0.322,1.807-0.771,2.521c-0.364,0.575-0.854,1.093-1.317,1.583
		c-0.714,0.729-1.443,1.443-2.185,2.144c1.317-0.056,2.647-0.141,3.964-0.141c0.336,0,0.351,0.169,0.351,0.448v0.393
		C25.148,58.47,25.078,58.554,24.798,58.554z"/>
	<path fill="#FFFFFF" d="M33.392,58.75c-0.7,0-1.499-0.057-2.185-0.196c-0.266-0.056-0.462-0.084-0.462-0.393v-8.586
		c0-0.322,0.056-0.379,0.364-0.379h0.616c0.238,0,0.308,0.169,0.308,0.379v2.451c0.645-0.112,1.303-0.196,1.961-0.196
		c2.059,0,2.255,1.751,2.255,3.418C36.25,57.405,35.788,58.75,33.392,58.75z M34.793,53.651c-0.154-0.631-0.462-0.757-1.079-0.757
		c-0.546,0-1.149,0.112-1.681,0.238v4.412c0.448,0.084,0.925,0.168,1.387,0.168c0.588,0,1.149-0.153,1.345-0.771
		c0.154-0.476,0.182-1.218,0.182-1.723C34.947,54.701,34.919,54.155,34.793,53.651z"/>
	<path fill="#FFFFFF" d="M38.865,50.976h-0.546c-0.378,0-0.476,0-0.476-0.406v-0.504c0-0.309,0.056-0.379,0.364-0.379h0.658
		c0.224,0,0.308,0.183,0.308,0.379v0.504C39.173,50.821,39.146,50.976,38.865,50.976z M38.865,58.554h-0.546
		c-0.378,0-0.476,0-0.476-0.406v-5.729c0-0.308,0.056-0.378,0.364-0.378h0.658c0.224,0,0.308,0.183,0.308,0.378v5.729
		C39.173,58.399,39.146,58.554,38.865,58.554z"/>
	<path fill="#FFFFFF" d="M41.973,58.554h-0.561c-0.364,0-0.42-0.042-0.42-0.406v-8.572c0-0.309,0.056-0.379,0.364-0.379h0.617
		c0.224,0,0.308,0.183,0.308,0.379v8.572C42.281,58.399,42.253,58.554,41.973,58.554z"/>
	<path fill="#FFFFFF" d="M45.011,58.554h-0.561c-0.364,0-0.42-0.042-0.42-0.406v-8.572c0-0.309,0.056-0.379,0.364-0.379h0.617
		c0.224,0,0.308,0.183,0.308,0.379v8.572C45.319,58.399,45.291,58.554,45.011,58.554z"/>
	<path fill="#FFFFFF" d="M48.161,50.976h-0.546c-0.378,0-0.476,0-0.476-0.406v-0.504c0-0.309,0.056-0.379,0.364-0.379h0.658
		c0.224,0,0.308,0.183,0.308,0.379v0.504C48.469,50.821,48.441,50.976,48.161,50.976z M48.161,58.554h-0.546
		c-0.378,0-0.476,0-0.476-0.406v-5.729c0-0.308,0.056-0.378,0.364-0.378h0.658c0.224,0,0.308,0.183,0.308,0.378v5.729
		C48.469,58.399,48.441,58.554,48.161,58.554z"/>
	<path fill="#FFFFFF" d="M52.992,58.735c-2.269,0-2.941-1.387-2.941-3.445c0-2.073,0.658-3.46,2.941-3.46
		c2.27,0,2.942,1.415,2.942,3.46S55.247,58.735,52.992,58.735z M54.351,53.483c-0.308-0.575-0.756-0.589-1.359-0.589
		c-0.602,0-1.05,0.014-1.358,0.589c-0.252,0.49-0.28,1.261-0.28,1.807s0.028,1.316,0.28,1.807c0.294,0.574,0.77,0.574,1.358,0.574
		s1.064-0.014,1.359-0.574c0.252-0.476,0.28-1.274,0.28-1.807C54.631,54.744,54.603,53.974,54.351,53.483z"/>
	<path fill="#FFFFFF" d="M62.457,58.554h-0.49c-0.392,0-0.49,0.014-0.49-0.406V54.38c0-0.238,0.014-1.093-0.14-1.289
		c-0.154-0.183-0.406-0.21-0.63-0.21c-0.812,0-1.359,0.462-1.961,0.938v4.328c0,0.252-0.028,0.406-0.308,0.406h-0.49
		c-0.393,0-0.49,0.014-0.49-0.406v-5.729c0-0.321,0.056-0.378,0.364-0.378h0.617c0.35,0,0.308,0.364,0.308,0.603
		c0.7-0.519,1.219-0.826,2.129-0.826c1.205,0,1.891,0.602,1.891,1.807v4.524C62.765,58.399,62.737,58.554,62.457,58.554z"/>
</g>
<g>
	<path fill="#FFFFFF" d="M8.404,75.27c-0.588,0.21-1.485,0.266-2.115,0.266c-0.532,0-1.092-0.042-1.611-0.168
		c-2.045-0.532-2.171-2.829-2.171-4.58c0-1.527,0.056-3.866,1.708-4.58c0.63-0.267,1.401-0.309,2.073-0.309s1.345,0.042,2.017,0.112
		c0.182,0.014,0.49,0,0.49,0.266v0.49c0,0.238,0.028,0.463-0.28,0.463c-0.294,0-0.588-0.057-0.896-0.084
		c-0.35-0.028-0.714-0.028-1.064-0.028c-0.448,0-1.205,0.042-1.611,0.224c-1.079,0.49-1.008,2.494-1.008,3.475
		c0,1.219-0.028,3.123,1.499,3.432c0.364,0.07,0.756,0.07,1.121,0.07c0.308,0,0.603-0.057,0.896-0.127v-3.193H5.813
		c-0.435,0-0.35-0.336-0.35-0.645c0-0.28,0.014-0.448,0.35-0.448h2.661c0.28,0,0.351,0.099,0.351,0.364v4.469
		C8.825,75.087,8.727,75.157,8.404,75.27z"/>
	<path fill="#FFFFFF" d="M11.636,67.775h-0.546c-0.378,0-0.476,0-0.476-0.406v-0.504c0-0.309,0.056-0.379,0.364-0.379h0.658
		c0.224,0,0.308,0.183,0.308,0.379v0.504C11.944,67.621,11.916,67.775,11.636,67.775z M11.636,75.354h-0.546
		c-0.378,0-0.476,0-0.476-0.406v-5.729c0-0.308,0.056-0.378,0.364-0.378h0.658c0.224,0,0.308,0.183,0.308,0.378v5.729
		C11.944,75.199,11.916,75.354,11.636,75.354z"/>
	<path fill="#FFFFFF" d="M16.691,74.989c-0.084,0.252-0.154,0.364-0.435,0.364h-0.644c-0.308,0-0.336-0.084-0.435-0.364
		l-2.059-5.869c-0.014-0.056-0.028-0.098-0.028-0.154c0-0.126,0.126-0.126,0.224-0.126h0.798c0.28,0,0.322,0.057,0.406,0.322
		l1.429,4.608l1.443-4.595c0.084-0.266,0.126-0.336,0.406-0.336h0.756c0.098,0,0.224,0.014,0.224,0.141
		C18.778,69.19,16.887,74.429,16.691,74.989z"/>
	<path fill="#FFFFFF" d="M24.447,72.524h-3.586c0,1.274-0.028,1.975,1.485,1.975c0.49,0,0.98-0.07,1.471-0.168
		c0.224-0.056,0.49-0.154,0.714-0.154c0.154,0,0.154,0.616,0.154,0.757c0,0.28-0.014,0.336-0.294,0.406
		c-0.658,0.153-1.387,0.195-2.059,0.195c-0.7,0-1.653-0.14-2.157-0.686c-0.588-0.631-0.616-1.905-0.616-2.718
		c0-2.129,0.21-3.502,2.717-3.502c2.283,0,2.507,1.316,2.507,3.25C24.783,72.202,24.854,72.524,24.447,72.524z M22.276,69.694
		c-1.247,0-1.415,0.393-1.415,1.569v0.279h2.675c0.014-0.21,0.014-0.42,0.014-0.63C23.551,69.919,23.243,69.694,22.276,69.694z"/>
	<path fill="#FFFFFF" d="M31.335,75.354h-0.49c-0.392,0-0.49,0.014-0.49-0.406V71.18c0-0.238,0.014-1.093-0.14-1.289
		c-0.154-0.183-0.406-0.21-0.63-0.21c-0.812,0-1.359,0.462-1.961,0.938v4.328c0,0.252-0.028,0.406-0.308,0.406h-0.49
		c-0.393,0-0.491,0.014-0.491-0.406v-5.729c0-0.321,0.056-0.378,0.364-0.378h0.617c0.35,0,0.308,0.364,0.308,0.603
		c0.7-0.519,1.219-0.826,2.129-0.826c1.205,0,1.891,0.602,1.891,1.807v4.524C31.644,75.199,31.616,75.354,31.335,75.354z"/>
	<path fill="#FFFFFF" d="M39.496,75.55c-0.7,0-1.499-0.057-2.185-0.196c-0.266-0.056-0.462-0.084-0.462-0.393v-8.586
		c0-0.322,0.056-0.379,0.364-0.379h0.616c0.238,0,0.308,0.168,0.308,0.379v2.451c0.645-0.112,1.303-0.196,1.961-0.196
		c2.059,0,2.255,1.751,2.255,3.418C42.354,74.205,41.892,75.55,39.496,75.55z M40.897,70.451c-0.154-0.631-0.462-0.757-1.079-0.757
		c-0.546,0-1.149,0.112-1.681,0.238v4.412c0.448,0.084,0.925,0.168,1.387,0.168c0.588,0,1.149-0.153,1.345-0.771
		c0.154-0.476,0.182-1.218,0.182-1.723C41.051,71.501,41.023,70.955,40.897,70.451z"/>
	<path fill="#FFFFFF" d="M48.821,69.4l-2.97,8.488c-0.084,0.238-0.168,0.267-0.42,0.267h-0.743c-0.112,0-0.224,0.014-0.224-0.126
		c0-0.084,0.056-0.183,0.084-0.253l1.065-2.619c-0.21-0.546-2.354-5.995-2.354-6.177c0-0.127,0.154-0.141,0.252-0.141h0.659
		c0.238,0,0.42-0.014,0.504,0.238l1.499,4.566l1.401-4.412c0.098-0.294,0.168-0.393,0.49-0.393h0.645
		c0.112,0,0.238,0.028,0.238,0.168C48.947,69.092,48.849,69.316,48.821,69.4z"/>
</g>
<g>
	<path fill="#FFFFFF" d="M8.222,84.001c-0.771,0-1.527-0.014-2.297-0.028v7.774c0,0.28-0.056,0.406-0.35,0.406H4.986
		c-0.35,0-0.434-0.042-0.434-0.406v-7.774c-0.771,0.015-1.527,0.028-2.297,0.028c-0.336,0-0.35-0.154-0.35-0.448V83.16
		c0-0.28,0.084-0.364,0.35-0.364h5.967c0.462,0,0.35,0.406,0.35,0.757C8.572,83.847,8.558,84.001,8.222,84.001z"/>
	<path fill="#FFFFFF" d="M13.332,89.324H9.746c0,1.274-0.028,1.975,1.485,1.975c0.49,0,0.98-0.07,1.471-0.168
		c0.224-0.056,0.49-0.154,0.714-0.154c0.154,0,0.154,0.616,0.154,0.757c0,0.28-0.014,0.336-0.294,0.406
		c-0.658,0.153-1.387,0.195-2.059,0.195c-0.7,0-1.653-0.14-2.157-0.686c-0.588-0.631-0.616-1.905-0.616-2.718
		c0-2.129,0.21-3.502,2.717-3.502c2.283,0,2.507,1.316,2.507,3.25C13.667,89.002,13.738,89.324,13.332,89.324z M11.16,86.494
		c-1.247,0-1.415,0.393-1.415,1.569v0.28h2.675c0.014-0.211,0.014-0.421,0.014-0.631C12.435,86.719,12.127,86.494,11.16,86.494z"/>
	<path fill="#FFFFFF" d="M20.22,92.153h-0.49c-0.392,0-0.49,0.014-0.49-0.406v-3.768c0-0.238,0.014-1.093-0.14-1.289
		c-0.154-0.183-0.406-0.21-0.63-0.21c-0.812,0-1.359,0.462-1.961,0.938v4.328c0,0.252-0.028,0.406-0.308,0.406h-0.49
		c-0.393,0-0.49,0.014-0.49-0.406v-5.729c0-0.321,0.056-0.378,0.364-0.378H16.2c0.35,0,0.308,0.364,0.308,0.603
		c0.7-0.519,1.219-0.826,2.129-0.826c1.205,0,1.891,0.602,1.891,1.807v4.524C20.528,91.999,20.5,92.153,20.22,92.153z"/>
	<path fill="#FFFFFF" d="M27.22,92.153h-0.49c-0.392,0-0.49,0.014-0.49-0.406v-3.768c0-0.238,0.014-1.093-0.14-1.289
		c-0.154-0.183-0.406-0.21-0.63-0.21c-0.812,0-1.359,0.462-1.961,0.938v4.328c0,0.252-0.028,0.406-0.308,0.406h-0.49
		c-0.393,0-0.49,0.014-0.49-0.406v-5.729c0-0.321,0.056-0.378,0.364-0.378H23.2c0.35,0,0.308,0.364,0.308,0.603
		c0.7-0.519,1.219-0.826,2.129-0.826c1.205,0,1.891,0.602,1.891,1.807v4.524C27.528,91.999,27.5,92.153,27.22,92.153z"/>
	<path fill="#FFFFFF" d="M33.911,89.324h-3.586c0,1.274-0.028,1.975,1.485,1.975c0.49,0,0.98-0.07,1.471-0.168
		c0.224-0.056,0.49-0.154,0.714-0.154c0.154,0,0.154,0.616,0.154,0.757c0,0.28-0.014,0.336-0.294,0.406
		c-0.658,0.153-1.387,0.195-2.059,0.195c-0.7,0-1.653-0.14-2.157-0.686c-0.588-0.631-0.616-1.905-0.616-2.718
		c0-2.129,0.21-3.502,2.717-3.502c2.283,0,2.507,1.316,2.507,3.25C34.247,89.002,34.317,89.324,33.911,89.324z M31.74,86.494
		c-1.247,0-1.415,0.393-1.415,1.569v0.28H33c0.014-0.211,0.014-0.421,0.014-0.631C33.015,86.719,32.707,86.494,31.74,86.494z"/>
	<path fill="#FFFFFF" d="M37.858,92.293c-0.644,0-1.331,0.015-1.961-0.098c-0.238-0.042-0.182-0.238-0.182-0.435
		c0-0.168,0-0.336,0.014-0.504c0.014-0.126,0-0.182,0.14-0.182c0.224,0,0.49,0.069,0.714,0.084c0.49,0.056,0.966,0.084,1.457,0.084
		c0.672,0,0.953-0.042,0.953-0.771c0-0.183,0.014-0.477-0.112-0.631c-0.154-0.196-1.289-0.49-1.527-0.56
		c-1.121-0.337-1.793-0.533-1.793-1.85c0-2.045,1.274-1.947,2.914-1.947c0.336,0,0.686,0,1.022,0.028
		c0.462,0.042,0.462,0.098,0.462,0.546c0,0.253,0.07,0.603-0.267,0.603c-0.238,0-0.476-0.042-0.714-0.069
		c-0.378-0.042-0.742-0.057-1.121-0.057c-0.77,0-1.05-0.056-1.05,0.784c0,0.127,0,0.238,0.028,0.364
		c0.084,0.322,1.051,0.547,1.303,0.631l0.911,0.294c0.98,0.322,1.177,0.7,1.177,1.709C40.226,92.111,39.511,92.293,37.858,92.293z"
		/>
	<path fill="#FFFFFF" d="M43.737,92.293c-0.644,0-1.331,0.015-1.961-0.098c-0.238-0.042-0.182-0.238-0.182-0.435
		c0-0.168,0-0.336,0.014-0.504c0.014-0.126,0-0.182,0.14-0.182c0.224,0,0.49,0.069,0.714,0.084c0.49,0.056,0.966,0.084,1.457,0.084
		c0.672,0,0.953-0.042,0.953-0.771c0-0.183,0.014-0.477-0.112-0.631c-0.154-0.196-1.289-0.49-1.527-0.56
		c-1.121-0.337-1.793-0.533-1.793-1.85c0-2.045,1.274-1.947,2.914-1.947c0.336,0,0.686,0,1.022,0.028
		c0.462,0.042,0.462,0.098,0.462,0.546c0,0.253,0.07,0.603-0.266,0.603c-0.238,0-0.476-0.042-0.714-0.069
		c-0.378-0.042-0.742-0.057-1.121-0.057c-0.77,0-1.05-0.056-1.05,0.784c0,0.127,0,0.238,0.028,0.364
		c0.084,0.322,1.051,0.547,1.303,0.631l0.911,0.294c0.98,0.322,1.177,0.7,1.177,1.709C46.105,92.111,45.39,92.293,43.737,92.293z"/>
	<path fill="#FFFFFF" d="M52.251,89.324h-3.586c0,1.274-0.028,1.975,1.485,1.975c0.49,0,0.98-0.07,1.471-0.168
		c0.224-0.056,0.49-0.154,0.714-0.154c0.154,0,0.154,0.616,0.154,0.757c0,0.28-0.014,0.336-0.294,0.406
		c-0.658,0.153-1.387,0.195-2.059,0.195c-0.7,0-1.653-0.14-2.157-0.686c-0.588-0.631-0.616-1.905-0.616-2.718
		c0-2.129,0.21-3.502,2.717-3.502c2.283,0,2.507,1.316,2.507,3.25C52.587,89.002,52.657,89.324,52.251,89.324z M50.08,86.494
		c-1.247,0-1.415,0.393-1.415,1.569v0.28h2.675c0.014-0.211,0.014-0.421,0.014-0.631C51.354,86.719,51.046,86.494,50.08,86.494z"/>
	<path fill="#FFFFFF" d="M58.411,92.153c-0.588,0-0.477-0.196-0.477-0.7c-0.658,0.49-1.429,0.882-2.269,0.882
		c-1.261,0-1.737-0.742-1.737-1.933c0-0.812,0.21-1.611,1.022-1.933c0.729-0.295,2.199-0.322,2.983-0.337
		c0-0.322-0.028-0.98-0.14-1.261c-0.126-0.294-0.49-0.392-0.785-0.392c-0.714,0-1.457,0.196-2.143,0.364
		c-0.056,0.014-0.112,0.027-0.168,0.027c-0.266,0-0.182-0.616-0.182-0.784c0-0.182,0-0.308,0.196-0.364
		c0.504-0.14,1.709-0.28,2.241-0.28c2.045,0,2.27,1.009,2.27,2.788v3.516C59.223,92.293,58.887,92.153,58.411,92.153z M57.934,89.17
		c-0.308-0.015-0.63-0.028-0.938-0.028c-0.448,0-1.429-0.042-1.708,0.406c-0.112,0.196-0.126,0.477-0.126,0.7
		c0,0.519,0.056,1.093,0.701,1.093c0.644,0,1.597-0.49,2.073-0.896V89.17z"/>
	<path fill="#FFFFFF" d="M65.915,92.153h-0.49c-0.392,0-0.49,0.014-0.49-0.406v-3.768c0-0.238,0.014-1.093-0.14-1.289
		c-0.154-0.183-0.406-0.21-0.63-0.21c-0.812,0-1.359,0.462-1.961,0.938v4.328c0,0.252-0.028,0.406-0.308,0.406h-0.49
		c-0.393,0-0.49,0.014-0.49-0.406v-5.729c0-0.321,0.056-0.378,0.364-0.378h0.617c0.35,0,0.308,0.364,0.308,0.603
		c0.7-0.519,1.219-0.826,2.129-0.826c1.205,0,1.891,0.602,1.891,1.807v4.524C66.223,91.999,66.195,92.153,65.915,92.153z"/>
	<path fill="#FFFFFF" d="M69.973,92.293c-0.644,0-1.331,0.015-1.961-0.098c-0.238-0.042-0.182-0.238-0.182-0.435
		c0-0.168,0-0.336,0.014-0.504c0.014-0.126,0-0.182,0.14-0.182c0.224,0,0.49,0.069,0.714,0.084c0.49,0.056,0.966,0.084,1.457,0.084
		c0.672,0,0.953-0.042,0.953-0.771c0-0.183,0.014-0.477-0.112-0.631c-0.154-0.196-1.289-0.49-1.527-0.56
		c-1.121-0.337-1.793-0.533-1.793-1.85c0-2.045,1.274-1.947,2.914-1.947c0.336,0,0.686,0,1.022,0.028
		c0.462,0.042,0.462,0.098,0.462,0.546c0,0.253,0.07,0.603-0.267,0.603c-0.238,0-0.476-0.042-0.714-0.069
		c-0.378-0.042-0.742-0.057-1.121-0.057c-0.77,0-1.05-0.056-1.05,0.784c0,0.127,0,0.238,0.028,0.364
		c0.084,0.322,1.051,0.547,1.303,0.631l0.911,0.294c0.98,0.322,1.177,0.7,1.177,1.709C72.341,92.111,71.626,92.293,69.973,92.293z"
		/>
</g>
<g>
	<path fill="#FFFFFF" d="M3.6,101.376H3.053c-0.378,0-0.476,0-0.476-0.406v-0.504c0-0.309,0.056-0.379,0.364-0.379H3.6
		c0.224,0,0.308,0.183,0.308,0.379v0.504C3.908,101.222,3.88,101.376,3.6,101.376z M3.6,108.954H3.053c-0.378,0-0.476,0-0.476-0.406
		v-5.729c0-0.308,0.056-0.378,0.364-0.378H3.6c0.224,0,0.308,0.183,0.308,0.378v5.729C3.908,108.8,3.88,108.954,3.6,108.954z"/>
	<path fill="#FFFFFF" d="M10.728,108.954h-0.49c-0.392,0-0.49,0.014-0.49-0.406v-3.768c0-0.238,0.014-1.093-0.14-1.289
		c-0.154-0.183-0.406-0.21-0.63-0.21c-0.812,0-1.359,0.462-1.961,0.938v4.328c0,0.252-0.028,0.406-0.308,0.406h-0.49
		c-0.393,0-0.49,0.014-0.49-0.406v-5.729c0-0.321,0.056-0.378,0.364-0.378h0.617c0.35,0,0.308,0.364,0.308,0.603
		c0.7-0.519,1.219-0.826,2.129-0.826c1.205,0,1.891,0.602,1.891,1.807v4.524C11.036,108.8,11.008,108.954,10.728,108.954z"/>
	<path fill="#FFFFFF" d="M21.872,108.954h-4.958c-0.28,0-0.322-0.07-0.322-0.351V108.1c0-0.448,0.49-0.868,0.771-1.177l1.387-1.541
		c0.322-0.35,0.645-0.7,0.924-1.064c0.546-0.7,1.149-1.499,1.149-2.423c0-0.967-0.28-1.317-1.261-1.317
		c-0.49,0-0.98,0.042-1.457,0.127c-0.21,0.042-0.477,0.126-0.687,0.126s-0.21-0.211-0.238-0.364
		c-0.028-0.183-0.056-0.379-0.056-0.547c0-0.252,0.154-0.28,0.351-0.322c0.672-0.126,1.387-0.182,2.073-0.182
		c1.541,0,2.634,0.546,2.634,2.228c0,0.84-0.322,1.807-0.771,2.521c-0.364,0.575-0.854,1.093-1.317,1.583
		c-0.714,0.729-1.443,1.443-2.185,2.144c1.316-0.056,2.647-0.141,3.964-0.141c0.336,0,0.351,0.169,0.351,0.448v0.393
		C22.222,108.87,22.152,108.954,21.872,108.954z"/>
	<path fill="#FFFFFF" d="M29.278,107.876c-0.519,0.896-1.485,1.26-2.479,1.26c-1.008,0-1.975-0.35-2.493-1.26
		c-0.561-0.981-0.687-2.494-0.687-3.601s0.126-2.619,0.687-3.6c0.518-0.91,1.485-1.261,2.493-1.261c0.995,0,1.961,0.364,2.479,1.261
		c0.56,0.98,0.687,2.493,0.687,3.6S29.838,106.895,29.278,107.876z M28.283,101.432c-0.266-0.616-0.84-0.854-1.485-0.854
		s-1.232,0.238-1.499,0.854c-0.294,0.701-0.351,2.088-0.351,2.844c0,0.757,0.056,2.144,0.351,2.844
		c0.266,0.616,0.854,0.854,1.499,0.854s1.219-0.238,1.485-0.854c0.308-0.7,0.35-2.087,0.35-2.844
		C28.633,103.52,28.591,102.133,28.283,101.432z"/>
	<path fill="#FFFFFF" d="M37.09,107.876c-0.519,0.896-1.485,1.26-2.479,1.26c-1.008,0-1.975-0.35-2.493-1.26
		c-0.561-0.981-0.687-2.494-0.687-3.601s0.126-2.619,0.687-3.6c0.518-0.91,1.485-1.261,2.493-1.261c0.995,0,1.961,0.364,2.479,1.261
		c0.56,0.98,0.686,2.493,0.686,3.6S37.65,106.895,37.09,107.876z M36.095,101.432c-0.266-0.616-0.84-0.854-1.485-0.854
		c-0.644,0-1.232,0.238-1.499,0.854c-0.294,0.701-0.351,2.088-0.351,2.844c0,0.757,0.056,2.144,0.351,2.844
		c0.266,0.616,0.854,0.854,1.499,0.854c0.645,0,1.219-0.238,1.485-0.854c0.308-0.7,0.35-2.087,0.35-2.844
		C36.445,103.52,36.403,102.133,36.095,101.432z"/>
	<path fill="#FFFFFF" d="M45.084,107.301c-0.49,1.457-1.639,1.835-3.068,1.835c-0.645,0-1.751-0.126-2.339-0.405
		c-0.112-0.057-0.154-0.127-0.154-0.253c0-0.182,0.07-0.378,0.112-0.546c0.028-0.098,0.07-0.393,0.238-0.393
		c0.042,0,0.687,0.238,0.784,0.267c0.519,0.14,1.051,0.21,1.597,0.21c0.56,0,1.121-0.14,1.457-0.631
		c0.35-0.518,0.336-1.961,0.35-2.577c-0.672,0.238-1.26,0.364-1.975,0.364c-0.701,0-1.401-0.112-1.905-0.645
		c-0.49-0.518-0.658-1.358-0.658-2.059c0-1.989,0.826-3.054,2.885-3.054c1.667,0,2.521,0.574,2.844,2.241
		c0.126,0.7,0.154,1.429,0.154,2.143C45.406,104.864,45.42,106.293,45.084,107.301z M44.061,103.267c0-0.574,0-1.19-0.126-1.751
		c-0.182-0.756-0.882-1.008-1.597-1.008c-1.317,0-1.527,0.742-1.527,1.919c0,1.036,0.224,1.583,1.345,1.583
		c0.658,0,1.303-0.154,1.905-0.406V103.267z"/>
</g>
<g>
	<path fill="#FFFFFF" d="M5.491,142.666v0.868c0,0.252-0.028,0.406-0.308,0.406h-0.21c-0.308,0-0.28-0.126-0.28-0.406v-0.854
		c-0.63-0.014-1.261-0.056-1.891-0.112c-0.196-0.014-0.49,0-0.49-0.266v-0.49c0-0.238-0.028-0.463,0.28-0.463
		c0.35,0,0.672,0.042,1.022,0.07c0.364,0.028,0.714,0.042,1.079,0.042v-3.18c-0.224-0.098-0.462-0.196-0.687-0.308
		c-1.415-0.659-1.597-0.911-1.597-2.494c0-0.672,0-1.387,0.532-1.877c0.462-0.434,1.148-0.476,1.751-0.504v-0.883
		c0-0.406,0.154-0.378,0.49-0.378c0.224,0,0.308,0.182,0.308,0.378v0.883c0.518,0,1.037,0.028,1.555,0.07
		c0.196,0.014,0.49,0,0.49,0.266v0.49c0,0.238,0.028,0.463-0.28,0.463c-0.238,0-0.477-0.028-0.729-0.057
		c-0.252-0.014-0.519-0.014-0.785-0.014H5.491v2.886l0.028,0.014c0.406,0.21,0.827,0.393,1.219,0.631
		c0.854,0.49,0.98,0.952,0.98,1.919C7.718,141.573,7.564,142.554,5.491,142.666z M4.692,134.304
		c-0.98,0.014-0.953,0.504-0.953,1.316c0,0.854,0.182,0.91,0.953,1.232V134.304z M5.491,138.632v2.815
		c0.771-0.07,0.896-0.448,0.896-1.177C6.387,139.22,6.457,139.052,5.491,138.632z"/>
	<path fill="#FFFFFF" d="M12.113,142.554h-0.504c-0.378,0-0.477,0-0.477-0.406v-7.718c-0.196,0.111-1.05,0.56-1.247,0.56
		c-0.126,0-0.154-0.14-0.168-0.237c-0.014-0.169-0.042-0.351-0.042-0.519c0-0.196,0.112-0.238,0.266-0.309
		c0.7-0.308,1.387-0.729,2.171-0.729c0.224,0,0.308,0.183,0.308,0.379v8.572C12.421,142.399,12.393,142.554,12.113,142.554z"/>
	<path fill="#FFFFFF" d="M14.393,144.486c0-0.084,0.561-0.882,0.63-0.994c0.182-0.294,0.351-0.588,0.49-0.91l-0.658-0.603
		c-0.042-0.042-0.07-0.112-0.07-0.168c0-0.07,0.028-0.141,0.07-0.196l0.729-0.799c0.042-0.056,0.084-0.084,0.154-0.084
		c0.07,0,0.126,0.042,0.182,0.084l0.799,0.743c0.07,0.056,0.07,0.126,0.07,0.21c0,0.532-1.205,2.396-1.555,2.928
		c-0.07,0.098-0.154,0.21-0.28,0.21C14.799,144.907,14.393,144.641,14.393,144.486z"/>
	<path fill="#FFFFFF" d="M20.933,142.554h-0.504c-0.378,0-0.477,0-0.477-0.406v-7.718c-0.196,0.111-1.05,0.56-1.247,0.56
		c-0.126,0-0.154-0.14-0.168-0.237c-0.014-0.169-0.042-0.351-0.042-0.519c0-0.196,0.112-0.238,0.266-0.309
		c0.7-0.308,1.387-0.729,2.171-0.729c0.224,0,0.308,0.183,0.308,0.379v8.572C21.241,142.399,21.213,142.554,20.933,142.554z"/>
	<path fill="#FFFFFF" d="M28.773,142.147c0,0.252-0.028,0.406-0.308,0.406h-0.49c-0.393,0-0.49,0.014-0.49-0.406v-2.073h-3.53
		c-0.154,0-0.21-0.042-0.252-0.196c-0.056-0.195-0.168-0.49-0.168-0.7c0-0.154,0.028-0.322,0.126-0.448l3.782-5.322
		c0.056-0.07,0.154-0.211,0.252-0.211h0.771c0.224,0,0.308,0.183,0.308,0.379v5.309c0.21-0.014,0.406-0.014,0.616-0.014
		c0.336,0,0.35,0.153,0.35,0.448c0,0.924-0.028,0.756-0.966,0.756V142.147z M27.485,135.144l-2.774,3.908
		c0.925-0.042,1.849-0.084,2.774-0.126V135.144z"/>
	<path fill="#FFFFFF" d="M36.124,142.554h-4.958c-0.28,0-0.322-0.07-0.322-0.351v-0.504c0-0.448,0.49-0.868,0.771-1.177L33,138.981
		c0.322-0.35,0.645-0.7,0.924-1.064c0.546-0.7,1.149-1.499,1.149-2.423c0-0.967-0.28-1.317-1.261-1.317
		c-0.49,0-0.98,0.042-1.457,0.127c-0.21,0.042-0.477,0.126-0.687,0.126s-0.21-0.211-0.238-0.364
		c-0.028-0.183-0.056-0.379-0.056-0.547c0-0.252,0.154-0.28,0.351-0.322c0.672-0.126,1.387-0.182,2.073-0.182
		c1.541,0,2.634,0.546,2.634,2.228c0,0.84-0.322,1.807-0.771,2.521c-0.364,0.575-0.854,1.093-1.317,1.583
		c-0.714,0.729-1.443,1.443-2.185,2.144c1.316-0.056,2.647-0.141,3.964-0.141c0.336,0,0.351,0.169,0.351,0.448v0.393
		C36.474,142.47,36.404,142.554,36.124,142.554z"/>
</g>
<g>
	<path fill="#FFFFFF" d="M9.329,159.354H8.572c-0.28,0-0.35-0.112-0.434-0.351L7.228,156.3c-1.037,0.028-2.087,0.028-3.124,0
		l-0.84,2.605c-0.098,0.294-0.154,0.448-0.49,0.448H2.129c-0.098,0-0.294,0.028-0.294-0.112c0-0.098,0.07-0.28,0.098-0.364
		l2.858-8.446c0.126-0.351,0.196-0.49,0.588-0.49h0.575c0.406,0,0.462,0.126,0.588,0.49c0.252,0.7,3.04,8.572,3.04,8.727
		C9.581,159.325,9.469,159.354,9.329,159.354z M5.645,151.579l-1.177,3.614c0.798,0,1.597-0.014,2.395,0.014L5.645,151.579z"/>
	<path fill="#FFFFFF" d="M18.695,159.354h-0.49c-0.392,0-0.49,0.014-0.49-0.406v-3.768c0-0.238,0.014-1.093-0.126-1.289
		c-0.098-0.141-0.21-0.21-0.392-0.21c-0.532,0-1.275,0.603-1.667,0.924v4.343c0,0.546-0.322,0.406-0.812,0.406
		c-0.392,0-0.476,0-0.476-0.406v-3.768c0-0.253,0.014-1.079-0.14-1.289c-0.112-0.154-0.21-0.21-0.392-0.21
		c-0.533,0-1.261,0.603-1.667,0.924v4.343c0,0.252-0.028,0.406-0.308,0.406h-0.49c-0.393,0-0.49,0.014-0.49-0.406v-5.729
		c0-0.321,0.056-0.378,0.364-0.378h0.617c0.35,0,0.308,0.378,0.308,0.616c0.644-0.476,1.303-0.84,2.129-0.84
		c0.63,0,1.051,0.322,1.233,0.924c0.686-0.504,1.345-0.924,2.241-0.924c1.064,0,1.358,0.896,1.358,1.807v4.524
		C19.003,159.214,18.99,159.354,18.695,159.354z"/>
	<path fill="#FFFFFF" d="M23.424,159.535c-2.269,0-2.941-1.387-2.941-3.445c0-2.073,0.658-3.46,2.941-3.46
		c2.27,0,2.942,1.415,2.942,3.46S25.68,159.535,23.424,159.535z M24.783,154.283c-0.308-0.575-0.756-0.589-1.359-0.589
		c-0.602,0-1.05,0.014-1.358,0.589c-0.252,0.49-0.28,1.26-0.28,1.807c0,0.546,0.028,1.316,0.28,1.807
		c0.294,0.574,0.77,0.574,1.358,0.574s1.064-0.014,1.359-0.574c0.252-0.476,0.28-1.274,0.28-1.807
		C25.063,155.543,25.035,154.773,24.783,154.283z"/>
	<path fill="#FFFFFF" d="M32.777,159.354h-0.617c-0.35,0-0.308-0.364-0.308-0.603c-0.7,0.505-1.218,0.827-2.115,0.827
		c-1.205,0-1.905-0.589-1.905-1.808v-4.524c0-0.546,0.322-0.406,0.812-0.406c0.392,0,0.476,0,0.476,0.406v3.769
		c0,0.237-0.014,1.092,0.14,1.288c0.154,0.183,0.406,0.21,0.63,0.21c0.812,0,1.359-0.462,1.961-0.938v-4.328
		c0-0.546,0.322-0.406,0.812-0.406c0.392,0,0.477,0,0.477,0.406v5.729C33.142,159.298,33.085,159.354,32.777,159.354z"/>
	<path fill="#FFFFFF" d="M39.875,159.354h-0.49c-0.392,0-0.49,0.014-0.49-0.406v-3.768c0-0.238,0.014-1.093-0.14-1.289
		c-0.154-0.183-0.406-0.21-0.63-0.21c-0.812,0-1.359,0.462-1.961,0.938v4.328c0,0.252-0.028,0.406-0.308,0.406h-0.49
		c-0.393,0-0.491,0.014-0.491-0.406v-5.729c0-0.321,0.056-0.378,0.364-0.378h0.617c0.35,0,0.308,0.364,0.308,0.603
		c0.7-0.519,1.219-0.826,2.129-0.826c1.205,0,1.891,0.602,1.891,1.807v4.524C40.184,159.199,40.156,159.354,39.875,159.354z"/>
	<path fill="#FFFFFF" d="M44.915,153.862h-1.457v3.559c0,0.42-0.07,1.064,0.532,1.064c0.406,0,0.812-0.21,1.149-0.21
		c0.14,0,0.14,0.056,0.14,0.182v0.532c0,0.351-0.014,0.406-0.364,0.435c-0.392,0.042-0.798,0.069-1.191,0.069
		c-1.499,0-1.555-0.7-1.555-2.03v-3.601c-0.771,0-0.714,0.057-0.714-0.7c0-0.406,0.448-0.322,0.714-0.322v-1.316
		c0-0.309,0.056-0.378,0.364-0.378h0.616c0.224,0,0.308,0.182,0.308,0.378v1.316h1.457c0.434,0,0.392,0.154,0.392,0.519
		C45.307,153.736,45.321,153.862,44.915,153.862z"/>
	<path fill="#FFFFFF" d="M53.062,159.535c-2.269,0-2.941-1.387-2.941-3.445c0-2.073,0.658-3.46,2.941-3.46
		c2.27,0,2.942,1.415,2.942,3.46S55.317,159.535,53.062,159.535z M54.42,154.283c-0.308-0.575-0.756-0.589-1.359-0.589
		c-0.602,0-1.05,0.014-1.358,0.589c-0.252,0.49-0.28,1.26-0.28,1.807c0,0.546,0.028,1.316,0.28,1.807
		c0.294,0.574,0.77,0.574,1.358,0.574s1.065-0.014,1.359-0.574c0.252-0.476,0.28-1.274,0.28-1.807
		C54.701,155.543,54.672,154.773,54.42,154.283z"/>
	<path fill="#FFFFFF" d="M61.294,150.963c-0.014,0.084-0.042,0.141-0.14,0.141c-0.182,0-0.35-0.057-0.532-0.085
		c-0.196-0.042-0.42-0.056-0.63-0.056c-0.182,0-0.561,0.014-0.7,0.154c-0.168,0.168-0.154,0.826-0.154,1.051v0.672h1.457
		c0.435,0,0.393,0.154,0.393,0.519c0,0.378,0.014,0.504-0.393,0.504h-1.457v5.085c0,0.252-0.028,0.406-0.308,0.406h-0.49
		c-0.392,0-0.49,0.014-0.49-0.406v-5.085c-0.798,0-0.756,0.084-0.756-0.7c0-0.406,0.49-0.322,0.756-0.322v-0.672
		c0-0.532,0-1.079,0.308-1.527c0.504-0.729,1.387-0.756,2.199-0.756c0.182,0,0.784-0.028,0.924,0.126
		c0.042,0.042,0.056,0.126,0.056,0.196C61.336,150.444,61.336,150.725,61.294,150.963z"/>
</g>
<g>
	<path fill="#FFFFFF" d="M5.631,170.662H4.174v3.559c0,0.42-0.07,1.064,0.532,1.064c0.406,0,0.812-0.21,1.149-0.21
		c0.14,0,0.14,0.056,0.14,0.182v0.532c0,0.351-0.014,0.406-0.364,0.435c-0.392,0.042-0.798,0.069-1.191,0.069
		c-1.499,0-1.555-0.7-1.555-2.03v-3.601c-0.771,0-0.714,0.057-0.714-0.7c0-0.406,0.448-0.322,0.714-0.322v-1.316
		c0-0.309,0.056-0.378,0.364-0.378h0.616c0.224,0,0.308,0.182,0.308,0.378v1.316h1.457c0.434,0,0.392,0.154,0.392,0.519
		C6.023,170.536,6.037,170.662,5.631,170.662z"/>
	<path fill="#FFFFFF" d="M12.324,176.153h-0.491c-0.392,0-0.49,0.014-0.49-0.406v-3.768c0-0.238,0.014-1.107-0.126-1.289
		c-0.14-0.183-0.42-0.21-0.63-0.21c-0.729,0-1.4,0.35-1.975,0.771v4.496c0,0.267-0.014,0.406-0.308,0.406h-0.49
		c-0.392,0-0.49,0.014-0.49-0.406v-8.572c0-0.322,0.056-0.379,0.364-0.379h0.616c0.238,0,0.308,0.169,0.308,0.379v2.885
		c0.645-0.363,1.373-0.644,2.129-0.644c1.205,0,1.891,0.602,1.891,1.807v4.524C12.632,176.014,12.618,176.153,12.324,176.153z"/>
	<path fill="#FFFFFF" d="M19.029,173.324h-3.586c0,1.274-0.028,1.975,1.485,1.975c0.49,0,0.98-0.07,1.471-0.168
		c0.224-0.056,0.49-0.154,0.714-0.154c0.154,0,0.154,0.616,0.154,0.757c0,0.28-0.014,0.336-0.294,0.406
		c-0.658,0.153-1.387,0.195-2.059,0.195c-0.7,0-1.653-0.14-2.157-0.686c-0.588-0.631-0.616-1.905-0.616-2.718
		c0-2.129,0.21-3.502,2.717-3.502c2.283,0,2.507,1.316,2.507,3.25C19.365,173.002,19.436,173.324,19.029,173.324z M16.858,170.494
		c-1.247,0-1.415,0.393-1.415,1.569v0.28h2.675c0.014-0.211,0.014-0.421,0.014-0.631C18.133,170.719,17.825,170.494,16.858,170.494z
		"/>
	<path fill="#FFFFFF" d="M28.815,176.153c-0.588,0-0.477-0.196-0.477-0.7c-0.658,0.49-1.429,0.882-2.269,0.882
		c-1.261,0-1.737-0.742-1.737-1.933c0-0.812,0.21-1.611,1.022-1.933c0.729-0.295,2.199-0.322,2.983-0.337
		c0-0.322-0.028-0.98-0.14-1.261c-0.126-0.294-0.49-0.392-0.785-0.392c-0.714,0-1.457,0.196-2.143,0.364
		c-0.056,0.014-0.112,0.027-0.168,0.027c-0.266,0-0.182-0.616-0.182-0.784c0-0.182,0-0.308,0.196-0.364
		c0.504-0.14,1.709-0.28,2.241-0.28c2.045,0,2.27,1.009,2.27,2.788v3.516C29.627,176.293,29.291,176.153,28.815,176.153z
		 M28.338,173.17c-0.308-0.015-0.63-0.028-0.938-0.028c-0.448,0-1.429-0.042-1.708,0.406c-0.112,0.196-0.126,0.477-0.126,0.7
		c0,0.519,0.056,1.093,0.701,1.093c0.644,0,1.597-0.49,2.073-0.896V173.17z"/>
	<path fill="#FFFFFF" d="M34.163,175.789c-0.084,0.252-0.154,0.364-0.435,0.364h-0.644c-0.308,0-0.336-0.084-0.435-0.364
		l-2.059-5.869c-0.014-0.056-0.028-0.098-0.028-0.154c0-0.126,0.126-0.126,0.224-0.126h0.798c0.28,0,0.322,0.057,0.406,0.322
		l1.429,4.608l1.443-4.595c0.084-0.266,0.126-0.336,0.406-0.336h0.756c0.098,0,0.224,0.015,0.224,0.141
		C36.25,169.99,34.358,175.229,34.163,175.789z"/>
	<path fill="#FFFFFF" d="M41.919,173.324h-3.586c0,1.274-0.028,1.975,1.485,1.975c0.49,0,0.98-0.07,1.471-0.168
		c0.224-0.056,0.49-0.154,0.714-0.154c0.154,0,0.154,0.616,0.154,0.757c0,0.28-0.014,0.336-0.294,0.406
		c-0.658,0.153-1.387,0.195-2.059,0.195c-0.7,0-1.653-0.14-2.157-0.686c-0.588-0.631-0.616-1.905-0.616-2.718
		c0-2.129,0.21-3.502,2.717-3.502c2.283,0,2.507,1.316,2.507,3.25C42.255,173.002,42.325,173.324,41.919,173.324z M39.748,170.494
		c-1.247,0-1.415,0.393-1.415,1.569v0.28h2.675c0.014-0.211,0.014-0.421,0.014-0.631C41.022,170.719,40.714,170.494,39.748,170.494z
		"/>
	<path fill="#FFFFFF" d="M47.266,170.746c-0.938,0-1.345,0.099-2.129,0.603v4.398c0,0.252-0.028,0.406-0.308,0.406h-0.532
		c-0.393,0-0.491,0.014-0.491-0.406v-5.729c0-0.308,0.056-0.378,0.364-0.378h0.659c0.364,0,0.308,0.42,0.308,0.673
		c0.588-0.421,1.303-0.757,2.031-0.757c0.49,0,0.364,0.406,0.364,0.757C47.532,170.522,47.532,170.746,47.266,170.746z"/>
	<path fill="#FFFFFF" d="M52.909,176.153c-0.588,0-0.477-0.196-0.477-0.7c-0.658,0.49-1.429,0.882-2.269,0.882
		c-1.261,0-1.737-0.742-1.737-1.933c0-0.812,0.21-1.611,1.022-1.933c0.729-0.295,2.199-0.322,2.983-0.337
		c0-0.322-0.028-0.98-0.14-1.261c-0.126-0.294-0.49-0.392-0.785-0.392c-0.714,0-1.457,0.196-2.143,0.364
		c-0.056,0.014-0.112,0.027-0.168,0.027c-0.266,0-0.182-0.616-0.182-0.784c0-0.182,0-0.308,0.196-0.364
		c0.504-0.14,1.709-0.28,2.241-0.28c2.045,0,2.27,1.009,2.27,2.788v3.516C53.721,176.293,53.385,176.153,52.909,176.153z
		 M52.432,173.17c-0.308-0.015-0.63-0.028-0.938-0.028c-0.448,0-1.429-0.042-1.708,0.406c-0.112,0.196-0.126,0.477-0.126,0.7
		c0,0.519,0.056,1.093,0.701,1.093c0.644,0,1.597-0.49,2.073-0.896V173.17z"/>
	<path fill="#FFFFFF" d="M60.371,178.086c-0.504,0.771-1.499,0.967-2.354,0.967c-0.658,0-1.919-0.07-2.535-0.28
		c-0.21-0.069-0.238-0.111-0.238-0.336c0-0.154,0.014-0.854,0.21-0.854c0.14,0,0.714,0.168,0.896,0.196
		c0.588,0.112,1.176,0.182,1.765,0.182c0.616,0,1.093-0.056,1.177-0.756c0.042-0.364,0.042-0.742,0.042-1.121
		c-0.616,0.141-1.233,0.238-1.863,0.238c-2.031,0-2.326-1.61-2.326-3.306c0-0.883,0.112-2.045,0.701-2.76
		c0.729-0.868,1.709-0.826,2.759-0.826c0.561,0,1.121,0,1.681,0.056c0.322,0.028,0.336,0.084,0.336,0.406v6.962
		C60.623,177.316,60.637,177.68,60.371,178.086z M59.334,170.536c-0.448-0.028-0.896-0.042-1.345-0.042
		c-0.532,0-0.98,0.042-1.233,0.574c-0.224,0.49-0.294,1.331-0.294,1.863c0,0.393,0.028,0.784,0.084,1.177
		c0.098,0.756,0.266,1.177,1.106,1.177c0.533,0,1.177-0.141,1.681-0.322V170.536z"/>
	<path fill="#FFFFFF" d="M67.049,173.324h-3.586c0,1.274-0.028,1.975,1.485,1.975c0.49,0,0.98-0.07,1.471-0.168
		c0.224-0.056,0.49-0.154,0.714-0.154c0.154,0,0.154,0.616,0.154,0.757c0,0.28-0.014,0.336-0.294,0.406
		c-0.658,0.153-1.387,0.195-2.059,0.195c-0.7,0-1.653-0.14-2.157-0.686c-0.588-0.631-0.616-1.905-0.616-2.718
		c0-2.129,0.21-3.502,2.717-3.502c2.283,0,2.507,1.316,2.507,3.25C67.385,173.002,67.455,173.324,67.049,173.324z M64.877,170.494
		c-1.247,0-1.415,0.393-1.415,1.569v0.28h2.675c0.014-0.211,0.014-0.421,0.014-0.631C66.152,170.719,65.844,170.494,64.877,170.494z
		"/>
</g>
<g>
	<path fill="#FFFFFF" d="M6.373,193.08c-0.378,0.042-0.771,0.056-1.148,0.056c-0.561,0-1.247-0.027-1.765-0.252
		c-1.177-0.49-1.148-2.115-1.148-3.193c0-0.645,0.014-1.316,0.168-1.947c0.364-1.415,1.471-1.513,2.746-1.513
		c0.378,0,0.771,0.028,1.148,0.07c0.238,0.027,0.561-0.028,0.561,0.28c0,0.224,0,0.476-0.056,0.7
		c-0.028,0.126-0.056,0.21-0.196,0.21c-0.182,0-0.378-0.028-0.574-0.056c-0.434-0.057-0.868-0.112-1.303-0.112
		c-0.35,0-0.756,0.042-0.952,0.364c-0.21,0.336-0.21,1.568-0.21,2.003c0,0.462,0,0.938,0.042,1.4
		c0.07,0.757,0.378,0.953,1.121,0.953c0.435,0,0.883-0.057,1.317-0.112c0.182-0.028,0.378-0.056,0.56-0.056
		c0.056,0,0.112,0.014,0.14,0.056c0.084,0.098,0.112,0.714,0.112,0.854C6.934,193.094,6.611,193.052,6.373,193.08z"/>
	<path fill="#FFFFFF" d="M13.36,192.954h-0.491c-0.392,0-0.49,0.014-0.49-0.406v-3.768c0-0.238,0.014-1.107-0.126-1.289
		c-0.14-0.183-0.42-0.21-0.63-0.21c-0.729,0-1.4,0.35-1.975,0.771v4.496c0,0.267-0.014,0.406-0.308,0.406h-0.49
		c-0.392,0-0.49,0.014-0.49-0.406v-8.572c0-0.322,0.056-0.379,0.364-0.379h0.616c0.238,0,0.308,0.169,0.308,0.379v2.885
		c0.645-0.363,1.373-0.644,2.129-0.644c1.205,0,1.891,0.602,1.891,1.807v4.524C13.668,192.814,13.654,192.954,13.36,192.954z"/>
	<path fill="#FFFFFF" d="M19.645,192.954c-0.588,0-0.477-0.196-0.477-0.7c-0.658,0.49-1.429,0.882-2.269,0.882
		c-1.261,0-1.737-0.742-1.737-1.933c0-0.812,0.21-1.611,1.022-1.933c0.729-0.295,2.199-0.322,2.983-0.337
		c0-0.322-0.028-0.98-0.14-1.261c-0.126-0.294-0.49-0.392-0.785-0.392c-0.714,0-1.457,0.196-2.143,0.364
		c-0.056,0.014-0.112,0.027-0.168,0.027c-0.266,0-0.182-0.616-0.182-0.784c0-0.182,0-0.308,0.196-0.364
		c0.504-0.14,1.709-0.28,2.241-0.28c2.045,0,2.27,1.009,2.27,2.788v3.516C20.458,193.094,20.121,192.954,19.645,192.954z
		 M19.168,189.971c-0.308-0.015-0.63-0.028-0.938-0.028c-0.448,0-1.429-0.042-1.708,0.406c-0.112,0.196-0.126,0.477-0.126,0.7
		c0,0.519,0.056,1.093,0.701,1.093c0.644,0,1.597-0.49,2.073-0.896V189.971z"/>
	<path fill="#FFFFFF" d="M25.608,187.547c-0.938,0-1.345,0.099-2.129,0.603v4.398c0,0.252-0.028,0.406-0.308,0.406h-0.532
		c-0.393,0-0.49,0.014-0.49-0.406v-5.729c0-0.308,0.056-0.378,0.364-0.378h0.659c0.364,0,0.308,0.42,0.308,0.673
		c0.588-0.421,1.303-0.757,2.031-0.757c0.491,0,0.364,0.406,0.364,0.757C25.875,187.323,25.875,187.547,25.608,187.547z"/>
	<path fill="#FFFFFF" d="M28.169,185.376h-0.546c-0.378,0-0.476,0-0.476-0.406v-0.504c0-0.309,0.056-0.379,0.364-0.379h0.658
		c0.224,0,0.308,0.183,0.308,0.379v0.504C28.477,185.222,28.449,185.376,28.169,185.376z M28.169,192.954h-0.546
		c-0.378,0-0.476,0-0.476-0.406v-5.729c0-0.308,0.056-0.378,0.364-0.378h0.658c0.224,0,0.308,0.183,0.308,0.378v5.729
		C28.477,192.8,28.449,192.954,28.169,192.954z"/>
	<path fill="#FFFFFF" d="M33.35,187.463h-1.457v3.559c0,0.42-0.07,1.064,0.532,1.064c0.406,0,0.812-0.21,1.149-0.21
		c0.14,0,0.14,0.056,0.14,0.182v0.532c0,0.351-0.014,0.406-0.364,0.435c-0.392,0.042-0.798,0.069-1.191,0.069
		c-1.499,0-1.555-0.7-1.555-2.03v-3.601c-0.771,0-0.714,0.057-0.714-0.7c0-0.406,0.448-0.322,0.714-0.322v-1.316
		c0-0.309,0.056-0.378,0.364-0.378h0.616c0.224,0,0.308,0.182,0.308,0.378v1.316h1.457c0.434,0,0.392,0.154,0.392,0.519
		C33.742,187.337,33.756,187.463,33.35,187.463z"/>
	<path fill="#FFFFFF" d="M39.441,192.954c-0.588,0-0.477-0.196-0.477-0.7c-0.658,0.49-1.429,0.882-2.269,0.882
		c-1.261,0-1.737-0.742-1.737-1.933c0-0.812,0.21-1.611,1.022-1.933c0.729-0.295,2.199-0.322,2.983-0.337
		c0-0.322-0.028-0.98-0.14-1.261c-0.126-0.294-0.49-0.392-0.785-0.392c-0.714,0-1.457,0.196-2.143,0.364
		c-0.056,0.014-0.112,0.027-0.168,0.027c-0.266,0-0.182-0.616-0.182-0.784c0-0.182,0-0.308,0.196-0.364
		c0.504-0.14,1.709-0.28,2.241-0.28c2.045,0,2.27,1.009,2.27,2.788v3.516C40.253,193.094,39.917,192.954,39.441,192.954z
		 M38.964,189.971c-0.308-0.015-0.63-0.028-0.938-0.028c-0.448,0-1.429-0.042-1.708,0.406c-0.112,0.196-0.126,0.477-0.126,0.7
		c0,0.519,0.056,1.093,0.701,1.093c0.644,0,1.597-0.49,2.073-0.896V189.971z"/>
	<path fill="#FFFFFF" d="M44.521,193.15c-0.7,0-1.499-0.057-2.185-0.196c-0.266-0.056-0.462-0.084-0.462-0.393v-8.586
		c0-0.322,0.056-0.379,0.364-0.379h0.616c0.238,0,0.308,0.169,0.308,0.379v2.451c0.645-0.112,1.303-0.196,1.961-0.196
		c2.059,0,2.255,1.751,2.255,3.418C47.379,191.806,46.917,193.15,44.521,193.15z M45.922,188.052
		c-0.154-0.631-0.462-0.757-1.079-0.757c-0.546,0-1.149,0.112-1.681,0.238v4.412c0.448,0.084,0.925,0.168,1.387,0.168
		c0.588,0,1.149-0.153,1.345-0.771c0.154-0.476,0.182-1.218,0.182-1.723C46.076,189.102,46.048,188.556,45.922,188.052z"/>
	<path fill="#FFFFFF" d="M49.883,192.954h-0.561c-0.364,0-0.42-0.042-0.42-0.406v-8.572c0-0.309,0.056-0.379,0.364-0.379h0.617
		c0.224,0,0.308,0.183,0.308,0.379v8.572C50.191,192.8,50.163,192.954,49.883,192.954z"/>
	<path fill="#FFFFFF" d="M56.646,190.125h-3.586c0,1.274-0.028,1.975,1.485,1.975c0.49,0,0.98-0.07,1.471-0.168
		c0.224-0.056,0.49-0.154,0.714-0.154c0.154,0,0.154,0.616,0.154,0.757c0,0.28-0.014,0.336-0.294,0.406
		c-0.658,0.153-1.387,0.195-2.059,0.195c-0.7,0-1.653-0.14-2.157-0.686c-0.588-0.631-0.616-1.905-0.616-2.718
		c0-2.129,0.21-3.502,2.717-3.502c2.283,0,2.507,1.316,2.507,3.25C56.982,189.803,57.053,190.125,56.646,190.125z M54.475,187.295
		c-1.247,0-1.415,0.393-1.415,1.569v0.28h2.675c0.014-0.211,0.014-0.421,0.014-0.631C55.75,187.52,55.442,187.295,54.475,187.295z"
		/>
</g>
<g>
	<path fill="#FFFFFF" d="M6.373,209.88c-0.378,0.042-0.771,0.056-1.148,0.056c-0.561,0-1.247-0.027-1.765-0.252
		c-1.177-0.49-1.148-2.115-1.148-3.193c0-0.645,0.014-1.316,0.168-1.947c0.364-1.415,1.471-1.513,2.746-1.513
		c0.378,0,0.771,0.028,1.148,0.07c0.238,0.027,0.561-0.028,0.561,0.28c0,0.224,0,0.476-0.056,0.7
		c-0.028,0.126-0.056,0.21-0.196,0.21c-0.182,0-0.378-0.028-0.574-0.056c-0.434-0.057-0.868-0.112-1.303-0.112
		c-0.35,0-0.756,0.042-0.952,0.364c-0.21,0.336-0.21,1.568-0.21,2.003c0,0.462,0,0.938,0.042,1.4
		c0.07,0.757,0.378,0.953,1.121,0.953c0.435,0,0.883-0.057,1.317-0.112c0.182-0.028,0.378-0.056,0.56-0.056
		c0.056,0,0.112,0.014,0.14,0.056c0.084,0.098,0.112,0.714,0.112,0.854C6.934,209.894,6.611,209.852,6.373,209.88z"/>
	<path fill="#FFFFFF" d="M10.979,209.936c-2.269,0-2.941-1.387-2.941-3.445c0-2.073,0.658-3.46,2.941-3.46
		c2.27,0,2.942,1.415,2.942,3.46S13.234,209.936,10.979,209.936z M12.337,204.684c-0.308-0.575-0.756-0.589-1.359-0.589
		c-0.602,0-1.05,0.014-1.358,0.589c-0.252,0.49-0.28,1.26-0.28,1.807c0,0.546,0.028,1.316,0.28,1.807
		c0.294,0.574,0.77,0.574,1.358,0.574s1.065-0.014,1.359-0.574c0.252-0.476,0.28-1.274,0.28-1.807
		C12.618,205.943,12.589,205.174,12.337,204.684z"/>
	<path fill="#FFFFFF" d="M20.444,209.754h-0.49c-0.392,0-0.49,0.014-0.49-0.406v-3.768c0-0.238,0.014-1.093-0.14-1.289
		c-0.154-0.183-0.406-0.21-0.63-0.21c-0.812,0-1.359,0.462-1.961,0.938v4.328c0,0.252-0.028,0.406-0.308,0.406h-0.49
		c-0.393,0-0.491,0.014-0.491-0.406v-5.729c0-0.321,0.056-0.378,0.364-0.378h0.617c0.35,0,0.308,0.364,0.308,0.603
		c0.7-0.519,1.219-0.826,2.129-0.826c1.205,0,1.891,0.602,1.891,1.807v4.524C20.752,209.6,20.724,209.754,20.444,209.754z"/>
	<path fill="#FFFFFF" d="M25.482,204.263h-1.457v3.559c0,0.42-0.07,1.064,0.532,1.064c0.406,0,0.812-0.21,1.149-0.21
		c0.14,0,0.14,0.056,0.14,0.182v0.532c0,0.351-0.014,0.406-0.364,0.435c-0.392,0.042-0.798,0.069-1.191,0.069
		c-1.499,0-1.555-0.7-1.555-2.03v-3.601c-0.771,0-0.714,0.057-0.714-0.7c0-0.406,0.448-0.322,0.714-0.322v-1.316
		c0-0.309,0.056-0.378,0.364-0.378h0.616c0.224,0,0.308,0.182,0.308,0.378v1.316h1.457c0.434,0,0.392,0.154,0.392,0.519
		C25.875,204.137,25.889,204.263,25.482,204.263z"/>
	<path fill="#FFFFFF" d="M30.704,204.347c-0.938,0-1.345,0.099-2.129,0.603v4.398c0,0.252-0.028,0.406-0.308,0.406h-0.532
		c-0.393,0-0.49,0.014-0.49-0.406v-5.729c0-0.308,0.056-0.378,0.364-0.378h0.659c0.364,0,0.308,0.42,0.308,0.673
		c0.588-0.421,1.303-0.757,2.031-0.757c0.491,0,0.364,0.406,0.364,0.757C30.97,204.123,30.97,204.347,30.704,204.347z"/>
	<path fill="#FFFFFF" d="M33.265,202.176h-0.546c-0.378,0-0.476,0-0.476-0.406v-0.504c0-0.309,0.056-0.379,0.364-0.379h0.658
		c0.224,0,0.308,0.183,0.308,0.379v0.504C33.573,202.021,33.545,202.176,33.265,202.176z M33.265,209.754h-0.546
		c-0.378,0-0.476,0-0.476-0.406v-5.729c0-0.308,0.056-0.378,0.364-0.378h0.658c0.224,0,0.308,0.183,0.308,0.378v5.729
		C33.573,209.6,33.545,209.754,33.265,209.754z"/>
	<path fill="#FFFFFF" d="M37.97,209.95c-0.7,0-1.499-0.057-2.185-0.196c-0.266-0.056-0.462-0.084-0.462-0.393v-8.586
		c0-0.322,0.056-0.379,0.364-0.379h0.616c0.238,0,0.308,0.168,0.308,0.379v2.451c0.645-0.112,1.303-0.196,1.961-0.196
		c2.059,0,2.255,1.751,2.255,3.418C40.827,208.605,40.365,209.95,37.97,209.95z M39.371,204.852
		c-0.154-0.631-0.462-0.757-1.079-0.757c-0.546,0-1.149,0.112-1.681,0.238v4.412c0.448,0.084,0.925,0.168,1.387,0.168
		c0.588,0,1.149-0.153,1.345-0.771c0.154-0.476,0.182-1.218,0.182-1.723C39.524,205.901,39.497,205.355,39.371,204.852z"/>
	<path fill="#FFFFFF" d="M47.253,209.754h-0.617c-0.35,0-0.308-0.364-0.308-0.603c-0.7,0.505-1.218,0.827-2.115,0.827
		c-1.205,0-1.905-0.589-1.905-1.808v-4.524c0-0.546,0.322-0.406,0.812-0.406c0.392,0,0.476,0,0.476,0.406v3.769
		c0,0.237-0.014,1.092,0.14,1.288c0.154,0.183,0.406,0.21,0.63,0.21c0.812,0,1.359-0.462,1.961-0.938v-4.328
		c0-0.546,0.322-0.406,0.812-0.406c0.392,0,0.477,0,0.477,0.406v5.729C47.617,209.698,47.561,209.754,47.253,209.754z"/>
	<path fill="#FFFFFF" d="M52.432,204.263h-1.457v3.559c0,0.42-0.07,1.064,0.532,1.064c0.406,0,0.812-0.21,1.149-0.21
		c0.14,0,0.14,0.056,0.14,0.182v0.532c0,0.351-0.014,0.406-0.364,0.435c-0.392,0.042-0.798,0.069-1.191,0.069
		c-1.499,0-1.555-0.7-1.555-2.03v-3.601c-0.771,0-0.714,0.057-0.714-0.7c0-0.406,0.448-0.322,0.714-0.322v-1.316
		c0-0.309,0.056-0.378,0.364-0.378h0.616c0.224,0,0.308,0.182,0.308,0.378v1.316h1.457c0.434,0,0.392,0.154,0.392,0.519
		C52.824,204.137,52.838,204.263,52.432,204.263z"/>
	<path fill="#FFFFFF" d="M55.287,202.176H54.74c-0.378,0-0.476,0-0.476-0.406v-0.504c0-0.309,0.056-0.379,0.364-0.379h0.658
		c0.224,0,0.308,0.183,0.308,0.379v0.504C55.595,202.021,55.567,202.176,55.287,202.176z M55.287,209.754H54.74
		c-0.378,0-0.476,0-0.476-0.406v-5.729c0-0.308,0.056-0.378,0.364-0.378h0.658c0.224,0,0.308,0.183,0.308,0.378v5.729
		C55.595,209.6,55.567,209.754,55.287,209.754z"/>
	<path fill="#FFFFFF" d="M60.117,209.936c-2.269,0-2.941-1.387-2.941-3.445c0-2.073,0.658-3.46,2.941-3.46
		c2.27,0,2.942,1.415,2.942,3.46S62.373,209.936,60.117,209.936z M61.476,204.684c-0.308-0.575-0.756-0.589-1.359-0.589
		c-0.602,0-1.05,0.014-1.358,0.589c-0.252,0.49-0.28,1.26-0.28,1.807c0,0.546,0.028,1.316,0.28,1.807
		c0.294,0.574,0.77,0.574,1.358,0.574s1.065-0.014,1.359-0.574c0.252-0.476,0.28-1.274,0.28-1.807
		C61.756,205.943,61.728,205.174,61.476,204.684z"/>
	<path fill="#FFFFFF" d="M69.583,209.754h-0.49c-0.392,0-0.49,0.014-0.49-0.406v-3.768c0-0.238,0.014-1.093-0.14-1.289
		c-0.154-0.183-0.406-0.21-0.63-0.21c-0.812,0-1.359,0.462-1.961,0.938v4.328c0,0.252-0.028,0.406-0.308,0.406h-0.49
		c-0.393,0-0.491,0.014-0.491-0.406v-5.729c0-0.321,0.056-0.378,0.364-0.378h0.617c0.35,0,0.308,0.364,0.308,0.603
		c0.7-0.519,1.219-0.826,2.129-0.826c1.205,0,1.891,0.602,1.891,1.807v4.524C69.891,209.6,69.863,209.754,69.583,209.754z"/>
</g>
<g>
	<path fill="#FFFFFF" d="M7.76,225.476c-0.49,0.924-1.457,1.26-2.451,1.26c-0.504,0-1.022-0.069-1.513-0.21v2.466
		c0,0.546-0.336,0.406-0.798,0.406c-0.393,0-0.49,0.014-0.49-0.406v-8.573c0-0.321,0.056-0.378,0.364-0.378h0.617
		c0.35,0,0.308,0.378,0.308,0.616c0.7-0.406,1.471-0.826,2.311-0.826c1.877,0,2.017,1.905,2.017,3.334
		C8.124,223.906,8.11,224.803,7.76,225.476z M6.681,221.553c-0.098-0.406-0.35-0.658-0.784-0.658c-0.63,0-1.583,0.504-2.101,0.854
		v3.685c0.504,0.168,1.022,0.266,1.555,0.266c0.252,0,0.476-0.028,0.714-0.126c0.729-0.309,0.756-1.723,0.756-2.367
		C6.821,222.701,6.808,222.043,6.681,221.553z"/>
	<path fill="#FFFFFF" d="M14.381,223.725h-3.586c0,1.274-0.028,1.975,1.485,1.975c0.49,0,0.98-0.07,1.471-0.168
		c0.224-0.056,0.49-0.154,0.714-0.154c0.154,0,0.154,0.616,0.154,0.757c0,0.28-0.014,0.336-0.294,0.406
		c-0.658,0.153-1.387,0.195-2.059,0.195c-0.7,0-1.653-0.14-2.157-0.686c-0.588-0.631-0.616-1.905-0.616-2.718
		c0-2.129,0.21-3.502,2.717-3.502c2.283,0,2.507,1.316,2.507,3.25C14.717,223.402,14.788,223.725,14.381,223.725z M12.21,220.895
		c-1.247,0-1.415,0.393-1.415,1.569v0.28h2.675c0.014-0.211,0.014-0.421,0.014-0.631C13.485,221.119,13.177,220.895,12.21,220.895z"
		/>
	<path fill="#FFFFFF" d="M19.729,221.146c-0.938,0-1.345,0.099-2.129,0.603v4.398c0,0.252-0.028,0.406-0.308,0.406h-0.532
		c-0.393,0-0.49,0.014-0.49-0.406v-5.729c0-0.308,0.056-0.378,0.364-0.378h0.659c0.364,0,0.308,0.42,0.308,0.673
		c0.588-0.421,1.303-0.757,2.031-0.757c0.491,0,0.364,0.406,0.364,0.757C19.995,220.923,19.995,221.146,19.729,221.146z"/>
	<path fill="#FFFFFF" d="M30.468,218.401c-0.771,0-1.527-0.014-2.297-0.028v7.774c0,0.28-0.056,0.406-0.35,0.406h-0.588
		c-0.35,0-0.434-0.042-0.434-0.406v-7.774c-0.771,0.015-1.527,0.028-2.297,0.028c-0.336,0-0.35-0.154-0.35-0.448v-0.393
		c0-0.28,0.084-0.364,0.35-0.364h5.967c0.462,0,0.35,0.406,0.35,0.757C30.818,218.247,30.804,218.401,30.468,218.401z"/>
	<path fill="#FFFFFF" d="M35.577,223.725h-3.586c0,1.274-0.028,1.975,1.485,1.975c0.49,0,0.98-0.07,1.471-0.168
		c0.224-0.056,0.49-0.154,0.714-0.154c0.154,0,0.154,0.616,0.154,0.757c0,0.28-0.014,0.336-0.294,0.406
		c-0.658,0.153-1.387,0.195-2.059,0.195c-0.7,0-1.653-0.14-2.157-0.686c-0.588-0.631-0.616-1.905-0.616-2.718
		c0-2.129,0.21-3.502,2.717-3.502c2.283,0,2.507,1.316,2.507,3.25C35.913,223.402,35.983,223.725,35.577,223.725z M33.406,220.895
		c-1.247,0-1.415,0.393-1.415,1.569v0.28h2.675c0.014-0.211,0.014-0.421,0.014-0.631C34.681,221.119,34.373,220.895,33.406,220.895z
		"/>
	<path fill="#FFFFFF" d="M42.465,226.554h-0.49c-0.392,0-0.49,0.014-0.49-0.406v-3.768c0-0.238,0.014-1.093-0.14-1.289
		c-0.154-0.183-0.406-0.21-0.63-0.21c-0.812,0-1.359,0.462-1.961,0.938v4.328c0,0.252-0.028,0.406-0.308,0.406h-0.49
		c-0.393,0-0.491,0.014-0.491-0.406v-5.729c0-0.321,0.056-0.378,0.364-0.378h0.617c0.35,0,0.308,0.364,0.308,0.603
		c0.7-0.519,1.219-0.826,2.129-0.826c1.205,0,1.891,0.602,1.891,1.807v4.524C42.773,226.399,42.746,226.554,42.465,226.554z"/>
	<path fill="#FFFFFF" d="M49.157,223.725h-3.586c0,1.274-0.028,1.975,1.485,1.975c0.49,0,0.98-0.07,1.471-0.168
		c0.224-0.056,0.49-0.154,0.714-0.154c0.154,0,0.154,0.616,0.154,0.757c0,0.28-0.014,0.336-0.294,0.406
		c-0.658,0.153-1.387,0.195-2.059,0.195c-0.7,0-1.653-0.14-2.157-0.686c-0.588-0.631-0.616-1.905-0.616-2.718
		c0-2.129,0.21-3.502,2.717-3.502c2.283,0,2.507,1.316,2.507,3.25C49.493,223.402,49.563,223.725,49.157,223.725z M46.986,220.895
		c-1.247,0-1.415,0.393-1.415,1.569v0.28h2.675c0.014-0.211,0.014-0.421,0.014-0.631C48.261,221.119,47.953,220.895,46.986,220.895z
		"/>
	<path fill="#FFFFFF" d="M53.104,226.693c-0.644,0-1.331,0.015-1.961-0.098c-0.238-0.042-0.182-0.238-0.182-0.435
		c0-0.168,0-0.336,0.014-0.504c0.014-0.126,0-0.182,0.14-0.182c0.224,0,0.49,0.069,0.714,0.084c0.49,0.056,0.966,0.084,1.457,0.084
		c0.672,0,0.953-0.042,0.953-0.771c0-0.183,0.014-0.477-0.112-0.631c-0.154-0.196-1.289-0.49-1.527-0.56
		c-1.121-0.337-1.793-0.533-1.793-1.85c0-2.045,1.274-1.947,2.914-1.947c0.336,0,0.686,0,1.022,0.028
		c0.462,0.042,0.462,0.098,0.462,0.546c0,0.253,0.07,0.603-0.266,0.603c-0.238,0-0.476-0.042-0.714-0.069
		c-0.378-0.042-0.742-0.057-1.121-0.057c-0.77,0-1.05-0.056-1.05,0.784c0,0.127,0,0.238,0.028,0.364
		c0.084,0.322,1.051,0.547,1.303,0.631l0.911,0.294c0.98,0.322,1.177,0.7,1.177,1.709C55.471,226.512,54.756,226.693,53.104,226.693
		z"/>
	<path fill="#FFFFFF" d="M58.983,226.693c-0.644,0-1.331,0.015-1.961-0.098c-0.238-0.042-0.182-0.238-0.182-0.435
		c0-0.168,0-0.336,0.014-0.504c0.014-0.126,0-0.182,0.14-0.182c0.224,0,0.49,0.069,0.714,0.084c0.49,0.056,0.966,0.084,1.457,0.084
		c0.672,0,0.953-0.042,0.953-0.771c0-0.183,0.014-0.477-0.112-0.631c-0.154-0.196-1.289-0.49-1.527-0.56
		c-1.121-0.337-1.793-0.533-1.793-1.85c0-2.045,1.274-1.947,2.914-1.947c0.336,0,0.686,0,1.022,0.028
		c0.462,0.042,0.462,0.098,0.462,0.546c0,0.253,0.07,0.603-0.266,0.603c-0.238,0-0.476-0.042-0.714-0.069
		c-0.378-0.042-0.742-0.057-1.121-0.057c-0.77,0-1.05-0.056-1.05,0.784c0,0.127,0,0.238,0.028,0.364
		c0.084,0.322,1.051,0.547,1.303,0.631l0.911,0.294c0.98,0.322,1.177,0.7,1.177,1.709C61.351,226.512,60.636,226.693,58.983,226.693
		z"/>
	<path fill="#FFFFFF" d="M67.497,223.725h-3.586c0,1.274-0.028,1.975,1.485,1.975c0.49,0,0.98-0.07,1.471-0.168
		c0.224-0.056,0.49-0.154,0.714-0.154c0.154,0,0.154,0.616,0.154,0.757c0,0.28-0.014,0.336-0.294,0.406
		c-0.658,0.153-1.387,0.195-2.059,0.195c-0.7,0-1.653-0.14-2.157-0.686c-0.588-0.631-0.616-1.905-0.616-2.718
		c0-2.129,0.21-3.502,2.717-3.502c2.283,0,2.507,1.316,2.507,3.25C67.833,223.402,67.903,223.725,67.497,223.725z M65.325,220.895
		c-1.247,0-1.415,0.393-1.415,1.569v0.28h2.675c0.014-0.211,0.014-0.421,0.014-0.631C66.6,221.119,66.292,220.895,65.325,220.895z"
		/>
	<path fill="#FFFFFF" d="M73.643,226.554c-0.588,0-0.476-0.196-0.476-0.7c-0.659,0.49-1.429,0.882-2.27,0.882
		c-1.261,0-1.737-0.742-1.737-1.933c0-0.812,0.21-1.611,1.022-1.933c0.729-0.295,2.199-0.322,2.984-0.337
		c0-0.322-0.028-0.98-0.14-1.261c-0.126-0.294-0.49-0.392-0.785-0.392c-0.714,0-1.457,0.196-2.143,0.364
		c-0.056,0.014-0.112,0.027-0.168,0.027c-0.266,0-0.182-0.616-0.182-0.784c0-0.182,0-0.308,0.196-0.364
		c0.504-0.14,1.709-0.28,2.241-0.28c2.045,0,2.27,1.009,2.27,2.788v3.516C74.455,226.693,74.119,226.554,73.643,226.554z
		 M73.167,223.57c-0.309-0.015-0.63-0.028-0.939-0.028c-0.448,0-1.429-0.042-1.708,0.406c-0.112,0.196-0.126,0.477-0.126,0.7
		c0,0.519,0.056,1.093,0.701,1.093c0.644,0,1.597-0.49,2.073-0.896V223.57z"/>
	<path fill="#FFFFFF" d="M81.146,226.554h-0.49c-0.392,0-0.49,0.014-0.49-0.406v-3.768c0-0.238,0.014-1.093-0.14-1.289
		c-0.154-0.183-0.406-0.21-0.63-0.21c-0.812,0-1.359,0.462-1.961,0.938v4.328c0,0.252-0.028,0.406-0.308,0.406h-0.49
		c-0.393,0-0.49,0.014-0.49-0.406v-5.729c0-0.321,0.056-0.378,0.364-0.378h0.617c0.35,0,0.308,0.364,0.308,0.603
		c0.7-0.519,1.219-0.826,2.129-0.826c1.205,0,1.891,0.602,1.891,1.807v4.524C81.455,226.399,81.427,226.554,81.146,226.554z"/>
</g>
<g>
	<path fill="#FFFFFF" d="M3.6,235.775H3.053c-0.378,0-0.476,0-0.476-0.406v-0.504c0-0.309,0.056-0.379,0.364-0.379H3.6
		c0.224,0,0.308,0.183,0.308,0.379v0.504C3.908,235.621,3.88,235.775,3.6,235.775z M3.6,243.354H3.053c-0.378,0-0.476,0-0.476-0.406
		v-5.729c0-0.308,0.056-0.378,0.364-0.378H3.6c0.224,0,0.308,0.183,0.308,0.378v5.729C3.908,243.199,3.88,243.354,3.6,243.354z"/>
	<path fill="#FFFFFF" d="M10.728,243.354h-0.49c-0.392,0-0.49,0.014-0.49-0.406v-3.768c0-0.238,0.014-1.093-0.14-1.289
		c-0.154-0.183-0.406-0.21-0.63-0.21c-0.812,0-1.359,0.462-1.961,0.938v4.328c0,0.252-0.028,0.406-0.308,0.406h-0.49
		c-0.393,0-0.49,0.014-0.49-0.406v-5.729c0-0.321,0.056-0.378,0.364-0.378h0.617c0.35,0,0.308,0.364,0.308,0.603
		c0.7-0.519,1.219-0.826,2.129-0.826c1.205,0,1.891,0.602,1.891,1.807v4.524C11.036,243.199,11.008,243.354,10.728,243.354z"/>
	<path fill="#FFFFFF" d="M21.872,243.354h-4.958c-0.28,0-0.322-0.07-0.322-0.351v-0.504c0-0.448,0.49-0.868,0.771-1.177l1.387-1.541
		c0.322-0.35,0.645-0.7,0.924-1.064c0.546-0.7,1.149-1.499,1.149-2.423c0-0.967-0.28-1.317-1.261-1.317
		c-0.49,0-0.98,0.042-1.457,0.127c-0.21,0.042-0.477,0.126-0.687,0.126s-0.21-0.211-0.238-0.364
		c-0.028-0.183-0.056-0.379-0.056-0.547c0-0.252,0.154-0.28,0.351-0.322c0.672-0.126,1.387-0.182,2.073-0.182
		c1.541,0,2.634,0.546,2.634,2.228c0,0.84-0.322,1.807-0.771,2.521c-0.364,0.575-0.854,1.093-1.317,1.583
		c-0.714,0.729-1.443,1.443-2.185,2.144c1.316-0.057,2.647-0.141,3.964-0.141c0.336,0,0.351,0.169,0.351,0.448v0.393
		C22.222,243.27,22.152,243.354,21.872,243.354z"/>
	<path fill="#FFFFFF" d="M29.278,242.275c-0.519,0.896-1.485,1.26-2.479,1.26c-1.008,0-1.975-0.35-2.493-1.26
		c-0.561-0.981-0.687-2.494-0.687-3.601s0.126-2.619,0.687-3.6c0.518-0.911,1.485-1.261,2.493-1.261
		c0.995,0,1.961,0.364,2.479,1.261c0.56,0.98,0.687,2.493,0.687,3.6S29.838,241.294,29.278,242.275z M28.283,235.831
		c-0.266-0.616-0.84-0.854-1.485-0.854s-1.232,0.238-1.499,0.854c-0.294,0.701-0.351,2.088-0.351,2.844
		c0,0.757,0.056,2.144,0.351,2.844c0.266,0.616,0.854,0.854,1.499,0.854s1.219-0.238,1.485-0.854c0.308-0.7,0.35-2.087,0.35-2.844
		C28.633,237.919,28.591,236.532,28.283,235.831z"/>
	<path fill="#FFFFFF" d="M37.09,242.275c-0.519,0.896-1.485,1.26-2.479,1.26c-1.008,0-1.975-0.35-2.493-1.26
		c-0.561-0.981-0.687-2.494-0.687-3.601s0.126-2.619,0.687-3.6c0.518-0.911,1.485-1.261,2.493-1.261
		c0.995,0,1.961,0.364,2.479,1.261c0.56,0.98,0.686,2.493,0.686,3.6S37.65,241.294,37.09,242.275z M36.095,235.831
		c-0.266-0.616-0.84-0.854-1.485-0.854c-0.644,0-1.232,0.238-1.499,0.854c-0.294,0.701-0.351,2.088-0.351,2.844
		c0,0.757,0.056,2.144,0.351,2.844c0.266,0.616,0.854,0.854,1.499,0.854c0.645,0,1.219-0.238,1.485-0.854
		c0.308-0.7,0.35-2.087,0.35-2.844C36.445,237.919,36.403,236.532,36.095,235.831z"/>
	<path fill="#FFFFFF" d="M45.084,241.7c-0.49,1.457-1.639,1.835-3.068,1.835c-0.645,0-1.751-0.126-2.339-0.406
		c-0.112-0.056-0.154-0.126-0.154-0.252c0-0.182,0.07-0.378,0.112-0.546c0.028-0.099,0.07-0.393,0.238-0.393
		c0.042,0,0.687,0.238,0.784,0.267c0.519,0.14,1.051,0.21,1.597,0.21c0.56,0,1.121-0.14,1.457-0.63
		c0.35-0.519,0.336-1.962,0.35-2.578c-0.672,0.238-1.26,0.364-1.975,0.364c-0.701,0-1.401-0.112-1.905-0.645
		c-0.49-0.518-0.658-1.358-0.658-2.059c0-1.989,0.826-3.054,2.885-3.054c1.667,0,2.521,0.574,2.844,2.241
		c0.126,0.7,0.154,1.429,0.154,2.144C45.406,239.264,45.42,240.692,45.084,241.7z M44.061,237.666c0-0.574,0-1.19-0.126-1.751
		c-0.182-0.756-0.882-1.008-1.597-1.008c-1.317,0-1.527,0.742-1.527,1.919c0,1.036,0.224,1.583,1.345,1.583
		c0.658,0,1.303-0.154,1.905-0.406V237.666z"/>
</g>
</svg>
