<?xml version="1.0" standalone="no"?>
<!DOCTYPE svg PUBLIC "-//W3C//DTD SVG 1.1//EN" "http://www.w3.org/Graphics/SVG/1.1/DTD/svg11.dtd" >
<svg>
<metadata>
Created by FontForge 20090914 at Fri Oct 19 18:38:50 2012
 By www-data
Copyright 1997 Monotype Imaging Inc. All rights reserved.
</metadata>
<defs>
<font id="Cachet-Bold" horiz-adv-x="1116" >
  <font-face 
    font-family="Cachet Bold"
    font-weight="700"
    font-stretch="normal"
    units-per-em="2048"
    panose-1="2 15 8 3 3 4 4 4 2 4"
    ascent="1638"
    descent="-410"
    x-height="981"
    cap-height="1368"
    bbox="-113 -489 2546 2015"
    underline-thickness="223"
    underline-position="-155"
    unicode-range="U+0020-U+F002"
  />
<missing-glyph horiz-adv-x="1024" 
d="M51 0v1536h922v-1536h-922zM179 128h666v1280h-666v-1280z" />
    <glyph glyph-name=".notdef" horiz-adv-x="1024" 
d="M51 0v1536h922v-1536h-922zM179 128h666v1280h-666v-1280z" />
    <glyph glyph-name="space" unicode=" " horiz-adv-x="502" 
 />
    <glyph glyph-name="exclam" unicode="!" horiz-adv-x="653" 
d="M481 1262v-2.00098l-14 -668c-2.66699 -74 -38.334 -111 -107.001 -111h-67c-42 0 -69.667 6.83301 -83 20.5s-20.666 43.834 -21.999 90.501l-16 668v6c0 68 37.667 102 113 102h92c36 0 62.333 -10.667 79 -32s25 -46 25 -74zM530 171.999
c0 -25.333 -11.8301 -54.5 -35.4971 -87.5s-51.334 -61.5 -83.001 -85.5s-58.834 -36 -81.501 -36c-55.333 0 -115.333 45 -180 135c-18 22 -27 44.667 -27 68c0 17.333 7.16699 38.5 21.5 63.5s32.666 48.667 54.999 71s44.833 40.333 67.5 54s42.334 20.5 59.001 20.5
c49.333 0 108.666 -45 177.999 -135c17.333 -26 26 -48.667 26 -68z" />
    <glyph glyph-name="quotedbl" unicode="&#x22;" horiz-adv-x="840" 
d="M756 1468v-6l-21 -205c-2.66699 -26 -11.167 -47.167 -25.5 -63.5s-40.5 -24.5 -78.5 -24.5h-33c-69.333 0 -107 29.333 -113 88l-20 205v13c0 52.667 38.333 79 115 79h69c35.333 0 62 -8.5 80 -25.5s27 -37.167 27 -60.5zM377 1468l-0.000976562 -6l-21 -205
c-5.33301 -58.667 -40.666 -88 -105.999 -88h-31c-69.333 0 -107 29.333 -113 88l-20 205v13c0 52.667 37.667 79 113 79h71c35.333 0 62 -8.5 80 -25.5s27 -37.167 27 -60.5z" />
    <glyph glyph-name="numbersign" unicode="#" horiz-adv-x="1317" 
d="M1231 983l-55 -223h-138l-39 -162h134l-56 -223h-133l-76 -312h-260l78 312h-201l-77 -312h-265l80 312h-139l55 223h140l38 162h-137l56 223h137l78 309h258l-74 -309h203l75 309h258l-77 -309h137zM780 760h-200l-39 -162h200z" />
    <glyph glyph-name="dollar" unicode="$" horiz-adv-x="1296" 
d="M1047 430c0 -139.333 -13.6699 -234.997 -41.0029 -286.997c-30 -54 -76 -92.833 -138 -116.5s-135 -37.834 -219 -42.501v-127c0 -22.667 -3.5 -38.334 -10.5 -47.001s-19.167 -13 -36.5 -13h-31c-18 0 -29.333 3 -34 9s-7 23 -7 51v125
c-85.333 1.33301 -168.333 6 -249 14c-48.667 4 -82 13.333 -100 28s-27 36 -27 64v68c0 46 6.66699 77.167 20 93.5s40 24.5 80 24.5c28.667 0 71.667 -2.66699 129 -8c18.667 -1.33301 38.334 -2.5 59.001 -3.5s33.834 -1.83301 39.501 -2.5
s21.834 -1.33398 48.501 -2.00098v311c-10 4 -19.833 8.16699 -29.5 12.5l-41.5 18c-18 7.66699 -33 13.834 -45 18.501c-76 32 -132.833 64.333 -170.5 97s-63.834 71.5 -78.501 116.5s-22 103.167 -22 174.5c0 106 22.667 190.667 68 254s117 101.333 215 114
c22 2.66699 56.667 5.33398 104 8.00098v129c0 24 3.33301 39.333 10 46s21.334 10 44.001 10h18c31.333 0 47 -18.667 47 -56v-129h6c57.333 0 136 -3.33301 236 -10c48.667 -2.66699 82.334 -11.5 101.001 -26.5s28 -36.833 28 -65.5v-66c0 -45.333 -7 -76.333 -21 -93
s-41 -25 -81 -25c-12 0 -43.833 1.66699 -95.5 5s-93.834 5 -126.501 5h-47v-283l37 -14c108 -41.333 186.667 -77.333 236 -108s82.5 -65.334 99.5 -104.001s25.5 -94.334 25.5 -167.001zM529.997 872.003l-0.000976562 236h-8c-38.667 0 -63 -6.83301 -73 -20.5
s-15 -38.834 -15 -75.501v-25c0 -25.333 1.5 -43.5 4.5 -54.5s9.83301 -20.667 20.5 -29s30.334 -17.166 59.001 -26.499zM755.996 416.003c0 26.667 -3.33398 44.833 -10.001 54.5s-22.667 19.5 -48 29.5c-21.333 8 -37.666 14.667 -48.999 20v-262
c43.333 2 72 9.16699 86 21.5s21 38.5 21 78.5v58z" />
    <glyph glyph-name="percent" unicode="%" horiz-adv-x="1907" 
d="M1784 365c0 -74 -8.33301 -139.67 -25 -197.003s-48.5 -104.166 -95.5 -140.499s-112.833 -54.5 -197.5 -54.5c-122.667 0 -206.167 36.167 -250.5 108.5s-66.5 166.833 -66.5 283.5s22.167 211 66.5 283s127.833 108 250.5 108c84.667 0 150.5 -18.167 197.5 -54.5
s78.833 -83.166 95.5 -140.499s25 -122.666 25 -195.999zM1442 1337c0 -11.333 -3.33301 -24.332 -10 -38.999l-748 -1335c-8.66699 -14.667 -20 -25.834 -34 -33.501s-29.333 -11.5 -46 -11.5h-6c-9.33301 0 -16 1.33301 -20 4l-95 58c-14.667 8 -22 25.667 -22 53
c0 15.333 3.33301 28.333 10 39l750 1335c16.667 30 41.667 45 75 45h7c9.33301 0 16 -1.33301 20 -4l96 -57c15.333 -8.66699 23 -26.667 23 -54zM756 1004c0 -74 -8.33301 -139.671 -25 -197.004s-48.5 -104.166 -95.5 -140.499s-112.833 -54.5 -197.5 -54.5
s-150.167 18.167 -196.5 54.5s-77.666 83.333 -93.999 141s-24.5 123.167 -24.5 196.5c0 72.667 8.16699 137.834 24.5 195.501s47.666 104.667 93.999 141s111.833 54.5 196.5 54.5s150.5 -18.167 197.5 -54.5s78.833 -83.166 95.5 -140.499s25 -122.666 25 -195.999z
M1565 364.994c0 85.333 -9 146.667 -27 184c-10.667 17.333 -34.667 26 -72 26c-42 0 -66.333 -8.66699 -73 -26c-16.667 -32 -25 -93.333 -25 -184c0 -91.333 8.33301 -153 25 -185c6.66699 -17.333 31 -26 73 -26c37.333 0 61.333 8.66699 72 26c18 37.333 27 99 27 185z
M537 1004c0 41.333 -2.5 78.835 -7.5 112.502s-10.833 57.5 -17.5 71.5c-10.667 17.333 -35.334 26 -74.001 26c-40.667 0 -64.334 -8.66699 -71.001 -26c-16.667 -32 -25 -93.333 -25 -184c0 -91.333 8.33301 -153 25 -185c6.66699 -17.333 30.334 -26 71.001 -26
c38.667 0 63.334 8.66699 74.001 26c7.33301 15.333 13.333 39.666 18 72.999s7 70.666 7 111.999z" />
    <glyph glyph-name="ampersand" unicode="&#x26;" horiz-adv-x="1436" 
d="M1352 127c0 -12.667 -8.33203 -31.0078 -24.999 -55.0078c-22.667 -28 -44.334 -51.5 -65.001 -70.5s-40 -28.5 -58 -28.5c-17.333 0 -42.166 12.333 -74.499 37s-62.166 50.667 -89.499 78c-85.333 -80.667 -215 -121 -389 -121c-70.667 0 -135 3.83301 -193 11.5
s-113 24.334 -165 50.001s-93.333 64.334 -124 116.001s-46 119.5 -46 203.5c0 50 4.66699 95.833 14 137.5s23.166 77.667 41.499 108s41.833 58 70.5 83s63.667 48.833 105 71.5c-94 103.333 -141 211 -141 323c0 106.667 35.333 187 106 241s170.334 81 299.001 81
c96 0 176 -9.16699 240 -27.5s113.167 -51.666 147.5 -99.999s51.5 -115.166 51.5 -200.499c0 -43.333 -7.16699 -82.5 -21.5 -117.5s-34.333 -66.167 -60 -93.5s-52.834 -51.166 -81.501 -71.499s-72.667 -49.166 -132 -86.499c29.333 -33.333 62.5 -68.833 99.5 -106.5
l117.5 -116.5c5.33301 20.667 9.66602 41.334 12.999 62.001s6.83301 44 10.5 70s6.16699 46.333 7.5 61c4.66699 51.333 34.667 77 90 77h67c32.667 0 55.167 -6.16699 67.5 -18.5s18.5 -40.166 18.5 -83.499c0 -52.667 -7.5 -111.667 -22.5 -177s-33.833 -119 -56.5 -161
c34.667 -24 73 -54.5 115 -91.5s63 -65.167 63 -84.5zM764.001 1064.99c0 34.667 -9.66602 56.333 -28.999 65s-58.333 13 -117 13c-44.667 0 -73.834 -5.83301 -87.501 -17.5s-20.5 -36.5 -20.5 -74.5c0 -61.333 31.333 -123 94 -185c58 28 99.167 56.5 123.5 85.5
s36.5 66.833 36.5 113.5zM838.002 261.991c-82.667 70.667 -181.667 167.666 -297 290.999c-50 -28.667 -81.333 -53.334 -94 -74.001s-19 -59.667 -19 -117c0 -34 2.83301 -60.167 8.5 -78.5s16 -31.666 31 -39.999s37.667 -13.833 68 -16.5s68.833 -4 115.5 -4
c48 0 86.5 2.83301 115.5 8.5s52.833 15.834 71.5 30.501z" />
    <glyph glyph-name="quotesingle" unicode="'" horiz-adv-x="461" 
d="M377 1470v-8l-21 -205c-2.66699 -26 -11.167 -47.167 -25.5 -63.5s-40.5 -24.5 -78.5 -24.5h-33c-69.333 0 -107 29.333 -113 88l-20 205v13c0 52.667 38.333 79 115 79h71c34 0 60 -8.5 78 -25.5s27 -36.5 27 -58.5z" />
    <glyph glyph-name="parenleft" unicode="(" horiz-adv-x="682" 
d="M692 -279c-81.333 2 -148.834 8.16602 -202.501 18.499s-101.667 29.5 -144 57.5s-77.5 68.333 -105.5 121c-26 50 -46.667 106.5 -62 169.5s-26.833 127.5 -34.5 193.5s-13 136.167 -16 210.5s-4.5 137.833 -4.5 190.5c0 150.667 7.33301 292.834 22 426.501
s46.334 246.167 95.001 337.5c28 52 63.167 92.333 105.5 121s91.333 48.667 147 60s122.167 18 199.5 20v-281c-58 -1.33301 -102.167 -7.5 -132.5 -18.5s-53 -29 -68 -54s-27.167 -58.167 -36.5 -99.5c-12.667 -51.333 -22 -105.166 -28 -161.499
s-9.66699 -109.333 -11 -159s-2 -112.834 -2 -189.501c0 -57.333 0.333008 -100.5 1 -129.5s2.5 -68.667 5.5 -119s7 -95 12 -134s12.5 -81.5 22.5 -127.5c9.33301 -41.333 21.5 -74.5 36.5 -99.5s37.667 -43 68 -54s74.5 -17.167 132.5 -18.5v-281z" />
    <glyph glyph-name="parenright" unicode=")" horiz-adv-x="684" 
d="M561 682c0 -90 -2.66797 -179.335 -8.00098 -268.002s-16.833 -178.167 -34.5 -268.5s-43.167 -166.166 -76.5 -227.499c-28 -52.667 -63.167 -93 -105.5 -121s-90.333 -47.167 -144 -57.5s-121.167 -16.5 -202.5 -18.5v281c83.333 0.666992 140.333 13.334 171 38.001
s53.334 69.334 68.001 134.001c16.667 68 27.334 141.167 32.001 219.5s7 175.166 7 290.499s-2.33301 212 -7 290s-15.334 151.333 -32.001 220c-9.33301 42 -21.833 75.333 -37.5 100s-38.5 42.5 -68.5 53.5s-74.333 17.167 -133 18.5v281
c57.333 -1.33301 108.833 -5.16602 154.5 -11.499s86.667 -16.5 123 -30.5s69.5 -34.333 99.5 -61s55 -59.334 75 -98.001c48 -88 79.833 -199.667 95.5 -335s23.5 -278.333 23.5 -429z" />
    <glyph glyph-name="asterisk" unicode="*" horiz-adv-x="813" 
d="M729 1192c0 -39.333 -25.334 -67.333 -76.001 -84l-55 -18l57 -80c15.333 -20 23 -40.667 23 -62c0 -24.667 -13 -47 -39 -67l-29 -23c-23.333 -19.333 -45 -29 -65 -29c-26 0 -52 18 -78 54l-61 84l-60 -84c-26 -36 -52 -54 -78 -54c-20 0 -41.667 9.66699 -65 29
l-29 23c-27.333 20.667 -41 43 -41 67c0 19.333 8.33301 40 25 62l57 80l-53 18c-52 17.333 -78 46 -78 86c0 12.667 3.33301 29 10 49l12 35c14.667 42 39.334 63 74.001 63c10 0 23 -2.66699 39 -8l76 -26v57c0 39.333 8.5 66.833 25.5 82.5s43.167 23.5 78.5 23.5h35
c57.333 0 86 -31.333 86 -94v-69l74 26c16 5.33301 29.667 8 41 8c33.333 0 57.333 -21 72 -63l12 -35c6.66699 -20 10 -37 10 -51z" />
    <glyph glyph-name="plus" unicode="+" horiz-adv-x="1180" 
d="M1085 432h-358v-340h-272v340h-361v250h361v340h272v-340h358v-250z" />
    <glyph glyph-name="comma" unicode="," horiz-adv-x="664" 
d="M541 158c0 -24 -17.499 -71.999 -52.499 -143.999s-74.333 -143.333 -118 -214s-75.834 -115.334 -96.501 -134.001c-19.333 -17.333 -40.333 -26 -63 -26c-30 0 -61.667 13.167 -95 39.5s-50 53.833 -50 82.5c0 14 23.833 58.167 71.5 132.5s74.834 118.5 81.501 132.5
l-40.5 37c-15.667 14.667 -28.834 30.167 -39.501 46.5s-16 32.833 -16 49.5c0 21.333 9.66699 42.333 29 63c35.333 42 67.833 77.833 97.5 107.5s55.167 44.5 76.5 44.5s47.5 -13.667 78.5 -41s65.5 -60 103.5 -98c22 -22.667 33 -48.667 33 -78z" />
    <glyph glyph-name="hyphen" unicode="-" horiz-adv-x="975" 
d="M889 508c0 -26.667 -8 -46.333 -24 -59s-47 -19 -93 -19h-575c-75.333 0 -113 22 -113 66v116c0 21.333 12 37 36 47s49.667 15 77 15h575c78 0 117 -20.667 117 -62v-104z" />
    <glyph glyph-name="period" unicode="." horiz-adv-x="653" 
d="M530 172c0 -25.333 -11.8311 -54.5 -35.498 -87.5s-51.334 -61.5 -83.001 -85.5s-58.834 -36 -81.501 -36c-55.333 0 -115.333 45 -180 135c-18 22 -27 44.667 -27 68c0 17.333 7.16699 38.5 21.5 63.5s32.666 48.667 54.999 71s44.833 40.333 67.5 54
s42.334 20.5 59.001 20.5c50.667 0 110.667 -45 180 -135c16 -24 24 -46.667 24 -68z" />
    <glyph glyph-name="slash" unicode="/" horiz-adv-x="743" 
d="M864 1329c0 -18.667 -3.33398 -35.667 -10.001 -51l-545 -1268c-21.333 -48.667 -50.666 -73 -87.999 -73c-16.667 0 -34.334 4.66699 -53.001 14l-31 14c-32 15.333 -55 30 -69 44s-21 32 -21 54c0 18.667 4.66699 38.667 14 60l547 1268c20 46 48.667 69 86 69
c16.667 0 37.334 -5.33301 62.001 -16l47 -23c40.667 -19.333 61 -50 61 -92z" />
    <glyph glyph-name="zero" unicode="0" horiz-adv-x="1309" 
d="M1184 684c0 -132.667 -13.833 -251.332 -41.5 -355.999s-80.834 -190 -159.501 -256s-188 -99 -328 -99c-141.333 0 -251 33 -329 99s-130.667 150.667 -158 254s-41 222.666 -41 357.999s13.667 254.666 41 357.999s80 188 158 254s187.667 99 329 99
c140.667 0 250.334 -33 329.001 -99s131.667 -150.667 159 -254s41 -222.666 41 -357.999zM868 684.002c0 56 -2 106.669 -6 152.002s-10 86.666 -18 123.999s-16.333 65.333 -25 84c-24.667 53.333 -79.334 80 -164.001 80c-87.333 0 -142.666 -26.667 -165.999 -80
c-31.333 -68 -47 -188 -47 -360s15.667 -292 47 -360c23.333 -53.333 78.666 -80 165.999 -80c84.667 0 139.334 26.667 164.001 80c8.66699 18.667 17 46.667 25 84s14 78.666 18 123.999s6 96 6 152z" />
    <glyph glyph-name="one" unicode="1" horiz-adv-x="1266" 
d="M829 111c0 -74 -34.668 -111.003 -104.001 -111.003h-74c-45.333 0 -78.5 7.33301 -99.5 22s-31.5 44.334 -31.5 89.001v946c-65.333 -28.667 -106.333 -43 -123 -43c-38.667 0 -63.667 13.333 -75 40s-17 60.334 -17 101.001c0 28 6.33301 50.833 19 68.5
s32.334 31.834 59.001 42.501c5.33301 2 35.5 14.667 90.5 38s100.333 39.833 136 49.5s74.167 14.5 115.5 14.5c36.667 0 63.167 -10.833 79.5 -32.5s24.5 -46.167 24.5 -73.5v-1151z" />
    <glyph glyph-name="two" unicode="2" horiz-adv-x="1300" 
d="M1073 104c0 -69.333 -37.332 -103.998 -111.999 -103.998h-734c-70.667 0 -106 34.667 -106 104v68c0 19.333 4 37.666 12 54.999s18.167 34 30.5 50s25.166 30.667 38.499 44l48 48l156 156l89.5 89.5c30.333 30.333 50.166 50.666 59.499 60.999l35 39.5
c50.667 59.333 89.167 111.166 115.5 155.499s39.5 89.5 39.5 135.5c0 51.333 -7.83301 84.166 -23.5 98.499s-50.167 21.5 -103.5 21.5c-49.333 0 -96.333 -2.5 -141 -7.5s-84.334 -10.667 -119.001 -17s-53.667 -9.5 -57 -9.5c-22 0 -39.667 4.83301 -53 14.5
s-22.666 21.334 -27.999 35.001s-9.5 30.834 -12.5 51.501l-8.5 58c-1.33301 6 -2 13.667 -2 23c0 54.667 34.667 86.667 104 96c134.667 16.667 240.334 25 317.001 25c70 0 132.833 -7.16699 188.5 -21.5s102.5 -36 140.5 -65s67.167 -65.667 87.5 -110
s30.5 -97.833 30.5 -160.5c0 -80.667 -15.333 -156.5 -46 -227.5s-71.167 -137.167 -121.5 -198.5s-111.833 -124.833 -184.5 -190.5l-178 -159.5c96.667 4 175.5 7 236.5 9s124.167 3 189.5 3c74.667 0 112 -38.667 112 -116v-54z" />
    <glyph glyph-name="three" unicode="3" horiz-adv-x="1303" 
d="M1100 422c0 -151.333 -40.168 -264.002 -120.501 -338.002s-200.833 -111 -361.5 -111c-86.667 0 -188.167 12.333 -304.5 37s-174.5 63.667 -174.5 117c0 9.33301 1.83301 21.5 5.5 36.5s9 32 16 51s11.5 31.5 13.5 37.5c13.333 44.667 42 67 86 67c10 0 23 -2 39 -6
c124.667 -44.667 234 -67 328 -67c62 0 104.333 12.5 127 37.5s34 69.833 34 134.5c0 38.667 -6.33301 68.167 -19 88.5s-30.334 34.333 -53.001 42s-53.667 12.5 -93 14.5c-26 1.33301 -65.667 2 -119 2h-131c-61.333 0 -92 28 -92 84v92c0 56 32 84 96 84h133
c70 0 120.333 4.66699 151 14s51 26.333 61 51s15 63.334 15 116.001c0 34.667 -4 60.5 -12 77.5s-24 29.5 -48 37.5s-59.333 12 -106 12c-38 0 -74.167 -2 -108.5 -6s-68 -8.83301 -101 -14.5s-50.5 -8.5 -52.5 -8.5c-22 0 -39.167 5.33301 -51.5 16
s-21.166 23.834 -26.499 39.501s-9 34.167 -11 55.5s-3.66699 40.333 -5 57v12c0 31.333 12.333 56 37 74c6.66699 4.66699 26.334 10.167 59.001 16.5s71 11.333 115 15s90.333 5.5 139 5.5c161.333 0 281.5 -29.667 360.5 -89s118.5 -154 118.5 -284
c0 -117.333 -33.333 -210.333 -100 -279c56 -30.667 96 -71.667 120 -123s36 -117.333 36 -198z" />
    <glyph glyph-name="four" unicode="4" horiz-adv-x="1309" 
d="M1141 426c0 -71.333 -37 -107.002 -111 -107.002h-33v-208c0 -74 -34.667 -111 -104 -111h-53c-45.333 0 -78.5 7.33301 -99.5 22s-31.5 44.334 -31.5 89.001v208h-381h-111c-38.667 0 -68.5 19.167 -89.5 57.5s-31.5 78.833 -31.5 121.5
c0 34.667 10.333 65.334 31 92.001l567 727c27.333 34 56 51 86 51h113c36.667 0 63.167 -10.833 79.5 -32.5s24.5 -46.167 24.5 -73.5v-668h33c74 0 111 -39 111 -117v-51zM709 585.998v354.001l-277 -365c16 1.33301 39.833 2.5 71.5 3.5s63.167 2.16699 94.5 3.5
s68.333 2.66602 111 3.99902z" />
    <glyph glyph-name="five" unicode="5" horiz-adv-x="1298" 
d="M1106 436c0 -96.667 -18.667 -179.837 -56 -249.504s-91.5 -122.667 -162.5 -159s-156.5 -54.5 -256.5 -54.5c-62 0 -132.833 6.83301 -212.5 20.5s-139.167 28.834 -178.5 45.501c-36 16 -54 42.667 -54 80c0 25.333 3.83301 52.833 11.5 82.5s19.667 55.334 36 77.001
s36.833 32.5 61.5 32.5c12 0 57.667 -12.333 137 -37c82.667 -21.333 148.334 -32 197.001 -32c55.333 0 97.166 15.667 125.499 47s42.5 82.333 42.5 153c0 29.333 -3.16699 57.833 -9.5 85.5s-13.5 48.5 -21.5 62.5c-6.66699 11.333 -20.5 20.333 -41.5 27
s-61.833 10 -122.5 10c-44 0 -95.333 -3.83301 -154 -11.5s-92.667 -11.5 -102 -11.5c-29.333 0 -53.333 8.33301 -72 25s-28 39.667 -28 69v11l45 548c3.33301 38.667 13.5 66.834 30.5 84.501s43.5 26.5 79.5 26.5h572c73.333 0 110 -34.667 110 -104v-54
c0 -32 -6.5 -59.333 -19.5 -82s-43.167 -34 -90.5 -34c-180.667 0 -315.334 1.33301 -404.001 4l-22 -209c16 1.33301 40.667 2 74 2c44 0 83.833 -1.16699 119.5 -3.5s65.834 -5.83301 90.501 -10.5c89.333 -17.333 157.5 -66.166 204.5 -146.499s70.5 -178.5 70.5 -294.5z
" />
    <glyph glyph-name="six" unicode="6" horiz-adv-x="1305" 
d="M1151 436c0 -156 -42.3311 -272.167 -126.998 -348.5s-211.667 -114.5 -381 -114.5c-62 0 -118.5 6 -169.5 18s-97.5 30.667 -139.5 56c-46 29.333 -81.5 63.666 -106.5 102.999s-42.833 87.333 -53.5 144s-16 127.334 -16 212.001c0 88.667 2.16699 168.334 6.5 239.001
s10.5 135 18.5 193s18.667 111.333 32 160c28.667 102 82.167 176.667 160.5 224s183.166 71.666 314.499 72.999h33c40 0 115.667 -3.66699 227 -11c46 -3.33301 78.333 -12.833 97 -28.5s28 -44.167 28 -85.5v-64c0 -28 -8.33301 -50.667 -25 -68s-40.334 -26 -71.001 -26
c-8 0 -26.167 2 -54.5 6s-63.333 7.5 -105 10.5s-94.167 4.5 -157.5 4.5c-69.333 0 -113.333 -20.667 -132 -62c-18.667 -46 -33.667 -114.333 -45 -205c84.667 16.667 162 25 232 25c102 0 185 -16.5 249 -49.5s110.833 -83 140.5 -150s44.5 -152.167 44.5 -255.5z
M842.002 453c0 69.333 -9.99609 115.333 -29.9961 138s-55 34 -105 34c-30.667 0 -68.334 -3 -113.001 -9s-85 -14 -121 -24c-2.66699 -62.667 -4 -108.334 -4 -137.001c0 -55.333 4.66699 -97.666 14 -126.999s28.666 -51 57.999 -65s72.333 -21 129 -21
c45.333 0 80.166 5.16699 104.499 15.5s41.666 31 51.999 62s15.5 75.5 15.5 133.5z" />
    <glyph glyph-name="seven" unicode="7" horiz-adv-x="1298" 
d="M1116 1266c0 -17.333 -3.33301 -35.332 -10 -53.999l-471 -1073c-24 -55.333 -46.333 -92.333 -67 -111s-45.334 -28 -74.001 -28h-105c-24 0 -46.333 5.5 -67 16.5s-31 32.167 -31 63.5c0 16 11 48 33 96l409 926c-182.667 -5.33301 -323.334 -8 -422.001 -8
c-32 0 -56.167 6.16699 -72.5 18.5s-26.666 26.333 -30.999 42s-6.5 34.167 -6.5 55.5v54c0 69.333 36.667 104 110 104h637c64.667 0 108.834 -8.33301 132.501 -25s35.5 -42.334 35.5 -77.001z" />
    <glyph glyph-name="eight" unicode="8" horiz-adv-x="1305" 
d="M1149 377c0 -125.333 -30.002 -220.335 -90.002 -285.002c-41.333 -45.333 -93.333 -76.5 -156 -93.5s-146 -25.5 -250 -25.5c-108.667 0 -199.5 12.167 -272.5 36.5s-128.667 66.333 -167 126s-57.5 140.167 -57.5 241.5c0 55.333 6.5 100.833 19.5 136.5
s33.833 66.167 62.5 91.5s71 53.666 127 84.999c-69.333 46.667 -116.833 93.334 -142.5 140.001s-38.5 111.334 -38.5 194.001c0 93.333 15.167 166.833 45.5 220.5s79.333 92.167 147 115.5s159.834 35 276.501 35s208.834 -11.667 276.501 -35
s116.667 -61.833 147 -115.5s45.5 -127.167 45.5 -220.5c0 -70 -14 -130.833 -42 -182.5s-77.333 -101.5 -148 -149.5c75.333 -42 130.333 -85.667 165 -131s52 -106.666 52 -183.999zM810.998 1020c0 52.667 -3.66797 85.998 -11.001 99.998s-25.666 21 -54.999 21
c-16 0 -31 -0.166992 -45 -0.5s-29.667 -0.833008 -47 -1.5c-15.333 0.666992 -29.166 1.16699 -41.499 1.5s-25.833 0.5 -40.5 0.5c-26 0 -44 -2.66699 -54 -8s-16.333 -15.333 -19 -30s-4 -42.334 -4 -83.001c0 -27.333 3.66699 -50.666 11 -69.999
s17.5 -35.666 30.5 -48.999s28.833 -26 47.5 -38l62 -38l68 39.5c19.333 11.667 36.166 23.834 50.499 36.501s25.833 29 34.5 49s13 43.333 13 70zM839.997 370.996c0 36 -11.998 65.166 -35.998 87.499s-73.667 52.5 -149 90.5l-83.5 -45
c-30.333 -16.667 -55.333 -35.667 -75 -57s-29.5 -46.666 -29.5 -75.999c0 -42 6.33301 -73 19 -93s30 -32.833 52 -38.5s52.333 -8.5 91 -8.5h24h27c37.333 0 67.166 2.83301 89.499 8.5s39.666 18.5 51.999 38.5s18.5 51 18.5 93z" />
    <glyph glyph-name="nine" unicode="9" horiz-adv-x="1305" 
d="M1153 748c0 -128.667 -3.83398 -229.33 -11.501 -301.997s-20.834 -135.334 -39.501 -188.001c-24 -66.667 -58.667 -120.834 -104 -162.501s-101.833 -72.5 -169.5 -92.5s-146.5 -30 -236.5 -30c-127.333 0 -249 19.333 -365 58c-42 14 -63 42 -63 84
c0 19.333 6 49.333 18 90c10.667 38.667 23.5 64.334 38.5 77.001s32.833 19 53.5 19c10.667 0 32.834 -5.83301 66.501 -17.5s51.167 -17.5 52.5 -17.5c74.667 -18.667 152.667 -28 234 -28c66.667 0 114.5 12.833 143.5 38.5s46 55 51 88s9.16699 89.833 12.5 170.5
c-73.333 -19.333 -150.666 -29 -231.999 -29c-144 0 -253 35.833 -327 107.5s-111 176.5 -111 314.5c0 102 17.167 187.833 51.5 257.5s87.666 122 159.999 157s163.5 52.5 273.5 52.5c126.667 0 226.834 -21.833 300.501 -65.5s126 -112.334 157 -206.001
s46.5 -218.834 46.5 -375.501zM835.999 813.004c0 45.333 -0.668945 78.666 -2.00195 99.999c-3.33301 78.667 -16.166 135.334 -38.499 170.001s-73.833 52 -154.5 52c-45.333 0 -79.5 -5 -102.5 -15s-39.667 -29.833 -50 -59.5s-15.5 -72.5 -15.5 -128.5
c0 -64 9.33301 -106 28 -126s55.667 -30 111 -30c74.667 0 149.334 12.333 224.001 37z" />
    <glyph glyph-name="colon" unicode=":" horiz-adv-x="653" 
d="M530 727c0 -25.333 -11.8311 -54.5 -35.498 -87.5s-51.334 -61.5 -83.001 -85.5s-58.834 -36 -81.501 -36c-55.333 0 -115.333 45 -180 135c-18 22 -27 44.667 -27 68c0 17.333 7.16699 38.5 21.5 63.5s32.666 48.667 54.999 71s44.833 40.333 67.5 54
s42.334 20.5 59.001 20.5c50.667 0 110.667 -45 180 -135c16 -24 24 -46.667 24 -68zM530.002 170c0 -24 -12 -52.833 -36 -86.5s-51.667 -62.167 -83 -85.5s-58.333 -35 -81 -35c-31.333 0 -62.5 13 -93.5 39s-59.833 57.333 -86.5 94c-18 22 -27 45.333 -27 70
c0 24 12 52.667 36 86s52 61.833 84 85.5s59.667 35.5 83 35.5c50.667 0 110.667 -45 180 -135c16 -24 24 -46.667 24 -68z" />
    <glyph glyph-name="semicolon" unicode=";" horiz-adv-x="664" 
d="M528 727c0 -25.333 -11.832 -54.499 -35.499 -87.499s-51.334 -61.5 -83.001 -85.5s-58.834 -36 -81.501 -36c-51.333 0 -111.666 45 -180.999 135c-17.333 26 -26 48.667 -26 68c0 17.333 7.16699 38.5 21.5 63.5s32.666 48.667 54.999 71s44.833 40.333 67.5 54
s42.334 20.5 59.001 20.5c52.667 0 112 -45 178 -135c17.333 -22.667 26 -45.334 26 -68.001zM541.001 158.001c0 -24 -17.499 -71.999 -52.499 -143.999s-74.333 -143.333 -118 -214s-75.834 -115.334 -96.501 -134.001c-19.333 -17.333 -40.333 -26 -63 -26
c-30 0 -61.667 13.167 -95 39.5s-50 53.833 -50 82.5c0 14 23.833 58.167 71.5 132.5s74.834 118.5 81.501 132.5l-40.5 37c-15.667 14.667 -28.834 30.167 -39.501 46.5s-16 32.833 -16 49.5c0 21.333 9.66699 42.333 29 63c35.333 42 67.833 77.833 97.5 107.5
s55.167 44.5 76.5 44.5s47.5 -13.667 78.5 -41s65.5 -60 103.5 -98c22 -22.667 33 -48.667 33 -78z" />
    <glyph glyph-name="less" unicode="&#x3c;" horiz-adv-x="1489" 
d="M1348 98l-1244 465v189l1244 465v-281l-764 -279l764 -278v-281z" />
    <glyph glyph-name="equal" unicode="=" horiz-adv-x="1071" 
d="M977 639h-883v211h883v-211zM977 264h-883v211h883v-211z" />
    <glyph glyph-name="greater" unicode="&#x3e;" horiz-adv-x="1487" 
d="M1382 563l-1241 -465v281l764 278l-764 279v281l1241 -465v-189z" />
    <glyph glyph-name="question" unicode="?" horiz-adv-x="1057" 
d="M952 1067c0 -90.667 -39.3359 -169.33 -118.003 -235.997l-90.5 -69.5c-47.667 -36.333 -84.5 -67.5 -110.5 -93.5c-22.667 -22.667 -39.667 -42.834 -51 -60.501s-17 -38.5 -17 -62.5c0 -22 -6.83301 -38.167 -20.5 -48.5s-39.5 -15.5 -77.5 -15.5h-61
c-44 0 -72.167 7 -84.5 21s-18.5 37.667 -18.5 71v54c0 43.333 14.333 82 43 116s70.334 71.167 125.001 111.5s95.667 74.666 123 102.999s41 59.5 41 93.5c0 32 -8.16699 55 -24.5 69s-47.166 21 -92.499 21c-25.333 0 -51 -1.33301 -77 -4s-52.333 -6 -79 -10
s-60.667 -9.66699 -102 -17c-9.33301 -1.33301 -17.666 -2.66602 -24.999 -3.99902s-14 -2 -20 -2c-22 0 -39.167 5.66699 -51.5 17s-21 24.666 -26 39.999s-8.66699 37.5 -11 66.5s-3.5 44.5 -3.5 46.5v12c0 49.333 30 78 90 86c110.667 16.667 215.667 25 315 25
c142 0 248.167 -25.333 318.5 -76s105.5 -135.334 105.5 -254.001zM648.997 172.004c0 -25.333 -11.832 -54.499 -35.499 -87.499s-51.334 -61.5 -83.001 -85.5s-58.834 -36 -81.501 -36c-51.333 0 -111.666 45 -180.999 135c-17.333 26 -26 48.667 -26 68
c0 25.333 12 54.5 36 87.5s52 61.5 84 85.5s59.333 36 82 36c54.667 0 115 -45 181 -135c16 -20.667 24 -43.334 24 -68.001z" />
    <glyph glyph-name="at" unicode="@" horiz-adv-x="2247" 
d="M2077 463c0 -82.667 -9.49805 -155.666 -28.498 -218.999s-47.333 -117.166 -85 -161.499s-83.5 -78 -137.5 -101s-116.667 -34.5 -188 -34.5c-130.667 0 -232.334 45 -305.001 135c-47.333 -38 -99.833 -65.667 -157.5 -83s-124.5 -26 -200.5 -26
c-104 0 -183 26.667 -237 80s-81 129.333 -81 228c0 88.667 20.167 157.334 60.5 206.001s93.333 81.334 159 98.001s143.5 25 233.5 25c49.333 0 98.333 -2 147 -6c0 58.667 -5.16699 100 -15.5 124s-32.833 36 -67.5 36c-33.333 0 -81 -4.16699 -143 -12.5
s-115.667 -17.833 -161 -28.5c-16 -2.66699 -29 -4 -39 -4c-57.333 0 -86 27.333 -86 82v43c0 58.667 26 92.667 78 102c50 9.33301 108.5 17.833 175.5 25.5s121.833 11.5 164.5 11.5c151.333 0 256 -32 314 -96c32 -34.667 53.667 -74 65 -118s17 -112 17 -204v-139v-49
c0 -38.667 1.83301 -70.834 5.5 -96.501s12.334 -46 26.001 -61s33.834 -22.5 60.501 -22.5c36.667 0 65.167 13.667 85.5 41s30.5 89.333 30.5 186c0 169.333 -14 307.5 -42 414.5s-84.833 190.333 -170.5 250s-211.834 89.5 -378.501 89.5
c-139.333 0 -254.333 -14.333 -345 -43s-161.334 -72.334 -212.001 -131.001s-86.334 -133 -107.001 -223s-31 -200 -31 -330c0 -103.333 11 -194.833 33 -274.5s56.667 -147.834 104 -204.501s109.5 -100.334 186.5 -131.001s169.833 -46 278.5 -46c66 0 128.5 6 187.5 18
s128.5 30.667 208.5 56c10.667 4 21.334 6 32.001 6c29.333 0 50 -10.5 62 -31.5s24.333 -50.167 37 -87.5c5.33301 -16 8 -31.667 8 -47c0 -39.333 -25.333 -67.333 -76 -84c-80.667 -25.333 -165.167 -44.666 -253.5 -57.999s-166.833 -20 -235.5 -20
c-158.667 0 -294.334 23 -407.001 69s-204 110.5 -274 193.5s-121.167 181.167 -153.5 294.5s-48.5 238.333 -48.5 375c0 207.333 37.5 381.166 112.5 521.499s187 245.5 336 315.5s331.833 105 548.5 105c164 0 304.5 -22.333 421.5 -67s211.167 -108.667 282.5 -192
s123.5 -183.333 156.5 -300s49.5 -249.667 49.5 -399zM1276 266.001c-10.667 37.333 -16 79.668 -16 127.001v17c-8.66699 0 -21.667 0.666992 -39 2s-30.333 2 -39 2c-56 0 -101.833 -3.33301 -137.5 -10s-61 -18 -76 -34s-22.5 -39 -22.5 -69
c0 -32.667 4.83301 -60.334 14.5 -83.001s24.167 -34 43.5 -34c37.333 0 69.333 2.66699 96 8s53 13.5 79 24.5s58.333 27.5 97 49.5z" />
    <glyph glyph-name="A" unicode="A" horiz-adv-x="1321" 
d="M1292 82c0 -54.667 -32.002 -81.999 -96.002 -81.999h-113c-35.333 0 -61.333 7.5 -78 22.5s-30 35.5 -40 61.5l-64 168c-65.333 -1.33301 -147.333 -2 -246 -2c-112 0 -193.667 0.666992 -245 2l-56 -154c-12 -33.333 -26.333 -58 -43 -74s-44.667 -24 -84 -24h-94
c-42.667 0 -70.667 6.16699 -84 18.5s-20 30.166 -20 53.499c0 11.333 6 33.666 18 66.999l422 1133c8.66699 23.333 18.334 42.5 29.001 57.5s25 26.5 43 34.5s41.667 12 71 12h84c42 0 73.333 -8.16699 94 -24.5s37.334 -42.166 50.001 -77.499l444 -1153
c5.33301 -16 8 -29 8 -39zM810.998 494.001l-158.001 454l-157 -454c24.667 0.666992 47.5 1.16699 68.5 1.5s51.167 0.5 90.5 0.5c36.667 0 65.334 -0.166992 86.001 -0.5s44 -0.833008 70 -1.5z" />
    <glyph glyph-name="B" unicode="B" horiz-adv-x="1272" 
d="M1147 418c0 -66 -8.16797 -124.502 -24.501 -175.502s-42.5 -95.5 -78.5 -133.5c-25.333 -27.333 -55.333 -49 -90 -65s-74.167 -27.333 -118.5 -34s-96.166 -10 -155.499 -10h-393c-40.667 0 -71.334 8.33301 -92.001 25s-31 45.334 -31 86.001v1153
c0 42.667 11.833 70.667 35.5 84s52.834 20 87.501 20h266c121.333 0 202.333 -2 243 -6s77.667 -14.333 111 -31c57.333 -25.333 100 -67.166 128 -125.499s42 -126.5 42 -204.5c0 -56.667 -6.83301 -105.667 -20.5 -147s-36.167 -77.666 -67.5 -108.999
c56 -28.667 96.333 -69.834 121 -123.501s37 -121.5 37 -203.5zM767.999 978.998c0 42.667 -5.33398 73.3311 -16.001 91.998c-8 14.667 -17.667 23.834 -29 27.501s-31.666 5.5 -60.999 5.5h-46c-51.333 0 -95 -0.666992 -131 -2v-299h86c46 0 80.333 2 103 6
c33.333 4.66699 57.333 17.334 72 38.001s22 64.667 22 132zM826.998 417.995c0 44 -4.99902 73.666 -14.999 88.999s-25.333 25.333 -46 30c-38.667 9.33301 -99.334 14 -182.001 14h-99v-285c26 -1.33301 67.667 -2 125 -2c60 0 106 3.33301 138 10
c26 6.66699 45.667 20.334 59 41.001s20 55 20 103z" />
    <glyph glyph-name="C" unicode="C" horiz-adv-x="1178" 
d="M1094 76c0 -28.667 -9.33301 -50.5 -28 -65.5s-52.334 -23.833 -101.001 -26.5c-92 -7.33301 -170.667 -11 -236 -11c-122 0 -223.333 14.5 -304 43.5s-143.667 72.333 -189 130s-77.166 129.5 -95.499 215.5s-27.5 188 -27.5 306c0 193.333 22 341.666 66 444.999
s109.667 174 197 212s205 57 353 57c59.333 0 138 -3.33301 236 -10c48.667 -2.66699 82.334 -11.5 101.001 -26.5s28 -36.833 28 -65.5v-66c0 -45.333 -7 -76.333 -21 -93s-41.333 -25 -82 -25c-12.667 0 -44.334 1.66699 -95.001 5s-92.667 5 -126 5
c-104 0 -175.667 -8.33301 -215 -25c-35.333 -15.333 -61.166 -40.166 -77.499 -74.499s-26.333 -74.333 -30 -120s-5.5 -111.167 -5.5 -196.5v-24c0 -89.333 3 -159 9 -209s21.667 -93.333 47 -130s64.666 -59.667 117.999 -69c31.333 -5.33301 82.666 -8 153.999 -8
c13.333 0 45.333 1.66699 96 5s92.334 5 125.001 5c40.667 0 68 -8.33301 82 -25s21 -48 21 -94v-65z" />
    <glyph glyph-name="D" unicode="D" horiz-adv-x="1360" 
d="M1247 670c0 -108.667 -8.83301 -206.17 -26.5 -292.503s-53.167 -161 -106.5 -224s-131 -105.833 -233 -128.5c-46.667 -10 -91.5 -16.667 -134.5 -20s-82.167 -5 -117.5 -5h-359c-40 0 -70.5 8.5 -91.5 25.5s-31.5 45.5 -31.5 85.5v1153c0 42.667 11.833 70.667 35.5 84
s52.834 20 87.501 20h359c113.333 0 207.166 -9.16699 281.499 -27.5s136.333 -51.666 186 -99.999s87.167 -119.166 112.5 -212.499s38 -212.666 38 -357.999zM918 730.997c0 95.333 -6.83301 169.999 -20.5 223.999s-45.167 91.333 -94.5 112
c-41.333 16.667 -112.333 25 -213 25c-65.333 0 -105.666 -0.666992 -120.999 -2v-811c15.333 -2 55.666 -3 120.999 -3c98 0 169.667 10 215 30s75.5 56.833 90.5 110.5s22.5 136.834 22.5 249.501v65z" />
    <glyph glyph-name="E" unicode="E" horiz-adv-x="1130" 
d="M1018 104c0 -69.333 -36.999 -104.001 -110.999 -104.001h-637c-40 0 -70.5 8.5 -91.5 25.5s-31.5 45.5 -31.5 85.5v1153c0 42.667 11.833 70.667 35.5 84s52.834 20 87.501 20h637c74 0 111 -34.667 111 -104v-54c0 -32 -7 -59.333 -21 -82s-44 -34 -90 -34
c-53.333 0 -96.333 0.333008 -129 1s-70.667 1.33398 -114 2.00098s-81.833 1.33398 -115.5 2.00098s-60.167 1 -79.5 1v-262c48 1.33301 98.167 2.5 150.5 3.5s88.666 1.66699 108.999 2s64.166 0.5 131.499 0.5c75.333 0 113 -39 113 -117v-27
c0 -77.333 -37.667 -116 -113 -116c-56 0 -115.667 0.666992 -179 2s-134 2.66602 -212 3.99902v-322c53.333 1.33301 110.833 2.5 172.5 3.5l125.5 2c22 0.333008 68.667 0.5 140 0.5c46 0 76 -11.167 90 -33.5s21 -49.833 21 -82.5v-54z" />
    <glyph glyph-name="F" unicode="F" horiz-adv-x="1042" 
d="M979 1210c0 -77.333 -37.668 -115.999 -113.001 -115.999c-68 0 -112.5 0.166992 -133.5 0.5s-58.167 1 -111.5 2s-104 2.16699 -152 3.5v-260c133.333 2.66699 252.666 4 357.999 4c74 0 111 -39 111 -117v-27c0 -32 -7 -59.333 -21 -82s-44 -34 -90 -34
c-50.667 0 -104.667 0.666992 -162 2s-122.666 2.66602 -195.999 3.99902v-479c0 -74 -37 -111 -111 -111h-88c-40 0 -70.5 8.5 -91.5 25.5s-31.5 45.5 -31.5 85.5v1153c0 42.667 11.833 70.667 35.5 84s52.834 20 87.501 20h596c75.333 0 113 -34.667 113 -104v-54z" />
    <glyph glyph-name="G" unicode="G" horiz-adv-x="1300" 
d="M1165 137c0 -35.333 -7.83203 -62.1689 -23.499 -80.502s-42.5 -33.166 -80.5 -44.499c-90.667 -26 -201.334 -39 -332.001 -39c-122 0 -223.333 14.5 -304 43.5s-143.667 72.333 -189 130s-77.166 129.5 -95.499 215.5s-27.5 188 -27.5 306
c0 193.333 22 341.666 66 444.999s109.667 174 197 212s205 57 353 57c56 0 108.333 -1.16699 157 -3.5s98 -5.83301 148 -10.5c48.667 -4 82 -13 100 -27s27 -35.667 27 -65v-68c0 -45.333 -6.83301 -76.333 -20.5 -93s-40.834 -25 -81.501 -25
c-16.667 0 -51 2.66699 -103 8c-45.333 5.33301 -107.333 8 -186 8c-104 0 -175.667 -8.33301 -215 -25c-35.333 -15.333 -61.166 -40.166 -77.499 -74.499s-26.333 -74.333 -30 -120s-5.5 -111.167 -5.5 -196.5v-24c0 -89.333 3 -159 9 -209s21.667 -93.333 47 -130
s64.666 -59.667 117.999 -69c31.333 -5.33301 82.666 -8 153.999 -8c5.33301 0 30 2.66699 74 8v326h-164c-45.333 0 -75.166 11.333 -89.499 34s-21.5 50 -21.5 82v27c0 32.667 7 60.334 21 83.001s44 34 90 34h373c74.667 0 112 -35.667 112 -107v-600z" />
    <glyph glyph-name="H" unicode="H" horiz-adv-x="1389" 
d="M1241 111c0 -74 -37.668 -111.001 -113.001 -111.001h-86c-40 0 -70.333 8.33301 -91 25s-31 45.334 -31 86.001v489c-45.333 -1.33301 -120.666 -2 -225.999 -2h-73.5c-22.333 0 -49.333 0.166992 -81 0.5s-55.167 0.833008 -70.5 1.5v-489c0 -74 -37 -111 -111 -111
h-88c-40 0 -70.5 8.5 -91.5 25.5s-31.5 45.5 -31.5 85.5v1153c0 42.667 11.833 70.667 35.5 84s52.834 20 87.501 20h88c74 0 111 -34.667 111 -104v-406c45.333 1.33301 120.333 2 225 2c105.333 0 180.666 -0.666992 225.999 -2v406c0 42.667 11.667 70.667 35 84
s52.333 20 87 20h86c75.333 0 113 -34.667 113 -104v-1153z" />
    <glyph glyph-name="I" unicode="I" horiz-adv-x="631" 
d="M475 111c0 -74 -36.667 -111.001 -110 -111.001h-89c-40 0 -70.333 8.33301 -91 25s-31 45.334 -31 86.001v1153c0 42.667 11.833 70.667 35.5 84s52.5 20 86.5 20h89c73.333 0 110 -34.667 110 -104v-1153z" />
    <glyph glyph-name="J" unicode="J" horiz-adv-x="745" 
d="M633 664c0 -150.667 -1.33301 -246.999 -4 -288.999c-6 -90 -27.667 -163.5 -65 -220.5s-90.833 -99.333 -160.5 -127s-156.5 -41.5 -260.5 -41.5c-41.333 0 -77 4.5 -107 13.5s-49.667 18.833 -59 29.5c-9.33301 12 -15.333 24.667 -18 38s-4 33.333 -4 60v55
c0 25.333 8.66699 46.666 26 63.999s39.333 26 66 26c12.667 0 32 -1.33301 58 -4s45.667 -4 59 -4c43.333 0 73.5 3.83301 90.5 11.5s28.5 18.167 34.5 31.5c9.33301 21.333 15.333 52.333 18 93s4 121 4 241v461c-32.667 -1.33301 -83 -2 -151 -2c-74 0 -111 39 -111 117
v47c0 69.333 37 104 111 104h364c72.667 0 109 -34.667 109 -104v-600z" />
    <glyph glyph-name="K" unicode="K" horiz-adv-x="1260" 
d="M1231 80c0 -22.667 -7.66992 -41.668 -23.0029 -57.001s-39.666 -23 -72.999 -23h-142c-29.333 0 -54.166 4.16699 -74.499 12.5s-41.833 23.833 -64.5 46.5l-385 412v-360c0 -74 -37 -111 -111 -111h-88c-40 0 -70.5 8.5 -91.5 25.5s-31.5 45.5 -31.5 85.5v1153
c0 42.667 11.833 70.667 35.5 84s52.834 20 87.501 20h88c74 0 111 -34.667 111 -104v-404l383 447c20 24 39 40.167 57 48.5s43.333 12.5 76 12.5h105c32.667 0 57.167 -7.66699 73.5 -23s24.5 -33.666 24.5 -54.999c0 -28 -9 -50.333 -27 -67l-499 -539l532 -520
c24.667 -22.667 37 -50.667 37 -84z" />
    <glyph glyph-name="L" unicode="L" horiz-adv-x="987" 
d="M958 104c0 -69.333 -36.668 -104 -110.001 -104h-578c-40 0 -70.5 8.5 -91.5 25.5s-31.5 45.5 -31.5 85.5v1153c0 42.667 11.833 70.667 35.5 84s52.834 20 87.501 20h88c74 0 111 -34.667 111 -104v-994c138.667 2.66699 265 4 379 4c73.333 0 110 -38.667 110 -116v-54
z" />
    <glyph glyph-name="M" unicode="M" horiz-adv-x="1677" 
d="M1573 100c0 -66.667 -40.998 -99.999 -122.998 -99.999h-86c-70.667 0 -108.334 35.333 -113.001 106l-47 697c-19.333 -49.333 -53.833 -144.5 -103.5 -285.5s-83.5 -232.833 -101.5 -275.5c-12.667 -32 -28.667 -55.833 -48 -71.5s-47.666 -23.5 -84.999 -23.5h-53
c-26 0 -47.5 3.83301 -64.5 11.5s-31 19.167 -42 34.5s-19.833 31.666 -26.5 48.999c-6 14 -22.833 58.5 -50.5 133.5l-84.5 229.5l-74 198l-45 -697c-4.66699 -70.667 -42.334 -106 -113.001 -106h-86c-82 -0 -123 33.333 -123 100v17l105 1151
c3.33301 40 15.666 66.667 36.999 80s50 20 86 20h114c34.667 0 61.834 -6 81.501 -18s34.834 -31.333 45.501 -58c13.333 -31.333 32.166 -78.5 56.499 -141.5l69.5 -184.5l67 -184l74 -202c4 10 19.333 51 46 123l77.5 212l73 198.5l69.5 178.5
c11.333 27.333 26.333 46.833 45 58.5s45.334 17.5 80.001 17.5h115c35.333 0 63.666 -6.66699 84.999 -20s33.666 -40 36.999 -80l105 -1151v-17z" />
    <glyph glyph-name="N" unicode="N" horiz-adv-x="1452" 
d="M1305 111c0 -74 -37.0029 -110.999 -111.003 -110.999h-61c-32.667 0 -58.667 3.16699 -78 9.5s-38 20.166 -56 41.499c-128 165.333 -306.667 412.666 -536 741.999v-682c0 -74 -37.667 -111 -113 -111h-80c-40 0 -70.5 8.5 -91.5 25.5s-31.5 45.5 -31.5 85.5v1153
c0 42.667 11.833 70.667 35.5 84s52.834 20 87.501 20h54c20.667 0 37.334 -1 50.001 -3s25 -6.66699 37 -14s23.667 -18.666 35 -33.999c69.333 -90.667 250.333 -340 543 -748v695c0 42.667 11.833 70.667 35.5 84s52.834 20 87.501 20h82c74 0 111 -34.667 111 -104
v-1153z" />
    <glyph glyph-name="O" unicode="O" horiz-adv-x="1444" 
d="M1331 682c0 -141.333 -18.666 -265.832 -55.999 -373.499s-101.166 -193.167 -191.499 -256.5s-211.166 -95 -362.499 -95c-114 0 -210.333 18.5 -289 55.5s-141.5 88.5 -188.5 154.5s-80.5 142 -100.5 228s-30 181.667 -30 287c0 107.333 9.83301 203.666 29.5 288.999
s53 161 100 227s109.667 117.333 188 154s175.166 55 290.499 55c151.333 0 272.166 -31.5 362.499 -94.5s154.166 -148.333 191.499 -256s56 -232.5 56 -374.5zM999.001 682.001c0 70 -2.99902 134.999 -8.99902 194.999s-17.333 106.333 -34 139
c-34.667 74.667 -113 112 -235 112c-120.667 0 -198.667 -37.333 -234 -112c-28.667 -62 -43 -173.333 -43 -334c0 -159.333 14.333 -270 43 -332c36 -76 114 -114 234 -114c121.333 0 199.666 38 234.999 114c28.667 60.667 43 171.334 43 332.001z" />
    <glyph glyph-name="P" unicode="P" horiz-adv-x="1235" 
d="M1133 881c0 -104 -15.168 -190.5 -45.501 -259.5s-78.833 -119.167 -145.5 -150.5c-41.333 -18.667 -82.666 -30.834 -123.999 -36.501s-101 -8.5 -179 -8.5h-170v-315c0 -74 -37 -111 -111 -111h-88c-40 0 -70.5 8.5 -91.5 25.5s-31.5 45.5 -31.5 85.5v1153
c0 42.667 11.833 70.667 35.5 84s52.834 20 87.501 20h381c112 0 190.667 -6 236 -18s89.666 -39.333 132.999 -82c39.333 -38 68 -89.667 86 -155s27 -142.666 27 -231.999zM812.999 872v25c0 110.667 -14.333 172.667 -43 186c-17.333 8.66699 -59.666 13 -126.999 13h-25
c-66.667 0 -116.334 -0.666992 -149.001 -2v-396h209h2c61.333 0 99 9.66699 113 29c13.333 18.667 20 67 20 145z" />
    <glyph glyph-name="Q" unicode="Q" horiz-adv-x="1444" 
d="M1331 672c0 -114.667 -9.66797 -215.666 -29.001 -302.999s-58.666 -167.333 -117.999 -240c-76 -92.667 -173.667 -151.334 -293 -176.001c18 -20.667 59 -31 123 -31c22.667 0.666992 42 1.16699 58 1.5s33.333 0.5 52 0.5c32.667 0 56.334 -7 71.001 -21
s22 -47.333 22 -100v-43c0 -42 -12 -71.833 -36 -89.5s-76.333 -26.5 -157 -26.5c-136.667 0 -244 24.167 -322 72.5s-128.333 127.166 -151 236.499c-120 25.333 -217.667 84 -293 176c-59.333 74.667 -98.333 156.334 -117 245.001s-28 188 -28 298
c0 144 18.667 270.667 56 380s101.166 195.833 191.499 259.5s210.5 95.5 360.5 95.5c150.667 0 271.5 -31.833 362.5 -95.5s155 -150.167 192 -259.5s55.5 -236 55.5 -380zM998.999 672.001c0 71.333 -2.99902 137 -8.99902 197s-17.333 107 -34 141
c-36 77.333 -114.333 116 -235 116c-119.333 0 -197.333 -38.667 -234 -116c-28.667 -64 -43 -176.667 -43 -338c0 -160 14.333 -272 43 -336c36 -78 114 -117 234 -117c121.333 0 199.666 39 234.999 117c28.667 62 43 174 43 336z" />
    <glyph glyph-name="R" unicode="R" horiz-adv-x="1296" 
d="M1202 76c0 -50.667 -31.333 -76.001 -94 -76.001h-123c-31.333 0 -57.833 4.16699 -79.5 12.5s-43.5 25.166 -65.5 50.499l-342 418h-29v-370c0 -74 -37 -111 -111 -111h-88c-40 0 -70.5 8.5 -91.5 25.5s-31.5 45.5 -31.5 85.5v1153c0 42.667 11.833 70.667 35.5 84
s52.834 20 87.501 20h381c112 0 190.667 -6 236 -18s89.666 -39.333 132.999 -82c39.333 -38 68 -89.667 86 -155s27 -142.666 27 -231.999c0 -215.333 -84 -343.666 -252 -384.999l288 -336c22 -26.667 33 -54.667 33 -84zM813 896.999v2.00098
c0 109.333 -14.333 170.666 -43 183.999c-18 8.66699 -63 13 -135 13h-10c-70 0 -122 -0.666992 -156 -2v-340h209c42.667 0 73 3.5 91 10.5s29.833 19.833 35.5 38.5s8.5 50 8.5 94z" />
    <glyph glyph-name="S" unicode="S" horiz-adv-x="1145" 
d="M1032 430c0 -140.667 -13.6699 -236.333 -41.0029 -287c-25.333 -44.667 -61.666 -79 -108.999 -103s-99.333 -39.667 -156 -47s-117 -11 -181 -11c-96 0 -197.667 4.66699 -305 14c-48 4 -81.167 13.333 -99.5 28s-27.5 36 -27.5 64v68c0 46 7 77.167 21 93.5
s41 24.5 81 24.5c27.333 0 69.666 -2.66699 126.999 -8c54.667 -5.33301 132.334 -8 233.001 -8c50 0 83.5 1.83301 100.5 5.5s28.167 12.167 33.5 25.5s8 37.666 8 72.999v58c0 29.333 -3.33301 49.833 -10 61.5s-22.667 22.5 -48 32.5l-260 104
c-80 34 -137.833 64.333 -173.5 91s-60.667 61.667 -75 105s-21.5 107.333 -21.5 192c0 70.667 7.33301 130.834 22 180.501s42.667 90.667 84 123s100.333 53.833 177 64.5c38 5.33301 104 8 198 8h31c58.667 0 137.334 -3.33301 236.001 -10
c48.667 -2.66699 82.334 -11.5 101.001 -26.5s28 -36.833 28 -65.5v-66c0 -45.333 -7 -76.333 -21 -93s-41.333 -25 -82 -25c-11.333 0 -42.5 1.66699 -93.5 5s-93.5 5 -127.5 5c-24.667 0.666992 -48 1.16699 -70 1.5s-48.667 0.5 -80 0.5
c-38 0 -62.167 -6.83301 -72.5 -20.5s-15.5 -38.834 -15.5 -75.501v-25c0 -29.333 3.16699 -49.833 9.5 -61.5s22.5 -23.167 48.5 -34.5l94 -37.5l76 -30.5c111.333 -46 190 -82.5 236 -109.5s78.167 -61.167 96.5 -102.5s27.5 -101.666 27.5 -180.999z" />
    <glyph glyph-name="T" unicode="T" horiz-adv-x="1217" 
d="M1161 1210c0 -77.333 -36.666 -116.001 -109.999 -116.001c-78 0 -171.667 1.33301 -281 4v-987c0 -74 -37 -111 -111 -111h-88c-40.667 0 -71.167 8.33301 -91.5 25s-30.5 45.334 -30.5 86.001v987c-109.333 -2.66699 -203 -4 -281 -4
c-46.667 0 -76.834 11.333 -90.501 34s-20.5 50 -20.5 82v54c0 69.333 37 104 111 104h883c73.333 0 110 -34.667 110 -104v-54z" />
    <glyph glyph-name="U" unicode="U" horiz-adv-x="1427" 
d="M1294 844c0 -136.667 -1.49707 -237.5 -4.49707 -302.5s-9.5 -126.833 -19.5 -185.5c-18.667 -100 -51.667 -178.167 -99 -234.5s-108.333 -95.833 -183 -118.5s-166.334 -34 -275.001 -34s-200.834 11.333 -276.501 34s-137.167 62.334 -184.5 119.001
s-80 134.667 -98 234c-7.33301 42 -12.666 83.333 -15.999 124s-5.33301 84.5 -6 131.5s-1 124.5 -1 232.5v420c0 42.667 12 70.667 36 84s53 20 87 20h86c40 0 68.833 -9.5 86.5 -28.5s26.5 -44.167 26.5 -75.5v-584c0 -76 1.33301 -134.833 4 -176.5
s7.16699 -75.667 13.5 -102s14.166 -49.5 23.499 -69.5c14 -30 36.667 -51.5 68 -64.5s81.666 -19.5 150.999 -19.5c70.667 0 121.667 6.66699 153 20s53.333 34.666 66 63.999c16 32.667 26.833 71 32.5 115s8.5 121.667 8.5 233v584c0 42.667 12.333 70.667 37 84
s54 20 88 20h88c72 0 108 -34.667 108 -104v-420z" />
    <glyph glyph-name="V" unicode="V" horiz-adv-x="1401" 
d="M1335 1296c0 -14.667 -5.33203 -37.001 -15.999 -67.001l-422 -1127c-13.333 -35.333 -29.666 -61.166 -48.999 -77.499s-50.666 -24.5 -93.999 -24.5h-95c-41.333 -0 -71.833 7.83301 -91.5 23.5s-36.834 41.834 -51.501 78.501l-442 1145
c-5.33301 17.333 -8 30.333 -8 39c0 32 10 53.667 30 65s42 17 66 17h125c59.333 0 99.666 -28.667 120.999 -86l303 -831l293 819c11.333 32.667 26 57.167 44 73.5s46.333 24.5 85 24.5h100c43.333 0 71.166 -5.83301 83.499 -17.5s18.5 -29.834 18.5 -54.501z" />
    <glyph glyph-name="W" unicode="W" horiz-adv-x="1784" 
d="M1718 1280c0 -13.333 -1.33594 -25.001 -4.00293 -35.001l-270 -1153c-6 -24.667 -14.667 -43.667 -26 -57s-24.833 -22.5 -40.5 -27.5s-35.167 -7.5 -58.5 -7.5h-133c-36 0 -62.833 7.83301 -80.5 23.5s-31.167 37.834 -40.5 66.501
c-5.33301 14.667 -17.333 51.334 -36 110.001l-76 247.5c-32 106.333 -52 171.5 -60 195.5c-82 -274 -139.333 -458.333 -172 -553c-9.33301 -28.667 -23.166 -50.834 -41.499 -66.501s-46.166 -23.5 -83.499 -23.5h-133c-35.333 -0 -62.166 6.33301 -80.499 19
s-31.833 37 -40.5 73l-272 1153c-2.66699 10.667 -4 21 -4 31c0 32 9.66699 55.333 29 70s52 22 98 22h102c37.333 0 63.5 -9 78.5 -27s25.833 -42.333 32.5 -73l163 -817c10.667 34 22.667 74.833 36 122.5l52 189l47.5 173.5c10.333 37.333 20.5 70.666 30.5 99.999
c20.667 52 59.667 78 117 78h80c32 0 58 -7.16699 78 -21.5s33.667 -33.166 41 -56.499c6.66699 -18.667 62.667 -211.667 168 -579l161 811c8 33.333 19 58.333 33 75s39.333 25 76 25h102c84.667 0 127 -29.333 127 -88z" />
    <glyph glyph-name="X" unicode="X" horiz-adv-x="1389" 
d="M1280 1288c0 -27.333 -9.66797 -54.668 -29.001 -82.001l-368 -512l374 -544c15.333 -23.333 23 -46.666 23 -69.999c0 -22.667 -7.66699 -41.667 -23 -57s-38.333 -23 -69 -23h-127c-34 0 -60.5 5.16699 -79.5 15.5s-38.833 29.833 -59.5 58.5l-236 346l-254 -346
c-20 -28.667 -39.167 -48.167 -57.5 -58.5s-42.166 -15.5 -71.499 -15.5h-102c-30.667 -0 -54.167 7.83301 -70.5 23.5s-24.5 34.5 -24.5 56.5c0 22.667 8.33301 46 25 70l379 524l-367 534c-18.667 29.333 -28 54 -28 74c0 29.333 10.667 51 32 65s46 21 74 21h113
c56 0 99 -21 129 -63l244 -357l260 359c30 40.667 73 61 129 61h84c34 0 59.167 -7.16699 75.5 -21.5s24.5 -33.833 24.5 -58.5z" />
    <glyph glyph-name="Y" unicode="Y" horiz-adv-x="1305" 
d="M1239 1282c0 -24.667 -6.66699 -48.001 -20 -70.001l-402 -682v-419c0 -74 -36.667 -111 -110 -111h-89c-40 0 -70.333 8.33301 -91 25s-31 45.334 -31 86.001v403l-408 698c-14.667 28 -22 51.333 -22 70c0 31.333 10.833 53.5 32.5 66.5s44.834 19.5 69.501 19.5h111
c32.667 0 58 -5.83301 76 -17.5s33.333 -29.167 46 -52.5l258 -448l265 450c13.333 23.333 28.833 40.5 46.5 51.5s43.167 16.5 76.5 16.5h90c33.333 0 58.666 -8.16699 75.999 -24.5s26 -36.833 26 -61.5z" />
    <glyph glyph-name="Z" unicode="Z" horiz-adv-x="1188" 
d="M1122 1288c0 -24 -7.33301 -47.667 -22 -71l-606 -959c229.333 10.667 397 16 503 16c46.667 0 76.834 -11.167 90.501 -33.5s20.5 -49.833 20.5 -82.5v-54c0 -69.333 -37 -104 -111 -104h-825c-30.667 0 -56 9.16699 -76 27.5s-30 41.833 -30 70.5
c0 31.333 12.667 67 38 107l566 895c-154 -4 -303 -6 -447 -6c-74.667 0 -112 38.667 -112 116v54c0 69.333 37.333 104 112 104h809c31.333 0 54.166 -7.33301 68.499 -22s21.5 -34 21.5 -58z" />
    <glyph glyph-name="bracketleft" unicode="[" horiz-adv-x="684" 
d="M797 -172c0 -72.667 -36.999 -109.002 -110.999 -109.002h-414c-45.333 0 -78.5 7.66699 -99.5 23s-31.5 45.333 -31.5 90v1706c0 40 9.5 68.5 28.5 85.5s47.167 25.5 84.5 25.5h432c74 0 111 -36.333 111 -109v-39c0 -33.333 -7.5 -61.166 -22.5 -83.499
s-44.5 -33.5 -88.5 -33.5c-45.333 0 -132.666 3 -261.999 9v-1418c103.333 6 190.666 9 261.999 9c45.333 0 75.166 -11.167 89.499 -33.5s21.5 -50.166 21.5 -83.499v-39z" />
    <glyph glyph-name="backslash" unicode="\" horiz-adv-x="813" 
d="M729 63c0 -20.667 -7 -38.167 -21 -52.5s-37 -29.5 -69 -45.5l-29 -14c-18.667 -9.33301 -36.334 -14 -53.001 -14c-37.333 0 -66.666 24.333 -87.999 73l-547 1268c-6.66699 15.333 -10 33 -10 53c0 40.667 20.333 70.667 61 90l50 23c23.333 10.667 44.333 16 63 16
c37.333 0 65.333 -23 84 -69l545 -1268c9.33301 -21.333 14 -41.333 14 -60z" />
    <glyph glyph-name="bracketright" unicode="]" horiz-adv-x="684" 
d="M543 -168c0 -44.667 -10.332 -74.666 -30.999 -89.999s-54 -23 -100 -23h-412c-32 0 -58.833 8.5 -80.5 25.5s-32.5 44.833 -32.5 83.5v39c0 78 37.667 117 113 117c71.333 0 158.666 -3 261.999 -9v1418c-128.667 -6 -216 -9 -262 -9c-75.333 0 -113 39 -113 117v39
c0 38.667 10.833 66.5 32.5 83.5s48.5 25.5 80.5 25.5h430c38 0 66.333 -8.33301 85 -25s28 -45.334 28 -86.001v-1706z" />
    <glyph glyph-name="asciicircum" unicode="^" horiz-adv-x="1176" 
d="M1081 741h-329l-164 285l-164 -285h-330l393 670h203z" />
    <glyph glyph-name="underscore" unicode="_" horiz-adv-x="805" 
d="M805 -412c0 -26.667 -8 -46.167 -24 -58.5s-47 -18.5 -93 -18.5h-575c-75.333 0 -113 21.667 -113 65v96c0 21.333 12 37 36 47s49.667 15 77 15h575c78 0 117 -20.667 117 -62v-84z" />
    <glyph glyph-name="grave" unicode="`" horiz-adv-x="522" 
d="M522 1212c0 -38 -30.667 -57.001 -92 -57.001h-100c-27.333 0 -52.833 6.83301 -76.5 20.5s-46.667 32.334 -69 56.001l-61.5 66.5l-44 43.5c-24.667 24.333 -44 45.5 -58 63.5s-21 33 -21 45c0 40.667 50.667 61 152 61h32c56 0 92.333 -5.33301 109 -16
c14 -9.33301 40 -35.333 78 -78s72.667 -84.5 104 -125.5s47 -67.5 47 -79.5z" />
    <glyph glyph-name="a" unicode="a" 
d="M985 109c0 -72.667 -34.667 -109.002 -104 -109.002h-64c-32.667 0 -58.667 3.5 -78 10.5s-33.666 20.5 -42.999 40.5c-96 -52 -194.333 -78 -295 -78c-105.333 0 -184.5 27.333 -237.5 82s-79.5 132.667 -79.5 234c0 134 40.667 224.167 122 270.5
s191.666 69.5 330.999 69.5c51.333 0 100.333 -2 147 -6c0 62 -5 104.667 -15 128s-33 35 -69 35c-40 0 -89 -4 -147 -12s-110 -17.667 -156 -29c-16 -2.66699 -29 -4 -39 -4c-28.667 0 -50.167 8.33301 -64.5 25s-21.5 36.334 -21.5 59.001v43c0 61.333 26 97 78 107
c50 9.33301 108.667 17.833 176 25.5s122 11.5 164 11.5c150 0 254.333 -33 313 -99c33.333 -35.333 55.333 -75.166 66 -119.499s16 -114.833 16 -211.5v-473zM686 271.998l-0.00390625 150c-8 0 -20.667 0.666992 -38 2s-30.666 2 -39.999 2
c-55.333 0 -100.666 -3.33301 -135.999 -10s-60.666 -18.167 -75.999 -34.5s-23 -40.5 -23 -72.5s4.83301 -59.833 14.5 -83.5s23.834 -35.5 42.501 -35.5c50 0 91.667 5.5 125 16.5s77 32.833 131 65.5z" />
    <glyph glyph-name="b" unicode="b" horiz-adv-x="1182" 
d="M1071 512c0 -96.667 -8.83398 -178.667 -26.501 -246s-45.167 -122.333 -82.5 -165s-86.833 -74.667 -148.5 -96s-136.167 -32 -223.5 -32c-44.667 0 -97.167 2.16699 -157.5 6.5s-118.5 10.5 -174.5 18.5c-79.333 12 -119 49.667 -119 113v1187c0 40 9.5 68.5 28.5 85.5
s47.167 25.5 84.5 25.5h92c36.667 0 63.334 -11.833 80.001 -35.5s25 -48.834 25 -75.501v-303c84.667 11.333 161 17 229 17c95.333 0 172 -17.333 230 -52s99.667 -88.167 125 -160.5s38 -168.166 38 -287.499zM757.999 516c0 38 -1.49902 71.665 -4.49902 100.998
s-7.83301 56.333 -14.5 81c-5.33301 24.667 -14 40.834 -26 48.501s-37.333 11.5 -76 11.5c-48.667 0 -111.334 -7.66699 -188.001 -23v-493c52 -10 100.333 -15 145 -15s77.667 5.83301 99 17.5s35.333 27.834 42 48.501c15.333 44 23 118.333 23 223z" />
    <glyph glyph-name="c" unicode="c" horiz-adv-x="1018" 
d="M913 918v-8.99805v-8c0 -49.333 -5.66699 -89.666 -17 -120.999s-38.333 -47 -81 -47c-8 0 -45.667 4.16699 -113 12.5s-121 12.5 -161 12.5c-35.333 0 -60.5 -3.83301 -75.5 -11.5s-24 -18.834 -27 -33.501s-5.83301 -41.334 -8.5 -80.001c-2.66699 -34 -4 -81 -4 -141
c0 -55.333 2.66699 -118.333 8 -189c2 -20 5.66699 -35.667 11 -47s15.5 -19 30.5 -23s36.833 -6 65.5 -6c36 0 88 4.16699 156 12.5s107.333 12.5 118 12.5c28 0 50.667 -9.66699 68 -29c4.66699 -4.66699 9.33398 -14.834 14.001 -30.501s8.5 -33.834 11.5 -54.501
s4.5 -41.334 4.5 -62.001c0 -32 -7.16699 -54.167 -21.5 -66.5s-52.166 -21.5 -113.499 -27.5c-50.667 -6 -109.334 -9 -176.001 -9c-98.667 0 -179.167 8.16699 -241.5 24.5s-111.833 43.833 -148.5 82.5s-62.667 91.5 -78 158.5s-23 151.5 -23 253.5
c0 101.333 7.83301 185.833 23.5 253.5s41.667 120.667 78 159s85.333 65.833 147 82.5s142.5 25 242.5 25c53.333 0 112 -3.66699 176 -11c61.333 -5.33301 99.166 -13.666 113.499 -24.999s21.5 -30.666 21.5 -57.999z" />
    <glyph glyph-name="d" unicode="d" horiz-adv-x="1184" 
d="M1053 113c0 -76.667 -35.666 -115.001 -106.999 -115.001h-72c-56.667 0 -94 11.667 -112 35c-90 -40 -175.333 -60 -256 -60c-130 0 -228.333 45 -295 135s-100 213 -100 369c0 179.333 37.667 313.333 113 402s191.666 133 348.999 133c48 0 104.667 -4.33301 170 -13
v299c0 40 9.5 68.5 28.5 85.5s47.167 25.5 84.5 25.5h90c37.333 0 64.5 -11.667 81.5 -35s25.5 -48.666 25.5 -75.999v-1185zM743.001 304.999v430.001c-66.667 15.333 -126 23 -178 23c-32 0 -55.667 -4.33301 -71 -13c-48 -24.667 -72 -122 -72 -292
c0 -150.667 42.333 -226 127 -226c26 0 56.5 6.66699 91.5 20s69.167 32.666 102.5 57.999z" />
    <glyph glyph-name="e" unicode="e" 
d="M1004 539c0 -44 -3.16992 -75.832 -9.50293 -95.499s-17 -32.334 -32 -38.001s-38.167 -8.5 -69.5 -8.5h-481v-32c0 -37.333 4.66699 -67.833 14 -91.5s26.333 -41 51 -52s60.334 -16.5 107.001 -16.5c40.667 0 80.834 2.83301 120.501 8.5s88.834 14.5 147.501 26.5
c28 6.66699 45.667 10 53 10c35.333 0 58.166 -13.167 68.499 -39.5s15.5 -59.5 15.5 -99.5c0 -31.333 -6.5 -56.333 -19.5 -75s-37.833 -30.667 -74.5 -36c-114.667 -18 -219 -27 -313 -27c-125.333 0 -222.166 18.667 -290.499 56s-115.5 92.5 -141.5 165.5
s-39 169.833 -39 290.5c0 119.333 11.5 216.5 34.5 291.5s67.833 133 134.5 174s163.667 61.5 291 61.5c118 0 208.667 -19.667 272 -59s106 -92.833 128 -160.5s33 -152.167 33 -253.5zM710.997 600.001v48.999c0 48.667 -9 82.667 -27 102s-55 29 -111 29
c-42.667 0 -75.334 -6.16699 -98.001 -18.5s-38.167 -31.166 -46.5 -56.499s-13.166 -60.333 -14.499 -105h297z" />
    <glyph glyph-name="f" unicode="f" horiz-adv-x="827" 
d="M801 1286c0 -41.333 -5.32617 -74.1689 -15.9932 -98.502s-33.334 -36.5 -68.001 -36.5c-10.667 0 -32 3.33301 -64 10s-68.667 10 -110 10c-17.333 0 -30 -1.16699 -38 -3.5s-14.333 -7.33301 -19 -15s-7.33398 -18.334 -8.00098 -32.001s-1 -36.167 -1 -67.5v-72h156
c78 0 117 -33.333 117 -100v-29c0 -43.333 -8 -75.666 -24 -96.999s-47 -32 -93 -32h-156v-608c0 -76.667 -34.667 -115 -104 -115h-74c-45.333 0 -78.5 7.66699 -99.5 23s-31.5 46 -31.5 92v608c-40.667 0 -69.334 9.33301 -86.001 28s-25 46.334 -25 83.001v47
c0 34.667 11.667 60 35 76s48.666 24 75.999 24v72c0 69.333 4.16699 119.833 12.5 151.5s23.166 62.167 44.499 91.5c35.333 50 81.166 84 137.499 102s134.833 27 235.5 27c57.333 0 101.166 -4.16699 131.499 -12.5s49.833 -19.666 58.5 -33.999s13 -32.833 13 -55.5v-37
z" />
    <glyph glyph-name="g" unicode="g" horiz-adv-x="1171" 
d="M1040 -88c0 -54 -2.99902 -94.498 -8.99902 -121.498s-18.667 -54.167 -38 -81.5c-24.667 -34.667 -56.834 -64.167 -96.501 -88.5s-85.334 -42.333 -137.001 -54s-106.167 -17.5 -163.5 -17.5c-68 0 -139 3.66699 -213 11s-133.333 16.666 -178 27.999
c-52 13.333 -78 53 -78 119c0 41.333 5.66699 75.166 17 101.499s35.666 39.5 72.999 39.5c7.33301 0 24.333 -3.33301 51 -10c124.667 -28.667 238.667 -43 342 -43c56 0 89.833 15 101.5 45s18.167 81.333 19.5 154c-88.667 -14 -161 -21 -217 -21
c-72 0 -134 9.83301 -186 29.5s-93.667 49.167 -125 88.5s-54.5 89.5 -69.5 150.5s-22.5 133.5 -22.5 217.5c0 190.667 38.667 330 116 418c32 36.667 66.5 64.5 103.5 83.5s80.833 32.333 131.5 40s114.334 11.5 191.001 11.5h17c104.667 0 193.334 -2.66699 266.001 -8
c38.667 -2.66699 65.667 -13 81 -31s23 -45.333 23 -82v-979zM731.001 236.002l-0.000976562 520c-27.333 1.33301 -73.666 2 -138.999 2c-45.333 0 -76 -3.66699 -92 -11s-28.333 -19.333 -37 -36c-11.333 -24 -20.333 -57.667 -27 -101s-10 -90.333 -10 -141
c0 -40 3.33301 -90 10 -150c4.66699 -32.667 10.667 -57.167 18 -73.5s17.5 -26.833 30.5 -31.5s32.5 -7 58.5 -7c57.333 0 120 9.66699 188 29z" />
    <glyph glyph-name="h" unicode="h" horiz-adv-x="1174" 
d="M1042 115c0 -76.667 -34.665 -114.999 -103.998 -114.999h-74c-44.667 0 -77.667 7.83301 -99 23.5s-32 46.167 -32 91.5v493c0 84.667 -4 132 -12 142c-4 5.33301 -19.667 8 -47 8c-70.667 0 -145.667 -26.667 -225 -80v-563c0 -76.667 -35 -115 -105 -115h-74
c-44.667 0 -77.667 7.83301 -99 23.5s-32 46.167 -32 91.5v1183c0 40 9.5 68.5 28.5 85.5s47.167 25.5 84.5 25.5h92c36.667 0 63.334 -11.833 80.001 -35.5s25 -48.834 25 -75.501v-337c81.333 34 165.666 51 252.999 51c83.333 0 150.666 -15 201.999 -45
s87.166 -68.167 107.499 -114.5s30.5 -94.833 30.5 -145.5v-592z" />
    <glyph glyph-name="i" unicode="i" horiz-adv-x="594" 
d="M455 1229c0 -75.333 -35.667 -113.001 -107 -113.001h-78c-45.333 0 -78.5 7.66699 -99.5 23s-31.5 45.333 -31.5 90v69c0 40 9.5 68.5 28.5 85.5s47.167 25.5 84.5 25.5h96c37.333 0 64.5 -11.667 81.5 -35s25.5 -48.666 25.5 -75.999v-69zM455 114.999
c0 -76.667 -35.667 -115 -107 -115h-78c-44.667 0 -77.667 7.83301 -99 23.5s-32 46.167 -32 91.5v753c0 75.333 37.667 113 113 113h96c37.333 0 64.5 -11.833 81.5 -35.5s25.5 -49.5 25.5 -77.5v-753z" />
    <glyph glyph-name="j" unicode="j" horiz-adv-x="614" 
d="M475 1225c0 -72.667 -35.333 -109 -106 -109h-80c-46 0 -79.333 6.66699 -100 20s-31 43 -31 89v71c0 75.333 38 113 114 113h97c37.333 0 64.333 -11.667 81 -35s25 -49.333 25 -78v-71zM475 -2c0 -52 -1.33398 -95.834 -4.00098 -131.501
s-7.33398 -66.167 -14.001 -91.5c-16.667 -64.667 -58 -115.667 -124 -153s-138.667 -56 -218 -56c-27.333 0 -51.166 1.33301 -71.499 4s-37.166 8.16699 -50.499 16.5s-23.333 20.833 -30 37.5s-10 39.667 -10 69v49c0 34 9 60.5 27 79.5s38.333 28.5 61 28.5
c12.667 0 30 -2 52 -6s38.667 -6 50 -6c6 0 10 2.83301 12 8.5s3 17.834 3 36.501v29v956c0 75.333 38 113 114 113h97c37.333 0 64.333 -11.667 81 -35s25 -49.333 25 -78v-870z" />
    <glyph glyph-name="k" unicode="k" horiz-adv-x="1104" 
d="M1085 78c0 -19.333 -8.33398 -37.167 -25.001 -53.5s-41.667 -24.5 -75 -24.5h-133c-41.333 0 -78.333 19 -111 57l-292 353v-295c0 -76.667 -35 -115 -105 -115h-74c-44.667 -0 -77.667 7.83301 -99 23.5s-32 46.167 -32 91.5v1183c0 40 9.5 68.5 28.5 85.5
s47.167 25.5 84.5 25.5h92c36.667 0 63.334 -11.833 80.001 -35.5s25 -48.834 25 -75.501v-628l241 268c16 18 32.5 29.667 49.5 35s40.167 8 69.5 8h111c66.667 0 100 -26 100 -78c0 -25.333 -19 -54.666 -57 -87.999l-297 -264l395 -420c16 -18 24 -35.667 24 -53z" />
    <glyph glyph-name="l" unicode="l" horiz-adv-x="588" 
d="M449 115c0 -76.667 -35.001 -114.999 -105.001 -114.999h-74c-44.667 0 -77.667 7.83301 -99 23.5s-32 46.167 -32 91.5v1183c0 40 9.5 68.5 28.5 85.5s47.167 25.5 84.5 25.5h92c36.667 0 63.334 -11.833 80.001 -35.5s25 -48.834 25 -75.501v-1183z" />
    <glyph glyph-name="m" unicode="m" horiz-adv-x="1608" 
d="M1477 111c0 -74 -35.001 -111.006 -105.001 -111.006h-74c-44.667 0 -77.667 7.5 -99 22.5s-32 44.5 -32 88.5v503c0 52.667 -1.5 89.834 -4.5 111.501s-9.5 32.5 -19.5 32.5c-25.333 0 -49.833 -7.16699 -73.5 -21.5s-59.167 -39.166 -106.5 -74.499v-551
c0 -74 -35 -111 -105 -111h-74c-45.333 0 -78.5 7.33301 -99.5 22s-31.5 44.334 -31.5 89.001v503c0 52.667 -1.5 89.834 -4.5 111.501s-9.5 32.5 -19.5 32.5c-25.333 0 -49.833 -7.16699 -73.5 -21.5s-59.167 -39.166 -106.5 -74.499v-551c0 -74 -35 -111 -105 -111h-74
c-45.333 0 -78.5 7.33301 -99.5 22s-31.5 44.334 -31.5 89.001v761c0 72.667 37.667 109 113 109h92c38 0 67.333 -15.667 88 -47c94.667 52 184.667 78 270 78c91.333 0 160.333 -32.333 207 -97c102.667 64.667 205.334 97 308.001 97c88 0 153.333 -28 196 -84
s64 -127 64 -213v-604z" />
    <glyph glyph-name="n" unicode="n" horiz-adv-x="1174" 
d="M1042 111c0 -74 -34.6699 -111.001 -104.003 -111.001h-74c-45.333 0 -78.5 7.33301 -99.5 22s-31.5 44.334 -31.5 89.001v505c0 53.333 -3.33301 90.666 -10 111.999s-21.667 32 -45 32c-69.333 0 -145.666 -32.667 -228.999 -98v-551c0 -74 -35 -111 -105 -111h-74
c-45.333 0 -78.5 7.33301 -99.5 22s-31.5 44.334 -31.5 89.001v761c0 72.667 37.667 109 113 109h92c38 0 66.667 -15 86 -45c86.667 50.667 177.334 76 272.001 76c84.667 0 152.334 -14.5 203.001 -43.5s86.167 -65.667 106.5 -110s30.5 -91.5 30.5 -141.5v-606z" />
    <glyph glyph-name="o" unicode="o" horiz-adv-x="1212" 
d="M1100 492c0 -108.667 -16.667 -201.667 -50 -279s-86.5 -136.666 -159.5 -177.999s-167.833 -62 -284.5 -62c-115.333 0 -210 20.667 -284 62s-127.667 100.666 -161 177.999s-50 170.333 -50 279s16.667 201.667 50 279s86.833 136.833 160.5 178.5
s168.5 62.5 284.5 62.5c117.333 0 212.333 -20.833 285 -62.5s125.667 -101.167 159 -178.5s50 -170.333 50 -279zM788 492c0 103.333 -11.3359 175 -34.0029 215c-10.667 19.333 -24.667 32.666 -42 39.999s-52.666 11 -105.999 11c-52.667 0 -88 -3.66699 -106 -11
s-32.333 -20.666 -43 -39.999c-23.333 -43.333 -35 -115 -35 -215c0 -106.667 11.667 -178.667 35 -216c10.667 -18 25.167 -30.667 43.5 -38s53.5 -11 105.5 -11c52.667 0 87.834 3.66699 105.501 11s31.834 20 42.501 38c22.667 38 34 110 34 216z" />
    <glyph glyph-name="p" unicode="p" horiz-adv-x="1198" 
d="M1087 494c0 -84.667 -4.33496 -148.833 -13.002 -192.5s-24.667 -86.167 -48 -127.5c-24.667 -44.667 -57.5 -82 -98.5 -112s-88.333 -52.333 -142 -67s-111.5 -22 -173.5 -22c-58.667 0 -113 5 -163 15v-301c0 -76.667 -35 -115 -105 -115h-74
c-45.333 0 -78.5 7.66699 -99.5 23s-31.5 46 -31.5 92v1183c0 40 9.5 68.5 28.5 85.5s47.167 25.5 84.5 25.5h92c42.667 0 72.667 -17.667 90 -53c114.667 56 213.667 84 297 84c96.667 0 171.334 -24.5 224.001 -73.5s87.834 -111.167 105.501 -186.5
s26.5 -161.333 26.5 -258zM775.998 487.001c0 40 -2.16699 82.667 -6.5 128s-8.83301 77.333 -13.5 96c-6 31.333 -25.333 47 -58 47c-20.667 0 -45 -4.5 -73 -13.5s-58.167 -21.167 -90.5 -36.5s-60.833 -30 -85.5 -44v-414c58 -15.333 113.667 -23 167 -23
c36.667 0 64.667 4.33301 84 13c50.667 20 76 102.333 76 247z" />
    <glyph glyph-name="q" unicode="q" horiz-adv-x="1167" 
d="M1036 -313c0 -76.667 -34.666 -115 -103.999 -115h-74c-45.333 0 -78.5 7.66699 -99.5 23s-31.5 46 -31.5 92v323c-58 -24.667 -125 -37 -201 -37c-98.667 0 -178.334 17.667 -239.001 53s-105.167 88.666 -133.5 159.999s-42.5 163 -42.5 275
c0 95.333 8.33301 175 25 239s45.667 121.333 87 172c44.667 56 93.667 93.333 147 112s128 28 224 28c102.667 0 216.667 -5 342 -15c66.667 -5.33301 100 -36.666 100 -93.999v-1216zM727.001 301l0.000976562 436.001c-76.667 8.66699 -130.667 13 -162 13
c-32 0 -55.5 -3.33301 -70.5 -10s-26.167 -16.334 -33.5 -29.001c-26 -44 -39 -137 -39 -279v-37c0 -52 7.5 -93 22.5 -123s47.833 -45 98.5 -45c59.333 0 120.666 24.667 183.999 74z" />
    <glyph glyph-name="r" unicode="r" horiz-adv-x="856" 
d="M809 854c0 -75.333 -33.3301 -113.002 -99.9971 -113.002c-58.667 0 -105.334 -6 -140.001 -18s-72.667 -31 -114 -57v-555c0 -74 -35.667 -111 -107 -111h-78c-45.333 0 -78.5 7.33301 -99.5 22s-31.5 44.334 -31.5 89.001v761c0 72.667 37.667 109 113 109h96
c45.333 0 76.666 -17.667 93.999 -53c56 28 101.667 49 137 63s73.666 21 114.999 21c30 0 56.667 -7.16699 80 -21.5s35 -37.166 35 -68.499v-68z" />
    <glyph glyph-name="s" unicode="s" horiz-adv-x="1071" 
d="M938 299c0 -64 -7.16211 -116.833 -21.4951 -158.5s-37.333 -74.667 -69 -99s-73.834 -41.833 -126.501 -52.5s-117 -16 -193 -16c-134.667 0 -233.667 4.33301 -297 13c-21.333 2.66699 -37 6.33398 -47 11.001s-17.5 14.167 -22.5 28.5s-7.5 39.166 -7.5 74.499v35
c0 34.667 5.33301 62.5 16 83.5s32.667 31.5 66 31.5c-3.33301 0 31 -4.16699 103 -12.5s144.667 -12.5 218 -12.5c22 0 38.667 1.33301 50 4s19.166 8 23.499 16s6.5 19.333 6.5 34c0 28.667 -2.66699 45 -8 49c-6 6.66699 -27.333 15.167 -64 25.5l-135 36.5
c-53.333 14 -98.833 28.333 -136.5 43s-67.834 32 -90.501 52c-48 44 -72 111.667 -72 203c0 74 12.333 133.5 37 178.5s58.167 77.667 100.5 98s91.166 33.333 146.499 39s124 8.5 206 8.5c68 0 119 -1.33301 153 -4c44.667 -3.33301 76.667 -13 96 -29s29 -46 29 -90
c0 -50 -5.5 -86.833 -16.5 -110.5s-38.167 -35.5 -81.5 -35.5c-6.66699 0 -38.5 2.83301 -95.5 8.5s-116.167 8.5 -177.5 8.5c-30.667 0 -51.834 -1 -63.501 -3s-20 -7.16699 -25 -15.5s-7.5 -21.5 -7.5 -39.5c0 -12 3.16699 -21.167 9.5 -27.5s15.166 -11.333 26.499 -15
s51.333 -15.834 120 -36.501c82 -23.333 138.333 -39.833 169 -49.5s60.334 -24.167 89.001 -43.5s51.167 -47.666 67.5 -84.999s24.5 -86 24.5 -146z" />
    <glyph glyph-name="t" unicode="t" horiz-adv-x="877" 
d="M772 852c0 -44 -7.66895 -76.166 -23.002 -96.499s-46.666 -30.5 -93.999 -30.5h-155v-412c0 -58.667 6.66699 -88 20 -88c18.667 0 37.667 2.66699 57 8l57.5 15.5c19 5 36.833 7.5 53.5 7.5c53.333 0 80 -28.667 80 -86v-72c0 -26 -3.33301 -47 -10 -63
s-17 -27.667 -31 -35s-35.667 -12.666 -65 -15.999c-71.333 -7.33301 -132.333 -11 -183 -11c-78 0 -137.667 10.833 -179 32.5s-70 56.167 -86 103.5s-24 113.333 -24 198v418c-70.667 2 -106 39 -106 111v45c0 32.667 11.167 57.167 33.5 73.5s46.5 25.166 72.5 26.499
v145c0 74 37.667 111 113 111h92c36.667 0 63.334 -11.833 80.001 -35.5s25 -48.834 25 -75.501v-145h155c78 0 117 -33.333 117 -100v-29z" />
    <glyph glyph-name="u" unicode="u" horiz-adv-x="1174" 
d="M1032 109c0 -72.667 -37.333 -108.999 -112 -108.999h-93c-33.333 0 -62 17 -86 51c-46 -26 -90.333 -45.5 -133 -58.5s-89 -19.5 -139 -19.5c-122 0 -209.167 29.333 -261.5 88s-78.5 128.334 -78.5 209.001v600c0 74 34.667 111 104 111h74
c46 0 79.333 -7.33301 100 -22s31 -44.334 31 -89.001v-499c0 -49.333 3.66699 -85.666 11 -108.999s21.666 -35 42.999 -35c38.667 0 73.834 7.16699 105.501 21.5s73.5 40.166 125.5 77.499v544c0 74 34.667 111 104 111h74c46 0 79.333 -7.33301 100 -22
s31 -44.334 31 -89.001v-761z" />
    <glyph glyph-name="v" unicode="v" horiz-adv-x="1112" 
d="M1036 907c0 -12.667 -2.66797 -26.332 -8.00098 -40.999l-305 -782c-11.333 -30.667 -26.166 -52.334 -44.499 -65.001s-44.5 -19 -78.5 -19h-86c-36 0 -62.833 5.66699 -80.5 17s-33.167 33.666 -46.5 66.999l-303 784c-5.33301 13.333 -8 26.333 -8 39
c0 49.333 31.333 74 94 74h111c36 0 62.833 -5.5 80.5 -16.5s31.5 -32.833 41.5 -65.5l156 -516l154 514c8.66699 30.667 22.5 52.334 41.5 65.001s46.833 19 83.5 19h104c22.667 0 44 -4.83301 64 -14.5s30 -29.5 30 -59.5z" />
    <glyph glyph-name="w" unicode="w" horiz-adv-x="1546" 
d="M1452 897c0 -13.333 -2.00195 -27 -6.00195 -41l-254 -790c-8 -26.667 -20.667 -44.334 -38 -53.001s-39.666 -13 -66.999 -13h-79c-38 0 -64.667 7 -80 21s-29.666 39.667 -42.999 77l-113 328l-110 -328c-8.66699 -25.333 -17.167 -44.666 -25.5 -57.999
s-20.166 -23.333 -35.499 -30s-36 -10 -62 -10h-80c-26.667 -0 -48.667 4.33301 -66 13s-30.333 26.334 -39 53.001l-256 790c-2.66699 8 -4 19.667 -4 35v6c0 32 11 54 33 66s46.667 18 74 18h90c35.333 0 62.833 -6.5 82.5 -19.5s33.167 -36.5 40.5 -70.5l108 -479l99 344
c8.66699 30.667 22.667 51.334 42 62.001s46.666 16 81.999 16h56c35.333 0 63 -5.5 83 -16.5s34 -31.5 42 -61.5l98 -344l109 479c8 35.333 21.5 59.166 40.5 71.499s46.167 18.5 81.5 18.5h91c27.333 0 51.833 -5.83301 73.5 -17.5s32.5 -33.834 32.5 -66.501z" />
    <glyph glyph-name="x" unicode="x" horiz-adv-x="1192" 
d="M1090 76c0 -28.667 -10.334 -48.498 -31.001 -59.498s-42.667 -16.5 -66 -16.5h-127c-26.667 0 -46.5 3 -59.5 9s-26.5 18.667 -40.5 38l-168 244l-176 -250c-20.667 -27.333 -52.667 -41 -96 -41h-127c-63.333 0 -95 25.333 -95 76c0 25.333 22.667 63.333 68 114
l252 304l-231 290c-45.333 55.333 -68 95.666 -68 120.999c0 28.667 10 48.5 30 59.5s42 16.5 66 16.5h98c38 0 66.5 -5.66699 85.5 -17s39.833 -34.333 62.5 -69l129 -193l129 193c16 24 30.333 42.167 43 54.5s27.834 20.666 45.501 24.999s39.5 6.5 65.5 6.5h94
c23.333 0 44.833 -5.5 64.5 -16.5s29.5 -30.833 29.5 -59.5c0 -23.333 -22.667 -63.666 -68 -120.999l-229 -290l285 -344c23.333 -28.667 35 -53.334 35 -74.001z" />
    <glyph glyph-name="y" unicode="y" horiz-adv-x="1145" 
d="M1032 899c0 -6.66699 -1.16699 -13.832 -3.5 -21.499s-3.83301 -12.834 -4.5 -15.501l-453 -1208c-10.667 -30 -25.167 -50.167 -43.5 -60.5s-44.5 -15.5 -78.5 -15.5h-103c-62.667 0 -94 25.333 -94 76c0 14 5.33301 33 16 57l152 340l-336 811
c-5.33301 15.333 -8 29 -8 41c0 22.667 10.167 41.334 30.5 56.001s41.5 22 63.5 22h92c48.667 0 81.5 -4.83301 98.5 -14.5s29.833 -28.834 38.5 -57.501l164 -510l152 488c10.667 34.667 26.5 59 47.5 73s50.167 21 87.5 21h90c24 0 45.333 -6.33301 64 -19
s28 -33.667 28 -63z" />
    <glyph glyph-name="z" unicode="z" horiz-adv-x="1055" 
d="M952 104c0 -36.667 -10.501 -63.168 -31.501 -79.501s-47.167 -24.5 -78.5 -24.5h-635c-30.667 0 -55.5 8.66699 -74.5 26s-28.5 39.333 -28.5 66v35c0 33.333 13 66 39 98l396 510c-22.667 -2 -59 -4.33301 -109 -7s-89.5 -4.5 -118.5 -5.5s-51.5 -1.5 -67.5 -1.5
c-33.333 0 -58 6.33301 -74 19s-26.167 26.834 -30.5 42.501s-6.5 34.167 -6.5 55.5v36c0 38 10.333 65.333 31 82s47.334 25 80.001 25h602c29.333 0 52 -7.66699 68 -23s24 -36.333 24 -63v-57c0 -30 -9.66699 -56.667 -29 -80l-399 -510c141.333 8 252 12 332 12
c73.333 0 110 -39 110 -117v-39z" />
    <glyph glyph-name="braceleft" unicode="{" horiz-adv-x="848" 
d="M895 -207c0 -27.333 -9.16797 -47.1719 -27.501 -59.5049s-39.166 -18.5 -62.499 -18.5c-76 0 -142.5 7.16699 -199.5 21.5s-105.167 37.333 -144.5 69s-70 72 -92 121s-37 108.833 -45 179.5c-4 30 -9.66699 105.333 -17 226c-4 62.667 -10.667 108.834 -20 138.501
s-26 58.167 -50 85.5s-68.333 68.666 -133 123.999c54 46.667 91.5 80.334 112.5 101.001s38 42 51 64s22.333 46.5 28 73.5s9.5 63.5 11.5 109.5c2.66699 57.333 5.66699 114 9 170s10.833 108.833 22.5 158.5s30.5 93.167 56.5 130.5
c38.667 59.333 96.5 100.5 173.5 123.5s155.833 34.5 236.5 34.5c23.333 0 44.166 -6.16699 62.499 -18.5s27.5 -32.166 27.5 -59.499v-56c0 -35.333 -9.5 -56.166 -28.5 -62.499s-59.667 -15.666 -122 -27.999s-100.166 -29.833 -113.499 -52.5
c-10 -17.333 -19 -57 -27 -119s-12 -133.667 -12 -215c0 -42 -2.83301 -80.5 -8.5 -115.5s-14.167 -64.833 -25.5 -89.5s-26 -48.167 -44 -70.5s-42.667 -48.5 -74 -78.5c59.333 -56 99.333 -106.667 120 -152s31.334 -112.666 32.001 -201.999
c0 -81.333 4 -152.5 12 -213.5s17 -101.167 27 -120.5c11.333 -18.667 26.166 -30.5 44.499 -35.5s49.833 -11.333 94.5 -19s76.667 -17.5 96 -29.5s29 -32 29 -60v-55z" />
    <glyph glyph-name="bar" unicode="|" horiz-adv-x="451" 
d="M365 -172c0 -75.333 -35.667 -113.001 -107 -113.001h-43c-44.667 0 -77.667 7.83301 -99 23.5s-32 45.5 -32 89.5v1706c0 74 37.667 111 113 111h61c37.333 0 64.5 -11.667 81.5 -35s25.5 -48.666 25.5 -75.999v-1706z" />
    <glyph glyph-name="braceright" unicode="}" horiz-adv-x="848" 
d="M743 680c-64 -55.333 -108.332 -96.4941 -132.999 -123.494s-41.5 -55.833 -50.5 -86.5s-15.167 -76.667 -18.5 -138c-1.33301 -30 -3.33301 -68.5 -6 -115.5s-6.5 -90.333 -11.5 -130s-13.167 -77.834 -24.5 -114.501s-26.666 -69.667 -45.999 -99
c-27.333 -40 -64.5 -71.833 -111.5 -95.5s-96.833 -40 -149.5 -49s-102.334 -13.5 -149.001 -13.5c-23.333 0 -44.166 6.16699 -62.499 18.5s-27.5 32.166 -27.5 59.499v55c0 35.333 9.66699 56.333 29 63s60 16 122 28s99.667 29.667 113 53
c10 16.667 19.167 54.834 27.5 114.501s12.833 132.834 13.5 219.501c1.33301 62 6.16602 111.667 14.499 149s22.833 71.166 43.5 101.499s51.334 64.833 92.001 103.5c-40.667 38.667 -71.334 73.167 -92.001 103.5s-35.167 64.166 -43.5 101.499s-13.166 87 -14.499 149
c-0.666992 86.667 -5.33398 160.167 -14.001 220.5s-17.667 98.166 -27 113.499c-13.333 23.333 -51 41 -113 53s-102.667 21.167 -122 27.5s-29 27.166 -29 62.499v56c0 27.333 9.16699 47.166 27.5 59.499s39.166 18.5 62.499 18.5c154.667 0 269.667 -30 345 -90
s121.333 -160.667 138 -302c2.66699 -18 5.16699 -44 7.5 -78s3.83301 -59.333 4.5 -76s1.66699 -40.334 3 -71.001c3.33301 -48.667 7.5 -85.667 12.5 -111s14.333 -49.833 28 -73.5s30.5 -45.167 50.5 -64.5s57 -52.333 111 -99z" />
    <glyph glyph-name="asciitilde" unicode="~" horiz-adv-x="754" 
d="M754 807c0 -16 -7 -39.999 -21 -71.999c-52.667 -109.333 -126.334 -164 -221.001 -164c-22.667 0 -45 2.83301 -67 8.5s-47.833 14.167 -77.5 25.5s-51.5 19.166 -65.5 23.499s-28 6.5 -42 6.5c-12 0 -25.167 -8.33301 -39.5 -25s-25.5 -28.667 -33.5 -36
s-22.667 -11 -44 -11h-69c-49.333 0 -74 22 -74 66c0 20.667 9.66699 48.667 29 84c57.333 106 130.333 159 219 159c28 0 54 -3.5 78 -10.5s56.333 -17.167 97 -30.5s68.334 -20 83.001 -20c6.66699 0 14.5 6.66699 23.5 20s18.5 23.833 28.5 31.5s26 11.5 48 11.5h72
c50.667 0 76 -22.333 76 -67z" />
    <glyph glyph-name="uni00A0" unicode="&#xa0;" horiz-adv-x="502" 
 />
    <glyph glyph-name="exclamdown" unicode="&#xa1;" horiz-adv-x="653" 
d="M530 1165c0 -18.667 -6.83301 -39.667 -20.5 -63s-32 -46.666 -55 -69.999s-45.667 -41.833 -68 -55.5s-41.833 -20.5 -58.5 -20.5c-54.667 0 -114 45.333 -178 136c-18 21.333 -27 43.666 -27 66.999c0 25.333 11.833 54.5 35.5 87.5s51.5 61.5 83.5 85.5
s59.333 36 82 36c50.667 0 110.667 -45 180 -135c17.333 -26 26 -48.667 26 -68zM479 68c0 -70 -37.334 -105 -112.001 -105h-91c-35.333 0 -61.833 11.167 -79.5 33.5s-26.5 46.833 -26.5 73.5v2l16 667c2.66699 74 37.667 111 105 111h67c37.333 0 64.333 -7.5 81 -22.5
s25.334 -44.5 26.001 -88.5l14 -667v-4z" />
    <glyph glyph-name="cent" unicode="&#xa2;" horiz-adv-x="1018" 
d="M913 1104l-0.00195312 -8.00098v-9c0 -48 -5.66699 -86.833 -17 -116.5s-38.333 -44.5 -81 -44.5c-9.33301 0 -26.333 1.5 -51 4.5s-55.334 6.16699 -92.001 9.5v-498c92.667 10 140.334 15 143.001 15c28.667 0 51.334 -9 68.001 -27
c6.66699 -6.66699 13.334 -24.5 20.001 -53.5s10 -58.833 10 -89.5s-7.16699 -52.167 -21.5 -64.5s-52.166 -21.5 -113.499 -27.5c-9.33301 -1.33301 -44.666 -3.66602 -105.999 -6.99902v-120c0 -24.667 -3.16699 -40.834 -9.5 -48.501s-18.833 -11.5 -37.5 -11.5h-31
c-18 0 -29.333 3.33301 -34 10s-7 23.334 -7 50.001v118c-116.667 4 -206.667 21.667 -270 53s-107.833 82.5 -133.5 153.5s-38.5 170.167 -38.5 297.5c0 130 12.667 230.167 38 300.5s70 121.5 134 153.5s154 49.333 270 52v111c0 23.333 3.5 38.333 10.5 45
s21.833 10 44.5 10h17c31.333 0 47 -18.333 47 -55v-113c45.333 -2.66699 80.666 -5.33398 105.999 -8.00098c59.333 -5.33301 96.666 -13.666 111.999 -24.999s23 -30.333 23 -57zM552.998 433.999v514h-12c-35.333 0 -60.333 -3.83301 -75 -11.5
s-23.167 -17.167 -25.5 -28.5s-5.83301 -38.333 -10.5 -81c-2.66699 -28.667 -4 -68.667 -4 -120v-17c0 -53.333 2.66699 -114 8 -182c2 -19.333 5.66699 -34.5 11 -45.5s15.5 -18.5 30.5 -22.5s36.833 -6 65.5 -6h12z" />
    <glyph glyph-name="sterling" unicode="&#xa3;" horiz-adv-x="1305" 
d="M1104 1270c0 -6 -3.33496 -33.333 -10.002 -82c-6 -39.333 -16.5 -65.166 -31.5 -77.499s-35.5 -18.5 -61.5 -18.5c4 0 -27.667 5.33301 -95 16s-136 16 -206 16c-37.333 0 -64.833 -3.66699 -82.5 -11s-30.167 -21.5 -37.5 -42.5s-11 -52.833 -11 -95.5
c0 -48.667 3.66699 -98.667 11 -150h211c77.333 0 116 -33.333 116 -100v-29c0 -42.667 -7.83301 -74.167 -23.5 -94.5s-46.5 -30.5 -92.5 -30.5h-197c-2 -108 -22.667 -212.333 -62 -313l90.5 -24.5c31 -8.33301 59.833 -12.5 86.5 -12.5c48 0 90 6 126 18
s71.833 26.333 107.5 43s60.167 25 73.5 25c27.333 0 47.833 -8.33301 61.5 -25s20.5 -37 20.5 -61v-65c0 -35.333 -6.33301 -62 -19 -80s-35 -35.667 -67 -53c-82 -44 -172.333 -66 -271 -66c-30 0 -58.167 2 -84.5 6s-62.5 11.667 -108.5 23s-81.167 19.5 -105.5 24.5
s-49.5 7.5 -75.5 7.5c-21.333 0 -52 -5.33301 -92 -16s-70.333 -16 -91 -16c-29.333 0 -51.666 12.833 -66.999 38.5s-23 56.5 -23 92.5c0 24.667 3.83301 49.167 11.5 73.5s16.834 41.5 27.501 51.5c14.667 14.667 55 29 121 43c16.667 81.333 25 161.666 25 240.999v45
h-21c-75.333 0 -113 36.333 -113 109v45c0 31.333 8.5 55.833 25.5 73.5s42.167 26.5 75.5 26.5h18c-9.33301 99.333 -14 163 -14 191c0 49.333 8.16699 97.333 24.5 144s38.833 86.667 67.5 120c36 41.333 81.667 70.833 137 88.5s123.666 26.5 204.999 26.5
c76.667 0 182.334 -8.33301 317.001 -25c68.667 -8.66699 103 -42 103 -100z" />
    <glyph glyph-name="yen" unicode="&#xa5;" horiz-adv-x="1305" 
d="M1237 1282c0 -22.667 -6.66895 -46 -20.002 -70l-402 -682v-67h133c78 0 117 -33.667 117 -101v-24c0 -36.667 -9 -63.334 -27 -80.001s-48 -25 -90 -25h-133v-122c0 -74 -36.667 -111 -110 -111h-89c-40 0 -70.333 8.33301 -91 25s-31 45.334 -31 86.001v122h-136
c-40.667 0 -69.5 8.83301 -86.5 26.5s-25.5 44.5 -25.5 80.5v22c0 34.667 11.833 60.167 35.5 76.5s49.167 24.5 76.5 24.5h136v51l-408 698c-13.333 24 -20 47.333 -20 70c0 25.333 8.66699 46 26 62s42 24 74 24h110c34 0 59.833 -5.83301 77.5 -17.5
s32.834 -29.167 45.501 -52.5l258 -448l265 450c13.333 23.333 28.833 40.5 46.5 51.5s42.834 16.5 75.501 16.5h91c32 0 57 -7.83301 75 -23.5s27 -36.5 27 -62.5z" />
    <glyph glyph-name="brokenbar" unicode="&#xa6;" horiz-adv-x="483" 
d="M360 778h-237v654h237v-654zM360 -68h-237v654h237v-654z" />
    <glyph glyph-name="section" unicode="&#xa7;" horiz-adv-x="969" 
d="M887 104c0 -69.333 -37.001 -104 -111.001 -104h-583c-74 0 -111 34.667 -111 104v43c0 78 37 117 111 117c30.667 0 54.834 -0.166992 72.501 -0.5s37.167 -0.833008 58.5 -1.5v844c-30 0 -53.833 -0.166992 -71.5 -0.5s-37.5 -0.833008 -59.5 -1.5
c-74 0 -111 39 -111 117v43c0 69.333 37 104 111 104h583c74 0 111 -34.667 111 -104v-43c0 -78 -37 -117 -111 -117c-22 0.666992 -41.833 1.16699 -59.5 1.5s-41.5 0.5 -71.5 0.5v-844c22 0.666992 41.667 1.16699 59 1.5s41.333 0.5 72 0.5c74 0 111 -39 111 -117v-43z
" />
    <glyph glyph-name="dieresis" unicode="&#xa8;" horiz-adv-x="719" 
d="M719 1239c0 -22.667 -7.66699 -42 -23 -58s-34.333 -24 -57 -24h-133c-21.333 0 -40 8 -56 24s-24 35.333 -24 58v137c0 22.667 8 42 24 58s34.667 24 56 24h133c22.667 0 41.667 -8 57 -24s23 -35.333 23 -58v-137zM291 1239c0 -22 -7.5 -41.167 -22.5 -57.5
s-33.5 -24.5 -55.5 -24.5h-133c-21.333 0 -40 8 -56 24s-24 35.333 -24 58v137c0 22.667 8 42 24 58s34.667 24 56 24h133c22 0 40.5 -8.16699 55.5 -24.5s22.5 -35.5 22.5 -57.5v-137z" />
    <glyph glyph-name="copyright" unicode="&#xa9;" horiz-adv-x="2048" 
d="M1925 500c0 -154 -19.8281 -289.335 -59.4951 -406.002s-98.334 -213.167 -176.001 -289.5s-173.334 -133.5 -287.001 -171.5s-245.834 -57 -396.501 -57c-288 0 -504.667 77 -650 231c-52.667 56.667 -96.334 118 -131.001 184s-60.334 139.333 -77.001 220
s-25 173.334 -25 278.001c0 76.667 4.66699 147.834 14 213.501s23.833 126.5 43.5 182.5s44.334 107.667 74.001 155s63.5 91 101.5 131c145.333 154.667 362.666 232 651.999 232c156.667 0 292.5 -20.5 407.5 -61.5s210.167 -100.333 285.5 -178
s131.5 -172.5 168.5 -284.5s55.5 -238.333 55.5 -379zM1626 480.998c0 105.333 -11.335 196.666 -34.002 273.999s-52.334 150 -89.001 218c-13.333 26.667 -34.666 51.5 -63.999 74.5s-64.666 42.333 -105.999 58s-87.5 27.5 -138.5 35.5s-106.5 12 -166.5 12
c-120.667 0 -223.834 -16.167 -309.501 -48.5s-144.167 -76.166 -175.5 -131.499c-19.333 -34 -38.166 -74.833 -56.499 -122.5s-33.333 -102.167 -45 -163.5s-17.5 -127.333 -17.5 -198c0 -53.333 3.33301 -103.5 10 -150.5s16 -91.5 28 -133.5s24.333 -78.167 37 -108.5
s27.334 -60.5 44.001 -90.5c31.333 -55.333 91 -99.166 179 -131.499s191.333 -48.5 310 -48.5c117.333 0 218 16.167 302 48.5s140.333 76.166 169 131.499c82 154 123 312.333 123 475zM1341 75.998c0 -22 -7.33398 -38.668 -22.001 -50.001s-40 -18 -76 -20
c-62.667 -4 -118 -6 -166 -6c-86.667 0 -159 9.66699 -217 29s-103.167 48 -135.5 86s-55.333 85.833 -69 143.5s-20.5 125.167 -20.5 202.5c0 97.333 9.16699 177.166 27.5 239.499s45.666 110.666 81.999 144.999s81 58 134 71s119.167 19.5 198.5 19.5
c48 0 103.333 -2 166 -6c36 -2 61.333 -8.66699 76 -20s22 -28 22 -50v-43c0 -32 -5.5 -54.667 -16.5 -68s-31.833 -20 -62.5 -20c-13.333 0.666992 -27.666 1.33398 -42.999 2.00098s-29.5 1.33398 -42.5 2.00098s-23.667 1.16699 -32 1.5s-21.166 0.5 -38.499 0.5
c-35.333 0 -65.166 -0.833008 -89.499 -2.5s-43.833 -5.5 -58.5 -11.5c-28.667 -10.667 -47.334 -30.5 -56.001 -59.5s-13.667 -63.833 -15 -104.5v-31v-65c0 -58.667 2 -103.667 6 -135s14.333 -58 31 -80s41.667 -35.667 75 -41c15.333 -2.66699 51 -4 107 -4l42 2
c14.667 0.666992 28.5 1.33398 41.5 2.00098s23.833 1.16699 32.5 1.5s22 0.5 40 0.5c30.667 0 51.5 -6.5 62.5 -19.5s16.5 -35.833 16.5 -68.5v-43z" />
    <glyph glyph-name="ordfeminine" unicode="&#xaa;" horiz-adv-x="803" 
d="M717 819c0 -44.667 -24.666 -67 -73.999 -67h-45c-46 0 -74.667 10.667 -86 32c-67.333 -32.667 -135.666 -49 -204.999 -49c-48 0 -88.833 7.83301 -122.5 23.5s-58.834 38.167 -75.501 67.5s-25 65.333 -25 108c0 68 19.833 118.5 59.5 151.5s87.167 53.167 142.5 60.5
s128 11.666 218 12.999c0 28 -3.16699 49.333 -9.5 64s-22.5 22 -48.5 22c-58 0 -129 -8.66699 -213 -26c-13.333 -3.33301 -22 -5 -26 -5c-21.333 0 -37 5.33301 -47 16s-15 23.334 -15 38.001v32c0 37.333 18.667 59.333 56 66c112 16.667 191 25 237 25
c104.667 0 177.667 -21.333 219 -64c23.333 -22 39.166 -47.5 47.499 -76.5s12.5 -73.167 12.5 -132.5v-299zM506.001 932l-0.000976562 86.001c-8.66699 0.666992 -16.667 1.16699 -24 1.5s-17 0.5 -29 0.5c-62 0 -105.167 -4.83301 -129.5 -14.5
s-36.5 -28.834 -36.5 -57.501c0 -44.667 13 -67 39 -67c36 0 65.333 3.5 88 10.5s53.334 20.5 92.001 40.5z" />
    <glyph glyph-name="guillemotleft" unicode="&#xab;" horiz-adv-x="1157" 
d="M1092 180c0 -15.333 -11.832 -30.6689 -35.499 -46.002s-65.834 -23 -126.501 -23c-31.333 0 -55.5 3.33301 -72.5 10s-33.167 20.334 -48.5 41.001c-139.333 184.667 -209 289.667 -209 315c0 8.66699 9.16699 28.334 27.5 59.001s38.833 61.667 61.5 93l65 89l55 75
c14.667 20 30.667 33.5 48 40.5s41.666 10.5 72.999 10.5c60.667 0 102.834 -7.66699 126.501 -23s35.5 -31 35.5 -47c0 -8.66699 -5 -23 -15 -43l-164 -254l164 -254c10 -20 15 -34.333 15 -43zM612.001 179.997c0 -16 -11.501 -31.5 -34.501 -46.5
s-64.5 -22.5 -124.5 -22.5c-31.333 0 -56.166 3.5 -74.499 10.5s-34.5 20.5 -48.5 40.5c-138 182.667 -207 287.667 -207 315c0 11.333 12.667 36.833 38 76.5s59.333 88.834 102 147.501l67 92c13.333 19.333 29.333 32.666 48 39.999s43.667 11 75 11
c60 0 101.5 -7.5 124.5 -22.5s34.5 -30.833 34.5 -47.5c0 -10 -4.66699 -24.333 -14 -43l-164 -254l164 -254c9.33301 -18.667 14 -33 14 -43z" />
    <glyph glyph-name="uni00AD" unicode="&#xad;" horiz-adv-x="975" 
d="M889 508c0 -26.667 -8 -46.333 -24 -59s-47 -19 -93 -19h-575c-75.333 0 -113 22 -113 66v116c0 21.333 12 37 36 47s49.667 15 77 15h575c78 0 117 -20.667 117 -62v-104z" />
    <glyph glyph-name="registered" unicode="&#xae;" horiz-adv-x="2048" 
d="M1925 500c0 -154 -19.8281 -289.336 -59.4951 -406.003s-98.334 -213.167 -176.001 -289.5s-173.334 -133.5 -287.001 -171.5s-245.834 -57 -396.501 -57c-288 0 -504.667 77 -650 231c-52.667 56.667 -96.334 118 -131.001 184s-60.334 139.333 -77.001 220
s-25 173.334 -25 278.001c0 76.667 4.66699 147.834 14 213.501s23.833 126.5 43.5 182.5s44.334 107.667 74.001 155s63.5 91 101.5 131c145.333 154.667 362.666 232 651.999 232c117.333 0 225 -12.167 323 -36.5s183.5 -60.666 256.5 -108.999
s133.5 -106.5 181.5 -174.5c104 -144.667 156 -339 156 -583zM1626 480.997c0 105.333 -11.335 196.666 -34.002 273.999s-52.334 150 -89.001 218c-13.333 26.667 -34.666 51.5 -63.999 74.5s-64.666 42.333 -105.999 58s-87.5 27.5 -138.5 35.5s-106.5 12 -166.5 12
c-120.667 0 -223.834 -16.167 -309.501 -48.5s-144.167 -76.166 -175.5 -131.499c-19.333 -34 -38.166 -74.833 -56.499 -122.5s-33.333 -102.167 -45 -163.5s-17.5 -127.333 -17.5 -198c0 -53.333 3.33301 -103.5 10 -150.5s16 -91.5 28 -133.5s24.333 -78.167 37 -108.5
s27.334 -60.5 44.001 -90.5c31.333 -55.333 91 -99.166 179 -131.499s191.333 -48.5 310 -48.5c117.333 0 218 16.167 302 48.5s140.333 76.166 169 131.499c82 154 123 312.333 123 475zM1434 93.9971c0 -36.667 -25.334 -54.999 -76.001 -54.999h-88
c-47.333 0 -83.666 15 -108.999 45l-233 268h-6v-231c0 -54.667 -29.333 -82 -88 -82h-62c-30 0 -53.5 6.33301 -70.5 19s-25.5 33.667 -25.5 63v749c0 52 32 78 96 78h266c52 0 92.833 -1.5 122.5 -4.5s55.167 -9 76.5 -18s43.333 -23.833 66 -44.5
c55.333 -52.667 83 -139.334 83 -260.001c0 -62 -13.5 -116 -40.5 -162s-69.833 -77.333 -128.5 -94l190 -205c18 -19.333 27 -41.333 27 -66zM1141 630.998c0 64.667 -7.66602 102 -22.999 112c-10 6 -42.667 9 -98 9c-25.333 0 -44.333 -0.166992 -57 -0.5
s-26.334 -0.833008 -41.001 -1.5v-201h135c40 0 64.333 5.33301 73 16c7.33301 8.66699 11 30.667 11 66z" />
    <glyph glyph-name="uni00AF" unicode="&#xaf;" horiz-adv-x="805" 
d="M805 1711c0 -26.667 -8 -46.167 -24 -58.5s-47 -18.5 -93 -18.5h-575c-75.333 0 -113 21.667 -113 65v96c0 21.333 12 37 36 47s49.667 15 77 15h575c78 0 117 -20.667 117 -62v-84z" />
    <glyph glyph-name="degree" unicode="&#xb0;" horiz-adv-x="819" 
d="M692 1178c0 -50.667 -12.5039 -99 -37.5039 -145s-59.167 -82.167 -102.5 -108.5s-90.666 -39.5 -141.999 -39.5s-98.666 13 -141.999 39s-77.666 61.667 -102.999 107s-38 94.333 -38 147s12.667 101.5 38 146.5s59.833 80.5 103.5 106.5s90.834 39 141.501 39
c52 0 99.5 -13.333 142.5 -40s77 -62.667 102 -108s37.5 -93.333 37.5 -144zM511.996 1178c0 28.667 -9.83301 52.833 -29.5 72.5s-44.5 29.5 -74.5 29.5c-28 0 -51.167 -10 -69.5 -30s-27.5 -44 -27.5 -72c0 -28.667 9.33301 -53 28 -73s41.667 -30 69 -30
c28.667 0 53.167 10.167 73.5 30.5s30.5 44.5 30.5 72.5z" />
    <glyph glyph-name="plusminus" unicode="&#xb1;" horiz-adv-x="1124" 
d="M1038 561h-360v-334h-232v334h-360v215h360v334h232v-334h360v-215zM1038 -160h-952v215h952v-215z" />
    <glyph glyph-name="acute" unicode="&#xb4;" horiz-adv-x="522" 
d="M522 1450c0 -12 -8.66113 -29.002 -25.9941 -51.002c-9.33301 -9.33301 -18.833 -19.5 -28.5 -30.5s-22.334 -24.667 -38.001 -41l-38.5 -39.5c-68.667 -71.333 -114.334 -111.666 -137.001 -120.999c-20.667 -8 -41 -12 -61 -12h-76
c-34.667 0 -62.834 3.33301 -84.501 10s-32.5 22.334 -32.5 47.001c0 6 5.33301 17.667 16 35c25.333 39.333 63.333 88 114 146s83.667 92 99 102c17.333 10.667 53.666 16 108.999 16s96.666 -3.16699 123.999 -9.5s44.166 -13.5 50.499 -21.5s9.5 -18 9.5 -30z" />
    <glyph glyph-name="glyph151" unicode="&#xb5;" horiz-adv-x="2048" 
d="M1020 813l465 -813h-922z" />
    <glyph glyph-name="paragraph" unicode="&#xb6;" horiz-adv-x="1642" 
d="M1540 -274c0 -44.667 -8.1709 -77 -24.5039 -97s-47.833 -30 -94.5 -30h-305v1792h-205v-1792h-307c-76.667 0 -115 36.667 -115 110v43c0 36 12.167 62.167 36.5 78.5s50.5 24.5 78.5 24.5h45v723c-61.333 0 -116.166 4.5 -164.499 13.5s-97.166 26.833 -146.499 53.5
c-68 38 -120.833 98.333 -158.5 181s-56.5 164.334 -56.5 245.001s11.833 162.167 35.5 244.5s60.167 146.166 109.5 191.499c35.333 32 71.333 56 108 72s83.334 26.833 140.001 32.5s135.334 8.5 236.001 8.5h669c79.333 0 119 -34 119 -102v-27
c0 -44.667 -8.16699 -77 -24.5 -97s-47.833 -30 -94.5 -30h-43v-1509h43c79.333 0 119 -34.333 119 -103v-26z" />
    <glyph glyph-name="uni00B7" unicode="&#xb7;" horiz-adv-x="653" 
d="M530 690c0 -25.333 -11.8301 -54.5 -35.4971 -87.5s-51.334 -61.5 -83.001 -85.5s-58.834 -36 -81.501 -36c-55.333 0 -115.333 45 -180 135c-18 22 -27 44.667 -27 68c0 17.333 7.16699 38.5 21.5 63.5s32.666 48.667 54.999 71s44.833 40.333 67.5 54
s42.334 20.5 59.001 20.5c49.333 0 108.666 -45 177.999 -135c17.333 -26 26 -48.667 26 -68z" />
    <glyph glyph-name="cedilla" unicode="&#xb8;" horiz-adv-x="434" 
d="M434 -61c0 -13.333 -3.33301 -25.668 -10 -37.001c-16 -26 -37.167 -56 -63.5 -90l-75.5 -97c-16.667 -22 -33 -37.667 -49 -47s-38 -14 -66 -14h-82c-38 0 -62.167 5.83301 -72.5 17.5s-15.5 26.834 -15.5 45.501v4c-0 20.667 10.333 42 31 64l2 4
c3.33301 1.33301 58 60 164 176c12.667 14 26.834 23.333 42.501 28s37.5 7 65.5 7h66c17.333 -0 32.166 -5.66699 44.499 -17s18.5 -26 18.5 -44z" />
    <glyph glyph-name="ordmasculine" unicode="&#xba;" horiz-adv-x="862" 
d="M776 1057c0 -106 -27.167 -186.833 -81.5 -242.5s-142.5 -83.5 -264.5 -83.5c-120.667 0 -208.5 28 -263.5 84s-82.5 136.667 -82.5 242c0 219.333 115.333 329 346 329s346 -109.667 346 -329zM559 1057c0 66.667 -8 112.333 -24 137
c-6.66699 12 -16.5 20.167 -29.5 24.5s-38.167 6.5 -75.5 6.5c-35.333 0 -59.5 -2.16699 -72.5 -6.5s-23.5 -12.5 -31.5 -24.5c-15.333 -25.333 -23 -71 -23 -137c0 -65.333 7.66699 -110.333 23 -135c8 -12 18.167 -20.167 30.5 -24.5s36.833 -6.5 73.5 -6.5
c37.333 0 62.5 2.33301 75.5 7s22.833 12.667 29.5 24c16 24 24 69 24 135z" />
    <glyph glyph-name="guillemotright" unicode="&#xbb;" horiz-adv-x="1157" 
d="M1034 477c0 -7.33301 -9.83203 -28.4971 -29.499 -63.4971s-39.834 -66.5 -60.501 -94.5c-20 -28.667 -44.333 -61.334 -73 -98.001l-46 -59c-14.667 -20.667 -30.5 -34.334 -47.5 -41.001s-41.167 -10 -72.5 -10c-60.667 0 -102.5 7.66699 -125.5 23
s-34.5 30.666 -34.5 45.999c0 10 4.66699 24.333 14 43l164 254l-164 254c-9.33301 18.667 -14 33 -14 43c0 16 11.5 31.667 34.5 47s64.833 23 125.5 23c31.333 0 55.833 -3.5 73.5 -10.5s33.167 -20.5 46.5 -40.5l67.5 -92c43 -58.667 77.333 -107.667 103 -147
s38.5 -65 38.5 -77zM557.001 477.003c0 -6 -9.33301 -25.667 -28 -59s-40 -66.333 -64 -99l-54 -73.5l-63 -83.5c-14 -20 -29.667 -33.5 -47 -40.5s-42 -10.5 -74 -10.5c-60.667 0 -102.667 7.66699 -126 23s-35 30.666 -35 45.999c0 10 4.66699 24.333 14 43l164 254
l-164 254c-9.33301 18.667 -14 33 -14 43c0 16 11.667 31.667 35 47s65.333 23 126 23c32 0 56.833 -3.66699 74.5 -11s33.167 -20.666 46.5 -39.999l67.5 -92c43 -58.667 77.333 -107.667 103 -147s38.5 -65 38.5 -77z" />
    <glyph glyph-name="onequarter" unicode="&#xbc;" horiz-adv-x="1907" 
d="M1442 1337c0 -7.33301 -0.833984 -14 -2.50098 -20s-4.16699 -12.333 -7.5 -19l-748 -1335c-9.33301 -15.333 -21.666 -26.666 -36.999 -33.999s-31.666 -11 -48.999 -11c-3.33301 0 -6.66602 0.166992 -9.99902 0.5s-6.66602 1.5 -9.99902 3.5l-95 58
c-9.33301 5.33301 -15.333 13.166 -18 23.499s-4 20.166 -4 29.499c0 7.33301 0.833008 14 2.5 20s4.16699 12.333 7.5 19l750 1335c9.33301 16.667 20.666 28.334 33.999 35.001s29.333 10 48 10c3.33301 0 6.66602 -0.166992 9.99902 -0.5s6.66602 -1.5 9.99902 -3.5
l96 -57c9.33301 -5.33301 15.5 -13.333 18.5 -24s4.5 -20.667 4.5 -30zM536.999 719c0 -24.667 -7.00098 -44.167 -21.001 -58.5s-33.667 -21.5 -59 -21.5h-39c-28 0 -50.667 5.5 -68 16.5s-26 32.167 -26 63.5v452c-5.33301 -2 -12.333 -4.16699 -21 -6.5
s-16 -3.5 -22 -3.5c-14.667 0 -26.667 2.5 -36 7.5s-16.833 11.667 -22.5 20s-9.66699 18.166 -12 29.499s-3.5 23 -3.5 35c0 20.667 4.83301 37 14.5 49s23.834 21.667 42.501 29l93.5 36c30.333 11.333 63.5 17 99.5 17c22.667 0 41.667 -6.66699 57 -20
s23 -31.666 23 -54.999v-590zM1763 238c0 -18 -2.33301 -32.1641 -7 -42.4971s-11.334 -18 -20.001 -23s-19 -8 -31 -9s-25.333 -1.5 -40 -1.5c0 -22.667 0.333008 -43.834 1 -63.501s-1.33301 -36.834 -6 -51.501s-13.667 -26.167 -27 -34.5s-34 -12.5 -62 -12.5
s-48.667 4.16699 -62 12.5s-22.333 19.666 -27 33.999s-6.66699 31.333 -6 51s1 41.167 1 64.5h-197h-59c-14.667 0 -27.5 3.5 -38.5 10.5s-20.167 15.833 -27.5 26.5s-12.833 22.667 -16.5 36s-5.5 26.333 -5.5 39c0 24 6.66699 44 20 60l307 379
c8 9.33301 16.5 16.166 25.5 20.499s18.833 7.33301 29.5 9s21.834 2.5 33.501 2.5h36.5c22.667 0 41.667 -6.66699 57 -20s23 -31.666 23 -54.999v-344c34.667 0 59.667 -5.83301 75 -17.5s23 -35.167 23 -70.5zM1477 477.003l-134.001 -158
c23.333 1.33301 45.833 1.83301 67.5 1.5s43.834 0.166992 66.501 1.5v155z" />
    <glyph glyph-name="onehalf" unicode="&#xbd;" horiz-adv-x="1907" 
d="M1401 1337c0 -7.33301 -0.833984 -14 -2.50098 -20s-4.16699 -12.333 -7.5 -19l-748 -1335c-9.33301 -15.333 -21.666 -26.666 -36.999 -33.999s-31.666 -11 -48.999 -11c-3.33301 0 -6.66602 0.166992 -9.99902 0.5s-6.66602 1.5 -9.99902 3.5l-95 58
c-9.33301 5.33301 -15.333 13.166 -18 23.499s-4 20.166 -4 29.499c0 7.33301 0.833008 14 2.5 20s4.16699 12.333 7.5 19l750 1335c9.33301 16.667 20.666 28.334 33.999 35.001s29.333 10 48 10c3.33301 0 6.66602 -0.166992 9.99902 -0.5s6.66602 -1.5 9.99902 -3.5
l96 -57c9.33301 -5.33301 15.5 -13.333 18.5 -24s4.5 -20.667 4.5 -30zM536.999 719c0 -24.667 -7.00098 -44.167 -21.001 -58.5s-33.667 -21.5 -59 -21.5h-39c-28 0 -50.667 5.5 -68 16.5s-26 32.167 -26 63.5v452c-5.33301 -2 -12.333 -4.16699 -21 -6.5
s-16 -3.5 -22 -3.5c-14.667 0 -26.667 2.5 -36 7.5s-16.833 11.667 -22.5 20s-9.66699 18.166 -12 29.499s-3.5 23 -3.5 35c0 20.667 4.83301 37 14.5 49s23.834 21.667 42.501 29l93.5 36c30.333 11.333 63.5 17 99.5 17c22.667 0 41.667 -6.66699 57 -20
s23 -31.666 23 -54.999v-590zM1739 76c0 -25.333 -8.16504 -44.3301 -24.498 -56.9971s-36.166 -19 -59.499 -19h-395c-19.333 0 -34.5 2.83301 -45.5 8.5s-19.167 13.334 -24.5 23.001s-8.66602 21.334 -9.99902 35.001s-2 28.5 -2 44.5c0 12.667 2.5 24.334 7.5 35.001
s11.333 20.667 19 30s16 18 25 26l25.5 23l66.5 64.5l67.5 64.5l37 36.5c14 14.333 27.5 29.666 40.5 45.999s24.167 33 33.5 50s14.666 33.167 15.999 48.5c1.33301 14 -1.5 24.167 -8.5 30.5s-20.833 9.5 -41.5 9.5c-18 0 -35.5 -0.5 -52.5 -1.5
s-34.833 -3.16699 -53.5 -6.5c-9.33301 -1.33301 -19.333 -3.33301 -30 -6s-21.334 -4 -32.001 -4c-16 0 -28.667 2.83301 -38 8.5s-16.5 13.167 -21.5 22.5s-8.66699 20 -11 32s-4.5 24.333 -6.5 37c0 3.33301 -0.333008 6.16602 -1 8.49902s-1 5.16602 -1 8.49902
c0 11.333 2.16699 21 6.5 29s10.166 14.667 17.499 20s15.5 9.66602 24.5 12.999s18.5 5.66602 28.5 6.99902c29.333 4.66699 58.5 8 87.5 10s57.833 3 86.5 3c34 0 67 -3.33301 99 -10s60.167 -17.834 84.5 -33.501s44 -36.667 59 -63s22.5 -59.166 22.5 -98.499
c0 -40 -7.33301 -77.5 -22 -112.5s-33.667 -67.667 -57 -98s-49.5 -58.833 -78.5 -85.5s-57.833 -51.667 -86.5 -75c28 1.33301 55.333 2.33301 82 3s54 1 82 1c19.333 0 34.666 -2.83301 45.999 -8.5s19.833 -13.334 25.5 -23.001s9.16699 -21 10.5 -34s2 -27.167 2 -42.5z
" />
    <glyph glyph-name="threequarters" unicode="&#xbe;" horiz-adv-x="1907" 
d="M1462 1337c0 -7.33301 -0.832031 -14 -2.49902 -20s-4.16699 -12.333 -7.5 -19l-747 -1335c-9.33301 -15.333 -21.833 -26.666 -37.5 -33.999s-32.167 -11 -49.5 -11c-3.33301 0 -6.66602 0.166992 -9.99902 0.5s-6.66602 1.5 -9.99902 3.5l-94 58
c-9.33301 5.33301 -15.5 13.166 -18.5 23.499s-4.5 20.166 -4.5 29.499c0 12.667 3.66699 25.667 11 39l749 1335c9.33301 16.667 20.666 28.334 33.999 35.001s29.333 10 48 10c3.33301 0 6.66602 -0.166992 9.99902 -0.5s6.66602 -1.5 9.99902 -3.5l97 -57
c9.33301 -5.33301 15.333 -13.333 18 -24s4 -20.667 4 -30zM690.001 879c0 -45.333 -6.83301 -83.8271 -20.5 -115.494s-33 -57.5 -58 -77.5s-54.667 -34.5 -89 -43.5s-72.5 -13.5 -114.5 -13.5c-9.33301 0 -22.666 0.833008 -39.999 2.5s-36.5 4.33398 -57.5 8.00098
s-42.5 8.16699 -64.5 13.5s-42 11.666 -60 18.999s-32.667 15.666 -44 24.999s-17 20 -17 32c0 12.667 2 24.667 6 36l12 34c5.33301 15.333 14.166 27.333 26.499 36s26.833 13 43.5 13c5.33301 0 10.333 -0.333008 15 -1s9.33398 -1.66699 14.001 -3
c28.667 -8.66699 56.334 -16.334 83.001 -23.001s55.667 -10 87 -10c13.333 0 24.166 0.833008 32.499 2.5s14.666 5 18.999 10s7.33301 11.833 9 20.5s2.5 19.667 2.5 33c0 12 -1.5 21.333 -4.5 28s-7.33301 11.667 -13 15s-12.667 5.33301 -21 6
s-17.833 1.33398 -28.5 2.00098c-18.667 1.33301 -37.167 2 -55.5 2h-53.5c-12 0 -23.833 0.5 -35.5 1.5s-22.167 3.5 -31.5 7.5s-16.833 10.167 -22.5 18.5s-8.5 20.166 -8.5 35.499v47c0 20 5.16699 34.667 15.5 44s23 15.666 38 18.999s31 4.66602 48 3.99902
s32.167 -1 45.5 -1c16.667 0 31.167 0.166992 43.5 0.5s22.5 2.5 30.5 6.5s14 10.833 18 20.5s6 23.834 6 42.501c0 11.333 -1.66699 20 -5 26s-7.83301 10.167 -13.5 12.5s-12.5 3.66602 -20.5 3.99902s-16.667 0.5 -26 0.5c-16.667 0 -33.167 -1 -49.5 -3l-48.5 -6
l-22.5 -4c-7.66699 -1.33301 -14.5 -2 -20.5 -2c-16.667 0 -29.834 3.5 -39.501 10.5s-17 16 -22 27s-8.33301 23.333 -10 37s-2.5 27.167 -2.5 40.5c0 21.333 9.66699 39 29 53c6 4.66699 17.333 8.5 34 11.5s34.834 5.33301 54.501 7s38.5 2.83398 56.5 3.50098s31 1 39 1
c36.667 0 71.834 -3 105.501 -9s63.5 -16.667 89.5 -32s46.667 -36.833 62 -64.5s23 -62.834 23 -105.501c0 -24.667 -3 -48.834 -9 -72.501s-16.667 -45.167 -32 -64.5c29.333 -20.667 48.666 -45.334 57.999 -74.001s14 -60 14 -94zM1763 238.006
c0 -18 -2.33301 -32.1641 -7 -42.4971s-11.334 -18 -20.001 -23s-19 -8 -31 -9s-25.333 -1.5 -40 -1.5c0 -22.667 0.333008 -43.834 1 -63.501s-1.33301 -36.834 -6 -51.501s-13.667 -26.167 -27 -34.5s-34 -12.5 -62 -12.5s-48.667 4.16699 -62 12.5
s-22.333 19.666 -27 33.999s-6.66699 31.333 -6 51s1 41.167 1 64.5h-197h-59c-14.667 0 -27.5 3.5 -38.5 10.5s-20.167 15.833 -27.5 26.5s-12.833 22.667 -16.5 36s-5.5 26.333 -5.5 39c0 24 6.66699 44 20 60l307 379c8 9.33301 16.5 16.166 25.5 20.499
s18.833 7.33301 29.5 9s21.834 2.5 33.501 2.5h36.5c22.667 0 41.667 -6.66699 57 -20s23 -31.666 23 -54.999v-344c34.667 0 59.667 -5.83301 75 -17.5s23 -35.167 23 -70.5zM1477 477.009l-134.001 -158c23.333 1.33301 45.833 1.83301 67.5 1.5
s43.834 0.166992 66.501 1.5v155z" />
    <glyph glyph-name="questiondown" unicode="&#xbf;" horiz-adv-x="1057" 
d="M813 1194c0 -18.667 -6.83398 -39.667 -20.501 -63s-32.167 -46.833 -55.5 -70.5s-46.166 -42.167 -68.499 -55.5s-41.833 -20 -58.5 -20c-52.667 0 -112 45 -178 135c-16 21.333 -24 44 -24 68c0 26 11.667 55.333 35 88s50.833 61 82.5 85s59.167 36 82.5 36
c52 0 112 -45 180 -135c16.667 -23.333 25 -46 25 -68zM933.999 74c0 -49.333 -29.9971 -77.998 -89.9971 -85.998c-110.667 -16.667 -216 -25 -316 -25c-67.333 0 -128 6.16699 -182 18.5s-98.333 31 -133 56s-61.5 59 -80.5 102s-28.5 94.167 -28.5 153.5
c0 94 39 172.333 117 235c24.667 20.667 57.334 46.5 98.001 77.5s75 59.833 103 86.5c22 22 38.667 42.333 50 61s17 39.334 17 62.001s7.5 39 22.5 49s41.167 15 78.5 15h61c43.333 0 71 -7 83 -21s18 -38 18 -72v-53c0 -44 -14.5 -83 -43.5 -117s-71.5 -72 -127.5 -114
s-96.833 -75.833 -122.5 -101.5s-38.5 -56.167 -38.5 -91.5c0 -22.667 3.33301 -40.834 10 -54.501s18.667 -24.334 36 -32.001s41.666 -11.5 72.999 -11.5c53.333 0 139.333 10.333 258 31c7.33301 1.33301 15.333 2.66602 24 3.99902s15.667 2 21 2
c23.333 0 41.166 -5.33301 53.499 -16s20.666 -23 24.999 -37s7.66602 -34.333 9.99902 -61s3.5 -42.667 3.5 -48v-12z" />
    <glyph glyph-name="Agrave" unicode="&#xc0;" horiz-adv-x="1321" 
d="M1292 82c0 -54.667 -32.002 -81.999 -96.002 -81.999h-113c-35.333 0 -61.333 7.5 -78 22.5s-30 35.5 -40 61.5l-64 168c-65.333 -1.33301 -147.333 -2 -246 -2c-112 0 -193.667 0.666992 -245 2l-56 -154c-12 -33.333 -26.333 -58 -43 -74s-44.667 -24 -84 -24h-94
c-42.667 0 -70.667 6.16699 -84 18.5s-20 30.166 -20 53.499c0 11.333 6 33.666 18 66.999l422 1133c8.66699 23.333 18.334 42.5 29.001 57.5s25 26.5 43 34.5s41.667 12 71 12h84c42 0 73.333 -8.16699 94 -24.5s37.334 -42.166 50.001 -77.499l444 -1153
c5.33301 -16 8 -29 8 -39zM810.998 494.001l-158.001 454l-157 -454c24.667 0.666992 47.5 1.16699 68.5 1.5s51.167 0.5 90.5 0.5c36.667 0 65.334 -0.166992 86.001 -0.5s44 -0.833008 70 -1.5zM904.997 1577c0 -38 -30.667 -57.001 -92 -57.001h-100
c-27.333 0 -52.833 6.83301 -76.5 20.5s-46.667 32.334 -69 56.001l-61.5 66.5l-44 43.5c-24.667 24.333 -44 45.5 -58 63.5s-21 33 -21 45c0 40.667 50.667 61 152 61h32c56 0 92.333 -5.33301 109 -16c14 -9.33301 40 -35.333 78 -78s72.667 -84.5 104 -125.5
s47 -67.5 47 -79.5z" />
    <glyph glyph-name="Aacute" unicode="&#xc1;" horiz-adv-x="1321" 
d="M1292 82c0 -54.667 -32.002 -81.999 -96.002 -81.999h-113c-35.333 0 -61.333 7.5 -78 22.5s-30 35.5 -40 61.5l-64 168c-65.333 -1.33301 -147.333 -2 -246 -2c-112 0 -193.667 0.666992 -245 2l-56 -154c-12 -33.333 -26.333 -58 -43 -74s-44.667 -24 -84 -24h-94
c-42.667 0 -70.667 6.16699 -84 18.5s-20 30.166 -20 53.499c0 11.333 6 33.666 18 66.999l422 1133c8.66699 23.333 18.334 42.5 29.001 57.5s25 26.5 43 34.5s41.667 12 71 12h84c42 0 73.333 -8.16699 94 -24.5s37.334 -42.166 50.001 -77.499l444 -1153
c5.33301 -16 8 -29 8 -39zM810.998 494.001l-158.001 454l-157 -454c24.667 0.666992 47.5 1.16699 68.5 1.5s51.167 0.5 90.5 0.5c36.667 0 65.334 -0.166992 86.001 -0.5s44 -0.833008 70 -1.5zM974.997 1813c0 -12 -8.66113 -29.002 -25.9941 -51.002
c-9.33301 -9.33301 -18.833 -19.5 -28.5 -30.5s-22.334 -24.667 -38.001 -41l-38.5 -39.5c-68.667 -71.333 -114.334 -111.666 -137.001 -120.999c-20.667 -8 -41 -12 -61 -12h-76c-34.667 0 -62.834 3.33301 -84.501 10s-32.5 22.334 -32.5 47.001
c0 6 5.33301 17.667 16 35c25.333 39.333 63.333 88 114 146s83.667 92 99 102c17.333 10.667 53.666 16 108.999 16s96.666 -3.16699 123.999 -9.5s44.166 -13.5 50.499 -21.5s9.5 -18 9.5 -30z" />
    <glyph glyph-name="Acircumflex" unicode="&#xc2;" horiz-adv-x="1321" 
d="M1292 82c0 -54.667 -32.002 -81.999 -96.002 -81.999h-113c-35.333 0 -61.333 7.5 -78 22.5s-30 35.5 -40 61.5l-64 168c-65.333 -1.33301 -147.333 -2 -246 -2c-112 0 -193.667 0.666992 -245 2l-56 -154c-12 -33.333 -26.333 -58 -43 -74s-44.667 -24 -84 -24h-94
c-42.667 0 -70.667 6.16699 -84 18.5s-20 30.166 -20 53.499c0 11.333 6 33.666 18 66.999l422 1133c8.66699 23.333 18.334 42.5 29.001 57.5s25 26.5 43 34.5s41.667 12 71 12h84c42 0 73.333 -8.16699 94 -24.5s37.334 -42.166 50.001 -77.499l444 -1153
c5.33301 -16 8 -29 8 -39zM810.998 494.001l-158.001 454l-157 -454c24.667 0.666992 47.5 1.16699 68.5 1.5s51.167 0.5 90.5 0.5c36.667 0 65.334 -0.166992 86.001 -0.5s44 -0.833008 70 -1.5zM996.997 1595c0 -14 -11.833 -28.4971 -35.5 -43.4971
s-64.5 -22.5 -122.5 -22.5c-18.667 0 -33.834 1.83301 -45.501 5.5s-22.5 10 -32.5 19s-20.167 21.167 -30.5 36.5l-28.5 42l-20.5 29.5c-5.66699 8.33301 -14.5 20.166 -26.5 35.499l-68 -95.5c-24.667 -34.333 -44.334 -54.833 -59.001 -61.5
c-8.66699 -7.33301 -28.334 -11 -59.001 -11c-56.667 0 -96.834 7.5 -120.501 22.5s-35.5 29.5 -35.5 43.5c0 14.667 6.83301 33.167 20.5 55.5s28.834 44.166 45.501 65.499l36 47c64 87.333 105.667 138.333 125 153c18 14 56.333 21 115 21c44 0 72.167 -1.33301 84.5 -4
s22.5 -8.33398 30.5 -17.001c8.66699 -5.33301 23.334 -20.5 44.001 -45.5s42.834 -53.833 66.501 -86.5l62 -86.5c17.667 -25 29.834 -42.833 36.501 -53.5c12 -16.667 18 -33 18 -49z" />
    <glyph glyph-name="Atilde" unicode="&#xc3;" horiz-adv-x="1321" 
d="M1292 82c0 -54.667 -32.002 -81.999 -96.002 -81.999h-113c-35.333 0 -61.333 7.5 -78 22.5s-30 35.5 -40 61.5l-64 168c-65.333 -1.33301 -147.333 -2 -246 -2c-112 0 -193.667 0.666992 -245 2l-56 -154c-12 -33.333 -26.333 -58 -43 -74s-44.667 -24 -84 -24h-94
c-42.667 0 -70.667 6.16699 -84 18.5s-20 30.166 -20 53.499c0 11.333 6 33.666 18 66.999l422 1133c8.66699 23.333 18.334 42.5 29.001 57.5s25 26.5 43 34.5s41.667 12 71 12h84c42 0 73.333 -8.16699 94 -24.5s37.334 -42.166 50.001 -77.499l444 -1153
c5.33301 -16 8 -29 8 -39zM810.998 494.001l-158.001 454l-157 -454c24.667 0.666992 47.5 1.16699 68.5 1.5s51.167 0.5 90.5 0.5c36.667 0 65.334 -0.166992 86.001 -0.5s44 -0.833008 70 -1.5zM1051 1803c0 -14 -7.66895 -38.001 -23.002 -72.001
c-52 -109.333 -125.667 -164 -221 -164c-26 0 -49.5 2.33301 -70.5 7s-43.5 11.334 -67.5 20.001l-75 28c-20.667 6 -33.667 9 -39 9c-12 0 -25.167 -8.33301 -39.5 -25s-25.5 -28.667 -33.5 -36s-22.667 -11 -44 -11h-69c-49.333 0 -74 21.667 -74 65
c0 19.333 10.333 47.333 31 84c57.333 106.667 129.666 160 216.999 160c28 0 54 -3.5 78 -10.5s56.333 -17.167 97 -30.5s68.334 -20 83.001 -20c7.33301 0 15.333 6.5 24 19.5s17.834 23.5 27.501 31.5s25.834 12 48.501 12h74c50.667 0 76 -22.333 76 -67z" />
    <glyph glyph-name="Adieresis" unicode="&#xc4;" horiz-adv-x="1321" 
d="M1292 82c0 -54.667 -32.002 -81.999 -96.002 -81.999h-113c-35.333 0 -61.333 7.5 -78 22.5s-30 35.5 -40 61.5l-64 168c-65.333 -1.33301 -147.333 -2 -246 -2c-112 0 -193.667 0.666992 -245 2l-56 -154c-12 -33.333 -26.333 -58 -43 -74s-44.667 -24 -84 -24h-94
c-42.667 0 -70.667 6.16699 -84 18.5s-20 30.166 -20 53.499c0 11.333 6 33.666 18 66.999l422 1133c8.66699 23.333 18.334 42.5 29.001 57.5s25 26.5 43 34.5s41.667 12 71 12h84c42 0 73.333 -8.16699 94 -24.5s37.334 -42.166 50.001 -77.499l444 -1153
c5.33301 -16 8 -29 8 -39zM810.998 494.001l-158.001 454l-157 -454c24.667 0.666992 47.5 1.16699 68.5 1.5s51.167 0.5 90.5 0.5c36.667 0 65.334 -0.166992 86.001 -0.5s44 -0.833008 70 -1.5zM1030 1651c0 -22.667 -7.66699 -42 -23 -58s-34.333 -24 -57 -24h-133
c-21.333 0 -40 8 -56 24s-24 35.333 -24 58v137c0 22.667 8 42 24 58s34.667 24 56 24h133c22.667 0 41.667 -8 57 -24s23 -35.333 23 -58v-137zM601.997 1651c0 -22 -7.5 -41.167 -22.5 -57.5s-33.5 -24.5 -55.5 -24.5h-133c-21.333 0 -40 8 -56 24s-24 35.333 -24 58v137
c0 22.667 8 42 24 58s34.667 24 56 24h133c22 0 40.5 -8.16699 55.5 -24.5s22.5 -35.5 22.5 -57.5v-137z" />
    <glyph glyph-name="Aring" unicode="&#xc5;" horiz-adv-x="1321" 
d="M1292 82c0 -54.667 -32.002 -81.999 -96.002 -81.999h-113c-35.333 0 -61.333 7.5 -78 22.5s-30 35.5 -40 61.5l-64 168c-65.333 -1.33301 -147.333 -2 -246 -2c-112 0 -193.667 0.666992 -245 2l-56 -154c-12 -33.333 -26.333 -58 -43 -74s-44.667 -24 -84 -24h-94
c-42.667 0 -70.667 6.16699 -84 18.5s-20 30.166 -20 53.499c0 11.333 6 33.666 18 66.999l422 1133c8.66699 23.333 18.334 42.5 29.001 57.5s25 26.5 43 34.5s41.667 12 71 12h84c42 0 73.333 -8.16699 94 -24.5s37.334 -42.166 50.001 -77.499l444 -1153
c5.33301 -16 8 -29 8 -39zM810.998 494.001l-158.001 454l-157 -454c24.667 0.666992 47.5 1.16699 68.5 1.5s51.167 0.5 90.5 0.5c36.667 0 65.334 -0.166992 86.001 -0.5s44 -0.833008 70 -1.5zM861.997 1806c0 -38 -9.16699 -72.998 -27.5 -104.998s-43 -57.333 -74 -76
s-64.833 -28 -101.5 -28c-55.333 0 -103 20.833 -143 62.5s-60 90.5 -60 146.5c0 37.333 9 72 27 104s42.333 57.5 73 76.5s65 28.5 103 28.5c36.667 0 70.5 -9.33301 101.5 -28s55.667 -43.834 74 -75.501s27.5 -66.834 27.5 -105.501zM738.997 1806
c0 22.667 -7.66602 42 -22.999 58s-34.333 24 -57 24c-22 0 -40.5 -8.16699 -55.5 -24.5s-22.5 -35.5 -22.5 -57.5s7.66699 -40.667 23 -56s33.666 -23 54.999 -23s40 8 56 24s24 34.333 24 55z" />
    <glyph glyph-name="AE" unicode="&#xc6;" horiz-adv-x="1921" 
d="M1808 104c0 -69.333 -36.666 -103.998 -109.999 -103.998h-635c-40.667 0 -71.334 8.33301 -92.001 25s-31 45.334 -31 86.001v225h-461l-123 -244c-16 -31.333 -32.5 -54.5 -49.5 -69.5s-40.5 -22.5 -70.5 -22.5h-95c-30.667 0 -57 8.33301 -79 25s-33 37.667 -33 63
c0 15.333 8.66699 40.666 26 75.999l496 977c33.333 65.333 60.5 112.666 81.5 141.999s45.5 50.833 73.5 64.5s63.667 20.5 107 20.5h885c73.333 0 110 -34.667 110 -104v-54c0 -77.333 -36.667 -116 -110 -116c-56.667 0 -120 0.666992 -190 2
s-152.667 2.66602 -248 3.99902v-262c48 1.33301 98.167 2.5 150.5 3.5s88.666 1.66699 108.999 2s64.166 0.5 131.499 0.5c74.667 0 112 -39 112 -117v-27c0 -77.333 -37.333 -116 -112 -116c-67.333 0 -111.166 0.166992 -131.499 0.5s-56.666 1 -108.999 2
s-102.5 2.16699 -150.5 3.5v-322c240 4 386 6 438 6c73.333 0 110 -38.667 110 -116v-54zM940.001 588.002v512h-49c-13.333 0 -22 -1.33301 -26 -4s-8.33301 -9.66699 -13 -21l-246 -487h334z" />
    <glyph glyph-name="Ccedilla" unicode="&#xc7;" horiz-adv-x="1178" 
d="M1094 76c0 -28.667 -9.33301 -50.5 -28 -65.5s-52.334 -23.833 -101.001 -26.5c-75.333 -4.66699 -128 -7.66699 -158 -9c0 -12 -4 -23.333 -12 -34c-13.333 -22 -34 -51 -62 -87l-78 -100c-16.667 -22.667 -32.667 -38.5 -48 -47.5s-36.666 -13.5 -63.999 -13.5h-84
c-35.333 0 -58.5 5.66699 -69.5 17s-16.5 26 -16.5 44v6c0 20.667 9.33301 42 28 64l5 4c1.33301 2 49.666 54.667 144.999 158c-115.333 18 -204.666 54.5 -267.999 109.5s-107.5 129.167 -132.5 222.5s-37.5 210 -37.5 350c0 193.333 22 341.666 66 444.999
s109.667 174 197 212s205 57 353 57c59.333 0 138 -3.33301 236 -10c48.667 -2.66699 82.334 -11.5 101.001 -26.5s28 -36.833 28 -65.5v-66c0 -45.333 -7 -76.333 -21 -93s-41.333 -25 -82 -25c-12.667 0 -44.334 1.66699 -95.001 5s-92.667 5 -126 5
c-104 0 -175.667 -8.33301 -215 -25c-35.333 -15.333 -61.166 -40.166 -77.499 -74.499s-26.333 -74.333 -30 -120s-5.5 -111.167 -5.5 -196.5v-24c0 -89.333 3 -159 9 -209s21.667 -93.333 47 -130s64.666 -59.667 117.999 -69c31.333 -5.33301 82.666 -8 153.999 -8
c13.333 0 45.333 1.66699 96 5s92.334 5 125.001 5c40.667 0 68 -8.33301 82 -25s21 -48 21 -94v-65z" />
    <glyph glyph-name="Egrave" unicode="&#xc8;" horiz-adv-x="1130" 
d="M1018 104c0 -69.333 -36.999 -104.001 -110.999 -104.001h-637c-40 0 -70.5 8.5 -91.5 25.5s-31.5 45.5 -31.5 85.5v1153c0 42.667 11.833 70.667 35.5 84s52.834 20 87.501 20h637c74 0 111 -34.667 111 -104v-54c0 -32 -7 -59.333 -21 -82s-44 -34 -90 -34
c-53.333 0 -96.333 0.333008 -129 1s-70.667 1.33398 -114 2.00098s-81.833 1.33398 -115.5 2.00098s-60.167 1 -79.5 1v-262c48 1.33301 98.167 2.5 150.5 3.5s88.666 1.66699 108.999 2s64.166 0.5 131.499 0.5c75.333 0 113 -39 113 -117v-27
c0 -77.333 -37.667 -116 -113 -116c-56 0 -115.667 0.666992 -179 2s-134 2.66602 -212 3.99902v-322c53.333 1.33301 110.833 2.5 172.5 3.5l125.5 2c22 0.333008 68.667 0.5 140 0.5c46 0 76 -11.167 90 -33.5s21 -49.833 21 -82.5v-54zM771.001 1577
c0 -38 -30.667 -57.001 -92 -57.001h-100c-27.333 0 -52.833 6.83301 -76.5 20.5s-46.667 32.334 -69 56.001l-61.5 66.5l-44 43.5c-24.667 24.333 -44 45.5 -58 63.5s-21 33 -21 45c0 40.667 50.667 61 152 61h32c56 0 92.333 -5.33301 109 -16
c14 -9.33301 40 -35.333 78 -78s72.667 -84.5 104 -125.5s47 -67.5 47 -79.5z" />
    <glyph glyph-name="Eacute" unicode="&#xc9;" horiz-adv-x="1130" 
d="M1018 104c0 -69.333 -36.999 -104.001 -110.999 -104.001h-637c-40 0 -70.5 8.5 -91.5 25.5s-31.5 45.5 -31.5 85.5v1153c0 42.667 11.833 70.667 35.5 84s52.834 20 87.501 20h637c74 0 111 -34.667 111 -104v-54c0 -32 -7 -59.333 -21 -82s-44 -34 -90 -34
c-53.333 0 -96.333 0.333008 -129 1s-70.667 1.33398 -114 2.00098s-81.833 1.33398 -115.5 2.00098s-60.167 1 -79.5 1v-262c48 1.33301 98.167 2.5 150.5 3.5s88.666 1.66699 108.999 2s64.166 0.5 131.499 0.5c75.333 0 113 -39 113 -117v-27
c0 -77.333 -37.667 -116 -113 -116c-56 0 -115.667 0.666992 -179 2s-134 2.66602 -212 3.99902v-322c53.333 1.33301 110.833 2.5 172.5 3.5l125.5 2c22 0.333008 68.667 0.5 140 0.5c46 0 76 -11.167 90 -33.5s21 -49.833 21 -82.5v-54zM902.001 1813
c0 -12 -8.66113 -29.002 -25.9941 -51.002c-9.33301 -9.33301 -18.833 -19.5 -28.5 -30.5s-22.334 -24.667 -38.001 -41l-38.5 -39.5c-68.667 -71.333 -114.334 -111.666 -137.001 -120.999c-20.667 -8 -41 -12 -61 -12h-76c-34.667 0 -62.834 3.33301 -84.501 10
s-32.5 22.334 -32.5 47.001c0 6 5.33301 17.667 16 35c25.333 39.333 63.333 88 114 146s83.667 92 99 102c17.333 10.667 53.666 16 108.999 16s96.666 -3.16699 123.999 -9.5s44.166 -13.5 50.499 -21.5s9.5 -18 9.5 -30z" />
    <glyph glyph-name="Ecircumflex" unicode="&#xca;" horiz-adv-x="1130" 
d="M1018 104c0 -69.333 -36.999 -104.001 -110.999 -104.001h-637c-40 0 -70.5 8.5 -91.5 25.5s-31.5 45.5 -31.5 85.5v1153c0 42.667 11.833 70.667 35.5 84s52.834 20 87.501 20h637c74 0 111 -34.667 111 -104v-54c0 -32 -7 -59.333 -21 -82s-44 -34 -90 -34
c-53.333 0 -96.333 0.333008 -129 1s-70.667 1.33398 -114 2.00098s-81.833 1.33398 -115.5 2.00098s-60.167 1 -79.5 1v-262c48 1.33301 98.167 2.5 150.5 3.5s88.666 1.66699 108.999 2s64.166 0.5 131.499 0.5c75.333 0 113 -39 113 -117v-27
c0 -77.333 -37.667 -116 -113 -116c-56 0 -115.667 0.666992 -179 2s-134 2.66602 -212 3.99902v-322c53.333 1.33301 110.833 2.5 172.5 3.5l125.5 2c22 0.333008 68.667 0.5 140 0.5c46 0 76 -11.167 90 -33.5s21 -49.833 21 -82.5v-54zM910.001 1595
c0 -14 -11.833 -28.4971 -35.5 -43.4971s-64.5 -22.5 -122.5 -22.5c-18.667 0 -33.834 1.83301 -45.501 5.5s-22.5 10 -32.5 19s-20.167 21.167 -30.5 36.5l-28.5 42l-20.5 29.5c-5.66699 8.33301 -14.5 20.166 -26.5 35.499l-68 -95.5
c-24.667 -34.333 -44.334 -54.833 -59.001 -61.5c-8.66699 -7.33301 -28.334 -11 -59.001 -11c-56.667 0 -96.834 7.5 -120.501 22.5s-35.5 29.5 -35.5 43.5c0 14.667 6.83301 33.167 20.5 55.5s28.834 44.166 45.501 65.499l36 47c64 87.333 105.667 138.333 125 153
c18 14 56.333 21 115 21c44 0 72.167 -1.33301 84.5 -4s22.5 -8.33398 30.5 -17.001c8.66699 -5.33301 23.334 -20.5 44.001 -45.5s42.834 -53.833 66.501 -86.5l62 -86.5c17.667 -25 29.834 -42.833 36.501 -53.5c12 -16.667 18 -33 18 -49z" />
    <glyph glyph-name="Edieresis" unicode="&#xcb;" horiz-adv-x="1130" 
d="M1018 104c0 -69.333 -36.999 -104.001 -110.999 -104.001h-637c-40 0 -70.5 8.5 -91.5 25.5s-31.5 45.5 -31.5 85.5v1153c0 42.667 11.833 70.667 35.5 84s52.834 20 87.501 20h637c74 0 111 -34.667 111 -104v-54c0 -32 -7 -59.333 -21 -82s-44 -34 -90 -34
c-53.333 0 -96.333 0.333008 -129 1s-70.667 1.33398 -114 2.00098s-81.833 1.33398 -115.5 2.00098s-60.167 1 -79.5 1v-262c48 1.33301 98.167 2.5 150.5 3.5s88.666 1.66699 108.999 2s64.166 0.5 131.499 0.5c75.333 0 113 -39 113 -117v-27
c0 -77.333 -37.667 -116 -113 -116c-56 0 -115.667 0.666992 -179 2s-134 2.66602 -212 3.99902v-322c53.333 1.33301 110.833 2.5 172.5 3.5l125.5 2c22 0.333008 68.667 0.5 140 0.5c46 0 76 -11.167 90 -33.5s21 -49.833 21 -82.5v-54zM931.001 1651
c0 -22.667 -7.66699 -42 -23 -58s-34.333 -24 -57 -24h-133c-21.333 0 -40 8 -56 24s-24 35.333 -24 58v137c0 22.667 8 42 24 58s34.667 24 56 24h133c22.667 0 41.667 -8 57 -24s23 -35.333 23 -58v-137zM503.001 1651c0 -22 -7.5 -41.167 -22.5 -57.5
s-33.5 -24.5 -55.5 -24.5h-133c-21.333 0 -40 8 -56 24s-24 35.333 -24 58v137c0 22.667 8 42 24 58s34.667 24 56 24h133c22 0 40.5 -8.16699 55.5 -24.5s22.5 -35.5 22.5 -57.5v-137z" />
    <glyph glyph-name="Igrave" unicode="&#xcc;" horiz-adv-x="631" 
d="M475 111c0 -74 -36.667 -111.001 -110 -111.001h-89c-40 0 -70.333 8.33301 -91 25s-31 45.334 -31 86.001v1153c0 42.667 11.833 70.667 35.5 84s52.5 20 86.5 20h89c73.333 0 110 -34.667 110 -104v-1153zM542 1577c0 -38 -30.667 -57.001 -92 -57.001h-100
c-27.333 0 -52.833 6.83301 -76.5 20.5s-46.667 32.334 -69 56.001l-61.5 66.5l-44 43.5c-24.667 24.333 -44 45.5 -58 63.5s-21 33 -21 45c0 40.667 50.667 61 152 61h32c56 0 92.333 -5.33301 109 -16c14 -9.33301 40 -35.333 78 -78s72.667 -84.5 104 -125.5
s47 -67.5 47 -79.5z" />
    <glyph glyph-name="Iacute" unicode="&#xcd;" horiz-adv-x="631" 
d="M475 111c0 -74 -36.667 -111.001 -110 -111.001h-89c-40 0 -70.333 8.33301 -91 25s-31 45.334 -31 86.001v1153c0 42.667 11.833 70.667 35.5 84s52.5 20 86.5 20h89c73.333 0 110 -34.667 110 -104v-1153zM624 1813c0 -12 -8.66113 -29.002 -25.9941 -51.002
c-9.33301 -9.33301 -18.833 -19.5 -28.5 -30.5s-22.334 -24.667 -38.001 -41l-38.5 -39.5c-68.667 -71.333 -114.334 -111.666 -137.001 -120.999c-20.667 -8 -41 -12 -61 -12h-76c-34.667 0 -62.834 3.33301 -84.501 10s-32.5 22.334 -32.5 47.001
c0 6 5.33301 17.667 16 35c25.333 39.333 63.333 88 114 146s83.667 92 99 102c17.333 10.667 53.666 16 108.999 16s96.666 -3.16699 123.999 -9.5s44.166 -13.5 50.499 -21.5s9.5 -18 9.5 -30z" />
    <glyph glyph-name="Icircumflex" unicode="&#xce;" horiz-adv-x="631" 
d="M475 111c0 -74 -36.667 -111.001 -110 -111.001h-89c-40 0 -70.333 8.33301 -91 25s-31 45.334 -31 86.001v1153c0 42.667 11.833 70.667 35.5 84s52.5 20 86.5 20h89c73.333 0 110 -34.667 110 -104v-1153zM659 1595c0 -14 -11.833 -28.4971 -35.5 -43.4971
s-64.5 -22.5 -122.5 -22.5c-18.667 0 -33.834 1.83301 -45.501 5.5s-22.5 10 -32.5 19s-20.167 21.167 -30.5 36.5l-28.5 42l-20.5 29.5c-5.66699 8.33301 -14.5 20.166 -26.5 35.499l-68 -95.5c-24.667 -34.333 -44.334 -54.833 -59.001 -61.5
c-8.66699 -7.33301 -28.334 -11 -59.001 -11c-56.667 0 -96.834 7.5 -120.501 22.5s-35.5 29.5 -35.5 43.5c0 14.667 6.83301 33.167 20.5 55.5s28.834 44.166 45.501 65.499l36 47c64 87.333 105.667 138.333 125 153c18 14 56.333 21 115 21c44 0 72.167 -1.33301 84.5 -4
s22.5 -8.33398 30.5 -17.001c8.66699 -5.33301 23.334 -20.5 44.001 -45.5s42.834 -53.833 66.501 -86.5l62 -86.5c17.667 -25 29.834 -42.833 36.501 -53.5c12 -16.667 18 -33 18 -49z" />
    <glyph glyph-name="Idieresis" unicode="&#xcf;" horiz-adv-x="631" 
d="M475 111c0 -74 -36.667 -111.001 -110 -111.001h-89c-40 0 -70.333 8.33301 -91 25s-31 45.334 -31 86.001v1153c0 42.667 11.833 70.667 35.5 84s52.5 20 86.5 20h89c73.333 0 110 -34.667 110 -104v-1153zM672 1651c0 -22.667 -7.66699 -42 -23 -58
s-34.333 -24 -57 -24h-133c-21.333 0 -40 8 -56 24s-24 35.333 -24 58v137c0 22.667 8 42 24 58s34.667 24 56 24h133c22.667 0 41.667 -8 57 -24s23 -35.333 23 -58v-137zM244 1651c0 -22 -7.5 -41.167 -22.5 -57.5s-33.5 -24.5 -55.5 -24.5h-133c-21.333 0 -40 8 -56 24
s-24 35.333 -24 58v137c0 22.667 8 42 24 58s34.667 24 56 24h133c22 0 40.5 -8.16699 55.5 -24.5s22.5 -35.5 22.5 -57.5v-137z" />
    <glyph glyph-name="Eth" unicode="&#xd0;" horiz-adv-x="1399" 
d="M1286 670c0 -108.667 -8.83105 -206.171 -26.498 -292.504s-53.167 -161 -106.5 -224s-131 -105.833 -233 -128.5c-46 -10 -90.833 -16.667 -134.5 -20s-82.834 -5 -117.501 -5h-359c-40.667 0 -71.334 8.33301 -92.001 25s-31 45.334 -31 86.001v479h-18
c-40.667 0 -69.667 8.83301 -87 26.5s-26 44.167 -26 79.5v54c0 35.333 11.833 60.833 35.5 76.5s49.5 23.5 77.5 23.5h18v414c0 42.667 11.833 70.667 35.5 84s52.834 20 87.501 20h359c113.333 0 207.166 -9.16699 281.499 -27.5s136.333 -51.666 186 -99.999
s87.167 -119.166 112.5 -212.499s38 -212.666 38 -357.999zM956.002 730.996c0 62 -2.16602 113.833 -6.49902 155.5s-14.833 78.334 -31.5 110.001s-42 55.167 -76 70.5c-41.333 16.667 -113 25 -215 25c-64.667 0 -104.334 -0.666992 -119.001 -2v-240h156
c77.333 0 116 -33.333 116 -100v-35c0 -43.333 -8 -75 -24 -95s-46.667 -30 -92 -30h-156v-311c14.667 -2 54.334 -3 119.001 -3c98 0 169.667 10 215 30s75.666 56.667 90.999 110s23 136.666 23 249.999v65z" />
    <glyph glyph-name="Eth" unicode="&#x110;" horiz-adv-x="1399" 
d="M1286 670c0 -108.667 -8.83105 -206.171 -26.498 -292.504s-53.167 -161 -106.5 -224s-131 -105.833 -233 -128.5c-46 -10 -90.833 -16.667 -134.5 -20s-82.834 -5 -117.501 -5h-359c-40.667 0 -71.334 8.33301 -92.001 25s-31 45.334 -31 86.001v479h-18
c-40.667 0 -69.667 8.83301 -87 26.5s-26 44.167 -26 79.5v54c0 35.333 11.833 60.833 35.5 76.5s49.5 23.5 77.5 23.5h18v414c0 42.667 11.833 70.667 35.5 84s52.834 20 87.501 20h359c113.333 0 207.166 -9.16699 281.499 -27.5s136.333 -51.666 186 -99.999
s87.167 -119.166 112.5 -212.499s38 -212.666 38 -357.999zM956.002 730.996c0 62 -2.16602 113.833 -6.49902 155.5s-14.833 78.334 -31.5 110.001s-42 55.167 -76 70.5c-41.333 16.667 -113 25 -215 25c-64.667 0 -104.334 -0.666992 -119.001 -2v-240h156
c77.333 0 116 -33.333 116 -100v-35c0 -43.333 -8 -75 -24 -95s-46.667 -30 -92 -30h-156v-311c14.667 -2 54.334 -3 119.001 -3c98 0 169.667 10 215 30s75.666 56.667 90.999 110s23 136.666 23 249.999v65z" />
    <glyph glyph-name="Ntilde" unicode="&#xd1;" horiz-adv-x="1452" 
d="M1305 111c0 -74 -37.0029 -110.999 -111.003 -110.999h-61c-32.667 0 -58.667 3.16699 -78 9.5s-38 20.166 -56 41.499c-128 165.333 -306.667 412.666 -536 741.999v-682c0 -74 -37.667 -111 -113 -111h-80c-40 0 -70.5 8.5 -91.5 25.5s-31.5 45.5 -31.5 85.5v1153
c0 42.667 11.833 70.667 35.5 84s52.834 20 87.501 20h54c20.667 0 37.334 -1 50.001 -3s25 -6.66699 37 -14s23.667 -18.666 35 -33.999c69.333 -90.667 250.333 -340 543 -748v695c0 42.667 11.833 70.667 35.5 84s52.834 20 87.501 20h82c74 0 111 -34.667 111 -104
v-1153zM1071 1797c0 -14 -7.66895 -38.001 -23.002 -72.001c-52 -109.333 -125.667 -164 -221 -164c-26 0 -49.5 2.33301 -70.5 7s-43.5 11.334 -67.5 20.001l-75 28c-20.667 6 -33.667 9 -39 9c-12 0 -25.167 -8.33301 -39.5 -25s-25.5 -28.667 -33.5 -36
s-22.667 -11 -44 -11h-69c-49.333 0 -74 21.667 -74 65c0 19.333 10.333 47.333 31 84c57.333 106.667 129.666 160 216.999 160c28 0 54 -3.5 78 -10.5s56.333 -17.167 97 -30.5s68.334 -20 83.001 -20c7.33301 0 15.333 6.5 24 19.5s17.834 23.5 27.501 31.5
s25.834 12 48.501 12h74c50.667 0 76 -22.333 76 -67z" />
    <glyph glyph-name="Ograve" unicode="&#xd2;" horiz-adv-x="1444" 
d="M1331 682c0 -141.333 -18.666 -265.832 -55.999 -373.499s-101.166 -193.167 -191.499 -256.5s-211.166 -95 -362.499 -95c-114 0 -210.333 18.5 -289 55.5s-141.5 88.5 -188.5 154.5s-80.5 142 -100.5 228s-30 181.667 -30 287c0 107.333 9.83301 203.666 29.5 288.999
s53 161 100 227s109.667 117.333 188 154s175.166 55 290.499 55c151.333 0 272.166 -31.5 362.499 -94.5s154.166 -148.333 191.499 -256s56 -232.5 56 -374.5zM999.001 682.001c0 70 -2.99902 134.999 -8.99902 194.999s-17.333 106.333 -34 139
c-34.667 74.667 -113 112 -235 112c-120.667 0 -198.667 -37.333 -234 -112c-28.667 -62 -43 -173.333 -43 -334c0 -159.333 14.333 -270 43 -332c36 -76 114 -114 234 -114c121.333 0 199.666 38 234.999 114c28.667 60.667 43 171.334 43 332.001zM940.002 1577
c0 -38 -30.667 -57.001 -92 -57.001h-100c-27.333 0 -52.833 6.83301 -76.5 20.5s-46.667 32.334 -69 56.001l-61.5 66.5l-44 43.5c-24.667 24.333 -44 45.5 -58 63.5s-21 33 -21 45c0 40.667 50.667 61 152 61h32c56 0 92.333 -5.33301 109 -16
c14 -9.33301 40 -35.333 78 -78s72.667 -84.5 104 -125.5s47 -67.5 47 -79.5z" />
    <glyph glyph-name="Oacute" unicode="&#xd3;" horiz-adv-x="1444" 
d="M1331 682c0 -141.333 -18.666 -265.832 -55.999 -373.499s-101.166 -193.167 -191.499 -256.5s-211.166 -95 -362.499 -95c-114 0 -210.333 18.5 -289 55.5s-141.5 88.5 -188.5 154.5s-80.5 142 -100.5 228s-30 181.667 -30 287c0 107.333 9.83301 203.666 29.5 288.999
s53 161 100 227s109.667 117.333 188 154s175.166 55 290.499 55c151.333 0 272.166 -31.5 362.499 -94.5s154.166 -148.333 191.499 -256s56 -232.5 56 -374.5zM999.001 682.001c0 70 -2.99902 134.999 -8.99902 194.999s-17.333 106.333 -34 139
c-34.667 74.667 -113 112 -235 112c-120.667 0 -198.667 -37.333 -234 -112c-28.667 -62 -43 -173.333 -43 -334c0 -159.333 14.333 -270 43 -332c36 -76 114 -114 234 -114c121.333 0 199.666 38 234.999 114c28.667 60.667 43 171.334 43 332.001zM1046 1813
c0 -12 -8.66113 -29.002 -25.9941 -51.002c-9.33301 -9.33301 -18.833 -19.5 -28.5 -30.5s-22.334 -24.667 -38.001 -41l-38.5 -39.5c-68.667 -71.333 -114.334 -111.666 -137.001 -120.999c-20.667 -8 -41 -12 -61 -12h-76c-34.667 0 -62.834 3.33301 -84.501 10
s-32.5 22.334 -32.5 47.001c0 6 5.33301 17.667 16 35c25.333 39.333 63.333 88 114 146s83.667 92 99 102c17.333 10.667 53.666 16 108.999 16s96.666 -3.16699 123.999 -9.5s44.166 -13.5 50.499 -21.5s9.5 -18 9.5 -30z" />
    <glyph glyph-name="Ocircumflex" unicode="&#xd4;" horiz-adv-x="1444" 
d="M1331 682c0 -141.333 -18.666 -265.832 -55.999 -373.499s-101.166 -193.167 -191.499 -256.5s-211.166 -95 -362.499 -95c-114 0 -210.333 18.5 -289 55.5s-141.5 88.5 -188.5 154.5s-80.5 142 -100.5 228s-30 181.667 -30 287c0 107.333 9.83301 203.666 29.5 288.999
s53 161 100 227s109.667 117.333 188 154s175.166 55 290.499 55c151.333 0 272.166 -31.5 362.499 -94.5s154.166 -148.333 191.499 -256s56 -232.5 56 -374.5zM999.001 682.001c0 70 -2.99902 134.999 -8.99902 194.999s-17.333 106.333 -34 139
c-34.667 74.667 -113 112 -235 112c-120.667 0 -198.667 -37.333 -234 -112c-28.667 -62 -43 -173.333 -43 -334c0 -159.333 14.333 -270 43 -332c36 -76 114 -114 234 -114c121.333 0 199.666 38 234.999 114c28.667 60.667 43 171.334 43 332.001zM1073 1595
c0 -14 -11.833 -28.4971 -35.5 -43.4971s-64.5 -22.5 -122.5 -22.5c-18.667 0 -33.834 1.83301 -45.501 5.5s-22.5 10 -32.5 19s-20.167 21.167 -30.5 36.5l-28.5 42l-20.5 29.5c-5.66699 8.33301 -14.5 20.166 -26.5 35.499l-68 -95.5
c-24.667 -34.333 -44.334 -54.833 -59.001 -61.5c-8.66699 -7.33301 -28.334 -11 -59.001 -11c-56.667 0 -96.834 7.5 -120.501 22.5s-35.5 29.5 -35.5 43.5c0 14.667 6.83301 33.167 20.5 55.5s28.834 44.166 45.501 65.499l36 47c64 87.333 105.667 138.333 125 153
c18 14 56.333 21 115 21c44 0 72.167 -1.33301 84.5 -4s22.5 -8.33398 30.5 -17.001c8.66699 -5.33301 23.334 -20.5 44.001 -45.5s42.834 -53.833 66.501 -86.5l62 -86.5c17.667 -25 29.834 -42.833 36.501 -53.5c12 -16.667 18 -33 18 -49z" />
    <glyph glyph-name="Otilde" unicode="&#xd5;" horiz-adv-x="1444" 
d="M1331 682c0 -141.333 -18.666 -265.832 -55.999 -373.499s-101.166 -193.167 -191.499 -256.5s-211.166 -95 -362.499 -95c-114 0 -210.333 18.5 -289 55.5s-141.5 88.5 -188.5 154.5s-80.5 142 -100.5 228s-30 181.667 -30 287c0 107.333 9.83301 203.666 29.5 288.999
s53 161 100 227s109.667 117.333 188 154s175.166 55 290.499 55c151.333 0 272.166 -31.5 362.499 -94.5s154.166 -148.333 191.499 -256s56 -232.5 56 -374.5zM999.001 682.001c0 70 -2.99902 134.999 -8.99902 194.999s-17.333 106.333 -34 139
c-34.667 74.667 -113 112 -235 112c-120.667 0 -198.667 -37.333 -234 -112c-28.667 -62 -43 -173.333 -43 -334c0 -159.333 14.333 -270 43 -332c36 -76 114 -114 234 -114c121.333 0 199.666 38 234.999 114c28.667 60.667 43 171.334 43 332.001zM1133 1797
c0 -14 -7.66895 -38.001 -23.002 -72.001c-52 -109.333 -125.667 -164 -221 -164c-26 0 -49.5 2.33301 -70.5 7s-43.5 11.334 -67.5 20.001l-75 28c-20.667 6 -33.667 9 -39 9c-12 0 -25.167 -8.33301 -39.5 -25s-25.5 -28.667 -33.5 -36s-22.667 -11 -44 -11h-69
c-49.333 0 -74 21.667 -74 65c0 19.333 10.333 47.333 31 84c57.333 106.667 129.666 160 216.999 160c28 0 54 -3.5 78 -10.5s56.333 -17.167 97 -30.5s68.334 -20 83.001 -20c7.33301 0 15.333 6.5 24 19.5s17.834 23.5 27.501 31.5s25.834 12 48.501 12h74
c50.667 0 76 -22.333 76 -67z" />
    <glyph glyph-name="Odieresis" unicode="&#xd6;" horiz-adv-x="1444" 
d="M1331 682c0 -141.333 -18.666 -265.832 -55.999 -373.499s-101.166 -193.167 -191.499 -256.5s-211.166 -95 -362.499 -95c-114 0 -210.333 18.5 -289 55.5s-141.5 88.5 -188.5 154.5s-80.5 142 -100.5 228s-30 181.667 -30 287c0 107.333 9.83301 203.666 29.5 288.999
s53 161 100 227s109.667 117.333 188 154s175.166 55 290.499 55c151.333 0 272.166 -31.5 362.499 -94.5s154.166 -148.333 191.499 -256s56 -232.5 56 -374.5zM999.001 682.001c0 70 -2.99902 134.999 -8.99902 194.999s-17.333 106.333 -34 139
c-34.667 74.667 -113 112 -235 112c-120.667 0 -198.667 -37.333 -234 -112c-28.667 -62 -43 -173.333 -43 -334c0 -159.333 14.333 -270 43 -332c36 -76 114 -114 234 -114c121.333 0 199.666 38 234.999 114c28.667 60.667 43 171.334 43 332.001zM1088 1651
c0 -22.667 -7.66699 -42 -23 -58s-34.333 -24 -57 -24h-133c-21.333 0 -40 8 -56 24s-24 35.333 -24 58v137c0 22.667 8 42 24 58s34.667 24 56 24h133c22.667 0 41.667 -8 57 -24s23 -35.333 23 -58v-137zM660.002 1651c0 -22 -7.5 -41.167 -22.5 -57.5
s-33.5 -24.5 -55.5 -24.5h-133c-21.333 0 -40 8 -56 24s-24 35.333 -24 58v137c0 22.667 8 42 24 58s34.667 24 56 24h133c22 0 40.5 -8.16699 55.5 -24.5s22.5 -35.5 22.5 -57.5v-137z" />
    <glyph glyph-name="multiply" unicode="&#xd7;" horiz-adv-x="1130" 
d="M1028 215l-178 -176l-283 274l-284 -274l-179 176l283 274l-283 277l179 176l284 -274l283 274l178 -176l-283 -277z" />
    <glyph glyph-name="Oslash" unicode="&#xd8;" horiz-adv-x="1591" 
d="M1499 1348c0 -28.667 -10.332 -54.001 -30.999 -76.001l-129 -148c56 -111.333 84 -258.666 84 -441.999c0 -109.333 -9.83301 -208 -29.5 -296s-58.834 -167.667 -117.501 -239c-56 -68 -122.333 -116.667 -199 -146s-164.667 -44 -264 -44
c-164.667 0 -295.667 40.333 -393 121l-119 -135c-28 -30 -55.333 -45 -82 -45c-25.333 0 -48.333 11.333 -69 34l-25 27c-20.667 23.333 -31 43 -31 59c0 23.333 13.667 50 41 80l144 164c-26 55.333 -44.833 119 -56.5 191s-17.5 148.333 -17.5 229
c0 144 18.333 269.5 55 376.5s100 191.833 190 254.5s211 94 363 94c80 0 151.167 -9 213.5 -27s117.5 -44.667 165.5 -80l111 127c26 30.667 51.667 46 77 46c24.667 0 50.667 -13.667 78 -41l4 -5c24.667 -24 37 -50.333 37 -79zM997.001 1079
c-42 32.667 -103.332 48.999 -183.999 48.999c-120.667 0 -198.334 -37.333 -233.001 -112c-17.333 -35.333 -28.833 -82.333 -34.5 -141s-8.5 -123 -8.5 -193v-59c0 -27.333 0.666992 -48.666 2 -63.999zM1092 681.998c0 52 -2.33301 104 -7 156l-471 -539
c42 -42 108.333 -63 199 -63c121.333 0 200 38 236 114c28.667 62 43 172.667 43 332z" />
    <glyph glyph-name="Ugrave" unicode="&#xd9;" horiz-adv-x="1427" 
d="M1294 844c0 -136.667 -1.49707 -237.5 -4.49707 -302.5s-9.5 -126.833 -19.5 -185.5c-18.667 -100 -51.667 -178.167 -99 -234.5s-108.333 -95.833 -183 -118.5s-166.334 -34 -275.001 -34s-200.834 11.333 -276.501 34s-137.167 62.334 -184.5 119.001
s-80 134.667 -98 234c-7.33301 42 -12.666 83.333 -15.999 124s-5.33301 84.5 -6 131.5s-1 124.5 -1 232.5v420c0 42.667 12 70.667 36 84s53 20 87 20h86c40 0 68.833 -9.5 86.5 -28.5s26.5 -44.167 26.5 -75.5v-584c0 -76 1.33301 -134.833 4 -176.5
s7.16699 -75.667 13.5 -102s14.166 -49.5 23.499 -69.5c14 -30 36.667 -51.5 68 -64.5s81.666 -19.5 150.999 -19.5c70.667 0 121.667 6.66699 153 20s53.333 34.666 66 63.999c16 32.667 26.833 71 32.5 115s8.5 121.667 8.5 233v584c0 42.667 12.333 70.667 37 84
s54 20 88 20h88c72 0 108 -34.667 108 -104v-420zM910.003 1577c0 -38 -30.667 -57.001 -92 -57.001h-100c-27.333 0 -52.833 6.83301 -76.5 20.5s-46.667 32.334 -69 56.001l-61.5 66.5l-44 43.5c-24.667 24.333 -44 45.5 -58 63.5s-21 33 -21 45
c0 40.667 50.667 61 152 61h32c56 0 92.333 -5.33301 109 -16c14 -9.33301 40 -35.333 78 -78s72.667 -84.5 104 -125.5s47 -67.5 47 -79.5z" />
    <glyph glyph-name="Uacute" unicode="&#xda;" horiz-adv-x="1427" 
d="M1294 844c0 -136.667 -1.49707 -237.5 -4.49707 -302.5s-9.5 -126.833 -19.5 -185.5c-18.667 -100 -51.667 -178.167 -99 -234.5s-108.333 -95.833 -183 -118.5s-166.334 -34 -275.001 -34s-200.834 11.333 -276.501 34s-137.167 62.334 -184.5 119.001
s-80 134.667 -98 234c-7.33301 42 -12.666 83.333 -15.999 124s-5.33301 84.5 -6 131.5s-1 124.5 -1 232.5v420c0 42.667 12 70.667 36 84s53 20 87 20h86c40 0 68.833 -9.5 86.5 -28.5s26.5 -44.167 26.5 -75.5v-584c0 -76 1.33301 -134.833 4 -176.5
s7.16699 -75.667 13.5 -102s14.166 -49.5 23.499 -69.5c14 -30 36.667 -51.5 68 -64.5s81.666 -19.5 150.999 -19.5c70.667 0 121.667 6.66699 153 20s53.333 34.666 66 63.999c16 32.667 26.833 71 32.5 115s8.5 121.667 8.5 233v584c0 42.667 12.333 70.667 37 84
s54 20 88 20h88c72 0 108 -34.667 108 -104v-420zM1086 1813c0 -12 -8.66113 -29.002 -25.9941 -51.002c-9.33301 -9.33301 -18.833 -19.5 -28.5 -30.5s-22.334 -24.667 -38.001 -41l-38.5 -39.5c-68.667 -71.333 -114.334 -111.666 -137.001 -120.999
c-20.667 -8 -41 -12 -61 -12h-76c-34.667 0 -62.834 3.33301 -84.501 10s-32.5 22.334 -32.5 47.001c0 6 5.33301 17.667 16 35c25.333 39.333 63.333 88 114 146s83.667 92 99 102c17.333 10.667 53.666 16 108.999 16s96.666 -3.16699 123.999 -9.5
s44.166 -13.5 50.499 -21.5s9.5 -18 9.5 -30z" />
    <glyph glyph-name="Ucircumflex" unicode="&#xdb;" horiz-adv-x="1427" 
d="M1294 844c0 -136.667 -1.49707 -237.5 -4.49707 -302.5s-9.5 -126.833 -19.5 -185.5c-18.667 -100 -51.667 -178.167 -99 -234.5s-108.333 -95.833 -183 -118.5s-166.334 -34 -275.001 -34s-200.834 11.333 -276.501 34s-137.167 62.334 -184.5 119.001
s-80 134.667 -98 234c-7.33301 42 -12.666 83.333 -15.999 124s-5.33301 84.5 -6 131.5s-1 124.5 -1 232.5v420c0 42.667 12 70.667 36 84s53 20 87 20h86c40 0 68.833 -9.5 86.5 -28.5s26.5 -44.167 26.5 -75.5v-584c0 -76 1.33301 -134.833 4 -176.5
s7.16699 -75.667 13.5 -102s14.166 -49.5 23.499 -69.5c14 -30 36.667 -51.5 68 -64.5s81.666 -19.5 150.999 -19.5c70.667 0 121.667 6.66699 153 20s53.333 34.666 66 63.999c16 32.667 26.833 71 32.5 115s8.5 121.667 8.5 233v584c0 42.667 12.333 70.667 37 84
s54 20 88 20h88c72 0 108 -34.667 108 -104v-420zM1070 1595c0 -14 -11.833 -28.4971 -35.5 -43.4971s-64.5 -22.5 -122.5 -22.5c-18.667 0 -33.834 1.83301 -45.501 5.5s-22.5 10 -32.5 19s-20.167 21.167 -30.5 36.5l-28.5 42l-20.5 29.5
c-5.66699 8.33301 -14.5 20.166 -26.5 35.499l-68 -95.5c-24.667 -34.333 -44.334 -54.833 -59.001 -61.5c-8.66699 -7.33301 -28.334 -11 -59.001 -11c-56.667 0 -96.834 7.5 -120.501 22.5s-35.5 29.5 -35.5 43.5c0 14.667 6.83301 33.167 20.5 55.5
s28.834 44.166 45.501 65.499l36 47c64 87.333 105.667 138.333 125 153c18 14 56.333 21 115 21c44 0 72.167 -1.33301 84.5 -4s22.5 -8.33398 30.5 -17.001c8.66699 -5.33301 23.334 -20.5 44.001 -45.5s42.834 -53.833 66.501 -86.5l62 -86.5
c17.667 -25 29.834 -42.833 36.501 -53.5c12 -16.667 18 -33 18 -49z" />
    <glyph glyph-name="Udieresis" unicode="&#xdc;" horiz-adv-x="1427" 
d="M1294 844c0 -136.667 -1.49707 -237.5 -4.49707 -302.5s-9.5 -126.833 -19.5 -185.5c-18.667 -100 -51.667 -178.167 -99 -234.5s-108.333 -95.833 -183 -118.5s-166.334 -34 -275.001 -34s-200.834 11.333 -276.501 34s-137.167 62.334 -184.5 119.001
s-80 134.667 -98 234c-7.33301 42 -12.666 83.333 -15.999 124s-5.33301 84.5 -6 131.5s-1 124.5 -1 232.5v420c0 42.667 12 70.667 36 84s53 20 87 20h86c40 0 68.833 -9.5 86.5 -28.5s26.5 -44.167 26.5 -75.5v-584c0 -76 1.33301 -134.833 4 -176.5
s7.16699 -75.667 13.5 -102s14.166 -49.5 23.499 -69.5c14 -30 36.667 -51.5 68 -64.5s81.666 -19.5 150.999 -19.5c70.667 0 121.667 6.66699 153 20s53.333 34.666 66 63.999c16 32.667 26.833 71 32.5 115s8.5 121.667 8.5 233v584c0 42.667 12.333 70.667 37 84
s54 20 88 20h88c72 0 108 -34.667 108 -104v-420zM1091 1651c0 -22.667 -7.66699 -42 -23 -58s-34.333 -24 -57 -24h-133c-21.333 0 -40 8 -56 24s-24 35.333 -24 58v137c0 22.667 8 42 24 58s34.667 24 56 24h133c22.667 0 41.667 -8 57 -24s23 -35.333 23 -58v-137z
M663.003 1651c0 -22 -7.5 -41.167 -22.5 -57.5s-33.5 -24.5 -55.5 -24.5h-133c-21.333 0 -40 8 -56 24s-24 35.333 -24 58v137c0 22.667 8 42 24 58s34.667 24 56 24h133c22 0 40.5 -8.16699 55.5 -24.5s22.5 -35.5 22.5 -57.5v-137z" />
    <glyph glyph-name="Yacute" unicode="&#xdd;" horiz-adv-x="1305" 
d="M1239 1282c0 -24.667 -6.66699 -48.001 -20 -70.001l-402 -682v-419c0 -74 -36.667 -111 -110 -111h-89c-40 0 -70.333 8.33301 -91 25s-31 45.334 -31 86.001v403l-408 698c-14.667 28 -22 51.333 -22 70c0 31.333 10.833 53.5 32.5 66.5s44.834 19.5 69.501 19.5h111
c32.667 0 58 -5.83301 76 -17.5s33.333 -29.167 46 -52.5l258 -448l265 450c13.333 23.333 28.833 40.5 46.5 51.5s43.167 16.5 76.5 16.5h90c33.333 0 58.666 -8.16699 75.999 -24.5s26 -36.833 26 -61.5zM1011 1813c0 -12 -8.66113 -29.002 -25.9941 -51.002
c-9.33301 -9.33301 -18.833 -19.5 -28.5 -30.5s-22.334 -24.667 -38.001 -41l-38.5 -39.5c-68.667 -71.333 -114.334 -111.666 -137.001 -120.999c-20.667 -8 -41 -12 -61 -12h-76c-34.667 0 -62.834 3.33301 -84.501 10s-32.5 22.334 -32.5 47.001
c0 6 5.33301 17.667 16 35c25.333 39.333 63.333 88 114 146s83.667 92 99 102c17.333 10.667 53.666 16 108.999 16s96.666 -3.16699 123.999 -9.5s44.166 -13.5 50.499 -21.5s9.5 -18 9.5 -30z" />
    <glyph glyph-name="Thorn" unicode="&#xde;" horiz-adv-x="1122" 
d="M1094 692c0 -106 -14.832 -192.831 -44.499 -260.498s-78.5 -117.167 -146.5 -148.5c-41.333 -18.667 -82.333 -30.834 -123 -36.501s-100.667 -8.5 -180 -8.5h-170v-127c0 -74 -37 -111 -111 -111h-88c-40 0 -70.333 8.33301 -91 25s-31 45.334 -31 86.001v1153
c0 42.667 11.833 70.667 35.5 84s52.5 20 86.5 20h88c74 0 111 -37 111 -111v-79h182c110 0 188.167 -6.16699 234.5 -18.5s91.166 -39.833 134.499 -82.5c39.333 -38.667 68 -90.334 86 -155.001s27 -141.334 27 -230.001zM774.001 707.002
c0 66 -4.16602 111.999 -12.499 137.999s-18.5 42 -30.5 48c-18.667 9.33301 -69 14 -151 14c-24 0 -53.333 -0.666992 -88 -2s-55.334 -2 -62.001 -2v-393h209c64 0 102.333 9 115 27c6.66699 9.33301 11.667 25.333 15 48s5 63.334 5 122.001z" />
    <glyph glyph-name="germandbls" unicode="&#xdf;" horiz-adv-x="1300" 
d="M1178 506c0 -71.333 -7.16211 -138.001 -21.4951 -200.001s-38.833 -117.833 -73.5 -167.5s-82 -89 -142 -118s-132 -43.5 -216 -43.5c-120.667 0 -183.334 26.667 -188.001 80c-1.33301 10.667 -2.33301 19.334 -3 26.001s-1.33398 15.167 -2.00098 25.5l-2 30.5
c0 72.667 30.333 109 91 109c10.667 0 29.667 -1.33301 57 -4s49 -4 65 -4c27.333 0 49.5 5.5 66.5 16.5s30.667 36.333 41 76s15.5 101.5 15.5 185.5c0 54 -7.16699 93 -21.5 117s-35.5 38.833 -63.5 44.5s-73.333 8.5 -136 8.5h-2h-10
c-41.333 0 -68.833 11.167 -82.5 33.5s-20.5 52.166 -20.5 89.499c0 42.667 8.5 73.834 25.5 93.501s48.167 29.5 93.5 29.5c41.333 0 74.666 1.83301 99.999 5.5s45 12.5 59 26.5s21 35.333 21 64c0 41.333 -12.5 69.166 -37.5 83.499s-69.167 21.5 -132.5 21.5
c-87.333 0 -143.833 -9.16699 -169.5 -27.5s-38.5 -46.833 -38.5 -85.5v-911c0 -74 -35.667 -111 -107 -111h-74c-45.333 0 -78.5 7.33301 -99.5 22s-31.5 44.334 -31.5 89.001v856c0 108 20.667 192.5 62 253.5s99.333 103.167 174 126.5s168.667 35 282 35
c111.333 0 200.666 -7.33301 267.999 -22s119.166 -45.667 155.499 -93s54.5 -117.333 54.5 -210c0 -105.333 -22 -179 -66 -221c72.667 -55.333 109 -165.333 109 -330z" />
    <glyph glyph-name="agrave" unicode="&#xe0;" 
d="M985 109c0 -72.667 -34.667 -109.002 -104 -109.002h-64c-32.667 0 -58.667 3.5 -78 10.5s-33.666 20.5 -42.999 40.5c-96 -52 -194.333 -78 -295 -78c-105.333 0 -184.5 27.333 -237.5 82s-79.5 132.667 -79.5 234c0 134 40.667 224.167 122 270.5
s191.666 69.5 330.999 69.5c51.333 0 100.333 -2 147 -6c0 62 -5 104.667 -15 128s-33 35 -69 35c-40 0 -89 -4 -147 -12s-110 -17.667 -156 -29c-16 -2.66699 -29 -4 -39 -4c-28.667 0 -50.167 8.33301 -64.5 25s-21.5 36.334 -21.5 59.001v43c0 61.333 26 97 78 107
c50 9.33301 108.667 17.833 176 25.5s122 11.5 164 11.5c150 0 254.333 -33 313 -99c33.333 -35.333 55.333 -75.166 66 -119.499s16 -114.833 16 -211.5v-473zM686 271.998l-0.00390625 150c-8 0 -20.667 0.666992 -38 2s-30.666 2 -39.999 2
c-55.333 0 -100.666 -3.33301 -135.999 -10s-60.666 -18.167 -75.999 -34.5s-23 -40.5 -23 -72.5s4.83301 -59.833 14.5 -83.5s23.834 -35.5 42.501 -35.5c50 0 91.667 5.5 125 16.5s77 32.833 131 65.5zM793.996 1241c0 -38 -30.667 -57.001 -92 -57.001h-100
c-27.333 0 -52.833 6.83301 -76.5 20.5s-46.667 32.334 -69 56.001l-61.5 66.5l-44 43.5c-24.667 24.333 -44 45.5 -58 63.5s-21 33 -21 45c0 40.667 50.667 61 152 61h32c56 0 92.333 -5.33301 109 -16c14 -9.33301 40 -35.333 78 -78s72.667 -84.5 104 -125.5
s47 -67.5 47 -79.5z" />
    <glyph glyph-name="aacute" unicode="&#xe1;" 
d="M985 109c0 -72.667 -34.667 -109.002 -104 -109.002h-64c-32.667 0 -58.667 3.5 -78 10.5s-33.666 20.5 -42.999 40.5c-96 -52 -194.333 -78 -295 -78c-105.333 0 -184.5 27.333 -237.5 82s-79.5 132.667 -79.5 234c0 134 40.667 224.167 122 270.5
s191.666 69.5 330.999 69.5c51.333 0 100.333 -2 147 -6c0 62 -5 104.667 -15 128s-33 35 -69 35c-40 0 -89 -4 -147 -12s-110 -17.667 -156 -29c-16 -2.66699 -29 -4 -39 -4c-28.667 0 -50.167 8.33301 -64.5 25s-21.5 36.334 -21.5 59.001v43c0 61.333 26 97 78 107
c50 9.33301 108.667 17.833 176 25.5s122 11.5 164 11.5c150 0 254.333 -33 313 -99c33.333 -35.333 55.333 -75.166 66 -119.499s16 -114.833 16 -211.5v-473zM686 271.998l-0.00390625 150c-8 0 -20.667 0.666992 -38 2s-30.666 2 -39.999 2
c-55.333 0 -100.666 -3.33301 -135.999 -10s-60.666 -18.167 -75.999 -34.5s-23 -40.5 -23 -72.5s4.83301 -59.833 14.5 -83.5s23.834 -35.5 42.501 -35.5c50 0 91.667 5.5 125 16.5s77 32.833 131 65.5zM916.996 1477c0 -12 -8.66113 -29.002 -25.9941 -51.002
c-9.33301 -9.33301 -18.833 -19.5 -28.5 -30.5s-22.334 -24.667 -38.001 -41l-38.5 -39.5c-68.667 -71.333 -114.334 -111.666 -137.001 -120.999c-20.667 -8 -41 -12 -61 -12h-76c-34.667 0 -62.834 3.33301 -84.501 10s-32.5 22.334 -32.5 47.001
c0 6 5.33301 17.667 16 35c25.333 39.333 63.333 88 114 146s83.667 92 99 102c17.333 10.667 53.666 16 108.999 16s96.666 -3.16699 123.999 -9.5s44.166 -13.5 50.499 -21.5s9.5 -18 9.5 -30z" />
    <glyph glyph-name="acircumflex" unicode="&#xe2;" 
d="M985 109c0 -72.667 -34.667 -109.002 -104 -109.002h-64c-32.667 0 -58.667 3.5 -78 10.5s-33.666 20.5 -42.999 40.5c-96 -52 -194.333 -78 -295 -78c-105.333 0 -184.5 27.333 -237.5 82s-79.5 132.667 -79.5 234c0 134 40.667 224.167 122 270.5
s191.666 69.5 330.999 69.5c51.333 0 100.333 -2 147 -6c0 62 -5 104.667 -15 128s-33 35 -69 35c-40 0 -89 -4 -147 -12s-110 -17.667 -156 -29c-16 -2.66699 -29 -4 -39 -4c-28.667 0 -50.167 8.33301 -64.5 25s-21.5 36.334 -21.5 59.001v43c0 61.333 26 97 78 107
c50 9.33301 108.667 17.833 176 25.5s122 11.5 164 11.5c150 0 254.333 -33 313 -99c33.333 -35.333 55.333 -75.166 66 -119.499s16 -114.833 16 -211.5v-473zM686 271.998l-0.00390625 150c-8 0 -20.667 0.666992 -38 2s-30.666 2 -39.999 2
c-55.333 0 -100.666 -3.33301 -135.999 -10s-60.666 -18.167 -75.999 -34.5s-23 -40.5 -23 -72.5s4.83301 -59.833 14.5 -83.5s23.834 -35.5 42.501 -35.5c50 0 91.667 5.5 125 16.5s77 32.833 131 65.5zM898.996 1229c0 -14 -11.833 -28.4971 -35.5 -43.4971
s-64.5 -22.5 -122.5 -22.5c-18.667 0 -33.834 1.83301 -45.501 5.5s-22.5 10 -32.5 19s-20.167 21.167 -30.5 36.5l-28.5 42l-20.5 29.5c-5.66699 8.33301 -14.5 20.166 -26.5 35.499l-68 -95.5c-24.667 -34.333 -44.334 -54.833 -59.001 -61.5
c-8.66699 -7.33301 -28.334 -11 -59.001 -11c-56.667 0 -96.834 7.5 -120.501 22.5s-35.5 29.5 -35.5 43.5c0 14.667 6.83301 33.167 20.5 55.5s28.834 44.166 45.501 65.499l36 47c64 87.333 105.667 138.333 125 153c18 14 56.333 21 115 21c44 0 72.167 -1.33301 84.5 -4
s22.5 -8.33398 30.5 -17.001c8.66699 -5.33301 23.334 -20.5 44.001 -45.5s42.834 -53.833 66.501 -86.5l62 -86.5c17.667 -25 29.834 -42.833 36.501 -53.5c12 -16.667 18 -33 18 -49z" />
    <glyph glyph-name="atilde" unicode="&#xe3;" 
d="M985 109c0 -72.667 -34.667 -109.002 -104 -109.002h-64c-32.667 0 -58.667 3.5 -78 10.5s-33.666 20.5 -42.999 40.5c-96 -52 -194.333 -78 -295 -78c-105.333 0 -184.5 27.333 -237.5 82s-79.5 132.667 -79.5 234c0 134 40.667 224.167 122 270.5
s191.666 69.5 330.999 69.5c51.333 0 100.333 -2 147 -6c0 62 -5 104.667 -15 128s-33 35 -69 35c-40 0 -89 -4 -147 -12s-110 -17.667 -156 -29c-16 -2.66699 -29 -4 -39 -4c-28.667 0 -50.167 8.33301 -64.5 25s-21.5 36.334 -21.5 59.001v43c0 61.333 26 97 78 107
c50 9.33301 108.667 17.833 176 25.5s122 11.5 164 11.5c150 0 254.333 -33 313 -99c33.333 -35.333 55.333 -75.166 66 -119.499s16 -114.833 16 -211.5v-473zM686 271.998l-0.00390625 150c-8 0 -20.667 0.666992 -38 2s-30.666 2 -39.999 2
c-55.333 0 -100.666 -3.33301 -135.999 -10s-60.666 -18.167 -75.999 -34.5s-23 -40.5 -23 -72.5s4.83301 -59.833 14.5 -83.5s23.834 -35.5 42.501 -35.5c50 0 91.667 5.5 125 16.5s77 32.833 131 65.5zM939.996 1412c0 -14 -7.66895 -38.001 -23.002 -72.001
c-52 -109.333 -125.667 -164 -221 -164c-26 0 -49.5 2.33301 -70.5 7s-43.5 11.334 -67.5 20.001l-75 28c-20.667 6 -33.667 9 -39 9c-12 0 -25.167 -8.33301 -39.5 -25s-25.5 -28.667 -33.5 -36s-22.667 -11 -44 -11h-69c-49.333 0 -74 21.667 -74 65
c0 19.333 10.333 47.333 31 84c57.333 106.667 129.666 160 216.999 160c28 0 54 -3.5 78 -10.5s56.333 -17.167 97 -30.5s68.334 -20 83.001 -20c7.33301 0 15.333 6.5 24 19.5s17.834 23.5 27.501 31.5s25.834 12 48.501 12h74c50.667 0 76 -22.333 76 -67z" />
    <glyph glyph-name="adieresis" unicode="&#xe4;" 
d="M985 109c0 -72.667 -34.667 -109.002 -104 -109.002h-64c-32.667 0 -58.667 3.5 -78 10.5s-33.666 20.5 -42.999 40.5c-96 -52 -194.333 -78 -295 -78c-105.333 0 -184.5 27.333 -237.5 82s-79.5 132.667 -79.5 234c0 134 40.667 224.167 122 270.5
s191.666 69.5 330.999 69.5c51.333 0 100.333 -2 147 -6c0 62 -5 104.667 -15 128s-33 35 -69 35c-40 0 -89 -4 -147 -12s-110 -17.667 -156 -29c-16 -2.66699 -29 -4 -39 -4c-28.667 0 -50.167 8.33301 -64.5 25s-21.5 36.334 -21.5 59.001v43c0 61.333 26 97 78 107
c50 9.33301 108.667 17.833 176 25.5s122 11.5 164 11.5c150 0 254.333 -33 313 -99c33.333 -35.333 55.333 -75.166 66 -119.499s16 -114.833 16 -211.5v-473zM686 271.998l-0.00390625 150c-8 0 -20.667 0.666992 -38 2s-30.666 2 -39.999 2
c-55.333 0 -100.666 -3.33301 -135.999 -10s-60.666 -18.167 -75.999 -34.5s-23 -40.5 -23 -72.5s4.83301 -59.833 14.5 -83.5s23.834 -35.5 42.501 -35.5c50 0 91.667 5.5 125 16.5s77 32.833 131 65.5zM960.996 1264c0 -22.667 -7.66699 -42 -23 -58s-34.333 -24 -57 -24
h-133c-21.333 0 -40 8 -56 24s-24 35.333 -24 58v137c0 22.667 8 42 24 58s34.667 24 56 24h133c22.667 0 41.667 -8 57 -24s23 -35.333 23 -58v-137zM532.996 1264c0 -22 -7.5 -41.167 -22.5 -57.5s-33.5 -24.5 -55.5 -24.5h-133c-21.333 0 -40 8 -56 24s-24 35.333 -24 58
v137c0 22.667 8 42 24 58s34.667 24 56 24h133c22 0 40.5 -8.16699 55.5 -24.5s22.5 -35.5 22.5 -57.5v-137z" />
    <glyph glyph-name="aring" unicode="&#xe5;" 
d="M985 109c0 -72.667 -34.667 -109.002 -104 -109.002h-64c-32.667 0 -58.667 3.5 -78 10.5s-33.666 20.5 -42.999 40.5c-96 -52 -194.333 -78 -295 -78c-105.333 0 -184.5 27.333 -237.5 82s-79.5 132.667 -79.5 234c0 134 40.667 224.167 122 270.5
s191.666 69.5 330.999 69.5c51.333 0 100.333 -2 147 -6c0 62 -5 104.667 -15 128s-33 35 -69 35c-40 0 -89 -4 -147 -12s-110 -17.667 -156 -29c-16 -2.66699 -29 -4 -39 -4c-28.667 0 -50.167 8.33301 -64.5 25s-21.5 36.334 -21.5 59.001v43c0 61.333 26 97 78 107
c50 9.33301 108.667 17.833 176 25.5s122 11.5 164 11.5c150 0 254.333 -33 313 -99c33.333 -35.333 55.333 -75.166 66 -119.499s16 -114.833 16 -211.5v-473zM686 271.998l-0.00390625 150c-8 0 -20.667 0.666992 -38 2s-30.666 2 -39.999 2
c-55.333 0 -100.666 -3.33301 -135.999 -10s-60.666 -18.167 -75.999 -34.5s-23 -40.5 -23 -72.5s4.83301 -59.833 14.5 -83.5s23.834 -35.5 42.501 -35.5c50 0 91.667 5.5 125 16.5s77 32.833 131 65.5zM742.996 1368c0 -38 -9.16699 -72.998 -27.5 -104.998
s-43 -57.333 -74 -76s-64.833 -28 -101.5 -28c-55.333 0 -103 20.833 -143 62.5s-60 90.5 -60 146.5c0 37.333 9 72 27 104s42.333 57.5 73 76.5s65 28.5 103 28.5c36.667 0 70.5 -9.33301 101.5 -28s55.667 -43.834 74 -75.501s27.5 -66.834 27.5 -105.501zM619.996 1368
c0 22.667 -7.66602 42 -22.999 58s-34.333 24 -57 24c-22 0 -40.5 -8.16699 -55.5 -24.5s-22.5 -35.5 -22.5 -57.5s7.66699 -40.667 23 -56s33.666 -23 54.999 -23s40 8 56 24s24 34.333 24 55z" />
    <glyph glyph-name="ae" unicode="&#xe6;" horiz-adv-x="1692" 
d="M1579 539c0 -44 -3.16602 -75.833 -9.49902 -95.5s-17 -32.334 -32 -38.001s-38.167 -8.5 -69.5 -8.5h-481v-24c0 -60.667 12 -103.834 36 -129.501s69.333 -38.5 136 -38.5c40.667 0 80.834 2.83301 120.501 8.5s88.834 14.5 147.501 26.5c30 6.66699 48 10 54 10
c36 0 59 -12.667 69 -38s15 -59 15 -101c0 -30 -6.66699 -54.667 -20 -74s-38.333 -31.666 -75 -36.999c-114.667 -18 -219 -27 -313 -27c-178 0 -303.667 41.667 -377 125c-65.333 -40.667 -128.833 -71.667 -190.5 -93s-124.5 -32 -188.5 -32
c-105.333 0 -184.5 27.333 -237.5 82s-79.5 132.667 -79.5 234c0 134 40.667 224.167 122 270.5s191.666 69.5 330.999 69.5c51.333 0 100.333 -2 147 -6c0 62 -5 104.667 -15 128s-33 35 -69 35c-40 0 -89 -4 -147 -12s-110 -17.667 -156 -29c-16 -2.66699 -29 -4 -39 -4
c-28.667 0 -50.167 8.33301 -64.5 25s-21.5 36.334 -21.5 59.001v43c0 61.333 26 97 78 107c50 9.33301 108.667 17.833 176 25.5s122 11.5 164 11.5c129.333 0 218.666 -27.333 267.999 -82c32 31.333 71.167 52.833 117.5 64.5s103.5 17.5 171.5 17.5
c92.667 0 167.5 -11.667 224.5 -35s100.167 -55.5 129.5 -96.5s49.666 -89.667 60.999 -146s17 -121.5 17 -195.5zM1286 600l0.000976562 49.001c0 32.667 -3.33301 58.167 -10 76.5s-19.667 32 -39 41s-48.666 13.5 -87.999 13.5c-42.667 0 -75.334 -6.33301 -98.001 -19
s-38.334 -31.334 -47.001 -56.001s-13.667 -59.667 -15 -105h297zM709.002 279.001c-15.333 42.667 -23.0049 90.333 -23.0049 143c-8 0 -20.667 0.666992 -38 2s-30.666 2 -39.999 2c-55.333 0 -100.666 -3.33301 -135.999 -10s-60.666 -18.167 -75.999 -34.5
s-23 -40.5 -23 -72.5s4.83301 -59.833 14.5 -83.5s23.834 -35.5 42.501 -35.5c52.667 0 99.834 7 141.501 21s87.5 36.667 137.5 68z" />
    <glyph glyph-name="ccedilla" unicode="&#xe7;" horiz-adv-x="1018" 
d="M913 918l-0.00195312 -9v-8c0 -49.333 -5.66699 -89.666 -17 -120.999s-38.333 -47 -81 -47c-6.66699 0 -43.834 4.16699 -111.501 12.5s-121.834 12.5 -162.501 12.5c-35.333 0 -60.333 -3.83301 -75 -11.5s-23.167 -17.667 -25.5 -30s-5.83301 -40.166 -10.5 -83.499
c-2.66699 -30 -4 -72.333 -4 -127v-14c0 -55.333 2.66699 -118.333 8 -189c2 -20 5.66699 -35.667 11 -47s15.5 -19 30.5 -23s36.833 -6 65.5 -6c36 0 88 4.16699 156 12.5s107.333 12.5 118 12.5c28 0 50.667 -9.66699 68 -29
c4.66699 -4.66699 9.33398 -14.834 14.001 -30.501s8.5 -33.834 11.5 -54.501s4.5 -41.334 4.5 -62.001c0 -32 -7.16699 -54.333 -21.5 -67s-52.166 -21.667 -113.499 -27c-33.333 -3.33301 -53.666 -5 -60.999 -5c0 -12 -4 -24.667 -12 -38
c-14.667 -25.333 -33.667 -53.166 -57 -83.499l-83 -109.5c-16.667 -22.667 -32.667 -38.5 -48 -47.5s-36.666 -13.5 -63.999 -13.5h-84c-34.667 0 -57.667 5.5 -69 16.5s-17 25.833 -17 44.5v6c0 24 9.33301 46 28 66l4 4l142 158c-67.333 7.33301 -123 21.666 -167 42.999
s-79.167 52.166 -105.5 92.499s-45.166 91 -56.499 152s-17 135.833 -17 224.5c0 101.333 7.83301 185.833 23.5 253.5s41.667 120.667 78 159s85.333 65.833 147 82.5s142.5 25 242.5 25c53.333 0 112 -3.66699 176 -11c61.333 -5.33301 99.166 -13.666 113.499 -24.999
s21.5 -30.666 21.5 -57.999z" />
    <glyph glyph-name="egrave" unicode="&#xe8;" 
d="M1004 539c0 -44 -3.16992 -75.832 -9.50293 -95.499s-17 -32.334 -32 -38.001s-38.167 -8.5 -69.5 -8.5h-481v-32c0 -37.333 4.66699 -67.833 14 -91.5s26.333 -41 51 -52s60.334 -16.5 107.001 -16.5c40.667 0 80.834 2.83301 120.501 8.5s88.834 14.5 147.501 26.5
c28 6.66699 45.667 10 53 10c35.333 0 58.166 -13.167 68.499 -39.5s15.5 -59.5 15.5 -99.5c0 -31.333 -6.5 -56.333 -19.5 -75s-37.833 -30.667 -74.5 -36c-114.667 -18 -219 -27 -313 -27c-125.333 0 -222.166 18.667 -290.499 56s-115.5 92.5 -141.5 165.5
s-39 169.833 -39 290.5c0 119.333 11.5 216.5 34.5 291.5s67.833 133 134.5 174s163.667 61.5 291 61.5c118 0 208.667 -19.667 272 -59s106 -92.833 128 -160.5s33 -152.167 33 -253.5zM710.997 600.001v48.999c0 48.667 -9 82.667 -27 102s-55 29 -111 29
c-42.667 0 -75.334 -6.16699 -98.001 -18.5s-38.167 -31.166 -46.5 -56.499s-13.166 -60.333 -14.499 -105h297zM765.997 1231c0 -38 -30.667 -57.001 -92 -57.001h-100c-27.333 0 -52.833 6.83301 -76.5 20.5s-46.667 32.334 -69 56.001l-61.5 66.5l-44 43.5
c-24.667 24.333 -44 45.5 -58 63.5s-21 33 -21 45c0 40.667 50.667 61 152 61h32c56 0 92.333 -5.33301 109 -16c14 -9.33301 40 -35.333 78 -78s72.667 -84.5 104 -125.5s47 -67.5 47 -79.5z" />
    <glyph glyph-name="eacute" unicode="&#xe9;" 
d="M1004 539c0 -44 -3.16992 -75.832 -9.50293 -95.499s-17 -32.334 -32 -38.001s-38.167 -8.5 -69.5 -8.5h-481v-32c0 -37.333 4.66699 -67.833 14 -91.5s26.333 -41 51 -52s60.334 -16.5 107.001 -16.5c40.667 0 80.834 2.83301 120.501 8.5s88.834 14.5 147.501 26.5
c28 6.66699 45.667 10 53 10c35.333 0 58.166 -13.167 68.499 -39.5s15.5 -59.5 15.5 -99.5c0 -31.333 -6.5 -56.333 -19.5 -75s-37.833 -30.667 -74.5 -36c-114.667 -18 -219 -27 -313 -27c-125.333 0 -222.166 18.667 -290.499 56s-115.5 92.5 -141.5 165.5
s-39 169.833 -39 290.5c0 119.333 11.5 216.5 34.5 291.5s67.833 133 134.5 174s163.667 61.5 291 61.5c118 0 208.667 -19.667 272 -59s106 -92.833 128 -160.5s33 -152.167 33 -253.5zM710.997 600.001v48.999c0 48.667 -9 82.667 -27 102s-55 29 -111 29
c-42.667 0 -75.334 -6.16699 -98.001 -18.5s-38.167 -31.166 -46.5 -56.499s-13.166 -60.333 -14.499 -105h297zM908.997 1475c0 -12 -8.66113 -29.002 -25.9941 -51.002c-9.33301 -9.33301 -18.833 -19.5 -28.5 -30.5s-22.334 -24.667 -38.001 -41l-38.5 -39.5
c-68.667 -71.333 -114.334 -111.666 -137.001 -120.999c-20.667 -8 -41 -12 -61 -12h-76c-34.667 0 -62.834 3.33301 -84.501 10s-32.5 22.334 -32.5 47.001c0 6 5.33301 17.667 16 35c25.333 39.333 63.333 88 114 146s83.667 92 99 102
c17.333 10.667 53.666 16 108.999 16s96.666 -3.16699 123.999 -9.5s44.166 -13.5 50.499 -21.5s9.5 -18 9.5 -30z" />
    <glyph glyph-name="ecircumflex" unicode="&#xea;" 
d="M1004 539c0 -44 -3.16992 -75.832 -9.50293 -95.499s-17 -32.334 -32 -38.001s-38.167 -8.5 -69.5 -8.5h-481v-32c0 -37.333 4.66699 -67.833 14 -91.5s26.333 -41 51 -52s60.334 -16.5 107.001 -16.5c40.667 0 80.834 2.83301 120.501 8.5s88.834 14.5 147.501 26.5
c28 6.66699 45.667 10 53 10c35.333 0 58.166 -13.167 68.499 -39.5s15.5 -59.5 15.5 -99.5c0 -31.333 -6.5 -56.333 -19.5 -75s-37.833 -30.667 -74.5 -36c-114.667 -18 -219 -27 -313 -27c-125.333 0 -222.166 18.667 -290.499 56s-115.5 92.5 -141.5 165.5
s-39 169.833 -39 290.5c0 119.333 11.5 216.5 34.5 291.5s67.833 133 134.5 174s163.667 61.5 291 61.5c118 0 208.667 -19.667 272 -59s106 -92.833 128 -160.5s33 -152.167 33 -253.5zM710.997 600.001v48.999c0 48.667 -9 82.667 -27 102s-55 29 -111 29
c-42.667 0 -75.334 -6.16699 -98.001 -18.5s-38.167 -31.166 -46.5 -56.499s-13.166 -60.333 -14.499 -105h297zM912.997 1229c0 -14 -11.833 -28.4971 -35.5 -43.4971s-64.5 -22.5 -122.5 -22.5c-18.667 0 -33.834 1.83301 -45.501 5.5s-22.5 10 -32.5 19
s-20.167 21.167 -30.5 36.5l-28.5 42l-20.5 29.5c-5.66699 8.33301 -14.5 20.166 -26.5 35.499l-68 -95.5c-24.667 -34.333 -44.334 -54.833 -59.001 -61.5c-8.66699 -7.33301 -28.334 -11 -59.001 -11c-56.667 0 -96.834 7.5 -120.501 22.5s-35.5 29.5 -35.5 43.5
c0 14.667 6.83301 33.167 20.5 55.5s28.834 44.166 45.501 65.499l36 47c64 87.333 105.667 138.333 125 153c18 14 56.333 21 115 21c44 0 72.167 -1.33301 84.5 -4s22.5 -8.33398 30.5 -17.001c8.66699 -5.33301 23.334 -20.5 44.001 -45.5s42.834 -53.833 66.501 -86.5
l62 -86.5c17.667 -25 29.834 -42.833 36.501 -53.5c12 -16.667 18 -33 18 -49z" />
    <glyph glyph-name="edieresis" unicode="&#xeb;" 
d="M1004 539c0 -44 -3.16992 -75.832 -9.50293 -95.499s-17 -32.334 -32 -38.001s-38.167 -8.5 -69.5 -8.5h-481v-32c0 -37.333 4.66699 -67.833 14 -91.5s26.333 -41 51 -52s60.334 -16.5 107.001 -16.5c40.667 0 80.834 2.83301 120.501 8.5s88.834 14.5 147.501 26.5
c28 6.66699 45.667 10 53 10c35.333 0 58.166 -13.167 68.499 -39.5s15.5 -59.5 15.5 -99.5c0 -31.333 -6.5 -56.333 -19.5 -75s-37.833 -30.667 -74.5 -36c-114.667 -18 -219 -27 -313 -27c-125.333 0 -222.166 18.667 -290.499 56s-115.5 92.5 -141.5 165.5
s-39 169.833 -39 290.5c0 119.333 11.5 216.5 34.5 291.5s67.833 133 134.5 174s163.667 61.5 291 61.5c118 0 208.667 -19.667 272 -59s106 -92.833 128 -160.5s33 -152.167 33 -253.5zM710.997 600.001v48.999c0 48.667 -9 82.667 -27 102s-55 29 -111 29
c-42.667 0 -75.334 -6.16699 -98.001 -18.5s-38.167 -31.166 -46.5 -56.499s-13.166 -60.333 -14.499 -105h297zM935.997 1264c0 -22.667 -7.66699 -42 -23 -58s-34.333 -24 -57 -24h-133c-21.333 0 -40 8 -56 24s-24 35.333 -24 58v137c0 22.667 8 42 24 58
s34.667 24 56 24h133c22.667 0 41.667 -8 57 -24s23 -35.333 23 -58v-137zM507.997 1264c0 -22 -7.5 -41.167 -22.5 -57.5s-33.5 -24.5 -55.5 -24.5h-133c-21.333 0 -40 8 -56 24s-24 35.333 -24 58v137c0 22.667 8 42 24 58s34.667 24 56 24h133
c22 0 40.5 -8.16699 55.5 -24.5s22.5 -35.5 22.5 -57.5v-137z" />
    <glyph glyph-name="igrave" unicode="&#xec;" horiz-adv-x="594" 
d="M455 106c0 -70.667 -35.667 -106.001 -107 -106.001h-78c-28.667 0 -52.667 2.83301 -72 8.5s-34 15.834 -44 30.501s-15 37 -15 67v744c0 38 9.5 64.5 28.5 79.5s47.167 22.5 84.5 22.5h96c38 0 65.333 -10.5 82 -31.5s25 -44.5 25 -70.5v-744zM477 1233
c0 -38 -30.667 -57.001 -92 -57.001h-100c-27.333 0 -52.833 6.83301 -76.5 20.5s-46.667 32.334 -69 56.001l-61.5 66.5l-44 43.5c-24.667 24.333 -44 45.5 -58 63.5s-21 33 -21 45c0 40.667 50.667 61 152 61h32c56 0 92.333 -5.33301 109 -16
c14 -9.33301 40 -35.333 78 -78s72.667 -84.5 104 -125.5s47 -67.5 47 -79.5z" />
    <glyph glyph-name="iacute" unicode="&#xed;" horiz-adv-x="594" 
d="M455 106c0 -70.667 -35.667 -106.001 -107 -106.001h-78c-28.667 0 -52.667 2.83301 -72 8.5s-34 15.834 -44 30.501s-15 37 -15 67v744c0 38 9.5 64.5 28.5 79.5s47.167 22.5 84.5 22.5h96c38 0 65.333 -10.5 82 -31.5s25 -44.5 25 -70.5v-744zM620 1464
c0 -12 -8.66113 -29.002 -25.9941 -51.002c-9.33301 -9.33301 -18.833 -19.5 -28.5 -30.5s-22.334 -24.667 -38.001 -41l-38.5 -39.5c-68.667 -71.333 -114.334 -111.666 -137.001 -120.999c-20.667 -8 -41 -12 -61 -12h-76c-34.667 0 -62.834 3.33301 -84.501 10
s-32.5 22.334 -32.5 47.001c0 6 5.33301 17.667 16 35c25.333 39.333 63.333 88 114 146s83.667 92 99 102c17.333 10.667 53.666 16 108.999 16s96.666 -3.16699 123.999 -9.5s44.166 -13.5 50.499 -21.5s9.5 -18 9.5 -30z" />
    <glyph glyph-name="icircumflex" unicode="&#xee;" horiz-adv-x="594" 
d="M455 106c0 -70.667 -35.667 -106.001 -107 -106.001h-78c-28.667 0 -52.667 2.83301 -72 8.5s-34 15.834 -44 30.501s-15 37 -15 67v744c0 38 9.5 64.5 28.5 79.5s47.167 22.5 84.5 22.5h96c38 0 65.333 -10.5 82 -31.5s25 -44.5 25 -70.5v-744zM649 1229
c0 -14 -11.833 -28.4971 -35.5 -43.4971s-64.5 -22.5 -122.5 -22.5c-18.667 0 -33.834 1.83301 -45.501 5.5s-22.5 10 -32.5 19s-20.167 21.167 -30.5 36.5l-28.5 42l-20.5 29.5c-5.66699 8.33301 -14.5 20.166 -26.5 35.499l-68 -95.5
c-24.667 -34.333 -44.334 -54.833 -59.001 -61.5c-8.66699 -7.33301 -28.334 -11 -59.001 -11c-56.667 0 -96.834 7.5 -120.501 22.5s-35.5 29.5 -35.5 43.5c0 14.667 6.83301 33.167 20.5 55.5s28.834 44.166 45.501 65.499l36 47c64 87.333 105.667 138.333 125 153
c18 14 56.333 21 115 21c44 0 72.167 -1.33301 84.5 -4s22.5 -8.33398 30.5 -17.001c8.66699 -5.33301 23.334 -20.5 44.001 -45.5s42.834 -53.833 66.501 -86.5l62 -86.5c17.667 -25 29.834 -42.833 36.501 -53.5c12 -16.667 18 -33 18 -49z" />
    <glyph glyph-name="idieresis" unicode="&#xef;" horiz-adv-x="594" 
d="M455 106c0 -70.667 -35.667 -106.001 -107 -106.001h-78c-28.667 0 -52.667 2.83301 -72 8.5s-34 15.834 -44 30.501s-15 37 -15 67v744c0 38 9.5 64.5 28.5 79.5s47.167 22.5 84.5 22.5h96c38 0 65.333 -10.5 82 -31.5s25 -44.5 25 -70.5v-744zM656 1264
c0 -22.667 -7.66699 -42 -23 -58s-34.333 -24 -57 -24h-133c-21.333 0 -40 8 -56 24s-24 35.333 -24 58v137c0 22.667 8 42 24 58s34.667 24 56 24h133c22.667 0 41.667 -8 57 -24s23 -35.333 23 -58v-137zM228 1264c0 -22 -7.5 -41.167 -22.5 -57.5
s-33.5 -24.5 -55.5 -24.5h-133c-21.333 0 -40 8 -56 24s-24 35.333 -24 58v137c0 22.667 8 42 24 58s34.667 24 56 24h133c22 0 40.5 -8.16699 55.5 -24.5s22.5 -35.5 22.5 -57.5v-137z" />
    <glyph glyph-name="ntilde" unicode="&#xf1;" horiz-adv-x="1174" 
d="M1042 111c0 -74 -34.6699 -111.001 -104.003 -111.001h-74c-45.333 0 -78.5 7.33301 -99.5 22s-31.5 44.334 -31.5 89.001v505c0 53.333 -3.33301 90.666 -10 111.999s-21.667 32 -45 32c-69.333 0 -145.666 -32.667 -228.999 -98v-551c0 -74 -35 -111 -105 -111h-74
c-45.333 0 -78.5 7.33301 -99.5 22s-31.5 44.334 -31.5 89.001v761c0 72.667 37.667 109 113 109h92c38 0 66.667 -15 86 -45c86.667 50.667 177.334 76 272.001 76c84.667 0 152.334 -14.5 203.001 -43.5s86.167 -65.667 106.5 -110s30.5 -91.5 30.5 -141.5v-606z
M960.997 1412c0 -14 -7.66895 -38.001 -23.002 -72.001c-52 -109.333 -125.667 -164 -221 -164c-26 0 -49.5 2.33301 -70.5 7s-43.5 11.334 -67.5 20.001l-75 28c-20.667 6 -33.667 9 -39 9c-12 0 -25.167 -8.33301 -39.5 -25s-25.5 -28.667 -33.5 -36s-22.667 -11 -44 -11
h-69c-49.333 0 -74 21.667 -74 65c0 19.333 10.333 47.333 31 84c57.333 106.667 129.666 160 216.999 160c28 0 54 -3.5 78 -10.5s56.333 -17.167 97 -30.5s68.334 -20 83.001 -20c7.33301 0 15.333 6.5 24 19.5s17.834 23.5 27.501 31.5s25.834 12 48.501 12h74
c50.667 0 76 -22.333 76 -67z" />
    <glyph glyph-name="ograve" unicode="&#xf2;" horiz-adv-x="1212" 
d="M1100 492c0 -108.667 -16.667 -201.667 -50 -279s-86.5 -136.666 -159.5 -177.999s-167.833 -62 -284.5 -62c-115.333 0 -210 20.667 -284 62s-127.667 100.666 -161 177.999s-50 170.333 -50 279s16.667 201.667 50 279s86.833 136.833 160.5 178.5
s168.5 62.5 284.5 62.5c117.333 0 212.333 -20.833 285 -62.5s125.667 -101.167 159 -178.5s50 -170.333 50 -279zM788 492c0 103.333 -11.3359 175 -34.0029 215c-10.667 19.333 -24.667 32.666 -42 39.999s-52.666 11 -105.999 11c-52.667 0 -88 -3.66699 -106 -11
s-32.333 -20.666 -43 -39.999c-23.333 -43.333 -35 -115 -35 -215c0 -106.667 11.667 -178.667 35 -216c10.667 -18 25.167 -30.667 43.5 -38s53.5 -11 105.5 -11c52.667 0 87.834 3.66699 105.501 11s31.834 20 42.501 38c22.667 38 34 110 34 216zM759.997 1235
c0 -38 -30.667 -57.001 -92 -57.001h-100c-27.333 0 -52.833 6.83301 -76.5 20.5s-46.667 32.334 -69 56.001l-61.5 66.5l-44 43.5c-24.667 24.333 -44 45.5 -58 63.5s-21 33 -21 45c0 40.667 50.667 61 152 61h32c56 0 92.333 -5.33301 109 -16
c14 -9.33301 40 -35.333 78 -78s72.667 -84.5 104 -125.5s47 -67.5 47 -79.5z" />
    <glyph glyph-name="oacute" unicode="&#xf3;" horiz-adv-x="1212" 
d="M1100 492c0 -108.667 -16.667 -201.667 -50 -279s-86.5 -136.666 -159.5 -177.999s-167.833 -62 -284.5 -62c-115.333 0 -210 20.667 -284 62s-127.667 100.666 -161 177.999s-50 170.333 -50 279s16.667 201.667 50 279s86.833 136.833 160.5 178.5
s168.5 62.5 284.5 62.5c117.333 0 212.333 -20.833 285 -62.5s125.667 -101.167 159 -178.5s50 -170.333 50 -279zM788 492c0 103.333 -11.3359 175 -34.0029 215c-10.667 19.333 -24.667 32.666 -42 39.999s-52.666 11 -105.999 11c-52.667 0 -88 -3.66699 -106 -11
s-32.333 -20.666 -43 -39.999c-23.333 -43.333 -35 -115 -35 -215c0 -106.667 11.667 -178.667 35 -216c10.667 -18 25.167 -30.667 43.5 -38s53.5 -11 105.5 -11c52.667 0 87.834 3.66699 105.501 11s31.834 20 42.501 38c22.667 38 34 110 34 216zM927.997 1473
c0 -12 -8.66113 -29.002 -25.9941 -51.002c-9.33301 -9.33301 -18.833 -19.5 -28.5 -30.5s-22.334 -24.667 -38.001 -41l-38.5 -39.5c-68.667 -71.333 -114.334 -111.666 -137.001 -120.999c-20.667 -8 -41 -12 -61 -12h-76c-34.667 0 -62.834 3.33301 -84.501 10
s-32.5 22.334 -32.5 47.001c0 6 5.33301 17.667 16 35c25.333 39.333 63.333 88 114 146s83.667 92 99 102c17.333 10.667 53.666 16 108.999 16s96.666 -3.16699 123.999 -9.5s44.166 -13.5 50.499 -21.5s9.5 -18 9.5 -30z" />
    <glyph glyph-name="ocircumflex" unicode="&#xf4;" horiz-adv-x="1212" 
d="M1100 492c0 -108.667 -16.667 -201.667 -50 -279s-86.5 -136.666 -159.5 -177.999s-167.833 -62 -284.5 -62c-115.333 0 -210 20.667 -284 62s-127.667 100.666 -161 177.999s-50 170.333 -50 279s16.667 201.667 50 279s86.833 136.833 160.5 178.5
s168.5 62.5 284.5 62.5c117.333 0 212.333 -20.833 285 -62.5s125.667 -101.167 159 -178.5s50 -170.333 50 -279zM788 492c0 103.333 -11.3359 175 -34.0029 215c-10.667 19.333 -24.667 32.666 -42 39.999s-52.666 11 -105.999 11c-52.667 0 -88 -3.66699 -106 -11
s-32.333 -20.666 -43 -39.999c-23.333 -43.333 -35 -115 -35 -215c0 -106.667 11.667 -178.667 35 -216c10.667 -18 25.167 -30.667 43.5 -38s53.5 -11 105.5 -11c52.667 0 87.834 3.66699 105.501 11s31.834 20 42.501 38c22.667 38 34 110 34 216zM933.997 1229
c0 -14 -11.833 -28.4971 -35.5 -43.4971s-64.5 -22.5 -122.5 -22.5c-18.667 0 -33.834 1.83301 -45.501 5.5s-22.5 10 -32.5 19s-20.167 21.167 -30.5 36.5l-28.5 42l-20.5 29.5c-5.66699 8.33301 -14.5 20.166 -26.5 35.499l-68 -95.5
c-24.667 -34.333 -44.334 -54.833 -59.001 -61.5c-8.66699 -7.33301 -28.334 -11 -59.001 -11c-56.667 0 -96.834 7.5 -120.501 22.5s-35.5 29.5 -35.5 43.5c0 14.667 6.83301 33.167 20.5 55.5s28.834 44.166 45.501 65.499l36 47c64 87.333 105.667 138.333 125 153
c18 14 56.333 21 115 21c44 0 72.167 -1.33301 84.5 -4s22.5 -8.33398 30.5 -17.001c8.66699 -5.33301 23.334 -20.5 44.001 -45.5s42.834 -53.833 66.501 -86.5l62 -86.5c17.667 -25 29.834 -42.833 36.501 -53.5c12 -16.667 18 -33 18 -49z" />
    <glyph glyph-name="otilde" unicode="&#xf5;" horiz-adv-x="1212" 
d="M1100 492c0 -108.667 -16.667 -201.667 -50 -279s-86.5 -136.666 -159.5 -177.999s-167.833 -62 -284.5 -62c-115.333 0 -210 20.667 -284 62s-127.667 100.666 -161 177.999s-50 170.333 -50 279s16.667 201.667 50 279s86.833 136.833 160.5 178.5
s168.5 62.5 284.5 62.5c117.333 0 212.333 -20.833 285 -62.5s125.667 -101.167 159 -178.5s50 -170.333 50 -279zM788 492c0 103.333 -11.3359 175 -34.0029 215c-10.667 19.333 -24.667 32.666 -42 39.999s-52.666 11 -105.999 11c-52.667 0 -88 -3.66699 -106 -11
s-32.333 -20.666 -43 -39.999c-23.333 -43.333 -35 -115 -35 -215c0 -106.667 11.667 -178.667 35 -216c10.667 -18 25.167 -30.667 43.5 -38s53.5 -11 105.5 -11c52.667 0 87.834 3.66699 105.501 11s31.834 20 42.501 38c22.667 38 34 110 34 216zM976.997 1410
c0 -14 -7.66895 -38.001 -23.002 -72.001c-52 -109.333 -125.667 -164 -221 -164c-26 0 -49.5 2.33301 -70.5 7s-43.5 11.334 -67.5 20.001l-75 28c-20.667 6 -33.667 9 -39 9c-12 0 -25.167 -8.33301 -39.5 -25s-25.5 -28.667 -33.5 -36s-22.667 -11 -44 -11h-69
c-49.333 0 -74 21.667 -74 65c0 19.333 10.333 47.333 31 84c57.333 106.667 129.666 160 216.999 160c28 0 54 -3.5 78 -10.5s56.333 -17.167 97 -30.5s68.334 -20 83.001 -20c7.33301 0 15.333 6.5 24 19.5s17.834 23.5 27.501 31.5s25.834 12 48.501 12h74
c50.667 0 76 -22.333 76 -67z" />
    <glyph glyph-name="odieresis" unicode="&#xf6;" horiz-adv-x="1212" 
d="M1100 492c0 -108.667 -16.667 -201.667 -50 -279s-86.5 -136.666 -159.5 -177.999s-167.833 -62 -284.5 -62c-115.333 0 -210 20.667 -284 62s-127.667 100.666 -161 177.999s-50 170.333 -50 279s16.667 201.667 50 279s86.833 136.833 160.5 178.5
s168.5 62.5 284.5 62.5c117.333 0 212.333 -20.833 285 -62.5s125.667 -101.167 159 -178.5s50 -170.333 50 -279zM788 492c0 103.333 -11.3359 175 -34.0029 215c-10.667 19.333 -24.667 32.666 -42 39.999s-52.666 11 -105.999 11c-52.667 0 -88 -3.66699 -106 -11
s-32.333 -20.666 -43 -39.999c-23.333 -43.333 -35 -115 -35 -215c0 -106.667 11.667 -178.667 35 -216c10.667 -18 25.167 -30.667 43.5 -38s53.5 -11 105.5 -11c52.667 0 87.834 3.66699 105.501 11s31.834 20 42.501 38c22.667 38 34 110 34 216zM962.997 1264
c0 -22.667 -7.66699 -42 -23 -58s-34.333 -24 -57 -24h-133c-21.333 0 -40 8 -56 24s-24 35.333 -24 58v137c0 22.667 8 42 24 58s34.667 24 56 24h133c22.667 0 41.667 -8 57 -24s23 -35.333 23 -58v-137zM534.997 1264c0 -22 -7.5 -41.167 -22.5 -57.5
s-33.5 -24.5 -55.5 -24.5h-133c-21.333 0 -40 8 -56 24s-24 35.333 -24 58v137c0 22.667 8 42 24 58s34.667 24 56 24h133c22 0 40.5 -8.16699 55.5 -24.5s22.5 -35.5 22.5 -57.5v-137z" />
    <glyph glyph-name="divide" unicode="&#xf7;" horiz-adv-x="1124" 
d="M694 887c0 -42 -14.834 -78.167 -44.501 -108.5s-64.5 -45.5 -104.5 -45.5c-40.667 0 -75.167 15.167 -103.5 45.5s-42.5 66.5 -42.5 108.5c0 27.333 6.33301 53 19 77s30.334 42.667 53.001 56s47.334 20 74.001 20c25.333 0 49.666 -6.83301 72.999 -20.5
s41.833 -32.5 55.5 -56.5s20.5 -49.333 20.5 -76zM1028 381h-932v219h932v-219zM693.999 94c0 -42 -14.668 -78 -44.001 -108s-64.333 -45 -105 -45c-41.333 0 -76 15 -104 45s-42 66 -42 108c0 27.333 6.33301 53 19 77s30.334 42.833 53.001 56.5s47.334 20.5 74.001 20.5
c25.333 0 49.666 -7 72.999 -21s41.833 -33 55.5 -57s20.5 -49.333 20.5 -76z" />
    <glyph glyph-name="oslash" unicode="&#xf8;" horiz-adv-x="1206" 
d="M1112 492c0 -88.667 -8.83301 -162.666 -26.5 -221.999s-48.5 -113 -92.5 -161c-80.667 -90.667 -205.667 -136 -375 -136c-114 0 -208 20 -282 60l-62 -72c-32 -38 -57.667 -57 -77 -57c-15.333 0 -32 8.66699 -50 26l-18 19c-24.667 24 -37 43.667 -37 59
c0 11.333 9 27.666 27 48.999l86 99c-54.667 85.333 -82 197.333 -82 336c0 346.667 165 520 495 520c108 0 197 -17 267 -51l63 73c24 26 44 39 60 39s35.667 -11.667 59 -35l12 -12c19.333 -18.667 29 -37 29 -55c0 -22 -14.333 -49.333 -43 -82l-41 -49
c58.667 -84.667 88 -200.667 88 -348zM709 752.001c-20.667 4 -50.999 5.99902 -90.999 5.99902c-53.333 0 -88.833 -3.66699 -106.5 -11s-31.834 -20.666 -42.501 -39.999c-22 -37.333 -33 -109 -33 -215v-62zM801.001 492c0 39.333 -0.666992 67 -2 83l-289 -337
c16 -7.33301 52 -11 108 -11c53.333 0 89 3.66699 107 11s32.333 20 43 38c22 35.333 33 107.333 33 216z" />
    <glyph glyph-name="ugrave" unicode="&#xf9;" horiz-adv-x="1174" 
d="M1032 109c0 -72.667 -37.333 -108.999 -112 -108.999h-93c-33.333 0 -62 17 -86 51c-46 -26 -90.333 -45.5 -133 -58.5s-89 -19.5 -139 -19.5c-122 0 -209.167 29.333 -261.5 88s-78.5 128.334 -78.5 209.001v600c0 74 34.667 111 104 111h74
c46 0 79.333 -7.33301 100 -22s31 -44.334 31 -89.001v-499c0 -49.333 3.66699 -85.666 11 -108.999s21.666 -35 42.999 -35c38.667 0 73.834 7.16699 105.501 21.5s73.5 40.166 125.5 77.499v544c0 74 34.667 111 104 111h74c46 0 79.333 -7.33301 100 -22
s31 -44.334 31 -89.001v-761zM801 1233c0 -38 -30.667 -57.001 -92 -57.001h-100c-27.333 0 -52.833 6.83301 -76.5 20.5s-46.667 32.334 -69 56.001l-61.5 66.5l-44 43.5c-24.667 24.333 -44 45.5 -58 63.5s-21 33 -21 45c0 40.667 50.667 61 152 61h32
c56 0 92.333 -5.33301 109 -16c14 -9.33301 40 -35.333 78 -78s72.667 -84.5 104 -125.5s47 -67.5 47 -79.5z" />
    <glyph glyph-name="uacute" unicode="&#xfa;" horiz-adv-x="1174" 
d="M1032 109c0 -72.667 -37.333 -108.999 -112 -108.999h-93c-33.333 0 -62 17 -86 51c-46 -26 -90.333 -45.5 -133 -58.5s-89 -19.5 -139 -19.5c-122 0 -209.167 29.333 -261.5 88s-78.5 128.334 -78.5 209.001v600c0 74 34.667 111 104 111h74
c46 0 79.333 -7.33301 100 -22s31 -44.334 31 -89.001v-499c0 -49.333 3.66699 -85.666 11 -108.999s21.666 -35 42.999 -35c38.667 0 73.834 7.16699 105.501 21.5s73.5 40.166 125.5 77.499v544c0 74 34.667 111 104 111h74c46 0 79.333 -7.33301 100 -22
s31 -44.334 31 -89.001v-761zM936 1477c0 -12 -8.66113 -29.002 -25.9941 -51.002c-9.33301 -9.33301 -18.833 -19.5 -28.5 -30.5s-22.334 -24.667 -38.001 -41l-38.5 -39.5c-68.667 -71.333 -114.334 -111.666 -137.001 -120.999c-20.667 -8 -41 -12 -61 -12h-76
c-34.667 0 -62.834 3.33301 -84.501 10s-32.5 22.334 -32.5 47.001c0 6 5.33301 17.667 16 35c25.333 39.333 63.333 88 114 146s83.667 92 99 102c17.333 10.667 53.666 16 108.999 16s96.666 -3.16699 123.999 -9.5s44.166 -13.5 50.499 -21.5s9.5 -18 9.5 -30z" />
    <glyph glyph-name="ucircumflex" unicode="&#xfb;" horiz-adv-x="1174" 
d="M1032 109c0 -72.667 -37.333 -108.999 -112 -108.999h-93c-33.333 0 -62 17 -86 51c-46 -26 -90.333 -45.5 -133 -58.5s-89 -19.5 -139 -19.5c-122 0 -209.167 29.333 -261.5 88s-78.5 128.334 -78.5 209.001v600c0 74 34.667 111 104 111h74
c46 0 79.333 -7.33301 100 -22s31 -44.334 31 -89.001v-499c0 -49.333 3.66699 -85.666 11 -108.999s21.666 -35 42.999 -35c38.667 0 73.834 7.16699 105.501 21.5s73.5 40.166 125.5 77.499v544c0 74 34.667 111 104 111h74c46 0 79.333 -7.33301 100 -22
s31 -44.334 31 -89.001v-761zM932 1229c0 -14 -11.833 -28.4971 -35.5 -43.4971s-64.5 -22.5 -122.5 -22.5c-18.667 0 -33.834 1.83301 -45.501 5.5s-22.5 10 -32.5 19s-20.167 21.167 -30.5 36.5l-28.5 42l-20.5 29.5c-5.66699 8.33301 -14.5 20.166 -26.5 35.499
l-68 -95.5c-24.667 -34.333 -44.334 -54.833 -59.001 -61.5c-8.66699 -7.33301 -28.334 -11 -59.001 -11c-56.667 0 -96.834 7.5 -120.501 22.5s-35.5 29.5 -35.5 43.5c0 14.667 6.83301 33.167 20.5 55.5s28.834 44.166 45.501 65.499l36 47
c64 87.333 105.667 138.333 125 153c18 14 56.333 21 115 21c44 0 72.167 -1.33301 84.5 -4s22.5 -8.33398 30.5 -17.001c8.66699 -5.33301 23.334 -20.5 44.001 -45.5s42.834 -53.833 66.501 -86.5l62 -86.5c17.667 -25 29.834 -42.833 36.501 -53.5
c12 -16.667 18 -33 18 -49z" />
    <glyph glyph-name="udieresis" unicode="&#xfc;" horiz-adv-x="1174" 
d="M1032 109c0 -72.667 -37.333 -108.999 -112 -108.999h-93c-33.333 0 -62 17 -86 51c-46 -26 -90.333 -45.5 -133 -58.5s-89 -19.5 -139 -19.5c-122 0 -209.167 29.333 -261.5 88s-78.5 128.334 -78.5 209.001v600c0 74 34.667 111 104 111h74
c46 0 79.333 -7.33301 100 -22s31 -44.334 31 -89.001v-499c0 -49.333 3.66699 -85.666 11 -108.999s21.666 -35 42.999 -35c38.667 0 73.834 7.16699 105.501 21.5s73.5 40.166 125.5 77.499v544c0 74 34.667 111 104 111h74c46 0 79.333 -7.33301 100 -22
s31 -44.334 31 -89.001v-761zM961 1264c0 -22.667 -7.66699 -42 -23 -58s-34.333 -24 -57 -24h-133c-21.333 0 -40 8 -56 24s-24 35.333 -24 58v137c0 22.667 8 42 24 58s34.667 24 56 24h133c22.667 0 41.667 -8 57 -24s23 -35.333 23 -58v-137zM533 1264
c0 -22 -7.5 -41.167 -22.5 -57.5s-33.5 -24.5 -55.5 -24.5h-133c-21.333 0 -40 8 -56 24s-24 35.333 -24 58v137c0 22.667 8 42 24 58s34.667 24 56 24h133c22 0 40.5 -8.16699 55.5 -24.5s22.5 -35.5 22.5 -57.5v-137z" />
    <glyph glyph-name="yacute" unicode="&#xfd;" horiz-adv-x="1145" 
d="M1032 899c0 -6.66699 -1.16699 -13.832 -3.5 -21.499s-3.83301 -12.834 -4.5 -15.501l-453 -1208c-10.667 -30 -25.167 -50.167 -43.5 -60.5s-44.5 -15.5 -78.5 -15.5h-103c-62.667 0 -94 25.333 -94 76c0 14 5.33301 33 16 57l152 340l-336 811
c-5.33301 15.333 -8 29 -8 41c0 22.667 10.167 41.334 30.5 56.001s41.5 22 63.5 22h92c48.667 0 81.5 -4.83301 98.5 -14.5s29.833 -28.834 38.5 -57.501l164 -510l152 488c10.667 34.667 26.5 59 47.5 73s50.167 21 87.5 21h90c24 0 45.333 -6.33301 64 -19
s28 -33.667 28 -63zM882 1475c0 -12 -8.66113 -29.002 -25.9941 -51.002c-9.33301 -9.33301 -18.833 -19.5 -28.5 -30.5s-22.334 -24.667 -38.001 -41l-38.5 -39.5c-68.667 -71.333 -114.334 -111.666 -137.001 -120.999c-20.667 -8 -41 -12 -61 -12h-76
c-34.667 0 -62.834 3.33301 -84.501 10s-32.5 22.334 -32.5 47.001c0 6 5.33301 17.667 16 35c25.333 39.333 63.333 88 114 146s83.667 92 99 102c17.333 10.667 53.666 16 108.999 16s96.666 -3.16699 123.999 -9.5s44.166 -13.5 50.499 -21.5s9.5 -18 9.5 -30z" />
    <glyph glyph-name="thorn" unicode="&#xfe;" horiz-adv-x="1198" 
d="M1087 508c0 -86.667 -4.16895 -152.334 -12.502 -197.001s-24.5 -87.667 -48.5 -129c-38 -68.667 -93.333 -120.667 -166 -156s-155.334 -53 -248.001 -53c-56.667 0 -111 5 -163 15v-299c0 -78 -35 -117 -105 -117h-74c-46 0 -79.333 7.5 -100 22.5s-31 46.5 -31 94.5
v1607c0 75.333 37.667 113 113 113h92c36.667 0 63.334 -11.667 80.001 -35s25 -49.333 25 -78v-362c100.667 52 194.667 78 282 78c96.667 0 171.334 -23.167 224.001 -69.5s87.834 -106.166 105.501 -179.499s26.5 -158.333 26.5 -255zM775.998 504
c0 80.667 -6.66699 149.667 -20 207c-6 31.333 -25.333 47 -58 47c-58.667 0 -141.667 -32 -249 -96v-410c65.333 -16.667 121 -25 167 -25c36.667 0 64.667 4.33301 84 13c50.667 20 76 108 76 264z" />
    <glyph glyph-name="ydieresis" unicode="&#xff;" horiz-adv-x="1145" 
d="M1032 899c0 -6.66699 -1.16699 -13.832 -3.5 -21.499s-3.83301 -12.834 -4.5 -15.501l-453 -1208c-10.667 -30 -25.167 -50.167 -43.5 -60.5s-44.5 -15.5 -78.5 -15.5h-103c-62.667 0 -94 25.333 -94 76c0 14 5.33301 33 16 57l152 340l-336 811
c-5.33301 15.333 -8 29 -8 41c0 22.667 10.167 41.334 30.5 56.001s41.5 22 63.5 22h92c48.667 0 81.5 -4.83301 98.5 -14.5s29.833 -28.834 38.5 -57.501l164 -510l152 488c10.667 34.667 26.5 59 47.5 73s50.167 21 87.5 21h90c24 0 45.333 -6.33301 64 -19
s28 -33.667 28 -63zM932 1264c0 -22.667 -7.66699 -42 -23 -58s-34.333 -24 -57 -24h-133c-21.333 0 -40 8 -56 24s-24 35.333 -24 58v137c0 22.667 8 42 24 58s34.667 24 56 24h133c22.667 0 41.667 -8 57 -24s23 -35.333 23 -58v-137zM504 1264
c0 -22 -7.5 -41.167 -22.5 -57.5s-33.5 -24.5 -55.5 -24.5h-133c-21.333 0 -40 8 -56 24s-24 35.333 -24 58v137c0 22.667 8 42 24 58s34.667 24 56 24h133c22 0 40.5 -8.16699 55.5 -24.5s22.5 -35.5 22.5 -57.5v-137z" />
    <glyph glyph-name="Cacute" unicode="&#x106;" horiz-adv-x="1178" 
d="M1094 76c0 -28.667 -9.33301 -50.5 -28 -65.5s-52.334 -23.833 -101.001 -26.5c-92 -7.33301 -170.667 -11 -236 -11c-122 0 -223.333 14.5 -304 43.5s-143.667 72.333 -189 130s-77.166 129.5 -95.499 215.5s-27.5 188 -27.5 306c0 193.333 22 341.666 66 444.999
s109.667 174 197 212s205 57 353 57c59.333 0 138 -3.33301 236 -10c48.667 -2.66699 82.334 -11.5 101.001 -26.5s28 -36.833 28 -65.5v-66c0 -45.333 -7 -76.333 -21 -93s-41.333 -25 -82 -25c-12.667 0 -44.334 1.66699 -95.001 5s-92.667 5 -126 5
c-104 0 -175.667 -8.33301 -215 -25c-35.333 -15.333 -61.166 -40.166 -77.499 -74.499s-26.333 -74.333 -30 -120s-5.5 -111.167 -5.5 -196.5v-24c0 -89.333 3 -159 9 -209s21.667 -93.333 47 -130s64.666 -59.667 117.999 -69c31.333 -5.33301 82.666 -8 153.999 -8
c13.333 0 45.333 1.66699 96 5s92.334 5 125.001 5c40.667 0 68 -8.33301 82 -25s21 -48 21 -94v-65zM1052 1813c0 -12 -8.66113 -29.002 -25.9941 -51.002c-9.33301 -9.33301 -18.833 -19.5 -28.5 -30.5s-22.334 -24.667 -38.001 -41l-38.5 -39.5
c-68.667 -71.333 -114.334 -111.666 -137.001 -120.999c-20.667 -8 -41 -12 -61 -12h-76c-34.667 0 -62.834 3.33301 -84.501 10s-32.5 22.334 -32.5 47.001c0 6 5.33301 17.667 16 35c25.333 39.333 63.333 88 114 146s83.667 92 99 102
c17.333 10.667 53.666 16 108.999 16s96.666 -3.16699 123.999 -9.5s44.166 -13.5 50.499 -21.5s9.5 -18 9.5 -30z" />
    <glyph glyph-name="cacute" unicode="&#x107;" horiz-adv-x="1018" 
d="M913 918v-8.99805v-8c0 -49.333 -5.66699 -89.666 -17 -120.999s-38.333 -47 -81 -47c-8 0 -45.667 4.16699 -113 12.5s-121 12.5 -161 12.5c-35.333 0 -60.5 -3.83301 -75.5 -11.5s-24 -18.834 -27 -33.501s-5.83301 -41.334 -8.5 -80.001c-2.66699 -34 -4 -81 -4 -141
c0 -55.333 2.66699 -118.333 8 -189c2 -20 5.66699 -35.667 11 -47s15.5 -19 30.5 -23s36.833 -6 65.5 -6c36 0 88 4.16699 156 12.5s107.333 12.5 118 12.5c28 0 50.667 -9.66699 68 -29c4.66699 -4.66699 9.33398 -14.834 14.001 -30.501s8.5 -33.834 11.5 -54.501
s4.5 -41.334 4.5 -62.001c0 -32 -7.16699 -54.167 -21.5 -66.5s-52.166 -21.5 -113.499 -27.5c-50.667 -6 -109.334 -9 -176.001 -9c-98.667 0 -179.167 8.16699 -241.5 24.5s-111.833 43.833 -148.5 82.5s-62.667 91.5 -78 158.5s-23 151.5 -23 253.5
c0 101.333 7.83301 185.833 23.5 253.5s41.667 120.667 78 159s85.333 65.833 147 82.5s142.5 25 242.5 25c53.333 0 112 -3.66699 176 -11c61.333 -5.33301 99.166 -13.666 113.499 -24.999s21.5 -30.666 21.5 -57.999zM902 1475c0 -12 -8.66113 -29.002 -25.9941 -51.002
c-9.33301 -9.33301 -18.833 -19.5 -28.5 -30.5s-22.334 -24.667 -38.001 -41l-38.5 -39.5c-68.667 -71.333 -114.334 -111.666 -137.001 -120.999c-20.667 -8 -41 -12 -61 -12h-76c-34.667 0 -62.834 3.33301 -84.501 10s-32.5 22.334 -32.5 47.001
c0 6 5.33301 17.667 16 35c25.333 39.333 63.333 88 114 146s83.667 92 99 102c17.333 10.667 53.666 16 108.999 16s96.666 -3.16699 123.999 -9.5s44.166 -13.5 50.499 -21.5s9.5 -18 9.5 -30z" />
    <glyph glyph-name="Ccaron" unicode="&#x10c;" horiz-adv-x="1178" 
d="M1094 76c0 -28.667 -9.33301 -50.5 -28 -65.5s-52.334 -23.833 -101.001 -26.5c-92 -7.33301 -170.667 -11 -236 -11c-122 0 -223.333 14.5 -304 43.5s-143.667 72.333 -189 130s-77.166 129.5 -95.499 215.5s-27.5 188 -27.5 306c0 193.333 22 341.666 66 444.999
s109.667 174 197 212s205 57 353 57c59.333 0 138 -3.33301 236 -10c48.667 -2.66699 82.334 -11.5 101.001 -26.5s28 -36.833 28 -65.5v-66c0 -45.333 -7 -76.333 -21 -93s-41.333 -25 -82 -25c-12.667 0 -44.334 1.66699 -95.001 5s-92.667 5 -126 5
c-104 0 -175.667 -8.33301 -215 -25c-35.333 -15.333 -61.166 -40.166 -77.499 -74.499s-26.333 -74.333 -30 -120s-5.5 -111.167 -5.5 -196.5v-24c0 -89.333 3 -159 9 -209s21.667 -93.333 47 -130s64.666 -59.667 117.999 -69c31.333 -5.33301 82.666 -8 153.999 -8
c13.333 0 45.333 1.66699 96 5s92.334 5 125.001 5c40.667 0 68 -8.33301 82 -25s21 -48 21 -94v-65zM1034 1903c0 -16 -6.00195 -32.334 -18.002 -49.001l-91 -123c-66.667 -90.667 -106 -140.667 -118 -150c-8.66699 -8 -20 -13.333 -34 -16s-41 -4 -81 -4
s-66.333 1.5 -79 4.5s-24.667 8.16699 -36 15.5c-19.333 14.667 -59.666 64 -120.999 148l-57.5 82c-16.333 24 -26.5 38.333 -30.5 43c-12 16.667 -18 33 -18 49c0 13.333 11.833 27.5 35.5 42.5s63.834 22.5 120.501 22.5c20 0 37 -2 51 -6c16 -5.33301 29 -14 39 -26
s26.333 -35.333 49 -70l19.5 -27.5l27.5 -38.5l45.5 64c14.333 20.667 29 40.334 44 59.001s26.833 30.334 35.5 35.001c14 5.33301 27.667 8.66602 41 9.99902h18c41.333 0 73.5 -4 96.5 -12s39 -17 48 -27s13.5 -18.667 13.5 -26z" />
    <glyph glyph-name="ccaron" unicode="&#x10d;" horiz-adv-x="1018" 
d="M913 918v-8.99805v-8c0 -49.333 -5.66699 -89.666 -17 -120.999s-38.333 -47 -81 -47c-8 0 -45.667 4.16699 -113 12.5s-121 12.5 -161 12.5c-35.333 0 -60.5 -3.83301 -75.5 -11.5s-24 -18.834 -27 -33.501s-5.83301 -41.334 -8.5 -80.001c-2.66699 -34 -4 -81 -4 -141
c0 -55.333 2.66699 -118.333 8 -189c2 -20 5.66699 -35.667 11 -47s15.5 -19 30.5 -23s36.833 -6 65.5 -6c36 0 88 4.16699 156 12.5s107.333 12.5 118 12.5c28 0 50.667 -9.66699 68 -29c4.66699 -4.66699 9.33398 -14.834 14.001 -30.501s8.5 -33.834 11.5 -54.501
s4.5 -41.334 4.5 -62.001c0 -32 -7.16699 -54.167 -21.5 -66.5s-52.166 -21.5 -113.499 -27.5c-50.667 -6 -109.334 -9 -176.001 -9c-98.667 0 -179.167 8.16699 -241.5 24.5s-111.833 43.833 -148.5 82.5s-62.667 91.5 -78 158.5s-23 151.5 -23 253.5
c0 101.333 7.83301 185.833 23.5 253.5s41.667 120.667 78 159s85.333 65.833 147 82.5s142.5 25 242.5 25c53.333 0 112 -3.66699 176 -11c61.333 -5.33301 99.166 -13.666 113.499 -24.999s21.5 -30.666 21.5 -57.999zM889 1522c0 -16 -6.00195 -32.334 -18.002 -49.001
l-91 -123c-66.667 -90.667 -106 -140.667 -118 -150c-8.66699 -8 -20 -13.333 -34 -16s-41 -4 -81 -4s-66.333 1.5 -79 4.5s-24.667 8.16699 -36 15.5c-19.333 14.667 -59.666 64 -120.999 148l-57.5 82c-16.333 24 -26.5 38.333 -30.5 43c-12 16.667 -18 33 -18 49
c0 13.333 11.833 27.5 35.5 42.5s63.834 22.5 120.501 22.5c20 0 37 -2 51 -6c16 -5.33301 29 -14 39 -26s26.333 -35.333 49 -70l19.5 -27.5l27.5 -38.5l45.5 64c14.333 20.667 29 40.334 44 59.001s26.833 30.334 35.5 35.001c14 5.33301 27.667 8.66602 41 9.99902h18
c41.333 0 73.5 -4 96.5 -12s39 -17 48 -27s13.5 -18.667 13.5 -26z" />
    <glyph glyph-name="dcroat" unicode="&#x111;" horiz-adv-x="1184" 
d="M1169 1176c0 -28 -7.66602 -48.001 -22.999 -60.001s-46.333 -18 -93 -18v-985c0 -76.667 -35.667 -115 -107 -115h-72c-56.667 0 -94 11.667 -112 35c-90 -40 -175.333 -60 -256 -60c-130 0 -228.333 45 -295 135s-100 213 -100 369c0 179.333 37.667 313.333 113 402
s191.666 133 348.999 133c48 0 104.667 -4.33301 170 -13v99h-200c-75.333 0 -113 21.667 -113 65v56c0 40.667 37.667 61 113 61h200v18c0 40 9.5 68.5 28.5 85.5s47.167 25.5 84.5 25.5h90c37.333 0 64.5 -11.667 81.5 -35s25.5 -48.666 25.5 -75.999v-18
c38.667 0 67.667 -4 87 -12s29 -24.333 29 -49v-43zM743.001 304.999v430.001c-66.667 15.333 -126 23 -178 23c-32 0 -55.667 -4.33301 -71 -13c-48 -24.667 -72 -122 -72 -292c0 -150.667 42.333 -226 127 -226c26 0 56.5 6.66699 91.5 20s69.167 32.666 102.5 57.999z
" />
    <glyph glyph-name="dotlessi" unicode="&#x131;" horiz-adv-x="594" 
d="M455 106c0 -70.667 -35.667 -106.001 -107 -106.001h-78c-28.667 0 -52.667 2.83301 -72 8.5s-34 15.834 -44 30.501s-15 37 -15 67v744c0 38 9.5 64.5 28.5 79.5s47.167 22.5 84.5 22.5h96c38 0 65.333 -10.5 82 -31.5s25 -44.5 25 -70.5v-744z" />
    <glyph glyph-name="Lslash" unicode="&#x141;" horiz-adv-x="1196" 
d="M1167 104c0 -69.333 -36.666 -104.001 -109.999 -104.001h-576c-40.667 0 -71.334 8.33301 -92.001 25s-31 45.334 -31 86.001v297l-20 -19c-28 -24.667 -54 -37 -78 -37c-26.667 0 -51.334 13 -74.001 39l-22 25c-19.333 23.333 -32.666 41.166 -39.999 53.499
s-11 26.5 -11 42.5c0 26.667 14.333 53.334 43 80.001l202 194v478c0 42.667 11.833 70.667 35.5 84s52.834 20 87.501 20h88c74 0 111 -34.667 111 -104v-168l111 106c25.333 26 51 39 77 39c29.333 0 56 -15.667 80 -47l33 -39c20.667 -24 31 -48.667 31 -74
c0 -28.667 -12.333 -56 -37 -82l-295 -282v-447c141.333 2.66699 267 4 377 4c32 0 56.167 -6.16699 72.5 -18.5s26.666 -26.333 30.999 -42s6.5 -34.167 6.5 -55.5v-54z" />
    <glyph glyph-name="lslash" unicode="&#x142;" horiz-adv-x="1034" 
d="M930 1036c0 -31.333 -13.668 -61.333 -41.001 -90l-240 -237v-594c0 -76.667 -35.333 -115 -106 -115h-74c-45.333 0 -78.5 7.66699 -99.5 23s-31.5 46 -31.5 92v286l-16 -16c-26 -26 -50.667 -39 -74 -39c-24 0 -49.333 14.333 -76 43l-29 31
c-26 29.333 -39 54.666 -39 75.999c0 22.667 16.667 50.667 50 84l184 184v534c0 40.667 9.5 69.334 28.5 86.001s47.167 25 84.5 25h92c38 0 65.167 -11.5 81.5 -34.5s24.5 -48.5 24.5 -76.5v-229l70 72c22.667 24.667 46.667 37 72 37c24.667 0 52.334 -16 83.001 -48
l23 -22c22 -22 33 -46 33 -72z" />
    <glyph glyph-name="OE" unicode="&#x152;" horiz-adv-x="1845" 
d="M1733 104c0 -69.333 -37.0049 -103.994 -111.005 -103.994h-893c-121.333 0 -221.666 13.333 -300.999 40s-142.166 67.167 -188.499 121.5s-79 122.666 -98 204.999s-28.5 183.5 -28.5 303.5c0 145.333 12.667 264.666 38 357.999s62.833 164.166 112.5 212.499
s111.334 81.666 185.001 99.999s167.167 27.5 280.5 27.5h893c74 0 111 -34.667 111 -104v-54c0 -21.333 -2.16699 -39.833 -6.5 -55.5s-14.666 -29.667 -30.999 -42s-40.833 -18.5 -73.5 -18.5c-70.667 0 -116.834 0.166992 -138.501 0.5l-126 2
c-62.333 1 -120.166 2.16699 -173.499 3.5v-262c48 1.33301 98.667 2.5 152 3.5s90 1.66699 110 2s63.667 0.5 131 0.5c47.333 0 77.666 -11.333 90.999 -34s20 -50.334 20 -83.001v-27c0 -32 -6.66699 -59.333 -20 -82s-43.666 -34 -90.999 -34
c-55.333 0 -114.5 0.666992 -177.5 2s-134.833 2.66602 -215.5 3.99902v-322c242 4 388 6 438 6c46.667 0 76.834 -11.167 90.501 -33.5s20.5 -49.833 20.5 -82.5v-54zM861.995 279.006v811.002c-12 0.666992 -23.667 1.16699 -35 1.5s-30.333 0.5 -57 0.5
c-76 0 -136.5 -6.16699 -181.5 -18.5s-77.667 -31.5 -98 -57.5s-33.5 -59.333 -39.5 -100s-9 -98.334 -9 -173.001v-77c0 -112.667 7.5 -195.834 22.5 -249.501s45.167 -90.5 90.5 -110.5s117 -30 215 -30l56.5 2c19 0.666992 30.833 1 35.5 1z" />
    <glyph glyph-name="oe" unicode="&#x153;" horiz-adv-x="1794" 
d="M1681 539c0 -42.667 -3.16504 -74.166 -9.49805 -94.499s-16.833 -33.333 -31.5 -39s-37.667 -8.5 -69 -8.5h-477c-2.66699 -21.333 -4 -37 -4 -47c0 -50 13.667 -86.667 41 -110s71 -35 131 -35c40.667 0 80.834 2.83301 120.501 8.5s88.834 14.5 147.501 26.5
c26.667 6.66699 44.334 10 53.001 10c35.333 0 58.166 -13.167 68.499 -39.5s15.5 -59.5 15.5 -99.5c0 -31.333 -6.5 -56.333 -19.5 -75s-37.833 -30.667 -74.5 -36c-116 -18 -220.333 -27 -313 -27c-82.667 0 -151.834 8.66699 -207.501 26s-97.834 47 -126.501 89
c-33.333 -38 -77.333 -66.667 -132 -86s-117.334 -29 -188.001 -29c-115.333 0 -210 20.667 -284 62s-127.667 100.666 -161 177.999s-50 170.333 -50 279c0 346.667 165 520 495 520c75.333 0 142 -9 200 -27s98 -46.667 120 -86c34 42.667 76.5 72.167 127.5 88.5
s116.167 24.5 195.5 24.5c91.333 0 165.666 -10.167 222.999 -30.5s100.833 -50.166 130.5 -89.499s50.167 -87.833 61.5 -145.5s17 -126.834 17 -207.501zM1389 600.001v48.999c0 48.667 -9 82.667 -27 102s-55 29 -111 29c-42.667 0 -75.334 -6.16699 -98.001 -18.5
s-38.167 -31.166 -46.5 -56.499s-13.166 -60.333 -14.499 -105h297zM788.002 492c0 105.333 -10.668 176.999 -32.001 214.999c-10.667 18.667 -25.167 31.834 -43.5 39.501s-53.833 11.5 -106.5 11.5s-88 -3.66699 -106 -11s-32.333 -20.666 -43 -39.999
c-22 -40.667 -33 -112.334 -33 -215.001c0 -108.667 11 -180.667 33 -216c10.667 -18 25.167 -30.667 43.5 -38s53.5 -11 105.5 -11s87.333 3.83301 106 11.5s33.334 20.167 44.001 37.5c21.333 36 32 108 32 216z" />
    <glyph glyph-name="Scaron" unicode="&#x160;" horiz-adv-x="1145" 
d="M1032 430c0 -140.667 -13.6699 -236.333 -41.0029 -287c-25.333 -44.667 -61.666 -79 -108.999 -103s-99.333 -39.667 -156 -47s-117 -11 -181 -11c-96 0 -197.667 4.66699 -305 14c-48 4 -81.167 13.333 -99.5 28s-27.5 36 -27.5 64v68c0 46 7 77.167 21 93.5
s41 24.5 81 24.5c27.333 0 69.666 -2.66699 126.999 -8c54.667 -5.33301 132.334 -8 233.001 -8c50 0 83.5 1.83301 100.5 5.5s28.167 12.167 33.5 25.5s8 37.666 8 72.999v58c0 29.333 -3.33301 49.833 -10 61.5s-22.667 22.5 -48 32.5l-260 104
c-80 34 -137.833 64.333 -173.5 91s-60.667 61.667 -75 105s-21.5 107.333 -21.5 192c0 70.667 7.33301 130.834 22 180.501s42.667 90.667 84 123s100.333 53.833 177 64.5c38 5.33301 104 8 198 8h31c58.667 0 137.334 -3.33301 236.001 -10
c48.667 -2.66699 82.334 -11.5 101.001 -26.5s28 -36.833 28 -65.5v-66c0 -45.333 -7 -76.333 -21 -93s-41.333 -25 -82 -25c-11.333 0 -42.5 1.66699 -93.5 5s-93.5 5 -127.5 5c-24.667 0.666992 -48 1.16699 -70 1.5s-48.667 0.5 -80 0.5
c-38 0 -62.167 -6.83301 -72.5 -20.5s-15.5 -38.834 -15.5 -75.501v-25c0 -29.333 3.16699 -49.833 9.5 -61.5s22.5 -23.167 48.5 -34.5l94 -37.5l76 -30.5c111.333 -46 190 -82.5 236 -109.5s78.167 -61.167 96.5 -102.5s27.5 -101.666 27.5 -180.999zM916.997 1903
c0 -16 -6.00195 -32.334 -18.002 -49.001l-91 -123c-66.667 -90.667 -106 -140.667 -118 -150c-8.66699 -8 -20 -13.333 -34 -16s-41 -4 -81 -4s-66.333 1.5 -79 4.5s-24.667 8.16699 -36 15.5c-19.333 14.667 -59.666 64 -120.999 148l-57.5 82
c-16.333 24 -26.5 38.333 -30.5 43c-12 16.667 -18 33 -18 49c0 13.333 11.833 27.5 35.5 42.5s63.834 22.5 120.501 22.5c20 0 37 -2 51 -6c16 -5.33301 29 -14 39 -26s26.333 -35.333 49 -70l19.5 -27.5l27.5 -38.5l45.5 64c14.333 20.667 29 40.334 44 59.001
s26.833 30.334 35.5 35.001c14 5.33301 27.667 8.66602 41 9.99902h18c41.333 0 73.5 -4 96.5 -12s39 -17 48 -27s13.5 -18.667 13.5 -26z" />
    <glyph glyph-name="scaron" unicode="&#x161;" horiz-adv-x="1071" 
d="M938 299c0 -64 -7.16211 -116.833 -21.4951 -158.5s-37.333 -74.667 -69 -99s-73.834 -41.833 -126.501 -52.5s-117 -16 -193 -16c-134.667 0 -233.667 4.33301 -297 13c-21.333 2.66699 -37 6.33398 -47 11.001s-17.5 14.167 -22.5 28.5s-7.5 39.166 -7.5 74.499v35
c0 34.667 5.33301 62.5 16 83.5s32.667 31.5 66 31.5c-3.33301 0 31 -4.16699 103 -12.5s144.667 -12.5 218 -12.5c22 0 38.667 1.33301 50 4s19.166 8 23.499 16s6.5 19.333 6.5 34c0 28.667 -2.66699 45 -8 49c-6 6.66699 -27.333 15.167 -64 25.5l-135 36.5
c-53.333 14 -98.833 28.333 -136.5 43s-67.834 32 -90.501 52c-48 44 -72 111.667 -72 203c0 74 12.333 133.5 37 178.5s58.167 77.667 100.5 98s91.166 33.333 146.499 39s124 8.5 206 8.5c68 0 119 -1.33301 153 -4c44.667 -3.33301 76.667 -13 96 -29s29 -46 29 -90
c0 -50 -5.5 -86.833 -16.5 -110.5s-38.167 -35.5 -81.5 -35.5c-6.66699 0 -38.5 2.83301 -95.5 8.5s-116.167 8.5 -177.5 8.5c-30.667 0 -51.834 -1 -63.501 -3s-20 -7.16699 -25 -15.5s-7.5 -21.5 -7.5 -39.5c0 -12 3.16699 -21.167 9.5 -27.5s15.166 -11.333 26.499 -15
s51.333 -15.834 120 -36.501c82 -23.333 138.333 -39.833 169 -49.5s60.334 -24.167 89.001 -43.5s51.167 -47.666 67.5 -84.999s24.5 -86 24.5 -146zM869.005 1522c0 -16 -6.00195 -32.334 -18.002 -49.001l-91 -123c-66.667 -90.667 -106 -140.667 -118 -150
c-8.66699 -8 -20 -13.333 -34 -16s-41 -4 -81 -4s-66.333 1.5 -79 4.5s-24.667 8.16699 -36 15.5c-19.333 14.667 -59.666 64 -120.999 148l-57.5 82c-16.333 24 -26.5 38.333 -30.5 43c-12 16.667 -18 33 -18 49c0 13.333 11.833 27.5 35.5 42.5s63.834 22.5 120.501 22.5
c20 0 37 -2 51 -6c16 -5.33301 29 -14 39 -26s26.333 -35.333 49 -70l19.5 -27.5l27.5 -38.5l45.5 64c14.333 20.667 29 40.334 44 59.001s26.833 30.334 35.5 35.001c14 5.33301 27.667 8.66602 41 9.99902h18c41.333 0 73.5 -4 96.5 -12s39 -17 48 -27
s13.5 -18.667 13.5 -26z" />
    <glyph glyph-name="Ydieresis" unicode="&#x178;" horiz-adv-x="1305" 
d="M1239 1282c0 -24.667 -6.66699 -48.001 -20 -70.001l-402 -682v-419c0 -74 -36.667 -111 -110 -111h-89c-40 0 -70.333 8.33301 -91 25s-31 45.334 -31 86.001v403l-408 698c-14.667 28 -22 51.333 -22 70c0 31.333 10.833 53.5 32.5 66.5s44.834 19.5 69.501 19.5h111
c32.667 0 58 -5.83301 76 -17.5s33.333 -29.167 46 -52.5l258 -448l265 450c13.333 23.333 28.833 40.5 46.5 51.5s43.167 16.5 76.5 16.5h90c33.333 0 58.666 -8.16699 75.999 -24.5s26 -36.833 26 -61.5zM1010 1655c0 -22.667 -7.66699 -42 -23 -58s-34.333 -24 -57 -24
h-133c-21.333 0 -40 8 -56 24s-24 35.333 -24 58v137c0 22.667 8 42 24 58s34.667 24 56 24h133c22.667 0 41.667 -8 57 -24s23 -35.333 23 -58v-137zM582 1655c0 -22 -7.5 -41.167 -22.5 -57.5s-33.5 -24.5 -55.5 -24.5h-133c-21.333 0 -40 8 -56 24s-24 35.333 -24 58v137
c0 22.667 8 42 24 58s34.667 24 56 24h133c22 0 40.5 -8.16699 55.5 -24.5s22.5 -35.5 22.5 -57.5v-137z" />
    <glyph glyph-name="Zcaron" unicode="&#x17d;" horiz-adv-x="1188" 
d="M1122 1288c0 -24 -7.33301 -47.667 -22 -71l-606 -959c229.333 10.667 397 16 503 16c46.667 0 76.834 -11.167 90.501 -33.5s20.5 -49.833 20.5 -82.5v-54c0 -69.333 -37 -104 -111 -104h-825c-30.667 0 -56 9.16699 -76 27.5s-30 41.833 -30 70.5
c0 31.333 12.667 67 38 107l566 895c-154 -4 -303 -6 -447 -6c-74.667 0 -112 38.667 -112 116v54c0 69.333 37.333 104 112 104h809c31.333 0 54.166 -7.33301 68.499 -22s21.5 -34 21.5 -58zM991 1907c0 -16 -6.00195 -32.334 -18.002 -49.001l-91 -123
c-66.667 -90.667 -106 -140.667 -118 -150c-8.66699 -8 -20 -13.333 -34 -16s-41 -4 -81 -4s-66.333 1.5 -79 4.5s-24.667 8.16699 -36 15.5c-19.333 14.667 -59.666 64 -120.999 148l-57.5 82c-16.333 24 -26.5 38.333 -30.5 43c-12 16.667 -18 33 -18 49
c0 13.333 11.833 27.5 35.5 42.5s63.834 22.5 120.501 22.5c20 0 37 -2 51 -6c16 -5.33301 29 -14 39 -26s26.333 -35.333 49 -70l19.5 -27.5l27.5 -38.5l45.5 64c14.333 20.667 29 40.334 44 59.001s26.833 30.334 35.5 35.001c14 5.33301 27.667 8.66602 41 9.99902h18
c41.333 0 73.5 -4 96.5 -12s39 -17 48 -27s13.5 -18.667 13.5 -26z" />
    <glyph glyph-name="zcaron" unicode="&#x17e;" horiz-adv-x="1055" 
d="M952 104c0 -36.667 -10.501 -63.168 -31.501 -79.501s-47.167 -24.5 -78.5 -24.5h-635c-30.667 0 -55.5 8.66699 -74.5 26s-28.5 39.333 -28.5 66v35c0 33.333 13 66 39 98l396 510c-22.667 -2 -59 -4.33301 -109 -7s-89.5 -4.5 -118.5 -5.5s-51.5 -1.5 -67.5 -1.5
c-33.333 0 -58 6.33301 -74 19s-26.167 26.834 -30.5 42.501s-6.5 34.167 -6.5 55.5v36c0 38 10.333 65.333 31 82s47.334 25 80.001 25h602c29.333 0 52 -7.66699 68 -23s24 -36.333 24 -63v-57c0 -30 -9.66699 -56.667 -29 -80l-399 -510c141.333 8 252 12 332 12
c73.333 0 110 -39 110 -117v-39zM872.999 1524c0 -16 -6.00195 -32.334 -18.002 -49.001l-91 -123c-66.667 -90.667 -106 -140.667 -118 -150c-8.66699 -8 -20 -13.333 -34 -16s-41 -4 -81 -4s-66.333 1.5 -79 4.5s-24.667 8.16699 -36 15.5
c-19.333 14.667 -59.666 64 -120.999 148l-57.5 82c-16.333 24 -26.5 38.333 -30.5 43c-12 16.667 -18 33 -18 49c0 13.333 11.833 27.5 35.5 42.5s63.834 22.5 120.501 22.5c20 0 37 -2 51 -6c16 -5.33301 29 -14 39 -26s26.333 -35.333 49 -70l19.5 -27.5l27.5 -38.5
l45.5 64c14.333 20.667 29 40.334 44 59.001s26.833 30.334 35.5 35.001c14 5.33301 27.667 8.66602 41 9.99902h18c41.333 0 73.5 -4 96.5 -12s39 -17 48 -27s13.5 -18.667 13.5 -26z" />
    <glyph glyph-name="florin" unicode="&#x192;" horiz-adv-x="1085" 
d="M1057 1221c0 -51.333 -6.6748 -84.3359 -20.0078 -99.0029s-34.666 -22 -63.999 -22c-3.33301 0 -14.333 1.33301 -33 4l-35 6c-24 4 -47.667 6 -71 6c-22.667 0 -40.667 -4.66699 -54 -14s-23.333 -21.5 -30 -36.5s-12.334 -35 -17.001 -60l-10 -53.5h78
c79.333 0 119 -33.333 119 -100v-27c0 -42.667 -8.16699 -74.5 -24.5 -95.5s-47.833 -31.5 -94.5 -31.5h-129l-107 -569c-13.333 -73.333 -26 -133.166 -38 -179.499s-31 -90.333 -57 -132s-62.167 -74.5 -108.5 -98.5s-106.833 -36 -181.5 -36
c-49.333 0 -86.833 6.83301 -112.5 20.5s-38.5 42.167 -38.5 85.5v57c0 40.667 10.333 66.667 31 78s51.334 17 92.001 17c21.333 0 37.333 5.16699 48 15.5s18.334 23.833 23.001 40.5s12.334 53 23.001 109l112 592h-20c-75.333 0 -113 36.333 -113 109v45
c0 35.333 11.5 60.833 34.5 76.5s49.167 23.5 78.5 23.5h70c20 88.667 35.667 152.334 47 191.001s30.833 78 58.5 118s65.334 70.833 113.001 92.5s109.834 32.5 186.501 32.5c14.667 0 36.334 -1.66699 65.001 -5s51.334 -5.66602 68.001 -6.99902
c34.667 -3.33301 61.834 -12 81.501 -26s29.5 -38.667 29.5 -74v-53z" />
    <glyph glyph-name="circumflex" unicode="&#x2c6;" horiz-adv-x="684" 
d="M684 1188c0 -14 -11.833 -28.4971 -35.5 -43.4971s-64.5 -22.5 -122.5 -22.5c-18.667 0 -33.834 1.83301 -45.501 5.5s-22.5 10 -32.5 19s-20.167 21.167 -30.5 36.5l-28.5 42l-20.5 29.5c-5.66699 8.33301 -14.5 20.166 -26.5 35.499l-68 -95.5
c-24.667 -34.333 -44.334 -54.833 -59.001 -61.5c-8.66699 -7.33301 -28.334 -11 -59.001 -11c-56.667 0 -96.834 7.5 -120.501 22.5s-35.5 29.5 -35.5 43.5c0 14.667 6.83301 33.167 20.5 55.5s28.834 44.166 45.501 65.499l36 47c64 87.333 105.667 138.333 125 153
c18 14 56.333 21 115 21c44 0 72.167 -1.33301 84.5 -4s22.5 -8.33398 30.5 -17.001c8.66699 -5.33301 23.334 -20.5 44.001 -45.5s42.834 -53.833 66.501 -86.5l62 -86.5c17.667 -25 29.834 -42.833 36.501 -53.5c12 -16.667 18 -33 18 -49z" />
    <glyph glyph-name="caron" unicode="&#x2c7;" horiz-adv-x="684" 
d="M684 1487c0 -16 -6.00195 -32.334 -18.002 -49.001l-91 -123c-66.667 -90.667 -106 -140.667 -118 -150c-8.66699 -8 -20 -13.333 -34 -16s-41 -4 -81 -4s-66.333 1.5 -79 4.5s-24.667 8.16699 -36 15.5c-19.333 14.667 -59.666 64 -120.999 148l-57.5 82
c-16.333 24 -26.5 38.333 -30.5 43c-12 16.667 -18 33 -18 49c0 13.333 11.833 27.5 35.5 42.5s63.834 22.5 120.501 22.5c20 0 37 -2 51 -6c16 -5.33301 29 -14 39 -26s26.333 -35.333 49 -70l19.5 -27.5l27.5 -38.5l45.5 64c14.333 20.667 29 40.334 44 59.001
s26.833 30.334 35.5 35.001c14 5.33301 27.667 8.66602 41 9.99902h18c41.333 0 73.5 -4 96.5 -12s39 -17 48 -27s13.5 -18.667 13.5 -26z" />
    <glyph glyph-name="macron" unicode="&#x2c9;" horiz-adv-x="637" 
d="M637 1282c0 -45.333 -7.00098 -77.501 -21.001 -96.501s-42.667 -28.5 -86 -28.5h-428c-37.333 0 -63.666 8.66699 -78.999 26s-23 44.333 -23 81v30c0 34.667 10.5 59.834 31.5 75.501s44.5 23.5 70.5 23.5h428c71.333 0 107 -33 107 -99v-12z" />
    <glyph glyph-name="breve" unicode="&#x2d8;" horiz-adv-x="705" 
d="M705 1473c0 -64.667 -15.5 -122.5 -46.5 -173.5s-73.667 -91.167 -128 -120.5s-113.166 -44 -176.499 -44c-64 0 -123.333 14.5 -178 43.5s-97.667 69 -129 120s-47 109.167 -47 174.5c0 24 2.83301 42.333 8.5 55s17.834 22.334 36.501 29.001s47.334 10 86.001 10
c37.333 0 61.666 -5.66699 72.999 -17s17 -30.333 17 -57c0 -52.667 10 -92.5 30 -119.5s54.333 -40.5 103 -40.5c49.333 0 83.833 13.167 103.5 39.5s29.5 66.5 29.5 120.5c0 49.333 29.333 74 88 74c39.333 0 68.166 -3.16699 86.499 -9.5s30.166 -15.833 35.499 -28.5
s8 -31.334 8 -56.001z" />
    <glyph glyph-name="dotaccent" unicode="&#x2d9;" horiz-adv-x="315" 
d="M315 1194c0 -74 -34.667 -111.001 -104 -111.001h-80c-45.333 0 -78.5 7.33301 -99.5 22s-31.5 44.334 -31.5 89.001v68c0 70.667 37.667 106 113 106h98c36.667 0 63.167 -10.833 79.5 -32.5s24.5 -46.167 24.5 -73.5v-68z" />
    <glyph glyph-name="ring" unicode="&#x2da;" horiz-adv-x="406" 
d="M406 1339c0 -38 -9.16699 -72.998 -27.5 -104.998s-43 -57.333 -74 -76s-64.833 -28 -101.5 -28c-55.333 0 -103 20.833 -143 62.5s-60 90.5 -60 146.5c0 37.333 9 72 27 104s42.333 57.5 73 76.5s65 28.5 103 28.5c36.667 0 70.5 -9.33301 101.5 -28
s55.667 -43.834 74 -75.501s27.5 -66.834 27.5 -105.501zM283 1339c0 22.667 -7.66602 42 -22.999 58s-34.333 24 -57 24c-22 0 -40.5 -8.16699 -55.5 -24.5s-22.5 -35.5 -22.5 -57.5s7.66699 -40.667 23 -56s33.666 -23 54.999 -23s40 8 56 24s24 34.333 24 55z" />
    <glyph glyph-name="tilde" unicode="&#x2dc;" horiz-adv-x="756" 
d="M756 1389c0 -14 -7.66895 -38.001 -23.002 -72.001c-52 -109.333 -125.667 -164 -221 -164c-26 0 -49.5 2.33301 -70.5 7s-43.5 11.334 -67.5 20.001l-75 28c-20.667 6 -33.667 9 -39 9c-12 0 -25.167 -8.33301 -39.5 -25s-25.5 -28.667 -33.5 -36s-22.667 -11 -44 -11
h-69c-49.333 0 -74 21.667 -74 65c0 19.333 10.333 47.333 31 84c57.333 106.667 129.666 160 216.999 160c28 0 54 -3.5 78 -10.5s56.333 -17.167 97 -30.5s68.334 -20 83.001 -20c7.33301 0 15.333 6.5 24 19.5s17.834 23.5 27.501 31.5s25.834 12 48.501 12h74
c50.667 0 76 -22.333 76 -67z" />
    <glyph glyph-name="uniF006" unicode="&#x3c0;" horiz-adv-x="1413" 
d="M505 916v-916h-180v916h-280v146h1324v-146h-242v-916h-180v916h-442z" />
    <glyph glyph-name="uniF006" unicode="&#xf006;" horiz-adv-x="1413" 
d="M505 916v-916h-180v916h-280v146h1324v-146h-242v-916h-180v916h-442z" />
    <glyph glyph-name="endash" unicode="&#x2013;" horiz-adv-x="1130" 
d="M1112 477c0 -45.333 -6.83301 -77.5 -20.5 -96.5s-42.167 -28.5 -85.5 -28.5h-883c-37.333 0 -64.166 8.83301 -80.499 26.5s-24.5 44.5 -24.5 80.5v59c0 34 10.667 58.833 32 74.5s45.666 23.5 72.999 23.5h883c70.667 0 106 -32.667 106 -98v-41z" />
    <glyph glyph-name="emdash" unicode="&#x2014;" horiz-adv-x="2124" 
d="M2105 477c0 -45.333 -6.83301 -77.5 -20.5 -96.5s-42.167 -28.5 -85.5 -28.5h-1876c-37.333 0 -64.166 8.83301 -80.499 26.5s-24.5 44.5 -24.5 80.5v59c0 34 10.667 58.833 32 74.5s45.666 23.5 72.999 23.5h1876c70.667 0 106 -32.667 106 -98v-41z" />
    <glyph glyph-name="quoteleft" unicode="&#x2018;" horiz-adv-x="584" 
d="M498 1108c0 -28 -21.1689 -51.333 -63.502 -70s-75.166 -28 -98.499 -28c-44 0 -78.333 19 -103 57c-0.666992 1.33301 -25 38.333 -73 111s-76.667 121 -86 145c-5.33301 13.333 -8 22.333 -8 27c0 27.333 12.167 46.666 36.5 57.999s47.5 17 69.5 17h78
c30.667 0 53.834 -5 69.501 -15s31.5 -29.333 47.5 -58l106 -174c16.667 -29.333 25 -52.666 25 -69.999z" />
    <glyph glyph-name="quoteright" unicode="&#x2019;" horiz-adv-x="584" 
d="M516 1350c0 -16.667 -4 -31.002 -12 -43.002c-12 -21.333 -38 -62.166 -78 -122.499l-78 -117.5c-24 -38 -58 -57 -102 -57c-22 0 -54.5 9.5 -97.5 28.5s-64.5 42.167 -64.5 69.5c0 20 8.33301 43.333 25 70l106 174c18.667 28.667 35.5 48 50.5 58s37.167 15 66.5 15h78
c12.667 0 27.167 -2.16699 43.5 -6.5s30.833 -12.166 43.5 -23.499s19 -26.333 19 -45z" />
    <glyph glyph-name="quotesinglbase" unicode="&#x201a;" horiz-adv-x="586" 
d="M518 96c0 -13.333 -4.66797 -27.667 -14.001 -43c-14 -24 -26.167 -44 -36.5 -60l-44.5 -67l-42.5 -63l-32.5 -49c-24 -38.667 -57.333 -58 -100 -58c-9.33301 0 -28.166 4.16699 -56.499 12.5s-53.333 20 -75 35s-32.5 32.167 -32.5 51.5c0 18 9 41 27 69l104 174
c18 29.333 34.5 49 49.5 59s37.5 15 67.5 15h78c12.667 0 27.5 -2.33301 44.5 -7s31.833 -12.5 44.5 -23.5s19 -26.167 19 -45.5z" />
    <glyph glyph-name="quotedblleft" unicode="&#x201c;" horiz-adv-x="1065" 
d="M979 1108c0 -28 -21.1689 -51.335 -63.502 -70.002s-75.166 -28 -98.499 -28c-44 0 -78 19 -102 57l-57 84.5l-63.5 96.5c-19.667 31.333 -33.5 56.333 -41.5 75c-4 10 -6 19 -6 27c0 26.667 12.5 45.834 37.5 57.501s47.833 17.5 68.5 17.5h78
c30.667 0 53.834 -5 69.501 -15s31.5 -29.333 47.5 -58l104 -174c18 -29.333 27 -52.666 27 -69.999zM497.998 1108c0 -28 -21.1689 -51.333 -63.502 -70s-75.166 -28 -98.499 -28c-44 0 -78.333 19 -103 57c-0.666992 1.33301 -25 38.333 -73 111s-76.667 121 -86 145
c-5.33301 13.333 -8 22.333 -8 27c0 27.333 12.167 46.666 36.5 57.999s47.5 17 69.5 17h78c30.667 0 53.834 -5 69.501 -15s31.5 -29.333 47.5 -58l106 -174c16.667 -29.333 25 -52.666 25 -69.999z" />
    <glyph glyph-name="quotedblright" unicode="&#x201d;" horiz-adv-x="1065" 
d="M997 1350c0 -12.667 -5.33398 -27.001 -16.001 -43.001c-14.667 -26 -31.667 -53.833 -51 -83.5l-52 -79.5l-51 -77c-24 -38 -57.333 -57 -100 -57c-21.333 0 -53.666 9.5 -96.999 28.5s-65 42.167 -65 69.5c0 22 7.66699 45.333 23 70l106 174c18 28.667 35 48 51 58
s38.667 15 68 15h78c13.333 0 28 -2.16699 44 -6.5s30.333 -12.166 43 -23.499s19 -26.333 19 -45zM515.999 1350c0 -16.667 -4 -31.002 -12 -43.002c-12 -21.333 -38 -62.166 -78 -122.499l-78 -117.5c-24 -38 -58 -57 -102 -57c-22 0 -54.5 9.5 -97.5 28.5
s-64.5 42.167 -64.5 69.5c0 20 8.33301 43.333 25 70l106 174c18.667 28.667 35.5 48 50.5 58s37.167 15 66.5 15h78c12.667 0 27.167 -2.16699 43.5 -6.5s30.833 -12.166 43.5 -23.499s19 -26.333 19 -45z" />
    <glyph glyph-name="quotedblbase" unicode="&#x201e;" horiz-adv-x="1083" 
d="M1016 96c0 -14 -4.99902 -28.334 -14.999 -43.001c-14.667 -25.333 -38.167 -62.833 -70.5 -112.5l-82.5 -126.5c-25.333 -38.667 -59.666 -58 -102.999 -58c-22 0 -54.333 9.33301 -97 28s-64 42.334 -64 71.001c0 19.333 8 42.333 24 69l107 174
c19.333 30 36.166 49.833 50.499 59.5s36.166 14.5 65.499 14.5h78c22 0 45.333 -5.83301 70 -17.5s37 -31.167 37 -58.5zM518.001 95.999c0 -13.333 -4.66797 -27.667 -14.001 -43c-14 -24 -26.167 -44 -36.5 -60l-44.5 -67l-42.5 -63l-32.5 -49
c-24 -38.667 -57.333 -58 -100 -58c-9.33301 0 -28.166 4.16699 -56.499 12.5s-53.333 20 -75 35s-32.5 32.167 -32.5 51.5c0 18 9 41 27 69l104 174c18 29.333 34.5 49 49.5 59s37.5 15 67.5 15h78c12.667 0 27.5 -2.33301 44.5 -7s31.833 -12.5 44.5 -23.5
s19 -26.167 19 -45.5z" />
    <glyph glyph-name="dagger" unicode="&#x2020;" horiz-adv-x="1163" 
d="M1051 889c0 -43.333 -8 -75.001 -24 -95.001s-47 -30 -93 -30h-197v-653c0 -74 -34.667 -111 -104 -111h-74c-45.333 0 -78.5 7.33301 -99.5 22s-31.5 44.334 -31.5 89.001v653h-201c-40.667 0 -69.834 9.33301 -87.501 28s-26.5 45.334 -26.5 80.001v43
c0 35.333 11.833 60.666 35.5 75.999s49.834 23 78.501 23h201v248c0 70.667 37.667 106 113 106h92c36.667 0 63.167 -10.833 79.5 -32.5s24.5 -46.167 24.5 -73.5v-248h197c78 0 117 -33 117 -99v-26z" />
    <glyph glyph-name="daggerdbl" unicode="&#x2021;" horiz-adv-x="1163" 
d="M1051 477c0 -43.333 -7.83105 -74.668 -23.498 -94.001s-46.834 -29 -93.501 -29h-197v-243c0 -74 -34.667 -111 -104 -111h-74c-45.333 0 -78.5 7.33301 -99.5 22s-31.5 44.334 -31.5 89.001v243h-201c-40 0 -69 9 -87 27s-27 44.667 -27 80v43
c0 35.333 11.667 60.833 35 76.5s49.666 23.5 78.999 23.5h201v160h-201c-40.667 0 -69.834 9.33301 -87.501 28s-26.5 45.334 -26.5 80.001v43c0 35.333 11.833 60.666 35.5 75.999s49.834 23 78.501 23h201v248c0 70.667 37.667 106 113 106h92
c36.667 0 63.167 -10.833 79.5 -32.5s24.5 -46.167 24.5 -73.5v-248h197c78 0 117 -33 117 -99v-26c0 -43.333 -8 -75 -24 -95s-47 -30 -93 -30h-197v-160h197c78 0 117 -33.333 117 -100v-27z" />
    <glyph glyph-name="bullet" unicode="&#x2022;" horiz-adv-x="918" 
d="M795 643c0 -60 -15.1689 -116.666 -45.502 -169.999s-71.5 -96 -123.5 -128s-107.667 -48 -167 -48c-93.333 0 -172.666 33.5 -237.999 100.5s-98 148.833 -98 245.5c0 48.667 8.66699 94 26 136s41.5 78.833 72.5 110.5s66.667 56.167 107 73.5s83.833 26 130.5 26
c60.667 0 116.834 -15.333 168.501 -46s92.5 -72.834 122.5 -126.501s45 -111.5 45 -173.5z" />
    <glyph glyph-name="ellipsis" unicode="&#x2026;" horiz-adv-x="1901" 
d="M1778 172c0 -18.667 -6.50098 -39.499 -19.501 -62.499s-31.167 -46.333 -54.5 -70s-46.166 -42.334 -68.499 -56.001s-41.833 -20.5 -58.5 -20.5c-54 0 -114 45 -180 135c-16.667 20.667 -25 43.334 -25 68.001c0 25.333 11.833 54.5 35.5 87.5s51.5 61.5 83.5 85.5
s59.333 36 82 36c50.667 0 110.667 -45 180 -135c16.667 -24.667 25 -47.334 25 -68.001zM1155 172.001c0 -18.667 -6.5 -39.5 -19.5 -62.5s-31.167 -46.333 -54.5 -70s-46.166 -42.334 -68.499 -56.001s-41.833 -20.5 -58.5 -20.5c-54 0 -114 45 -180 135
c-17.333 22.667 -26 45.334 -26 68.001c0 25.333 12 54.5 36 87.5s52 61.5 84 85.5s59.333 36 82 36c49.333 0 108.666 -45 177.999 -135c18 -25.333 27 -48 27 -68zM529.999 172.001c0 -25.333 -11.8311 -54.5 -35.498 -87.5s-51.334 -61.5 -83.001 -85.5
s-58.834 -36 -81.501 -36c-55.333 0 -115.333 45 -180 135c-18 22 -27 44.667 -27 68c0 17.333 7.16699 38.5 21.5 63.5s32.666 48.667 54.999 71s44.833 40.333 67.5 54s42.334 20.5 59.001 20.5c50.667 0 110.667 -45 180 -135c16 -24 24 -46.667 24 -68z" />
    <glyph glyph-name="perthousand" unicode="&#x2030;" horiz-adv-x="2669" 
d="M2546 365c0 -74 -8.33203 -139.67 -24.999 -197.003s-48.5 -104.166 -95.5 -140.499s-112.833 -54.5 -197.5 -54.5c-122.667 0 -206.167 36.167 -250.5 108.5s-66.5 166.833 -66.5 283.5s22.167 211 66.5 283s127.833 108 250.499 108
c84.667 0 150.5 -18.167 197.5 -54.5s78.833 -83.166 95.5 -140.499s25 -122.666 25 -195.999zM1784 364.997c0 -74 -8.33301 -139.67 -25 -197.003s-48.5 -104.166 -95.5 -140.499s-112.833 -54.5 -197.5 -54.5c-122.667 0 -206.167 36.167 -250.5 108.5
s-66.5 166.833 -66.5 283.5s22.167 211 66.5 283s127.833 108 250.5 108c84.667 0 150.5 -18.167 197.5 -54.5s78.833 -83.166 95.5 -140.499s25 -122.666 25 -195.999zM1442 1336.99c0 -11.333 -3.33301 -24.332 -10 -38.999l-748 -1335
c-8.66699 -14.667 -20 -25.834 -34 -33.501s-29.333 -11.5 -46 -11.5h-6c-9.33301 0 -16 1.33301 -20 4l-95 58c-14.667 8 -22 25.667 -22 53c0 15.333 3.33301 28.333 10 39l750 1335c16.667 30 41.667 45 75 45h7c9.33301 0 16 -1.33301 20 -4l96 -57
c15.333 -8.66699 23 -26.667 23 -54zM756.001 1004c0 -74 -8.33301 -139.671 -25 -197.004s-48.5 -104.166 -95.5 -140.499s-112.833 -54.5 -197.5 -54.5s-150.167 18.167 -196.5 54.5s-77.666 83.333 -93.999 141s-24.5 123.167 -24.5 196.5
c0 72.667 8.16699 137.834 24.5 195.501s47.666 104.667 93.999 141s111.833 54.5 196.5 54.5s150.5 -18.167 197.5 -54.5s78.833 -83.166 95.5 -140.499s25 -122.666 25 -195.999zM2327 364.991c0 41.333 -2.50098 78.835 -7.50098 112.502s-10.833 57.5 -17.5 71.5
c-10.667 17.333 -35.334 26 -74 26c-40.667 0 -64.334 -8.66699 -71 -26c-16.667 -32 -25 -93.333 -25 -184c0 -91.333 8.33301 -153 25 -185c6.66699 -17.333 30.334 -26 71 -26c38.667 0 63.334 8.66699 74.001 26c7.33301 15.333 13.333 39.666 18 72.999
s7 70.666 7 111.999zM1565 364.993c0 85.333 -9 146.667 -27 184c-10.667 17.333 -34.667 26 -72 26c-42 0 -66.333 -8.66699 -73 -26c-16.667 -32 -25 -93.333 -25 -184c0 -91.333 8.33301 -153 25 -185c6.66699 -17.333 31 -26 73 -26c37.333 0 61.333 8.66699 72 26
c18 37.333 27 99 27 185zM537 1003.99c0 41.333 -2.5 78.835 -7.5 112.502s-10.833 57.5 -17.5 71.5c-10.667 17.333 -35.334 26 -74.001 26c-40.667 0 -64.334 -8.66699 -71.001 -26c-16.667 -32 -25 -93.333 -25 -184c0 -91.333 8.33301 -153 25 -185
c6.66699 -17.333 30.334 -26 71.001 -26c38.667 0 63.334 8.66699 74.001 26c7.33301 15.333 13.333 39.666 18 72.999s7 70.666 7 111.999z" />
    <glyph glyph-name="guilsinglleft" unicode="&#x2039;" horiz-adv-x="678" 
d="M612 180c0 -16 -11.501 -31.5 -34.501 -46.5s-64.5 -22.5 -124.5 -22.5c-31.333 0 -56.166 3.5 -74.499 10.5s-34.5 20.5 -48.5 40.5c-138 182.667 -207 287.667 -207 315c0 11.333 12.667 36.833 38 76.5s59.333 88.834 102 147.501l67 92
c13.333 19.333 29.333 32.666 48 39.999s43.667 11 75 11c60 0 101.5 -7.5 124.5 -22.5s34.5 -30.833 34.5 -47.5c0 -10 -4.66699 -24.333 -14 -43l-164 -254l164 -254c9.33301 -18.667 14 -33 14 -43z" />
    <glyph glyph-name="guilsinglright" unicode="&#x203a;" horiz-adv-x="680" 
d="M557 477c0 -6 -9.33301 -25.667 -28 -59s-40 -66.333 -64 -99l-54 -73.5l-63 -83.5c-14 -20 -29.667 -33.5 -47 -40.5s-42 -10.5 -74 -10.5c-60.667 0 -102.667 7.66699 -126 23s-35 30.666 -35 45.999c0 10 4.66699 24.333 14 43l164 254l-164 254
c-9.33301 18.667 -14 33 -14 43c0 16 11.667 31.667 35 47s65.333 23 126 23c32 0 56.833 -3.66699 74.5 -11s33.167 -20.666 46.5 -39.999l67.5 -92c43 -58.667 77.333 -107.667 103 -147s38.5 -65 38.5 -77z" />
    <glyph glyph-name="uni2044" unicode="&#x2044;" horiz-adv-x="967" 
d="M1001 1397c0 -18.667 -5.33105 -39.334 -15.998 -62.001l-760 -1355c-23.333 -42.667 -52 -64 -86 -64c-18.667 0 -38.334 7 -59.001 21l-47 30c-22 16 -37.167 28.667 -45.5 38s-12.5 22 -12.5 38s8.33301 40 25 72l762 1353c23.333 41.333 50.666 62 81.999 62
c20 0 42.333 -7.66699 67 -23l37 -22c35.333 -21.333 53 -50.666 53 -87.999z" />
    <glyph glyph-name="Euro" unicode="&#x20ac;" horiz-adv-x="1284" 
d="M1167 77c0 -55.333 -40.9971 -85.667 -122.997 -91c-102.667 -6.66699 -178.334 -10 -227.001 -10c-180.667 0 -315.334 33.333 -404.001 100s-145.334 178.334 -170.001 335.001h-110c-63.333 0 -95 22 -95 66c0 9.33301 1.66699 21 5 35l4 22
c13.333 62.667 58.333 94 135 94h45c-1.33301 15.333 -2 30.333 -2 45c0 22 0.666992 43.333 2 64h-98c-63.333 0 -95 21.667 -95 65c0 10 1.33301 21.667 4 35l5 23c13.333 62.667 58.333 94 135 94h67c27.333 169.333 89 286.666 185 351.999
c84.667 57.333 213.667 86 387 86c48.667 0 124.334 -3.33301 227.001 -10c82 -5.33301 123 -36 123 -92v-66c0 -47.333 -7.5 -77.5 -22.5 -90.5s-40.167 -19.5 -75.5 -19.5c-23.333 0 -58.666 1.66699 -105.999 5s-82.333 5 -105 5
c-105.333 0 -179.166 -11.667 -221.499 -35s-69.5 -68.333 -81.5 -135h469c66.667 0 100 -22 100 -66c0 -8 -1.33301 -17.333 -4 -28l-6 -25c-8.66699 -36.667 -22.834 -62.167 -42.501 -76.5s-51.5 -21.5 -95.5 -21.5h-434v-109h410c66.667 0 100 -21.667 100 -65
c0 -8.66699 -1.33301 -18.334 -4 -29.001l-6 -25c-8 -36.667 -22 -62.167 -42 -76.5s-51.667 -21.5 -95 -21.5h-348c13.333 -69.333 42.666 -115.666 87.999 -138.999c38 -19.333 109 -29 213 -29c22.667 0 57.667 1.66699 105 5s82.666 5 105.999 5
c36.667 0 62.167 -6.33301 76.5 -19s21.5 -43 21.5 -91v-66z" />
    </font>
</defs>
</svg>
